<svg width="240" height="210" viewBox="0 0 240 210" fill="none" xmlns="http://www.w3.org/2000/svg">
<g clip-path="url(#clip0_1529_30653)">
<path d="M79.3189 121.469C79.3189 121.469 79.444 121.932 79.6942 122.783C79.9569 123.634 80.3697 124.86 81.0453 126.374C82.3713 129.365 84.8607 133.495 89.2141 137.049C93.5049 140.615 99.6847 143.369 106.615 144.069C110.118 144.445 113.67 144.332 117.298 143.769C120.876 143.218 124.529 142.155 127.906 140.766C131.322 139.351 134.574 137.562 137.526 135.497C140.541 133.395 143.156 131.117 145.52 128.627C147.884 126.124 149.811 123.596 151.487 120.931C153.113 118.328 154.377 115.725 155.315 113.259C156.241 110.832 156.891 108.404 157.242 106.414C157.617 104.349 157.767 102.547 157.805 101.07C157.867 98.1171 157.592 96.4777 157.592 96.4777L167.937 95.6643C167.937 95.6643 168.138 97.8918 167.787 101.721C167.6 103.623 167.249 105.926 166.586 108.466C165.911 111.082 164.973 113.772 163.622 116.713C162.283 119.617 160.544 122.595 158.418 125.523C156.328 128.402 153.739 131.33 150.887 133.945C148.035 136.573 144.707 139.064 141.254 141.116C137.739 143.218 133.961 144.97 130.021 146.284C126.043 147.598 122.027 148.462 117.949 148.812C113.908 149.163 109.792 149 106.015 148.324C98.3461 146.998 91.716 143.456 87.2876 139.214C82.8091 134.984 80.4698 130.354 79.2814 127.088C78.6809 125.448 78.3307 124.109 78.118 123.208C77.9304 122.307 77.8303 121.819 77.8303 121.819L79.3189 121.469Z" fill="url(#paint0_linear_1529_30653)"/>
<path d="M148.61 102.847C148.61 102.847 148.798 101.471 148.66 99.1808C148.522 96.8907 147.947 93.5494 146.008 90.1831C144.995 88.4812 143.806 86.9169 142.042 85.4402C140.404 84.0261 138.377 82.8122 136.163 81.8987C133.949 80.9851 131.509 80.397 128.995 80.1342C127.744 80.0215 126.468 79.9465 125.192 79.984C124.566 79.984 123.953 80.0466 123.228 80.0841C122.59 80.1592 122.014 80.1967 121.376 80.3094C116.31 81.0227 111.494 83.025 107.628 85.6529C105.664 86.992 104.026 88.4061 102.587 89.9829C101.198 91.4971 100.035 93.1239 99.1343 94.6632C97.3329 97.7667 96.5072 100.62 96.157 102.597C95.8067 104.587 95.8067 105.726 95.8067 105.726L86.6621 104.862C86.6621 104.862 86.8247 103.26 87.5628 100.57C88.3009 97.9044 89.7645 94.1751 92.4791 90.3833C93.8302 88.4812 95.4564 86.5915 97.4454 84.802C99.3719 83.05 101.686 81.3731 104.138 80.0341C109.079 77.2934 114.934 75.4789 120.876 75.1785C121.602 75.1285 122.415 75.1285 123.153 75.116C123.803 75.141 124.566 75.141 125.317 75.2036C126.793 75.2787 128.257 75.5039 129.683 75.7667C132.548 76.3298 135.3 77.2684 137.764 78.5449C140.229 79.8338 142.405 81.4106 144.194 83.2627C145.933 84.9897 147.322 87.1421 148.222 89.0693C150.061 93.0614 150.324 96.7155 150.249 99.1683C150.211 100.395 150.099 101.383 149.999 102.034C149.899 102.672 149.848 103.01 149.848 103.01L148.61 102.847Z" fill="url(#paint1_linear_1529_30653)"/>
<path d="M159.356 88.9067C159.356 88.9067 159.206 88.4687 158.93 87.6302C158.643 86.8168 158.18 85.6154 157.442 84.1763C156.003 81.3105 153.389 77.3435 149.11 73.8521C144.87 70.3731 138.94 67.4198 132.197 66.4812C128.782 65.9806 125.342 65.9556 121.802 66.4311C118.287 66.9067 114.809 67.8578 111.494 69.2468C104.851 71.9874 98.9966 76.3925 94.5182 81.2855C90.0147 86.1911 86.8122 91.5847 84.9233 96.3652C84.4354 97.579 84.0601 98.6928 83.6973 99.8816C83.3721 100.958 83.1094 102.022 82.8967 103.023C82.4714 105.025 82.2712 106.764 82.1962 108.191C82.046 111.044 82.2712 112.621 82.2712 112.621L71.0125 113.122C71.0125 113.122 70.8874 110.882 71.4128 107.102C71.6755 105.225 72.1259 102.96 72.8639 100.47C73.2392 99.2309 73.6771 97.9294 74.2275 96.5529C74.7279 95.2889 75.3534 93.8498 76.0414 92.4607C78.8185 86.8168 83.0593 80.8725 88.7137 75.6166C94.3431 70.3731 101.449 65.893 109.28 63.3526C113.183 62.0762 117.273 61.2753 121.301 61.0625C125.304 60.8373 129.395 61.1877 133.073 62.0386C140.579 63.703 146.846 67.4948 151.149 71.637C155.49 75.8168 157.905 80.2343 159.206 83.4004C159.856 84.9897 160.232 86.2787 160.482 87.1672C160.694 88.0557 160.819 88.5187 160.819 88.5187L159.356 88.9067Z" fill="url(#paint2_linear_1529_30653)"/>
<path d="M133.586 112.183C133.586 112.183 133.924 111.445 134.499 110.156C134.649 109.83 134.812 109.48 134.974 109.092C135.1 108.717 135.237 108.304 135.387 107.878C135.662 106.965 135.9 105.926 136.05 104.787C136.351 102.51 136.213 99.7815 135.125 97.2786C134.074 94.7883 131.972 92.6609 129.395 91.6097C126.818 90.5209 123.891 90.4208 121.339 90.984C118.712 91.5471 116.56 92.6984 114.846 93.9498C113.17 95.1888 112.007 96.5027 111.269 97.4538C110.531 98.4174 110.18 99.0056 110.18 99.0056L104.764 95.1512C104.764 95.1512 105.327 94.4004 106.452 93.2365C107.591 92.0727 109.305 90.5209 111.719 89.1194C114.071 87.7553 117.211 86.5289 120.613 86.2035C124.041 85.8531 127.856 86.3913 131.109 88.2183C134.387 90.0079 136.788 93.1364 137.739 96.3401C138.727 99.5687 138.49 102.685 137.902 105.125C137.601 106.364 137.226 107.453 136.826 108.391C136.588 108.917 136.463 109.217 136.2 109.718C135.988 110.081 135.788 110.419 135.6 110.731C134.887 111.945 134.474 112.646 134.474 112.646L133.586 112.183Z" fill="url(#paint3_linear_1529_30653)"/>
<path d="M92.0538 111.47C92.0538 111.47 92.0663 111.795 92.0788 112.408C92.1038 112.997 92.1539 113.848 92.329 114.936C92.6542 117.089 93.4674 120.192 95.5315 123.258C96.5197 124.747 97.9583 126.337 99.5471 127.576C101.186 128.877 103.137 129.966 105.289 130.742C107.441 131.505 109.78 131.981 112.182 132.106C114.546 132.256 117.061 132.018 119.425 131.543C124.216 130.554 128.72 128.414 132.36 125.724C133.286 125.06 134.136 124.347 134.962 123.634L136.188 122.507L137.239 121.431C138.64 119.929 139.828 118.403 140.791 116.914C142.718 113.948 143.794 111.245 144.344 109.33C144.907 107.415 145.045 106.314 145.045 106.314L152.788 107.916C152.788 107.916 152.475 109.367 151.562 111.77C150.662 114.16 149.035 117.439 146.408 120.843C145.095 122.545 143.544 124.259 141.742 125.899C141.267 126.312 140.791 126.737 140.304 127.15C139.828 127.526 139.353 127.901 138.865 128.289C137.839 129.052 136.776 129.803 135.65 130.491C131.172 133.282 125.792 135.334 120.201 136.06C117.386 136.398 114.596 136.448 111.819 136.073C109.067 135.722 106.402 134.972 104.001 133.883C101.599 132.794 99.447 131.367 97.6956 129.728C95.8692 128.051 94.5682 126.324 93.5299 124.497C91.4783 120.881 90.8904 117.452 90.7278 115.136C90.6402 113.973 90.6527 113.034 90.6777 112.408C90.7152 111.795 90.7278 111.482 90.7278 111.482L92.0538 111.47Z" fill="url(#paint4_linear_1529_30653)"/>
<path d="M116.71 100.657C116.71 100.657 115.685 101.458 114.759 103.06C113.833 104.599 113.333 107.177 114.496 108.792C114.997 109.505 115.81 110.043 116.648 110.231C116.848 110.281 117.098 110.318 117.261 110.331C117.636 110.381 117.661 110.356 117.911 110.356C118.324 110.343 118.712 110.281 119.075 110.193C120.513 109.83 121.314 109.167 121.314 109.167L123.691 113.635C123.691 113.635 123.303 113.822 122.602 114.06C121.902 114.298 120.876 114.586 119.588 114.648C118.95 114.673 118.249 114.661 117.511 114.536C117.186 114.486 116.635 114.361 116.423 114.285C115.997 114.16 115.66 114.035 115.259 113.847C113.758 113.159 112.357 111.883 111.644 110.193C110.956 108.604 110.993 106.802 111.394 105.4C111.794 103.961 112.507 102.822 113.208 101.971C113.908 101.108 114.609 100.532 115.109 100.144C115.622 99.7564 115.922 99.5938 115.922 99.5938L116.71 100.657Z" fill="url(#paint5_linear_1529_30653)"/>
<path d="M124.054 109.781C124.054 109.781 125.067 108.98 125.88 107.39C126.28 106.602 126.593 105.613 126.605 104.612C126.643 103.599 126.355 102.585 125.792 101.822C125.242 101.058 124.441 100.57 123.616 100.357C123.228 100.257 122.753 100.195 122.39 100.195C121.989 100.195 121.614 100.245 121.264 100.307C119.863 100.608 119.087 101.208 119.087 101.208L116.848 96.5155C116.848 96.5155 117.236 96.3528 117.949 96.1651C118.662 95.9774 119.7 95.7646 120.976 95.7771C121.614 95.7897 122.302 95.8522 123.015 96.0149C123.766 96.1901 124.441 96.4154 125.192 96.8033C126.631 97.5291 127.932 98.8181 128.595 100.357C129.27 101.884 129.32 103.561 128.982 104.938C128.657 106.339 127.994 107.465 127.331 108.304C126.668 109.142 125.98 109.718 125.492 110.081C124.992 110.444 124.704 110.606 124.704 110.606L124.054 109.781Z" fill="url(#paint6_linear_1529_30653)"/>
<path d="M104.001 100.395C104.001 100.395 102.024 103.448 101.411 106.264C100.798 109.08 99.9974 114.498 104.288 119.529C104.288 119.529 108.391 124.86 116.848 124.91C116.848 124.91 122.615 125.248 128.945 121.744C128.945 121.744 133.236 119.316 135.412 116.763L129.833 112.046C129.833 112.046 127.406 115.587 122.915 117.815C122.915 117.815 116.46 121.444 110.18 118.803C110.18 118.803 104.438 117.001 103.413 109.518C103.413 109.518 103.037 104.187 105.051 100.87L104.001 100.395Z" fill="url(#paint7_linear_1529_30653)"/>
</g>
<defs>
<linearGradient id="paint0_linear_1529_30653" x1="161.764" y1="95.9204" x2="83.6023" y2="73.3291" gradientUnits="userSpaceOnUse">
<stop stop-color="#D8D8D8"/>
<stop offset="0.288174" stop-color="#919191"/>
<stop offset="1" stop-color="#444444"/>
</linearGradient>
<linearGradient id="paint1_linear_1529_30653" x1="90.5872" y1="105.468" x2="128.905" y2="131.438" gradientUnits="userSpaceOnUse">
<stop stop-color="#D8D8D8"/>
<stop offset="0.269639" stop-color="#919191"/>
<stop offset="1" stop-color="#444444"/>
</linearGradient>
<linearGradient id="paint2_linear_1529_30653" x1="76.5429" y1="112.682" x2="138.234" y2="134.717" gradientUnits="userSpaceOnUse">
<stop stop-color="#D8D8D8"/>
<stop offset="0.288174" stop-color="#919191"/>
<stop offset="1" stop-color="#444444"/>
</linearGradient>
<linearGradient id="paint3_linear_1529_30653" x1="104.95" y1="99.4125" x2="116.909" y2="119.876" gradientUnits="userSpaceOnUse">
<stop stop-color="#D8D8D8"/>
<stop offset="0.331064" stop-color="#919191"/>
<stop offset="1" stop-color="#444444"/>
</linearGradient>
<linearGradient id="paint4_linear_1529_30653" x1="149.986" y1="107.095" x2="114.604" y2="78.5491" gradientUnits="userSpaceOnUse">
<stop stop-color="#D8D8D8"/>
<stop offset="0.288174" stop-color="#919191"/>
<stop offset="1" stop-color="#444444"/>
</linearGradient>
<linearGradient id="paint5_linear_1529_30653" x1="125.043" y1="110.587" x2="125.178" y2="101.744" gradientUnits="userSpaceOnUse">
<stop stop-color="#D8D8D8"/>
<stop offset="0.500549" stop-color="#919191"/>
<stop offset="1" stop-color="#444444"/>
</linearGradient>
<linearGradient id="paint6_linear_1529_30653" x1="113.264" y1="100.111" x2="114.409" y2="109.789" gradientUnits="userSpaceOnUse">
<stop stop-color="#D8D8D8"/>
<stop offset="0.551338" stop-color="#919191"/>
<stop offset="1" stop-color="#444444"/>
</linearGradient>
<linearGradient id="paint7_linear_1529_30653" x1="131.971" y1="111.286" x2="117.428" y2="90.9453" gradientUnits="userSpaceOnUse">
<stop stop-color="#D8D8D8"/>
<stop offset="0.424241" stop-color="#919191"/>
<stop offset="1" stop-color="#444444"/>
</linearGradient>
<clipPath id="clip0_1529_30653">
<rect width="97" height="88" fill="white" transform="translate(71 61)"/>
</clipPath>
</defs>
</svg>
