<svg fill="none" xmlns="http://www.w3.org/2000/svg" viewBox="63 72 239 63">
  <path d="M297.247 93.3673C298.487 93.6009 299.421 93.9693 300.086 94.4634L300.095 94.4724L300.113 94.4814C300.769 94.9216 301.236 95.5506 301.506 96.3771L301.515 96.3861V96.4041C301.829 97.2396 302 98.3627 302 99.8002C302 100.941 301.802 101.867 301.443 102.621V102.63C301.128 103.322 300.58 103.915 299.745 104.409C298.891 104.903 297.714 105.308 296.169 105.577C294.597 105.802 292.638 105.937 290.275 105.937H289.377V109.144L290.185 109.225C290.626 109.279 291.057 109.315 291.506 109.342C291.955 109.369 292.405 109.378 292.845 109.378C295.271 109.378 297.723 109.027 300.176 108.344L300.886 112.801C298.02 113.501 295.199 113.852 292.423 113.852C288.55 113.852 285.945 112.953 284.408 111.354C282.854 109.71 281.983 107.122 281.983 103.421C281.983 99.7103 282.845 97.1408 284.408 95.5326V95.5236C285.972 93.8974 288.568 92.99 292.423 92.99C294.381 92.99 295.98 93.1248 297.247 93.3673ZM295.873 100.061V97.4193H293.231C292.162 97.4193 291.237 97.5271 290.581 97.8236H290.572C289.637 98.2549 289.377 99.2342 289.377 100.133V102.783H292.018C293.069 102.783 294.004 102.684 294.642 102.379C295.585 101.947 295.873 100.995 295.873 100.061Z" fill="white"></path>
  <path d="M279.826 93.1787L280.213 99.36C280.069 99.387 279.925 99.4139 279.773 99.4409C279.278 99.5487 278.766 99.6655 278.245 99.8182H278.236H278.227C277.706 99.9799 277.221 100.178 276.763 100.42C276.278 100.645 275.864 100.941 275.55 101.319L275.343 101.57V113.223H268.587V93.6189H271.588L274.292 96.3592L274.93 95.7752C276.269 94.5354 277.904 93.6639 279.826 93.1787Z" fill="white"></path>
  <path d="M264.301 93.6189V113.205H261.291L258.353 110.357L257.734 111.103C256.233 112.899 254.068 113.843 251.121 113.843C248.677 113.843 247.096 113.322 246.171 112.477C245.272 111.624 244.715 110.114 244.715 107.68V93.6189H251.471V109.405H253.691C254.742 109.405 255.676 109.306 256.314 109C257.257 108.569 257.545 107.617 257.545 106.682V93.6189H264.301Z" fill="white"></path>
  <path d="M255.311 113.978C255.311 113.99 255.298 113.99 255.311 113.978C255.298 113.99 255.298 113.978 255.311 113.978Z" fill="white"></path>
  <path d="M240.978 109.081C241.139 109.099 241.301 109.117 241.472 109.135L241.184 113.672C239.63 113.654 238.327 113.6 237.276 113.511C236.018 113.412 235.183 113.259 234.707 113.088C233.79 112.756 233.17 112.37 232.775 111.965C232.46 111.624 232.236 111.04 232.236 110.079V97.3477H230.098V93.6191H232.236V89.9984L238.992 88.3093V93.6191H241.948V97.3477H238.992V108.713L239.711 108.857C240.079 108.929 240.475 109 240.924 109.081H240.951H240.978V109.081Z" fill="white"></path>
  <path d="M227.339 99.4409C226.845 99.5487 226.333 99.6655 225.803 99.8182H225.794C225.273 99.9799 224.788 100.178 224.329 100.42C223.853 100.645 223.431 100.941 223.116 101.319L222.91 101.57V113.223H216.154V93.6189H219.154L221.859 96.3592L222.497 95.7752C223.835 94.5354 225.47 93.6639 227.393 93.1787L227.779 99.36C227.636 99.387 227.492 99.4139 227.339 99.4409Z" fill="white"></path>
  <path d="M208.194 93.3673C209.442 93.6009 210.377 93.9693 211.042 94.4634L211.051 94.4724L211.069 94.4814C211.724 94.9216 212.192 95.5506 212.461 96.3771L212.47 96.3861V96.4041C212.785 97.2396 212.955 98.3627 212.955 99.8002C212.955 100.941 212.758 101.867 212.398 102.621V102.63C212.084 103.322 211.536 103.915 210.7 104.409C209.838 104.903 208.661 105.308 207.124 105.577C205.552 105.802 203.602 105.937 201.231 105.937H200.332V109.144L201.141 109.225C201.581 109.279 202.012 109.315 202.461 109.342C202.911 109.369 203.36 109.378 203.8 109.378C206.235 109.378 208.679 109.027 211.131 108.344L211.841 112.801C208.975 113.501 206.154 113.852 203.378 113.852C199.506 113.852 196.9 112.953 195.364 111.354C193.809 109.71 192.938 107.122 192.938 103.421C192.938 99.7103 193.8 97.1408 195.364 95.5326V95.5236C196.927 93.8974 199.524 92.99 203.378 92.99C205.336 92.99 206.936 93.1248 208.194 93.3673ZM206.828 100.061V97.4193H204.186C203.117 97.4193 202.192 97.5271 201.536 97.8236L201.518 97.8326C200.611 98.2549 200.332 99.2252 200.332 100.133V102.783H202.974C204.025 102.783 204.959 102.684 205.597 102.379C206.54 101.947 206.828 100.995 206.828 100.061Z" fill="white"></path>
  <path d="M189.919 99.324C190.234 100.627 190.395 101.992 190.395 103.421C190.395 104.804 190.261 106.107 189.982 107.32C189.721 108.506 189.281 109.539 188.688 110.438C188.113 111.282 187.35 111.956 186.379 112.459C185.445 112.944 184.241 113.214 182.732 113.214H176.919V119.692L170.153 120.195V93.6189H173.073L175.131 96.413L175.85 95.3618C176.865 93.8704 178.823 92.981 182.094 92.981C183.693 92.981 184.978 93.2685 185.984 93.7985C187.035 94.3556 187.853 95.0833 188.473 96.0087L188.482 96.0177L188.491 96.0267C189.146 96.9431 189.623 98.0302 189.91 99.306L189.919 99.324ZM182.983 106.682V97.4103H180.764C180.117 97.4103 179.587 97.4372 179.156 97.4911C178.581 97.554 178.087 97.8056 177.673 98.174C177.152 98.6142 176.937 99.2341 176.91 99.881V99.899V109.404H179.129C180.18 109.404 181.114 109.306 181.752 109C182.696 108.569 182.983 107.617 182.983 106.682Z" fill="white"></path>
  <path d="M161.905 88.2732L168.356 113.205H161.205L160.207 108.964H151.726L150.756 113.205H143.613L150.064 88.2732H161.905V88.2732ZM159.057 103.951L156.946 94.6701H155.05L152.885 103.951H159.057Z" fill="white"></path>
  <g clip-path="url(#bw_light_horizontal_logo_clip0)">
    <path d="M69.0033 115.29C69.0033 115.29 69.0936 115.622 69.2742 116.231C69.4638 116.84 69.7617 117.718 70.2492 118.802C71.2061 120.943 73.0026 123.9 76.1442 126.444C79.2406 128.998 83.7003 130.969 88.7016 131.47C91.2293 131.739 93.7931 131.658 96.4111 131.255C98.993 130.861 101.629 130.1 104.067 129.105C106.531 128.093 108.878 126.812 111.009 125.333C113.184 123.828 115.071 122.198 116.777 120.415C118.484 118.623 119.874 116.813 121.084 114.905C122.257 113.041 123.169 111.178 123.846 109.413C124.514 107.675 124.983 105.937 125.236 104.512C125.507 103.034 125.615 101.744 125.642 100.687C125.688 98.5726 125.489 97.399 125.489 97.399L132.955 96.8167C132.955 96.8167 133.099 98.4114 132.847 101.153C132.711 102.515 132.458 104.163 131.98 105.982C131.492 107.854 130.815 109.78 129.84 111.886C128.874 113.964 127.62 116.097 126.085 118.193C124.577 120.254 122.709 122.35 120.65 124.222C118.592 126.104 116.191 127.887 113.699 129.356C111.162 130.861 108.436 132.115 105.592 133.056C102.721 133.997 99.8236 134.615 96.8806 134.866C93.9647 135.117 90.9946 135 88.2682 134.516C82.7343 133.567 77.9497 131.031 74.7539 127.994C71.522 124.966 69.8339 121.651 68.9763 119.313C68.5429 118.139 68.2902 117.181 68.1367 116.536C68.0013 115.89 67.9291 115.541 67.9291 115.541L69.0033 115.29Z" fill="url(#bw_light_horizontal_logo_paint0)"></path>
    <path d="M119.007 101.959C119.007 101.959 119.143 100.973 119.043 99.334C118.944 97.6945 118.529 95.3024 117.129 92.8924C116.398 91.674 115.541 90.5541 114.268 89.4969C113.085 88.4846 111.623 87.6155 110.025 86.9615C108.427 86.3075 106.666 85.8864 104.852 85.6983C103.949 85.6177 103.028 85.5639 102.108 85.5908C101.656 85.5908 101.214 85.6356 100.69 85.6625C100.23 85.7162 99.8145 85.7431 99.3541 85.8237C95.698 86.3344 92.2223 87.7678 89.4328 89.6492C88.0155 90.6078 86.8329 91.6202 85.7947 92.7491C84.7926 93.8331 83.9531 94.9978 83.3031 96.0997C82.0031 98.3216 81.4073 100.364 81.1545 101.78C80.9017 103.204 80.9017 104.02 80.9017 104.02L74.3026 103.401C74.3026 103.401 74.4199 102.255 74.9525 100.328C75.4852 98.4201 76.5414 95.7503 78.5004 93.0357C79.4754 91.674 80.649 90.3212 82.0843 89.04C83.4746 87.7857 85.1447 86.5852 86.9141 85.6266C90.48 83.6646 94.7049 82.3655 98.993 82.1505C99.5166 82.1147 100.103 82.1147 100.636 82.1057C101.105 82.1236 101.656 82.1236 102.198 82.1684C103.263 82.2222 104.319 82.3834 105.348 82.5716C107.416 82.9747 109.402 83.6467 111.18 84.5605C112.959 85.4833 114.53 86.6121 115.82 87.9381C117.075 89.1744 118.077 90.7154 118.727 92.095C120.054 94.953 120.244 97.569 120.19 99.325C120.163 100.203 120.082 100.911 120.009 101.377C119.937 101.834 119.901 102.075 119.901 102.075L119.007 101.959Z" fill="url(#bw_light_horizontal_logo_paint1)"></path>
    <path d="M126.762 91.9787C126.762 91.9787 126.654 91.6651 126.455 91.0649C126.247 90.4825 125.913 89.6225 125.381 88.5922C124.343 86.5405 122.456 83.7005 119.368 81.201C116.308 78.7103 112.029 76.596 107.163 75.9241C104.698 75.5657 102.216 75.5478 99.6611 75.8882C97.1243 76.2287 94.6146 76.9096 92.2223 77.904C87.4287 79.8661 83.2038 83.0196 79.9719 86.5226C76.7219 90.0346 74.4109 93.8959 73.0477 97.3183C72.6956 98.1873 72.4248 98.9847 72.163 99.8358C71.9283 100.606 71.7387 101.368 71.5852 102.084C71.2783 103.518 71.1339 104.763 71.0797 105.785C70.9714 107.827 71.1339 108.956 71.1339 108.956L63.009 109.314C63.009 109.314 62.9187 107.711 63.2979 105.005C63.4875 103.661 63.8125 102.04 64.3451 100.257C64.6159 99.3699 64.9319 98.4382 65.3291 97.4527C65.6902 96.5478 66.1416 95.5175 66.6381 94.523C68.6422 90.4825 71.7026 86.227 75.7831 82.4642C79.8455 78.7103 84.9732 75.503 90.6244 73.6843C93.441 72.7705 96.3931 72.1971 99.3 72.0448C102.189 71.8835 105.141 72.1344 107.795 72.7436C113.211 73.9352 117.734 76.6498 120.84 79.6152C123.972 82.6075 125.715 85.7701 126.654 88.0367C127.123 89.1745 127.394 90.0973 127.574 90.7334C127.728 91.3695 127.818 91.701 127.818 91.701L126.762 91.9787Z" fill="url(#bw_light_horizontal_logo_paint2)"></path>
    <path d="M108.165 108.643C108.165 108.643 108.409 108.114 108.824 107.191C108.932 106.958 109.05 106.707 109.167 106.43C109.257 106.161 109.357 105.865 109.465 105.561C109.664 104.907 109.835 104.163 109.944 103.348C110.16 101.717 110.061 99.7641 109.275 97.9723C108.517 96.1895 107.001 94.6664 105.141 93.9139C103.281 93.1344 101.169 93.0628 99.3271 93.4659C97.4313 93.8691 95.8785 94.6933 94.6417 95.5892C93.432 96.4762 92.5925 97.4169 92.0598 98.0977C91.5272 98.7876 91.2744 99.2087 91.2744 99.2087L87.3655 96.4493C87.3655 96.4493 87.7717 95.9117 88.5842 95.0786C89.4057 94.2454 90.6425 93.1344 92.3848 92.131C94.082 91.1545 96.348 90.2765 98.8035 90.0436C101.277 89.7927 104.03 90.178 106.378 91.486C108.743 92.7671 110.476 95.0069 111.162 97.3004C111.875 99.6118 111.704 101.843 111.28 103.59C111.063 104.477 110.792 105.256 110.503 105.928C110.332 106.304 110.241 106.519 110.052 106.878C109.898 107.137 109.754 107.379 109.619 107.603C109.104 108.472 108.806 108.974 108.806 108.974L108.165 108.643Z" fill="url(#bw_light_horizontal_logo_paint3)"></path>
    <path d="M78.1935 108.132C78.1935 108.132 78.2025 108.365 78.2115 108.804C78.2296 109.225 78.2657 109.834 78.3921 110.613C78.6268 112.154 79.2136 114.376 80.7031 116.571C81.4163 117.637 82.4545 118.775 83.601 119.662C84.7836 120.594 86.1919 121.373 87.7447 121.929C89.2974 122.475 90.9856 122.816 92.7189 122.905C94.4251 123.013 96.2396 122.843 97.9458 122.502C101.403 121.794 104.653 120.262 107.28 118.336C107.948 117.861 108.562 117.351 109.158 116.84L110.043 116.034L110.801 115.263C111.812 114.188 112.67 113.095 113.365 112.029C114.755 109.906 115.532 107.971 115.929 106.6C116.335 105.229 116.434 104.441 116.434 104.441L122.022 105.587C122.022 105.587 121.797 106.627 121.138 108.347C120.488 110.058 119.314 112.405 117.418 114.842C116.47 116.061 115.351 117.288 114.051 118.462C113.708 118.757 113.365 119.062 113.013 119.357C112.67 119.626 112.327 119.895 111.975 120.173C111.234 120.719 110.467 121.257 109.655 121.75C106.423 123.747 102.541 125.217 98.5056 125.736C96.4743 125.978 94.4612 126.014 92.4571 125.745C90.471 125.494 88.5481 124.957 86.8148 124.177C85.0815 123.398 83.5288 122.377 82.2649 121.203C80.9469 120.003 80.008 118.766 79.2587 117.458C77.7782 114.869 77.3539 112.414 77.2365 110.757C77.1733 109.924 77.1824 109.252 77.2004 108.804C77.2275 108.365 77.2365 108.141 77.2365 108.141L78.1935 108.132Z" fill="url(#bw_light_horizontal_logo_paint4)"></path>
    <path d="M95.9868 100.391C95.9868 100.391 95.2466 100.965 94.5785 102.111C93.9105 103.213 93.5494 105.059 94.389 106.215C94.7501 106.725 95.3369 107.11 95.9417 107.245C96.0861 107.281 96.2667 107.308 96.3841 107.316C96.6549 107.352 96.6729 107.334 96.8535 107.334C97.1514 107.325 97.4313 107.281 97.6931 107.218C98.7312 106.958 99.309 106.483 99.309 106.483L101.024 109.682C101.024 109.682 100.744 109.816 100.239 109.986C99.7333 110.157 98.993 110.363 98.0632 110.407C97.6028 110.425 97.0972 110.416 96.5646 110.327C96.3299 110.291 95.9327 110.201 95.7792 110.148C95.4723 110.058 95.2285 109.968 94.9396 109.834C93.8563 109.341 92.8452 108.427 92.3307 107.218C91.8342 106.08 91.8612 104.79 92.1501 103.787C92.439 102.756 92.9536 101.941 93.4591 101.332C93.9647 100.714 94.4702 100.302 94.8313 100.024C95.2014 99.7461 95.4181 99.6296 95.4181 99.6296L95.9868 100.391Z" fill="url(#bw_light_horizontal_logo_paint5)"></path>
    <path d="M101.286 106.922C101.286 106.922 102.017 106.349 102.604 105.211C102.893 104.647 103.119 103.939 103.128 103.222C103.155 102.497 102.947 101.771 102.541 101.224C102.144 100.678 101.566 100.328 100.97 100.176C100.69 100.104 100.347 100.06 100.085 100.06C99.7965 100.06 99.5257 100.095 99.2729 100.14C98.2618 100.355 97.7021 100.785 97.7021 100.785L96.0862 97.4257C96.0862 97.4257 96.366 97.3092 96.8806 97.1748C97.3951 97.0404 98.1444 96.8881 99.0653 96.8971C99.5257 96.9061 100.022 96.9509 100.537 97.0673C101.078 97.1928 101.566 97.354 102.108 97.6317C103.146 98.1514 104.085 99.0742 104.563 100.176C105.051 101.269 105.087 102.47 104.843 103.455C104.608 104.459 104.13 105.265 103.651 105.865C103.173 106.465 102.676 106.877 102.324 107.137C101.963 107.397 101.755 107.514 101.755 107.514L101.286 106.922Z" fill="url(#bw_light_horizontal_logo_paint6)"></path>
    <path d="M86.8148 100.203C86.8148 100.203 85.3884 102.389 84.9461 104.405C84.5037 106.421 83.926 110.3 87.0224 113.902C87.0224 113.902 89.9835 117.718 96.0862 117.754C96.0862 117.754 100.248 117.996 104.816 115.487C104.816 115.487 107.912 113.749 109.483 111.922L105.457 108.544C105.457 108.544 103.705 111.079 100.465 112.674C100.465 112.674 95.8063 115.272 91.2744 113.382C91.2744 113.382 87.1308 112.092 86.3905 106.734C86.3905 106.734 86.1197 102.918 87.5731 100.544L86.8148 100.203Z" fill="url(#bw_light_horizontal_logo_paint7)"></path>
  </g>
  <defs>
    <linearGradient id="bw_light_horizontal_logo_paint0" x1="128.5" y1="97" x2="72.1644" y2="80.5867" gradientUnits="userSpaceOnUse">
      <stop stop-color="#D8D8D8"></stop>
      <stop offset="0.288174" stop-color="#919191"></stop>
      <stop offset="1" stop-color="#444444"></stop>
    </linearGradient>
    <linearGradient id="bw_light_horizontal_logo_paint1" x1="77.1351" y1="103.835" x2="104.648" y2="122.631" gradientUnits="userSpaceOnUse">
      <stop stop-color="#D8D8D8"></stop>
      <stop offset="0.269639" stop-color="#919191"></stop>
      <stop offset="1" stop-color="#444444"></stop>
    </linearGradient>
    <linearGradient id="bw_light_horizontal_logo_paint2" x1="67" y1="109" x2="111.438" y2="125" gradientUnits="userSpaceOnUse">
      <stop stop-color="#D8D8D8"></stop>
      <stop offset="0.288174" stop-color="#919191"></stop>
      <stop offset="1" stop-color="#444444"></stop>
    </linearGradient>
    <linearGradient id="bw_light_horizontal_logo_paint3" x1="87.5" y1="99.5" x2="96.028" y2="114.209" gradientUnits="userSpaceOnUse">
      <stop stop-color="#D8D8D8"></stop>
      <stop offset="0.331064" stop-color="#919191"></stop>
      <stop offset="1" stop-color="#444444"></stop>
    </linearGradient>
    <linearGradient id="bw_light_horizontal_logo_paint4" x1="120" y1="105" x2="94.6282" y2="84.3655" gradientUnits="userSpaceOnUse">
      <stop stop-color="#D8D8D8"></stop>
      <stop offset="0.288174" stop-color="#919191"></stop>
      <stop offset="1" stop-color="#444444"></stop>
    </linearGradient>
    <linearGradient id="bw_light_horizontal_logo_paint5" x1="102" y1="107.5" x2="102.096" y2="101.169" gradientUnits="userSpaceOnUse">
      <stop stop-color="#D8D8D8"></stop>
      <stop offset="0.500549" stop-color="#919191"></stop>
      <stop offset="1" stop-color="#444444"></stop>
    </linearGradient>
    <linearGradient id="bw_light_horizontal_logo_paint6" x1="93.5" y1="100" x2="94.313" y2="106.93" gradientUnits="userSpaceOnUse">
      <stop stop-color="#D8D8D8"></stop>
      <stop offset="0.551338" stop-color="#919191"></stop>
      <stop offset="1" stop-color="#444444"></stop>
    </linearGradient>
    <linearGradient id="bw_light_horizontal_logo_paint7" x1="107" y1="108" x2="96.6151" y2="93.3597" gradientUnits="userSpaceOnUse">
      <stop stop-color="#D8D8D8"></stop>
      <stop offset="0.424241" stop-color="#919191"></stop>
      <stop offset="1" stop-color="#444444"></stop>
    </linearGradient>
    <clipPath id="bw_light_horizontal_logo_clip0">
      <rect width="70" height="63" fill="white" transform="translate(63 72)"></rect>
    </clipPath>
  </defs>
</svg>
