<svg fill="none" xmlns="http://www.w3.org/2000/svg" viewBox="100 38 158.39 134.93">
  <path d="M253.634 146.094C254.874 146.328 255.808 146.696 256.473 147.19L256.482 147.199L256.5 147.208C257.156 147.648 257.623 148.277 257.893 149.104L257.902 149.113V149.131C258.216 149.966 258.387 151.089 258.387 152.527C258.387 153.668 258.189 154.593 257.83 155.348V155.357C257.515 156.049 256.967 156.642 256.132 157.136C255.278 157.63 254.101 158.034 252.556 158.304C250.984 158.529 249.025 158.663 246.662 158.663H245.764V161.871L246.572 161.952C247.013 162.006 247.444 162.042 247.893 162.068C248.342 162.095 248.791 162.104 249.232 162.104C251.657 162.104 254.11 161.754 256.563 161.071L257.273 165.527C254.407 166.228 251.586 166.579 248.809 166.579C244.937 166.579 242.332 165.68 240.795 164.081C239.241 162.437 238.37 159.849 238.37 156.148C238.37 152.437 239.232 149.868 240.795 148.259V148.25C242.359 146.624 244.955 145.717 248.809 145.717C250.768 145.717 252.367 145.852 253.634 146.094ZM252.259 152.788V150.146H249.618C248.549 150.146 247.623 150.254 246.968 150.55H246.959C246.024 150.982 245.764 151.961 245.764 152.859V155.51H248.405C249.456 155.51 250.391 155.411 251.029 155.106C251.972 154.674 252.259 153.722 252.259 152.788Z" fill="white"></path>
  <path d="M236.213 145.906L236.6 152.087C236.456 152.114 236.312 152.141 236.159 152.168C235.665 152.275 235.153 152.392 234.632 152.545H234.623H234.614C234.093 152.707 233.608 152.904 233.15 153.147C232.664 153.372 232.251 153.668 231.937 154.045L231.73 154.297V165.95H224.974V146.346H227.975L230.679 149.086L231.317 148.502C232.655 147.262 234.291 146.391 236.213 145.906Z" fill="white"></path>
  <path d="M220.688 146.346V165.932H217.678L214.74 163.084L214.12 163.829C212.62 165.626 210.455 166.57 207.508 166.57C205.064 166.57 203.483 166.049 202.557 165.204C201.659 164.35 201.102 162.841 201.102 160.406V146.346H207.858V162.131H210.077C211.129 162.131 212.063 162.033 212.701 161.727C213.644 161.296 213.932 160.343 213.932 159.409V146.346H220.688Z" fill="white"></path>
  <path d="M211.697 166.705C211.697 166.717 211.685 166.717 211.697 166.705C211.685 166.717 211.685 166.705 211.697 166.705Z" fill="white"></path>
  <path d="M197.365 161.808C197.526 161.826 197.688 161.844 197.859 161.862L197.571 166.399C196.017 166.381 194.714 166.327 193.663 166.237C192.405 166.139 191.57 165.986 191.093 165.815C190.177 165.483 189.557 165.096 189.162 164.692C188.847 164.351 188.623 163.767 188.623 162.805V150.074H186.484V146.346H188.623V142.725L195.379 141.036V146.346H198.335V150.074H195.379V161.44L196.098 161.584C196.466 161.655 196.861 161.727 197.311 161.808H197.338H197.365V161.808Z" fill="white"></path>
  <path d="M183.726 152.168C183.232 152.275 182.72 152.392 182.19 152.545H182.181C181.66 152.707 181.174 152.904 180.716 153.147C180.24 153.372 179.818 153.668 179.503 154.045L179.297 154.297V165.95H172.54V146.346H175.541L178.245 149.086L178.883 148.502C180.222 147.262 181.857 146.391 183.78 145.906L184.166 152.087C184.022 152.114 183.879 152.141 183.726 152.168Z" fill="white"></path>
  <path d="M164.58 146.094C165.829 146.328 166.764 146.696 167.428 147.19L167.437 147.199L167.455 147.208C168.111 147.648 168.578 148.277 168.848 149.104L168.857 149.113V149.131C169.171 149.966 169.342 151.089 169.342 152.527C169.342 153.668 169.144 154.593 168.785 155.348V155.357C168.471 156.049 167.923 156.642 167.087 157.136C166.224 157.63 165.048 158.034 163.511 158.304C161.939 158.529 159.989 158.663 157.617 158.663H156.719V161.871L157.528 161.952C157.968 162.006 158.399 162.042 158.848 162.068C159.297 162.095 159.747 162.104 160.187 162.104C162.622 162.104 165.065 161.754 167.518 161.071L168.228 165.527C165.362 166.228 162.541 166.579 159.765 166.579C155.892 166.579 153.287 165.68 151.751 164.081C150.196 162.437 149.325 159.849 149.325 156.148C149.325 152.437 150.187 149.868 151.751 148.259V148.25C153.314 146.624 155.91 145.717 159.765 145.717C161.723 145.717 163.323 145.852 164.58 146.094ZM163.215 152.788V150.146H160.573C159.504 150.146 158.579 150.254 157.923 150.55L157.905 150.559C156.997 150.982 156.719 151.952 156.719 152.859V155.51H159.36C160.412 155.51 161.346 155.411 161.984 155.106C162.927 154.674 163.215 153.722 163.215 152.788Z" fill="white"></path>
  <path d="M146.306 152.051C146.62 153.354 146.782 154.719 146.782 156.148C146.782 157.531 146.647 158.834 146.369 160.047C146.108 161.233 145.668 162.266 145.075 163.165C144.5 164.009 143.736 164.683 142.766 165.186C141.832 165.671 140.628 165.941 139.118 165.941H133.306V172.418L126.54 172.922V146.346H129.46L131.518 149.14L132.236 148.089C133.252 146.597 135.21 145.708 138.481 145.708C140.08 145.708 141.365 145.995 142.371 146.525C143.422 147.082 144.24 147.81 144.859 148.736L144.868 148.745L144.877 148.753C145.533 149.67 146.01 150.757 146.297 152.033L146.306 152.051ZM139.37 159.409V150.137H137.151C136.504 150.137 135.974 150.164 135.543 150.218C134.968 150.281 134.473 150.532 134.06 150.901C133.539 151.341 133.323 151.961 133.297 152.608V152.626V162.131H135.516C136.567 162.131 137.501 162.032 138.139 161.727C139.083 161.296 139.37 160.343 139.37 159.409Z" fill="white"></path>
  <path d="M118.292 141L124.743 165.932H117.592L116.594 161.691H108.113L107.143 165.932H100L106.451 141H118.292V141ZM115.444 156.678L113.333 147.397H111.437L109.272 156.678H115.444Z" fill="white"></path>
  <g clip-path="url(#bw_light_vertical_logo_clip0)">
    <path d="M139.319 98.4686C139.319 98.4686 139.444 98.9317 139.694 99.7826C139.957 100.634 140.37 101.86 141.045 103.374C142.371 106.365 144.861 110.495 149.214 114.049C153.505 117.615 159.685 120.369 166.615 121.069C170.118 121.445 173.67 121.332 177.298 120.769C180.876 120.218 184.529 119.155 187.907 117.766C191.322 116.351 194.574 114.562 197.526 112.497C200.541 110.395 203.156 108.117 205.52 105.627C207.884 103.124 209.811 100.596 211.487 97.9305C213.113 95.3276 214.377 92.7246 215.315 90.2593C216.241 87.8315 216.891 85.4038 217.242 83.414C217.617 81.3492 217.767 79.5471 217.805 78.0705C217.867 75.1171 217.592 73.4777 217.592 73.4777L227.937 72.6643C227.937 72.6643 228.138 74.8918 227.787 78.7212C227.6 80.6234 227.249 82.926 226.586 85.4664C225.911 88.0818 224.973 90.7724 223.622 93.7132C222.283 96.6165 220.544 99.5949 218.418 102.523C216.328 105.402 213.739 108.33 210.887 110.945C208.035 113.573 204.707 116.064 201.254 118.116C197.739 120.218 193.961 121.97 190.021 123.284C186.043 124.598 182.027 125.462 177.949 125.812C173.908 126.163 169.792 126 166.015 125.324C158.346 123.998 151.716 120.456 147.288 116.214C142.809 111.984 140.47 107.354 139.281 104.088C138.681 102.448 138.331 101.109 138.118 100.208C137.93 99.3071 137.83 98.819 137.83 98.819L139.319 98.4686Z" fill="url(#bw_light_vertical_logo_paint0)"></path>
    <path d="M208.61 79.8475C208.61 79.8475 208.798 78.4709 208.66 76.1808C208.522 73.8907 207.947 70.5494 206.008 67.1831C204.995 65.4812 203.806 63.9169 202.042 62.4402C200.404 61.0261 198.377 59.8122 196.163 58.8987C193.949 57.9851 191.509 57.397 188.995 57.1342C187.744 57.0215 186.468 56.9465 185.192 56.984C184.566 56.984 183.953 57.0466 183.228 57.0841C182.59 57.1592 182.014 57.1967 181.376 57.3094C176.31 58.0227 171.494 60.025 167.628 62.6529C165.664 63.992 164.026 65.4061 162.587 66.9829C161.198 68.4971 160.035 70.1239 159.134 71.6632C157.333 74.7667 156.507 77.6199 156.157 79.5972C155.807 81.587 155.807 82.7258 155.807 82.7258L146.662 81.8623C146.662 81.8623 146.825 80.2604 147.563 77.5699C148.301 74.9044 149.765 71.1751 152.479 67.3833C153.83 65.4812 155.456 63.5915 157.445 61.802C159.372 60.05 161.686 58.3731 164.138 57.0341C169.079 54.2934 174.934 52.4789 180.876 52.1785C181.602 52.1285 182.415 52.1285 183.153 52.116C183.803 52.141 184.566 52.141 185.317 52.2036C186.793 52.2787 188.257 52.5039 189.683 52.7667C192.548 53.3298 195.3 54.2684 197.764 55.5449C200.229 56.8338 202.405 58.4106 204.194 60.2627C205.933 61.9897 207.322 64.1421 208.222 66.0693C210.061 70.0614 210.324 73.7155 210.249 76.1683C210.211 77.3947 210.099 78.3833 209.999 79.0341C209.899 79.6723 209.848 80.0102 209.848 80.0102L208.61 79.8475Z" fill="url(#bw_light_vertical_logo_paint1)"></path>
    <path d="M219.356 65.9067C219.356 65.9067 219.206 65.4687 218.931 64.6302C218.643 63.8168 218.18 62.6154 217.442 61.1763C216.003 58.3105 213.389 54.3435 209.11 50.8521C204.87 47.3731 198.94 44.4198 192.197 43.4812C188.782 42.9806 185.342 42.9556 181.802 43.4311C178.287 43.9067 174.809 44.8578 171.494 46.2468C164.851 48.9874 158.997 53.3925 154.518 58.2855C150.015 63.1911 146.812 68.5847 144.923 73.3652C144.435 74.579 144.06 75.6928 143.697 76.8816C143.372 77.9579 143.109 79.0216 142.897 80.0227C142.471 82.025 142.271 83.7645 142.196 85.1911C142.046 88.0443 142.271 89.6211 142.271 89.6211L131.013 90.1217C131.013 90.1217 130.887 87.8816 131.413 84.1024C131.676 82.2252 132.126 79.9601 132.864 77.4698C133.239 76.2309 133.677 74.9294 134.227 73.5529C134.728 72.2889 135.353 70.8498 136.041 69.4607C138.819 63.8168 143.059 57.8725 148.714 52.6166C154.343 47.3731 161.449 42.893 169.28 40.3526C173.183 39.0762 177.273 38.2753 181.301 38.0625C185.304 37.8373 189.395 38.1877 193.073 39.0386C200.579 40.703 206.846 44.4948 211.149 48.637C215.49 52.8168 217.905 57.2343 219.206 60.4004C219.856 61.9897 220.232 63.2787 220.482 64.1672C220.694 65.0557 220.819 65.5187 220.819 65.5187L219.356 65.9067Z" fill="url(#bw_light_vertical_logo_paint2)"></path>
    <path d="M193.586 89.1831C193.586 89.1831 193.924 88.4447 194.499 87.1558C194.649 86.8304 194.812 86.48 194.974 86.092C195.1 85.7166 195.237 85.3036 195.387 84.8782C195.662 83.9646 195.9 82.926 196.05 81.7872C196.351 79.5096 196.213 76.7815 195.125 74.2786C194.074 71.7883 191.972 69.6609 189.395 68.6097C186.818 67.5209 183.891 67.4208 181.339 67.984C178.712 68.5471 176.56 69.6984 174.846 70.9498C173.17 72.1888 172.007 73.5027 171.269 74.4538C170.531 75.4174 170.18 76.0056 170.18 76.0056L164.764 72.1512C164.764 72.1512 165.327 71.4004 166.452 70.2365C167.591 69.0727 169.305 67.5209 171.719 66.1194C174.071 64.7553 177.211 63.5289 180.613 63.2035C184.041 62.8531 187.856 63.3913 191.109 65.2183C194.387 67.0079 196.788 70.1364 197.739 73.3401C198.727 76.5687 198.49 79.6848 197.902 82.125C197.601 83.3639 197.226 84.4527 196.826 85.3912C196.588 85.9168 196.463 86.2172 196.2 86.7178C195.988 87.0807 195.788 87.4186 195.6 87.7314C194.887 88.9453 194.474 89.6461 194.474 89.6461L193.586 89.1831Z" fill="url(#bw_light_vertical_logo_paint3)"></path>
    <path d="M152.054 88.4698C152.054 88.4698 152.066 88.7952 152.079 89.4084C152.104 89.9966 152.154 90.8475 152.329 91.9363C152.654 94.0887 153.467 97.1922 155.531 100.258C156.52 101.747 157.958 103.337 159.547 104.576C161.186 105.877 163.137 106.966 165.289 107.742C167.441 108.505 169.78 108.981 172.182 109.106C174.546 109.256 177.061 109.018 179.425 108.543C184.216 107.554 188.72 105.414 192.36 102.724C193.286 102.06 194.136 101.347 194.962 100.634L196.188 99.5074L197.239 98.4311C198.64 96.9294 199.828 95.4027 200.791 93.9135C202.718 90.9476 203.794 88.2446 204.344 86.3299C204.907 84.4152 205.045 83.314 205.045 83.314L212.788 84.9158C212.788 84.9158 212.475 86.3674 211.562 88.7702C210.662 91.1604 209.035 94.4391 206.408 97.843C205.095 99.5449 203.544 101.259 201.742 102.899C201.267 103.312 200.791 103.737 200.304 104.15C199.828 104.526 199.353 104.901 198.865 105.289C197.839 106.052 196.776 106.803 195.65 107.491C191.172 110.282 185.792 112.334 180.201 113.06C177.386 113.398 174.596 113.448 171.819 113.073C169.067 112.722 166.402 111.972 164.001 110.883C161.599 109.794 159.447 108.367 157.696 106.728C155.869 105.051 154.568 103.324 153.53 101.497C151.478 97.8805 150.89 94.4516 150.728 92.1365C150.64 90.9727 150.653 90.0341 150.678 89.4084C150.715 88.7952 150.728 88.4823 150.728 88.4823L152.054 88.4698Z" fill="url(#bw_light_vertical_logo_paint4)"></path>
    <path d="M176.71 77.6575C176.71 77.6575 175.685 78.4584 174.759 80.0602C173.833 81.5994 173.333 84.1774 174.496 85.7917C174.997 86.505 175.81 87.0431 176.648 87.2308C176.848 87.2809 177.098 87.3184 177.261 87.331C177.636 87.381 177.661 87.356 177.911 87.356C178.324 87.3435 178.712 87.2809 179.075 87.1933C180.513 86.8304 181.314 86.1671 181.314 86.1671L183.691 90.6347C183.691 90.6347 183.303 90.8224 182.602 91.0602C181.902 91.298 180.876 91.5858 179.588 91.6484C178.95 91.6734 178.249 91.6609 177.511 91.5357C177.186 91.4857 176.635 91.3605 176.423 91.2855C175.997 91.1603 175.66 91.0352 175.259 90.8474C173.758 90.1592 172.357 88.8827 171.644 87.1933C170.956 85.604 170.993 83.8019 171.394 82.4003C171.794 80.9612 172.507 79.8224 173.208 78.9715C173.908 78.108 174.609 77.5323 175.109 77.1444C175.622 76.7564 175.922 76.5938 175.922 76.5938L176.71 77.6575Z" fill="url(#bw_light_vertical_logo_paint5)"></path>
    <path d="M184.054 86.7805C184.054 86.7805 185.067 85.9796 185.88 84.3903C186.28 83.6019 186.593 82.6133 186.605 81.6122C186.643 80.5985 186.355 79.5849 185.792 78.8215C185.242 78.0581 184.441 77.5701 183.616 77.3573C183.228 77.2572 182.753 77.1947 182.39 77.1947C181.989 77.1947 181.614 77.2447 181.264 77.3073C179.863 77.6076 179.087 78.2083 179.087 78.2083L176.848 73.5155C176.848 73.5155 177.236 73.3528 177.949 73.1651C178.662 72.9774 179.7 72.7646 180.976 72.7771C181.614 72.7897 182.302 72.8522 183.015 73.0149C183.766 73.1901 184.441 73.4154 185.192 73.8033C186.631 74.5291 187.932 75.8181 188.595 77.3573C189.27 78.8841 189.32 80.561 188.982 81.9375C188.657 83.3391 187.994 84.4654 187.331 85.3039C186.668 86.1423 185.98 86.718 185.492 87.0809C184.992 87.4438 184.704 87.6065 184.704 87.6065L184.054 86.7805Z" fill="url(#bw_light_vertical_logo_paint6)"></path>
    <path d="M164.001 77.3948C164.001 77.3948 162.024 80.4482 161.411 83.2639C160.798 86.0796 159.997 91.4983 164.288 96.529C164.288 96.529 168.391 101.86 176.848 101.91C176.848 101.91 182.615 102.248 188.945 98.744C188.945 98.744 193.236 96.3163 195.412 93.7634L189.833 89.0455C189.833 89.0455 187.406 92.587 182.915 94.8146C182.915 94.8146 176.46 98.4437 170.18 95.8032C170.18 95.8032 164.438 94.0011 163.413 86.5176C163.413 86.5176 163.037 81.1866 165.051 77.8703L164.001 77.3948Z" fill="url(#bw_light_vertical_logo_paint7)"></path>
  </g>
  <defs>
    <linearGradient id="bw_light_vertical_logo_paint0" x1="221.764" y1="72.9204" x2="143.602" y2="50.3291" gradientUnits="userSpaceOnUse">
      <stop stop-color="#D8D8D8"></stop>
      <stop offset="0.288174" stop-color="#919191"></stop>
      <stop offset="1" stop-color="#444444"></stop>
    </linearGradient>
    <linearGradient id="bw_light_vertical_logo_paint1" x1="150.587" y1="82.4678" x2="188.905" y2="108.438" gradientUnits="userSpaceOnUse">
      <stop stop-color="#D8D8D8"></stop>
      <stop offset="0.269639" stop-color="#919191"></stop>
      <stop offset="1" stop-color="#444444"></stop>
    </linearGradient>
    <linearGradient id="bw_light_vertical_logo_paint2" x1="136.543" y1="89.6825" x2="198.234" y2="111.717" gradientUnits="userSpaceOnUse">
      <stop stop-color="#D8D8D8"></stop>
      <stop offset="0.288174" stop-color="#919191"></stop>
      <stop offset="1" stop-color="#444444"></stop>
    </linearGradient>
    <linearGradient id="bw_light_vertical_logo_paint3" x1="164.95" y1="76.4125" x2="176.909" y2="96.8761" gradientUnits="userSpaceOnUse">
      <stop stop-color="#D8D8D8"></stop>
      <stop offset="0.331064" stop-color="#919191"></stop>
      <stop offset="1" stop-color="#444444"></stop>
    </linearGradient>
    <linearGradient id="bw_light_vertical_logo_paint4" x1="209.986" y1="84.0952" x2="174.604" y2="55.5491" gradientUnits="userSpaceOnUse">
      <stop stop-color="#D8D8D8"></stop>
      <stop offset="0.288174" stop-color="#919191"></stop>
      <stop offset="1" stop-color="#444444"></stop>
    </linearGradient>
    <linearGradient id="bw_light_vertical_logo_paint5" x1="185.043" y1="87.5873" x2="185.178" y2="78.7436" gradientUnits="userSpaceOnUse">
      <stop stop-color="#D8D8D8"></stop>
      <stop offset="0.500549" stop-color="#919191"></stop>
      <stop offset="1" stop-color="#444444"></stop>
    </linearGradient>
    <linearGradient id="bw_light_vertical_logo_paint6" x1="173.264" y1="77.1113" x2="174.409" y2="86.789" gradientUnits="userSpaceOnUse">
      <stop stop-color="#D8D8D8"></stop>
      <stop offset="0.551338" stop-color="#919191"></stop>
      <stop offset="1" stop-color="#444444"></stop>
    </linearGradient>
    <linearGradient id="bw_light_vertical_logo_paint7" x1="191.971" y1="88.2856" x2="177.428" y2="67.9453" gradientUnits="userSpaceOnUse">
      <stop stop-color="#D8D8D8"></stop>
      <stop offset="0.424241" stop-color="#919191"></stop>
      <stop offset="1" stop-color="#444444"></stop>
    </linearGradient>
    <clipPath id="bw_light_vertical_logo_clip0">
      <rect width="97" height="88" fill="white" transform="translate(131 38)"></rect>
    </clipPath>
  </defs>
</svg>
