<svg fill="none" xmlns="http://www.w3.org/2000/svg" viewBox="103 38 158.39 134.93">
  <g clip-path="url(#color_light_vertical_logo_clip0)">
    <path d="M141.405 98.4686C141.405 98.4686 141.531 98.9317 141.784 99.7826C142.049 100.634 142.466 101.86 143.149 103.374C144.489 106.365 147.004 110.495 151.402 114.049C155.737 117.615 161.98 120.369 168.982 121.069C172.521 121.445 176.11 121.332 179.776 120.769C183.39 120.218 187.081 119.155 190.493 117.766C193.944 116.351 197.23 114.562 200.212 112.497C203.258 110.395 205.9 108.117 208.288 105.627C210.677 103.124 212.623 100.596 214.317 97.9305C215.96 95.3276 217.237 92.7246 218.184 90.2593C219.12 87.8315 219.777 85.4038 220.131 83.414C220.51 81.3492 220.662 79.5471 220.699 78.0705C220.763 75.1171 220.485 73.4777 220.485 73.4777L230.937 72.6643C230.937 72.6643 231.139 74.8918 230.785 78.7212C230.596 80.6234 230.242 82.926 229.572 85.4664C228.889 88.0818 227.941 90.7724 226.576 93.7132C225.224 96.6165 223.467 99.5949 221.319 102.523C219.208 105.402 216.592 108.33 213.71 110.945C210.829 113.573 207.467 116.064 203.979 118.116C200.427 120.218 196.61 121.97 192.629 123.284C188.61 124.598 184.553 125.462 180.433 125.812C176.351 126.163 172.192 126 168.376 125.324C160.628 123.998 153.93 120.456 149.456 116.214C144.931 111.984 142.567 107.354 141.367 104.088C140.76 102.448 140.406 101.109 140.191 100.208C140.002 99.3071 139.901 98.819 139.901 98.819L141.405 98.4686Z" fill="url(#color_light_vertical_logo_paint0)"></path>
    <path d="M211.41 79.8475C211.41 79.8475 211.6 78.4709 211.461 76.1808C211.322 73.8907 210.74 70.5494 208.781 67.1831C207.758 65.4812 206.557 63.9169 204.775 62.4402C203.119 61.0261 201.072 59.8122 198.835 58.8987C196.598 57.9851 194.133 57.397 191.593 57.1342C190.329 57.0215 189.04 56.9465 187.751 56.984C187.119 56.984 186.499 57.0466 185.766 57.0841C185.122 57.1592 184.54 57.1967 183.896 57.3094C178.777 58.0227 173.911 60.025 170.006 62.6529C168.022 63.992 166.366 65.4061 164.913 66.9829C163.51 68.4971 162.334 70.1239 161.424 71.6632C159.604 74.7667 158.77 77.6199 158.416 79.5972C158.062 81.587 158.062 82.7258 158.062 82.7258L148.824 81.8623C148.824 81.8623 148.988 80.2604 149.734 77.5699C150.479 74.9044 151.958 71.1751 154.701 67.3833C156.066 65.4812 157.709 63.5915 159.718 61.802C161.664 60.05 164.003 58.3731 166.48 57.0341C171.472 54.2934 177.387 52.4789 183.39 52.1785C184.123 52.1285 184.945 52.1285 185.69 52.116C186.348 52.141 187.119 52.141 187.877 52.2036C189.368 52.2787 190.847 52.5039 192.288 52.7667C195.182 53.3298 197.963 54.2684 200.452 55.5449C202.942 56.8338 205.141 58.4106 206.949 60.2627C208.705 61.9897 210.108 64.1421 211.018 66.0693C212.876 70.0614 213.142 73.7155 213.066 76.1683C213.028 77.3947 212.914 78.3833 212.813 79.0341C212.712 79.6723 212.661 80.0102 212.661 80.0102L211.41 79.8475Z" fill="url(#color_light_vertical_logo_paint1)"></path>
    <path d="M222.267 65.9067C222.267 65.9067 222.115 65.4687 221.837 64.6302C221.546 63.8168 221.079 62.6154 220.333 61.1763C218.88 58.3105 216.238 54.3435 211.916 50.8521C207.631 47.3731 201.64 44.4198 194.828 43.4812C191.378 42.9806 187.902 42.9556 184.325 43.4311C180.774 43.9067 177.26 44.8578 173.911 46.2468C167.2 48.9874 161.285 53.3925 156.761 58.2855C152.211 63.1911 148.975 68.5847 147.067 73.3652C146.574 74.579 146.195 75.6928 145.828 76.8816C145.5 77.9579 145.234 79.0216 145.019 80.0227C144.59 82.025 144.387 83.7645 144.312 85.1911C144.16 88.0443 144.387 89.6211 144.387 89.6211L133.013 90.1217C133.013 90.1217 132.886 87.8816 133.417 84.1024C133.682 82.2252 134.137 79.9601 134.883 77.4698C135.262 76.2309 135.705 74.9294 136.261 73.5529C136.766 72.2889 137.398 70.8498 138.093 69.4607C140.899 63.8168 145.184 57.8725 150.896 52.6166C156.584 47.3731 163.762 42.893 171.674 40.3526C175.617 39.0762 179.75 38.2753 183.82 38.0625C187.864 37.8373 191.997 38.1877 195.713 39.0386C203.296 40.703 209.628 44.4948 213.976 48.637C218.361 52.8168 220.801 57.2343 222.115 60.4004C222.772 61.9897 223.151 63.2787 223.404 64.1672C223.619 65.0557 223.745 65.5187 223.745 65.5187L222.267 65.9067Z" fill="url(#color_light_vertical_logo_paint2)"></path>
    <path d="M196.231 89.1831C196.231 89.1831 196.572 88.4447 197.154 87.1558C197.305 86.8304 197.47 86.48 197.634 86.092C197.76 85.7166 197.899 85.3036 198.051 84.8782C198.329 83.9646 198.569 82.926 198.721 81.7872C199.024 79.5096 198.885 76.7815 197.786 74.2786C196.724 71.7883 194.601 69.6609 191.997 68.6097C189.394 67.5209 186.436 67.4208 183.858 67.984C181.204 68.5471 179.03 69.6984 177.298 70.9498C175.605 72.1888 174.429 73.5027 173.684 74.4538C172.938 75.4174 172.584 76.0056 172.584 76.0056L167.112 72.1512C167.112 72.1512 167.68 71.4004 168.818 70.2365C169.968 69.0727 171.7 67.5209 174.139 66.1194C176.515 64.7553 179.687 63.5289 183.125 63.2035C186.588 62.8531 190.443 63.3913 193.729 65.2183C197.04 67.0079 199.467 70.1364 200.427 73.3401C201.426 76.5687 201.185 79.6848 200.591 82.125C200.288 83.3639 199.909 84.4527 199.505 85.3912C199.264 85.9168 199.138 86.2172 198.873 86.7178C198.658 87.0807 198.456 87.4186 198.266 87.7314C197.546 88.9453 197.128 89.6461 197.128 89.6461L196.231 89.1831Z" fill="url(#color_light_vertical_logo_paint3)"></path>
    <path d="M154.271 88.4698C154.271 88.4698 154.283 88.7952 154.296 89.4084C154.321 89.9966 154.372 90.8475 154.549 91.9363C154.877 94.0887 155.699 97.1922 157.784 100.258C158.783 101.747 160.236 103.337 161.841 104.576C163.497 105.877 165.469 106.966 167.643 107.742C169.816 108.505 172.18 108.981 174.606 109.106C176.995 109.256 179.535 109.018 181.924 108.543C186.765 107.554 191.315 105.414 194.993 102.724C195.928 102.06 196.787 101.347 197.621 100.634L198.86 99.5074L199.922 98.4311C201.337 96.9294 202.538 95.4027 203.511 93.9135C205.457 90.9476 206.544 88.2446 207.1 86.3299C207.669 84.4152 207.808 83.314 207.808 83.314L215.631 84.9158C215.631 84.9158 215.315 86.3674 214.393 88.7702C213.483 91.1604 211.84 94.4391 209.186 97.843C207.859 99.5449 206.291 101.259 204.471 102.899C203.991 103.312 203.511 103.737 203.018 104.15C202.538 104.526 202.058 104.901 201.565 105.289C200.528 106.052 199.454 106.803 198.316 107.491C193.792 110.282 188.357 112.334 182.708 113.06C179.864 113.398 177.046 113.448 174.24 113.073C171.459 112.722 168.767 111.972 166.341 110.883C163.914 109.794 161.74 108.367 159.971 106.728C158.126 105.051 156.811 103.324 155.762 101.497C153.689 97.8805 153.095 94.4516 152.931 92.1365C152.843 90.9727 152.855 90.0341 152.881 89.4084C152.918 88.7952 152.931 88.4823 152.931 88.4823L154.271 88.4698Z" fill="url(#color_light_vertical_logo_paint4)"></path>
    <path d="M179.182 77.6575C179.182 77.6575 178.145 78.4584 177.21 80.0602C176.275 81.5994 175.769 84.1774 176.945 85.7917C177.45 86.505 178.272 87.0431 179.118 87.2308C179.321 87.2809 179.573 87.3184 179.738 87.331C180.117 87.381 180.142 87.356 180.395 87.356C180.812 87.3435 181.204 87.2809 181.57 87.1933C183.024 86.8304 183.833 86.1671 183.833 86.1671L186.234 90.6347C186.234 90.6347 185.842 90.8224 185.134 91.0602C184.427 91.298 183.39 91.5858 182.088 91.6484C181.444 91.6734 180.736 91.6609 179.99 91.5357C179.662 91.4857 179.106 91.3605 178.891 91.2855C178.461 91.1603 178.12 91.0352 177.716 90.8475C176.199 90.1592 174.783 88.8827 174.063 87.1933C173.368 85.604 173.406 83.8019 173.81 82.4003C174.215 80.9612 174.935 79.8224 175.643 78.9715C176.351 78.108 177.058 77.5323 177.564 77.1444C178.082 76.7564 178.385 76.5938 178.385 76.5938L179.182 77.6575Z" fill="url(#color_light_vertical_logo_paint5)"></path>
    <path d="M186.6 86.7805C186.6 86.7805 187.624 85.9796 188.446 84.3903C188.85 83.6019 189.166 82.6133 189.179 81.6122C189.217 80.5985 188.926 79.5849 188.357 78.8215C187.801 78.0581 186.992 77.5701 186.158 77.3573C185.766 77.2572 185.286 77.1947 184.92 77.1947C184.515 77.1947 184.136 77.2447 183.782 77.3073C182.367 77.6076 181.583 78.2083 181.583 78.2083L179.321 73.5155C179.321 73.5155 179.712 73.3528 180.433 73.1651C181.153 72.9774 182.202 72.7646 183.491 72.7771C184.136 72.7897 184.831 72.8522 185.551 73.0149C186.31 73.1901 186.992 73.4154 187.751 73.8033C189.204 74.5291 190.518 75.8181 191.188 77.3573C191.871 78.8841 191.921 80.561 191.58 81.9375C191.251 83.3391 190.582 84.4654 189.912 85.3039C189.242 86.1423 188.547 86.718 188.054 87.0809C187.548 87.4438 187.258 87.6065 187.258 87.6065L186.6 86.7805Z" fill="url(#color_light_vertical_logo_paint6)"></path>
    <path d="M166.341 77.3948C166.341 77.3948 164.344 80.4482 163.725 83.2639C163.105 86.0796 162.296 91.4983 166.631 96.529C166.631 96.529 170.777 101.86 179.321 101.91C179.321 101.91 185.147 102.248 191.542 98.744C191.542 98.744 195.877 96.3163 198.076 93.7634L192.44 89.0455C192.44 89.0455 189.988 92.587 185.45 94.8146C185.45 94.8146 178.929 98.4437 172.584 95.8032C172.584 95.8032 166.783 94.0011 165.747 86.5176C165.747 86.5176 165.368 81.1866 167.402 77.8703L166.341 77.3948Z" fill="url(#color_light_vertical_logo_paint7)"></path>
  </g>
  <path d="M256.634 146.094C257.874 146.328 258.808 146.696 259.473 147.19L259.482 147.199L259.5 147.208C260.156 147.648 260.623 148.277 260.893 149.104L260.902 149.113V149.131C261.216 149.966 261.387 151.089 261.387 152.527C261.387 153.668 261.189 154.593 260.83 155.348V155.357C260.515 156.049 259.967 156.642 259.132 157.136C258.278 157.63 257.101 158.034 255.556 158.304C253.984 158.529 252.025 158.663 249.662 158.663H248.764V161.871L249.572 161.952C250.013 162.006 250.444 162.042 250.893 162.068C251.342 162.095 251.791 162.104 252.232 162.104C254.657 162.104 257.11 161.754 259.563 161.071L260.273 165.527C257.407 166.228 254.586 166.579 251.809 166.579C247.937 166.579 245.332 165.68 243.795 164.081C242.241 162.437 241.37 159.849 241.37 156.148C241.37 152.437 242.232 149.868 243.795 148.259V148.25C245.359 146.624 247.955 145.717 251.809 145.717C253.768 145.717 255.367 145.852 256.634 146.094ZM255.259 152.788V150.146H252.618C251.549 150.146 250.623 150.254 249.968 150.55H249.959C249.024 150.982 248.764 151.961 248.764 152.859V155.51H251.405C252.456 155.51 253.391 155.411 254.029 155.106C254.972 154.674 255.259 153.722 255.259 152.788Z" fill="white"></path>
  <path d="M239.213 145.906L239.6 152.087C239.456 152.114 239.312 152.141 239.159 152.168C238.665 152.275 238.153 152.392 237.632 152.545H237.623H237.614C237.093 152.707 236.608 152.904 236.15 153.147C235.664 153.372 235.251 153.668 234.937 154.045L234.73 154.297V165.95H227.974V146.346H230.975L233.679 149.086L234.317 148.502C235.655 147.262 237.291 146.391 239.213 145.906Z" fill="white"></path>
  <path d="M223.688 146.346V165.932H220.678L217.74 163.084L217.12 163.829C215.62 165.626 213.455 166.57 210.508 166.57C208.064 166.57 206.483 166.049 205.557 165.204C204.659 164.35 204.102 162.841 204.102 160.406V146.346H210.858V162.131H213.077C214.129 162.131 215.063 162.033 215.701 161.727C216.644 161.296 216.932 160.343 216.932 159.409V146.346H223.688Z" fill="white"></path>
  <path d="M214.697 166.705C214.697 166.717 214.685 166.717 214.697 166.705C214.685 166.717 214.685 166.705 214.697 166.705Z" fill="white"></path>
  <path d="M200.365 161.808C200.526 161.826 200.688 161.844 200.859 161.862L200.571 166.399C199.017 166.381 197.714 166.327 196.663 166.237C195.405 166.139 194.57 165.986 194.093 165.815C193.177 165.483 192.557 165.096 192.162 164.692C191.847 164.351 191.623 163.767 191.623 162.805V150.074H189.484V146.346H191.623V142.725L198.379 141.036V146.346H201.335V150.074H198.379V161.44L199.098 161.584C199.466 161.655 199.861 161.727 200.311 161.808H200.338H200.365V161.808Z" fill="white"></path>
  <path d="M186.726 152.168C186.232 152.275 185.72 152.392 185.19 152.545H185.181C184.66 152.707 184.174 152.904 183.716 153.147C183.24 153.372 182.818 153.668 182.503 154.045L182.297 154.297V165.95H175.54V146.346H178.541L181.245 149.086L181.883 148.502C183.222 147.262 184.857 146.391 186.78 145.906L187.166 152.087C187.022 152.114 186.879 152.141 186.726 152.168Z" fill="white"></path>
  <path d="M167.58 146.094C168.829 146.328 169.764 146.696 170.428 147.19L170.437 147.199L170.455 147.208C171.111 147.648 171.578 148.277 171.848 149.104L171.857 149.113V149.131C172.171 149.966 172.342 151.089 172.342 152.527C172.342 153.668 172.144 154.593 171.785 155.348V155.357C171.471 156.049 170.923 156.642 170.087 157.136C169.224 157.63 168.048 158.034 166.511 158.304C164.939 158.529 162.989 158.663 160.617 158.663H159.719V161.871L160.528 161.952C160.968 162.006 161.399 162.042 161.848 162.068C162.297 162.095 162.747 162.104 163.187 162.104C165.622 162.104 168.065 161.754 170.518 161.071L171.228 165.527C168.362 166.228 165.541 166.579 162.765 166.579C158.892 166.579 156.287 165.68 154.751 164.081C153.196 162.437 152.325 159.849 152.325 156.148C152.325 152.437 153.187 149.868 154.751 148.259V148.25C156.314 146.624 158.91 145.717 162.765 145.717C164.723 145.717 166.323 145.852 167.58 146.094ZM166.215 152.788V150.146H163.573C162.504 150.146 161.579 150.254 160.923 150.55L160.905 150.559C159.997 150.982 159.719 151.952 159.719 152.859V155.51H162.36C163.412 155.51 164.346 155.411 164.984 155.106C165.927 154.674 166.215 153.722 166.215 152.788Z" fill="white"></path>
  <path d="M149.306 152.051C149.62 153.354 149.782 154.719 149.782 156.148C149.782 157.531 149.647 158.834 149.369 160.047C149.108 161.233 148.668 162.266 148.075 163.165C147.5 164.009 146.736 164.683 145.766 165.186C144.832 165.671 143.628 165.941 142.118 165.941H136.306V172.418L129.54 172.922V146.346H132.46L134.518 149.14L135.236 148.089C136.252 146.597 138.21 145.708 141.481 145.708C143.08 145.708 144.365 145.995 145.371 146.525C146.422 147.082 147.24 147.81 147.859 148.736L147.868 148.745L147.877 148.753C148.533 149.67 149.01 150.757 149.297 152.033L149.306 152.051ZM142.37 159.409V150.137H140.151C139.504 150.137 138.974 150.164 138.543 150.218C137.968 150.281 137.473 150.532 137.06 150.901C136.539 151.341 136.323 151.961 136.297 152.608V152.626V162.131H138.516C139.567 162.131 140.501 162.032 141.139 161.727C142.083 161.296 142.37 160.343 142.37 159.409Z" fill="white"></path>
  <path d="M121.292 141L127.743 165.932H120.592L119.594 161.691H111.113L110.143 165.932H103L109.451 141H121.292V141ZM118.444 156.678L116.333 147.397H114.437L112.272 156.678H118.444Z" fill="white"></path>
  <defs>
    <linearGradient id="color_light_vertical_logo_paint0" x1="140" y1="99.4601" x2="226.634" y2="72.3877" gradientUnits="userSpaceOnUse">
      <stop stop-color="#07D5D8"></stop>
      <stop offset="0.6369" stop-color="#6E6EFF"></stop>
      <stop offset="1" stop-color="#6E35FF"></stop>
    </linearGradient>
    <linearGradient id="color_light_vertical_logo_paint1" x1="212.8" y1="79.9048" x2="153.301" y2="82.7111" gradientUnits="userSpaceOnUse">
      <stop stop-color="#07D5D8"></stop>
      <stop offset="0.6369" stop-color="#6E6EFF"></stop>
      <stop offset="1" stop-color="#6E35FF"></stop>
    </linearGradient>
    <linearGradient id="color_light_vertical_logo_paint2" x1="223.3" y1="65.238" x2="138.77" y2="90.256" gradientUnits="userSpaceOnUse">
      <stop stop-color="#07D5D8"></stop>
      <stop offset="0.6369" stop-color="#6E6EFF"></stop>
      <stop offset="1" stop-color="#6E35FF"></stop>
    </linearGradient>
    <linearGradient id="color_light_vertical_logo_paint3" x1="197.4" y1="89.6824" x2="170.247" y2="74.061" gradientUnits="userSpaceOnUse">
      <stop stop-color="#07D5D8"></stop>
      <stop offset="0.6369" stop-color="#6E6EFF"></stop>
      <stop offset="1" stop-color="#6E35FF"></stop>
    </linearGradient>
    <linearGradient id="color_light_vertical_logo_paint4" x1="152.6" y1="88.9841" x2="211.393" y2="84.7" gradientUnits="userSpaceOnUse">
      <stop stop-color="#07D5D8"></stop>
      <stop offset="0.6369" stop-color="#6E6EFF"></stop>
      <stop offset="1" stop-color="#6E35FF"></stop>
    </linearGradient>
    <linearGradient id="color_light_vertical_logo_paint5" x1="178.5" y1="77.1111" x2="185.409" y2="89.0367" gradientUnits="userSpaceOnUse">
      <stop stop-color="#07D5D8"></stop>
      <stop offset="0.6369" stop-color="#6E6EFF"></stop>
      <stop offset="1" stop-color="#6E35FF"></stop>
    </linearGradient>
    <linearGradient id="color_light_vertical_logo_paint6" x1="186.9" y1="86.8891" x2="180.672" y2="76.3702" gradientUnits="userSpaceOnUse">
      <stop stop-color="#07D5D8"></stop>
      <stop offset="0.6369" stop-color="#6E6EFF"></stop>
      <stop offset="1" stop-color="#6E35FF"></stop>
    </linearGradient>
    <linearGradient id="color_light_vertical_logo_paint7" x1="167.3" y1="77.111" x2="195.188" y2="91.9872" gradientUnits="userSpaceOnUse">
      <stop stop-color="#07D5D8"></stop>
      <stop offset="0.6369" stop-color="#6E6EFF"></stop>
      <stop offset="1" stop-color="#6E35FF"></stop>
    </linearGradient>
    <clipPath id="color_light_vertical_logo_clip0">
      <rect width="98" height="88" fill="white" transform="translate(133 38)"></rect>
    </clipPath>
  </defs>
</svg>
