<svg width="12" height="12" viewBox="0 0 12 12" fill="none" xmlns="http://www.w3.org/2000/svg">
<rect opacity="0.01" width="12" height="12" fill="black"/>
<path fill-rule="evenodd" clip-rule="evenodd" d="M8.39008 8.39627C8.27409 8.51065 8.11709 8.57376 7.95421 8.57146H0.608565C0.272464 8.57146 0 8.299 0 7.9629V0.608683C0 0.272582 0.272464 0.0001178 0.608565 0.0001178H7.95421C8.11709 -0.00217653 8.27409 0.0609257 8.39008 0.175303C8.50607 0.289681 8.57136 0.445785 8.57134 0.608683V7.9629C8.57136 8.12579 8.50607 8.2819 8.39008 8.39627ZM9.42848 3.42866H11.3827C11.5456 3.42636 11.7026 3.48946 11.8186 3.60384C11.9346 3.71822 11.9999 3.87432 11.9999 4.03722V11.3914C11.9999 11.7275 11.7274 12 11.3913 12H4.04567C3.88279 12.0023 3.72579 11.9392 3.6098 11.8248C3.49381 11.7104 3.42852 11.5543 3.42854 11.3914V9.42859H8.75134C8.93093 9.42859 9.10316 9.35725 9.23015 9.23027C9.35714 9.10328 9.42848 8.93105 9.42848 8.75146V3.42866Z" fill="#000"/>
</svg>
