<svg width="39" height="39" viewBox="0 0 39 39" fill="none" xmlns="http://www.w3.org/2000/svg">
<g filter="url(#filter0_d_198_1688)">
<ellipse cx="17.2259" cy="19.3309" rx="17.2259" ry="17.3309" fill="#2A5ADA"/>
<path d="M17.6074 6.36943V6.38174C17.6196 6.44326 17.6196 6.51709 17.6196 6.59092V15.4626C17.6074 15.5119 17.5707 15.5242 17.534 15.5488C17.2772 15.6718 17.0326 15.7825 16.7758 15.8933C16.4211 16.0533 16.0542 16.2255 15.6994 16.3855L14.4152 16.9762C14.0606 17.1361 13.706 17.2961 13.3635 17.456C12.9477 17.6528 12.5196 17.8374 12.1038 18.0344C11.7491 18.1943 11.3945 18.3666 11.0275 18.5266C10.734 18.6619 10.4405 18.785 10.1592 18.9203C10.1348 18.9326 10.1103 18.9448 10.0858 18.9448C10.0736 18.9448 10.0736 18.9448 10.0614 18.9326L10.3916 18.3788C11.0275 17.3206 11.6513 16.2747 12.2873 15.2165C12.9599 14.0845 13.6448 12.9525 14.3175 11.8204C14.9412 10.7745 15.5771 9.72862 16.2009 8.68273C16.6535 7.91983 17.1181 7.15694 17.5707 6.39404C17.583 6.36943 17.5952 6.35713 17.5952 6.33252H17.6074C17.5952 6.34482 17.6074 6.35713 17.6074 6.36943Z" fill="white"/>
<path opacity="0.840588" d="M25.1172 18.9328L25.1294 18.9451L23.3316 20.0156L17.6812 23.3749C17.6568 23.3871 17.6324 23.3994 17.6202 23.4117C17.5834 23.4117 17.5834 23.3749 17.5834 23.3625V23.2518V15.6474C17.5834 15.6105 17.5834 15.5613 17.5956 15.5244C17.6078 15.4752 17.6446 15.4875 17.6812 15.4998C17.8402 15.5736 18.0115 15.6474 18.1704 15.7212C18.6474 15.9428 19.1244 16.1642 19.6015 16.3735C20.0172 16.558 20.4208 16.7549 20.8367 16.9395C21.2524 17.124 21.6683 17.3209 22.0841 17.5055C22.4388 17.6655 22.8058 17.8376 23.1603 17.9977C23.515 18.1575 23.8819 18.3298 24.2367 18.4899C24.5179 18.6129 24.7992 18.7482 25.0804 18.8713C25.0804 18.9083 25.0928 18.9205 25.1172 18.9328Z" fill="white"/>
<path d="M17.6066 31.0532C17.6066 31.0655 17.5944 31.0779 17.5944 31.0902H17.582C17.582 31.0655 17.5576 31.0532 17.5454 31.0286C16.7872 29.9582 16.0288 28.8753 15.2706 27.8048C14.5 26.7096 13.7174 25.6022 12.9469 24.5071C12.2008 23.4489 11.4426 22.3783 10.6965 21.3201C10.5008 21.0372 10.3052 20.7664 10.1095 20.4835C10.0972 20.4588 10.085 20.4465 10.0605 20.4097C10.0972 20.4097 10.1217 20.4342 10.1339 20.4465C11.198 21.074 12.2498 21.7017 13.3138 22.3292C14.5368 23.0551 15.7476 23.7811 16.9707 24.5071L17.5944 24.8763C17.6188 24.9008 17.6188 24.9255 17.6188 24.9501V30.881C17.6188 30.9424 17.6188 31.0039 17.6066 31.0532Z" fill="white"/>
<path opacity="0.840588" d="M10.0483 18.9573V18.9449C10.4396 18.7727 10.8188 18.5881 11.2101 18.4158C11.7116 18.182 12.213 17.9606 12.7144 17.7268C13.0936 17.5545 13.4849 17.3699 13.8641 17.1976C14.4267 16.9392 14.977 16.6931 15.5396 16.4348C15.9187 16.2625 16.2978 16.0902 16.6893 15.9056C16.9583 15.7826 17.2397 15.6596 17.5087 15.5365C17.5331 15.5242 17.5698 15.5119 17.582 15.4873C17.5942 15.4873 17.5942 15.4996 17.582 15.5119V23.3254C17.582 23.3624 17.5698 23.3992 17.5942 23.4239C17.5698 23.4607 17.5454 23.4239 17.5331 23.4115C17.4231 23.35 17.313 23.2884 17.2029 23.2146C14.8425 21.812 12.4698 20.3969 10.1094 18.9941C10.0972 18.9818 10.0727 18.9696 10.0483 18.9573Z" fill="white"/>
<path d="M25.092 20.4097H25.1042C25.1042 20.4342 25.0798 20.4588 25.0676 20.4835C22.8172 23.6703 20.5669 26.8696 18.3165 30.0565C18.0841 30.3888 17.8395 30.721 17.6072 31.0532C17.5949 31.0409 17.5949 31.0286 17.5949 31.0164V30.9424V24.9746V24.864C18.1087 24.5564 18.6101 24.261 19.1237 23.9534C21.105 22.7722 23.0862 21.6032 25.0553 20.4219C25.0676 20.4342 25.0798 20.4219 25.092 20.4097Z" fill="white"/>
<path d="M17.5941 15.512V15.4873V15.4135V6.48028C17.5941 6.44336 17.5818 6.41875 17.6063 6.38184C20.0889 10.5285 22.5718 14.6629 25.0422 18.8096C25.0667 18.8466 25.1034 18.8958 25.1156 18.9449C24.9443 18.8834 24.7853 18.7973 24.6264 18.7235C24.4307 18.6373 24.2227 18.5389 24.0271 18.4527C23.9048 18.3912 23.7703 18.3421 23.648 18.2806C23.4401 18.1821 23.2321 18.096 23.0242 17.9975C22.9019 17.9483 22.7796 17.8867 22.6573 17.8252L21.8501 17.4561C21.7156 17.3945 21.5811 17.333 21.4343 17.2715L20.8473 17.0131C20.725 16.9639 20.6027 16.9023 20.4804 16.8408L19.6732 16.4717C19.5386 16.4101 19.4041 16.3486 19.2574 16.2871L18.6702 16.0287C18.5357 15.9672 18.4134 15.9057 18.2789 15.8441C18.0465 15.7335 17.8141 15.6227 17.5695 15.5243C17.6063 15.512 17.5941 15.512 17.5941 15.512Z" fill="white"/>
</g>
<defs>
<filter id="filter0_d_198_1688" x="0" y="0" width="38.4518" height="38.6621" filterUnits="userSpaceOnUse" color-interpolation-filters="sRGB">
<feFlood flood-opacity="0" result="BackgroundImageFix"/>
<feColorMatrix in="SourceAlpha" type="matrix" values="0 0 0 0 0 0 0 0 0 0 0 0 0 0 0 0 0 0 127 0" result="hardAlpha"/>
<feOffset dx="2"/>
<feGaussianBlur stdDeviation="1"/>
<feColorMatrix type="matrix" values="0 0 0 0 0 0 0 0 0 0 0 0 0 0 0 0 0 0 0.199301 0"/>
<feBlend mode="normal" in2="BackgroundImageFix" result="effect1_dropShadow_198_1688"/>
<feBlend mode="normal" in="SourceGraphic" in2="effect1_dropShadow_198_1688" result="shape"/>
</filter>
</defs>
</svg>
