<svg width="25" height="25" viewBox="0 0 25 25" fill="none" xmlns="http://www.w3.org/2000/svg">
<g clip-path="url(#clip0_1304_3146)">
<path d="M23.7559 0.882812L14.001 8.12791L15.8049 3.8534L23.7559 0.882812Z" fill="#E2761B" stroke="#E2761B" stroke-width="0.0980392" stroke-linecap="round" stroke-linejoin="round"/>
<path d="M1.23438 0.881836L10.9108 8.19556L9.19516 3.85242L1.23438 0.881836Z" fill="#E4761B" stroke="#E4761B" stroke-width="0.0980392" stroke-linecap="round" stroke-linejoin="round"/>
<path d="M20.2455 17.6758L17.6475 21.6562L23.2063 23.1856L24.8043 17.764L20.2455 17.6758Z" fill="#E4761B" stroke="#E4761B" stroke-width="0.0980392" stroke-linecap="round" stroke-linejoin="round"/>
<path d="M0.205078 17.764L1.79331 23.1856L7.35214 21.6562L4.7541 17.6758L0.205078 17.764Z" fill="#E4761B" stroke="#E4761B" stroke-width="0.0980392" stroke-linecap="round" stroke-linejoin="round"/>
<path d="M7.03925 10.9506L5.49023 13.2937L11.0098 13.5388L10.8138 7.60742L7.03925 10.9506Z" fill="#E4761B" stroke="#E4761B" stroke-width="0.0980392" stroke-linecap="round" stroke-linejoin="round"/>
<path d="M17.95 10.9499L14.1265 7.53809L13.999 13.5381L19.5088 13.293L17.95 10.9499Z" fill="#E4761B" stroke="#E4761B" stroke-width="0.0980392" stroke-linecap="round" stroke-linejoin="round"/>
<path d="M7.35156 21.6567L10.6653 20.039L7.80254 17.8037L7.35156 21.6567Z" fill="#E4761B" stroke="#E4761B" stroke-width="0.0980392" stroke-linecap="round" stroke-linejoin="round"/>
<path d="M14.3232 20.039L17.6468 21.6567L17.186 17.8037L14.3232 20.039Z" fill="#E4761B" stroke="#E4761B" stroke-width="0.0980392" stroke-linecap="round" stroke-linejoin="round"/>
<path d="M17.6468 21.6567L14.3232 20.0391L14.5879 22.2057L14.5585 23.1175L17.6468 21.6567Z" fill="#D7C1B3" stroke="#D7C1B3" stroke-width="0.0980392" stroke-linecap="round" stroke-linejoin="round"/>
<path d="M7.35352 21.6567L10.4418 23.1175L10.4221 22.2057L10.6672 20.0391L7.35352 21.6567Z" fill="#D7C1B3" stroke="#D7C1B3" stroke-width="0.0980392" stroke-linecap="round" stroke-linejoin="round"/>
<path d="M10.4913 16.3729L7.72656 15.5591L9.67754 14.667L10.4913 16.3729Z" fill="#233447" stroke="#233447" stroke-width="0.0980392" stroke-linecap="round" stroke-linejoin="round"/>
<path d="M14.5 16.3729L15.3137 14.667L17.2745 15.5591L14.5 16.3729Z" fill="#233447" stroke="#233447" stroke-width="0.0980392" stroke-linecap="round" stroke-linejoin="round"/>
<path d="M7.35292 21.6581L7.82351 17.6777L4.75488 17.766L7.35292 21.6581Z" fill="#CD6116" stroke="#CD6116" stroke-width="0.0980392" stroke-linecap="round" stroke-linejoin="round"/>
<path d="M17.1758 17.6777L17.6464 21.6581L20.2444 17.766L17.1758 17.6777Z" fill="#CD6116" stroke="#CD6116" stroke-width="0.0980392" stroke-linecap="round" stroke-linejoin="round"/>
<path d="M19.5088 13.2959L13.999 13.541L14.5088 16.3743L15.3226 14.6684L17.2833 15.5606L19.5088 13.2959Z" fill="#CD6116" stroke="#CD6116" stroke-width="0.0980392" stroke-linecap="round" stroke-linejoin="round"/>
<path d="M7.72553 15.5606L9.68631 14.6684L10.4902 16.3743L11.0098 13.541L5.49023 13.2959L7.72553 15.5606Z" fill="#CD6116" stroke="#CD6116" stroke-width="0.0980392" stroke-linecap="round" stroke-linejoin="round"/>
<path d="M5.49023 13.2959L7.80396 17.8057L7.72553 15.5606L5.49023 13.2959Z" fill="#E4751F" stroke="#E4751F" stroke-width="0.0980392" stroke-linecap="round" stroke-linejoin="round"/>
<path d="M17.2846 15.5606L17.1865 17.8057L19.5101 13.2959L17.2846 15.5606Z" fill="#E4751F" stroke="#E4751F" stroke-width="0.0980392" stroke-linecap="round" stroke-linejoin="round"/>
<path d="M11.0098 13.541L10.4902 16.3743L11.1373 19.7175L11.2844 15.3155L11.0098 13.541Z" fill="#E4751F" stroke="#E4751F" stroke-width="0.0980392" stroke-linecap="round" stroke-linejoin="round"/>
<path d="M14.0001 13.541L13.7354 15.3057L13.853 19.7175L14.5099 16.3743L14.0001 13.541Z" fill="#E4751F" stroke="#E4751F" stroke-width="0.0980392" stroke-linecap="round" stroke-linejoin="round"/>
<path d="M14.5104 16.3733L13.8535 19.7164L14.3241 20.04L17.1868 17.8047L17.2849 15.5596L14.5104 16.3733Z" fill="#F6851B" stroke="#F6851B" stroke-width="0.0980392" stroke-linecap="round" stroke-linejoin="round"/>
<path d="M7.72656 15.5596L7.80499 17.8047L10.6677 20.04L11.1383 19.7164L10.4913 16.3733L7.72656 15.5596Z" fill="#F6851B" stroke="#F6851B" stroke-width="0.0980392" stroke-linecap="round" stroke-linejoin="round"/>
<path d="M14.5594 23.117L14.5888 22.2053L14.3437 21.9896H10.6476L10.4221 22.2053L10.4418 23.117L7.35352 21.6562L8.43195 22.5386L10.6182 24.0582H14.3731L16.5692 22.5386L17.6476 21.6562L14.5594 23.117Z" fill="#C0AD9E" stroke="#C0AD9E" stroke-width="0.0980392" stroke-linecap="round" stroke-linejoin="round"/>
<path d="M14.3229 20.0384L13.8523 19.7148H11.1366L10.666 20.0384L10.4209 22.205L10.6464 21.9894H14.3425L14.5876 22.205L14.3229 20.0384Z" fill="#161616" stroke="#161616" stroke-width="0.0980392" stroke-linecap="round" stroke-linejoin="round"/>
<path d="M24.1664 8.59752L24.9997 4.59752L23.7546 0.881836L14.3232 7.88184L17.9507 10.9505L23.0781 12.4505L24.2154 11.1269L23.7252 10.774L24.5095 10.0583L23.9017 9.58772L24.686 8.98968L24.1664 8.59752Z" fill="#763D16" stroke="#763D16" stroke-width="0.0980392" stroke-linecap="round" stroke-linejoin="round"/>
<path d="M0 4.59752L0.833333 8.59752L0.303922 8.98968L1.08824 9.58772L0.490196 10.0583L1.27451 10.774L0.784314 11.1269L1.91176 12.4505L7.03922 10.9505L10.6667 7.88184L1.23529 0.881836L0 4.59752Z" fill="#763D16" stroke="#763D16" stroke-width="0.0980392" stroke-linecap="round" stroke-linejoin="round"/>
<path d="M23.0787 12.4502L17.9512 10.9502L19.5101 13.2933L17.1865 17.8031L20.2453 17.7639H24.8042L23.0787 12.4502Z" fill="#F6851B" stroke="#F6851B" stroke-width="0.0980392" stroke-linecap="round" stroke-linejoin="round"/>
<path d="M7.04036 10.9502L1.91291 12.4502L0.207031 17.7639H4.75605L7.80507 17.8031L5.49135 13.2933L7.04036 10.9502Z" fill="#F6851B" stroke="#F6851B" stroke-width="0.0980392" stroke-linecap="round" stroke-linejoin="round"/>
<path d="M13.9992 13.5388L14.3228 7.88195L15.813 3.85254H9.19531L10.6659 7.88195L11.009 13.5388L11.1267 15.3231L11.1365 19.7153H13.8522L13.8718 15.3231L13.9992 13.5388Z" fill="#F6851B" stroke="#F6851B" stroke-width="0.0980392" stroke-linecap="round" stroke-linejoin="round"/>
</g>
<defs>
<clipPath id="clip0_1304_3146">
<rect width="25" height="25" fill="white"/>
</clipPath>
</defs>
</svg>
