<svg width="16" height="16" viewBox="0 0 16 16" fill="none" xmlns="http://www.w3.org/2000/svg">
<path fill-rule="evenodd" clip-rule="evenodd" d="M0 8C0 3.58172 3.58227 0 8 0C12.4182 0 15.9995 3.5819 15.9996 8C15.9996 12.4184 12.4181 16 8 16C3.58245 16 0 12.4181 0 8ZM8.72161 12.0853C9.07699 11.9871 9.43278 11.8467 9.73412 11.6357L9.73417 11.6356C10.3733 11.2009 10.7465 10.5691 10.7465 9.88125C10.7287 9.20765 10.3383 8.59 9.68114 8.15471L7.44271 6.70877C7.1758 6.52623 7.05158 6.31567 7.05158 6.04907C7.03413 5.78233 7.15793 5.55748 7.42481 5.37522C7.69111 5.19253 7.99288 5.13635 8.3301 5.17866C8.66776 5.22067 8.93464 5.36092 9.09445 5.5995C9.36105 5.92228 9.85852 6.03507 10.2671 5.85238C10.6752 5.6417 10.8349 5.24858 10.5688 4.92609C10.2312 4.43462 9.66281 4.0837 9.00568 3.92903V3.36752C9.00568 2.98856 8.63245 2.69366 8.15313 2.69366C7.67308 2.69366 7.30014 2.98858 7.30014 3.36752V3.91472C6.94491 4.01306 6.60728 4.13971 6.32324 4.35027C5.68385 4.78527 5.32876 5.40296 5.34649 6.0628C5.34649 6.72264 5.71942 7.34003 6.37656 7.7473L8.59754 9.19323C8.88144 9.3615 9.0241 9.62839 9.04154 9.89542C9.04154 10.1902 8.89902 10.4285 8.6147 10.611C8.34884 10.7937 8.02892 10.8639 7.6561 10.822C7.30058 10.7799 7.03441 10.6256 6.83871 10.3727C6.6074 10.0498 6.0928 9.93732 5.68396 10.1199C5.27627 10.3306 5.13332 10.7237 5.36433 11.0466C5.73756 11.5661 6.28806 11.903 7.01651 12.0853V12.6328C7.01651 13.012 7.38949 13.3066 7.86906 13.3066C8.34868 13.3066 8.72161 13.012 8.72161 12.6328V12.0853Z" fill="#B1B5C3"/>
</svg>
