<svg width="16" height="16" viewBox="0 0 16 16" fill="none" xmlns="http://www.w3.org/2000/svg">
<rect opacity="0.01" width="16" height="16" fill="#B1B5C3"/>
<path fill-rule="evenodd" clip-rule="evenodd" d="M15.8392 5.95066C15.8445 5.96664 15.8481 5.99326 15.8517 6.0252C15.8981 6.29319 16.0034 6.92321 15.9998 7.43788C15.9998 7.99515 15.8927 8.60388 15.8463 8.86477C15.8449 8.87238 15.8436 8.87948 15.8424 8.88607C15.8391 8.90407 15.8364 8.91826 15.8338 8.92866V8.94108L15.8267 8.97657C15.7125 9.60305 15.3144 9.99349 14.7825 9.99349H14.6933C13.8294 9.99349 13.1226 10.6927 13.1226 11.5553V11.573L13.119 11.5907C13.0904 11.8729 13.2422 12.1871 13.2457 12.1888L13.2493 12.1959L13.2529 12.203C13.501 12.755 13.3028 13.4507 12.8156 13.7541L12.8084 13.7612L10.8682 14.8279L10.8611 14.8314C10.6541 14.9326 10.472 15 10.2257 15C9.86156 15 9.50637 14.8527 9.24934 14.6007C8.74065 14.0949 8.23552 13.7808 7.93387 13.7808C7.5287 13.7808 6.9147 14.3061 6.68623 14.5049C6.67682 14.5129 6.66792 14.5209 6.65933 14.5286C6.64511 14.5414 6.63176 14.5535 6.6184 14.5634C6.39529 14.8119 6.03831 14.9627 5.64206 14.9627C5.46361 14.9627 5.30661 14.9119 5.16787 14.867C5.16229 14.8652 5.15674 14.8634 5.15122 14.8616L5.11552 14.8491L3.22353 13.8021L3.20925 13.795C2.68449 13.4471 2.45959 12.7567 2.69698 12.219C2.73625 12.1196 2.82906 11.8374 2.82906 11.6387C2.82906 10.7797 2.12581 10.0769 1.25835 10.0769H1.21552C0.70682 10.0769 0.298078 9.68114 0.17135 9.06708L0.164211 9.02804V9.01384C0.158856 8.99787 0.155286 8.97125 0.151716 8.9393C0.105309 8.67132 0 8.03952 0 7.52307C0 7.01722 0.102746 6.40069 0.148893 6.12378L0.151716 6.10684C0.153658 6.09526 0.155834 6.08461 0.157819 6.07489C0.161309 6.05781 0.164211 6.04361 0.164211 6.0323V6.01988L0.17135 5.98438C0.285584 5.3579 0.683616 4.96746 1.21552 4.96746H1.29941C2.1633 4.96746 2.87012 4.26822 2.87012 3.4057C2.87012 3.14837 2.74874 2.85376 2.70948 2.7668L2.70591 2.7597L2.70234 2.7526C2.45424 2.20066 2.65236 1.50497 3.13964 1.20149L3.15213 1.19439L5.16014 0.113583L5.19227 0.101159C5.33506 0.0532418 5.4957 0 5.68669 0C6.0508 0 6.406 0.147302 6.66302 0.399314C6.96467 0.697468 7.57868 1.1376 7.94101 1.1376C8.30513 1.1376 8.91735 0.695693 9.219 0.399314C9.45996 0.159726 9.84907 0 10.1953 0C10.3769 0 10.5397 0.0526391 10.6804 0.0981234L10.6898 0.101159L10.7255 0.113583L12.6406 1.19084C13.2493 1.52272 13.5117 2.17404 13.2654 2.7455C13.2261 2.84489 13.1333 3.12707 13.1333 3.32584C13.1333 4.18481 13.8365 4.8876 14.704 4.8876H14.7879C15.2966 4.8876 15.7053 5.28337 15.832 5.89742L15.8392 5.93646V5.95066ZM5.51355 7.50177C5.51355 8.86654 6.62554 9.9722 7.99813 9.9722C9.37072 9.9722 10.4827 8.86654 10.4827 7.50177C10.4827 6.13701 9.37072 5.03135 7.99813 5.03135C6.62554 5.03135 5.51355 6.13701 5.51355 7.50177Z" fill="#B1B5C3"/>
</svg>
