<svg width="139" height="139" viewBox="0 0 139 139" fill="none" xmlns="http://www.w3.org/2000/svg">
<path d="M65.7308 34.8297C63.6381 36.9224 61.5881 39.229 59.7086 41.6207C53.9427 48.8386 48.2619 57.936 42.8381 68.7416C39.3785 75.6181 37.4139 80.4873 37.2854 80.7009C36.8583 81.8115 37.1146 83.0926 37.9689 83.9469L55.053 101.031C55.9073 101.886 57.1884 102.142 58.3417 101.672C58.5553 101.629 63.296 99.622 70.1725 96.2479C81.2344 90.6528 90.4599 84.8442 97.5924 79.0784C99.9417 77.2416 102.163 75.277 104.17 73.2697C110.192 67.2472 114.549 58.5346 117.197 47.3446L91.6559 21.8039C80.4662 24.4509 71.7533 28.8072 65.7308 34.8297ZM93.4927 66.8625C87.6053 72.7495 78.0248 72.7495 72.1374 66.8625C66.25 60.975 66.25 51.3946 72.1374 45.5072C78.0248 39.6201 87.6053 39.6201 93.4927 45.5072C99.3801 51.3946 99.3801 60.975 93.4927 66.8625ZM25.1623 62.585C25.6877 63.1105 26.403 63.438 27.1725 63.4734C27.4116 63.4827 31.6298 63.6522 36.9738 66.9793C37.1371 66.6502 37.2709 66.3648 37.4414 66.026C42.3473 56.2578 47.5185 47.8277 52.8271 40.7436C46.3563 42.2297 36.8904 46.5856 25.156 58.3204C24.3113 59.1651 24.055 60.431 24.4864 61.5466C24.6411 61.9429 24.8725 62.2952 25.1623 62.585ZM72.1165 102.018C75.7709 107.614 76.0689 112.136 76.0811 112.39C76.1146 113.162 76.4377 113.873 76.9632 114.399C77.251 114.686 77.5993 114.918 77.9934 115.074C79.1113 115.512 80.3834 115.25 81.2341 114.399C93.7066 101.926 97.8655 91.9939 99.0761 85.524C91.9255 91.0091 83.1761 96.4389 72.8987 101.638C72.8728 101.65 72.5497 101.808 72.1165 102.018ZM29.4272 88.2177C24.3033 93.3416 20.7162 111.79 20.0487 115.435C19.8715 116.413 20.1841 117.414 20.8851 118.115C21.5858 118.816 22.5868 119.129 23.5649 118.952C27.2103 118.284 45.6583 114.697 50.7824 109.573C51.5136 108.842 52.1523 108.053 52.702 107.221L31.7788 86.2982C30.9477 86.8475 30.1583 87.4863 29.4272 88.2177ZM119.973 21.9313C119.931 20.3509 118.649 19.0691 117.069 19.0267C116.672 18.9906 108.764 18.7936 98.791 20.3956L118.604 40.2085C120.206 30.236 120.01 22.3277 119.973 21.9313Z" fill="url(#paint0_linear_1874_2692)"/>
<defs>
<linearGradient id="paint0_linear_1874_2692" x1="28.9623" y1="98.7171" x2="106.321" y2="34.0945" gradientUnits="userSpaceOnUse">
<stop stop-color="#B182FF"/>
<stop offset="0.588542" stop-color="#59C1FB"/>
<stop offset="1" stop-color="#0EF7F8"/>
</linearGradient>
</defs>
</svg>
