<svg width="123" height="100" viewBox="0 0 123 100" fill="none" xmlns="http://www.w3.org/2000/svg">
<path d="M57.8805 67.6175C49.2112 67.6175 40.5418 65.5777 33.6574 61.753C25.753 57.1633 21.4183 50.5339 21.4183 43.1394C21.4183 35.745 26.008 29.1155 33.9123 24.5259L61.7052 8.46215C75.2191 0.557768 96.3825 0.557768 109.896 8.46215C117.801 13.0518 122.135 19.6813 122.135 27.0757C122.135 34.4701 117.546 41.0996 109.641 45.6892L81.8486 61.753C75.2191 65.5777 66.5498 67.6175 57.8805 67.6175ZM69.8645 22.2311L42.0717 38.2948C38.757 40.0797 37.737 42.1195 37.737 43.1394C37.737 44.1594 38.757 45.9442 42.0717 47.7291C50.741 52.5737 65.7849 52.5737 74.1992 47.7291L101.992 31.6653C105.307 29.8805 106.327 27.8406 106.327 26.8207C106.327 25.8008 105.307 24.0159 101.992 22.2311C93.5777 17.3865 78.5339 17.3865 69.8645 22.2311Z" fill="#76DEF2"/>
<path d="M19.3785 100C16.0637 100 13.004 99.2351 10.1992 97.7052C3.8247 93.8805 0 86.741 0 77.8167V45.6892C0 30.1355 10.4542 11.7769 24.2231 3.87251C32.1275 -0.717131 40.2868 -1.22709 46.6614 2.34263C53.0359 5.91235 56.6056 13.3068 56.6056 22.2311V54.3586C56.6056 69.9124 46.1514 88.2709 32.3825 96.1753C28.0478 98.7251 23.4582 100 19.3785 100ZM37.2271 16.1116C35.9522 16.1116 34.4223 16.6215 32.1275 17.8964C23.4582 22.741 16.0637 36 16.0637 45.6892V77.8167C16.0637 81.3865 17.0837 83.4263 18.1036 83.9363C19.1235 84.4462 21.1633 84.4462 24.4781 82.4064C33.1474 77.3068 40.5418 64.3028 40.5418 54.6135V22.4861C40.5418 18.9163 39.5219 16.8765 38.502 16.3665C38.247 16.1116 37.737 16.1116 37.2271 16.1116Z" fill="#A88DF5"/>
<path d="M73.3023 47.6202C64.781 52.6328 49.994 52.6328 41.7233 47.6202C38.7158 45.8659 37.4627 44.1115 37.4627 43.109V42.8583H21.6732V43.109C21.6732 50.1265 26.5651 57.5143 34.3345 62.0256C40.8508 65.785 48.9944 67.7406 57.7663 67.7406C66.2876 67.7406 74.5554 65.1641 81.3223 61.4047L85.0817 59.3997V41.3546L73.3023 47.6202Z" fill="#76DEF2"/>
<path d="M77.004 13.3068C73.6892 13.3068 71.1394 15.8566 71.1394 19.1713C71.1394 17.6414 70.3745 16.1116 69.3546 14.8367C68.3347 13.8167 66.8048 13.0518 65.0199 13.0518C66.5498 13.0518 68.0797 12.2869 69.3546 11.2669C70.3745 10.247 71.1394 8.71713 71.1394 6.93227C71.1394 8.46215 71.9044 9.99203 72.9243 11.2669C73.9442 12.5418 75.4741 13.3068 77.004 13.3068Z" fill="white"/>
</svg>
