<svg width="35" height="35" viewBox="0 0 35 35" fill="none" xmlns="http://www.w3.org/2000/svg">
<path d="M34.2002 21.522C31.8987 30.8114 22.544 36.4584 13.3241 34.1427C4.09076 31.827 -1.52192 22.4158 0.779757 13.1398C3.08129 3.85043 12.4223 -1.79648 21.6557 0.519234C30.8756 2.82128 36.5019 12.2325 34.2002 21.522Z" fill="url(#paint0_linear_198_1682)"/>
<path fill-rule="evenodd" clip-rule="evenodd" d="M24.9946 13.3808C24.8047 11.0623 22.8329 10.2391 20.3129 9.97324L20.37 6.7501L18.4276 6.71219L18.3786 9.85009C17.8659 9.84338 17.3402 9.83969 16.8176 9.84917L16.8636 6.69807L14.9212 6.66016L14.8742 9.86707C14.4464 9.86855 14.0317 9.86704 13.6302 9.86245L13.6271 9.84927L10.937 9.80333L10.9087 11.8943C10.9087 11.8943 12.3455 11.896 12.3224 11.9153C13.1124 11.9274 13.3593 12.3985 13.4244 12.8003L13.3601 16.4699L13.38 16.4701L13.38 16.4701C13.4318 16.4707 13.4944 16.4714 13.572 16.4903C13.5034 16.4924 13.4348 16.4943 13.3631 16.483L13.2775 21.6164C13.2376 21.8619 13.0807 22.2595 12.5388 22.2456C12.5581 22.269 11.1252 22.2245 11.1252 22.2245L10.6977 24.5605L13.2374 24.6134C13.4378 24.6201 13.6353 24.6249 13.8313 24.6297L13.8315 24.6297C14.0984 24.6363 14.3627 24.6427 14.6279 24.6536L14.577 27.9032L16.5194 27.941L16.5763 24.718L16.6195 24.7193C17.1339 24.7357 17.6474 24.752 18.1333 24.7615L18.0865 27.9683L20.0289 28.0062L20.0797 24.7568C23.3638 24.6239 25.6693 23.8415 25.9918 20.7516C26.2618 18.2715 25.1149 17.1327 23.2617 16.6434C24.4173 16.0849 25.1362 15.0712 24.9946 13.3808ZM22.1566 20.2888C22.1254 22.5259 18.6007 22.4021 17.0182 22.3466C16.8847 22.3419 16.765 22.3377 16.6624 22.3354L16.731 18.0259C16.867 18.0288 17.0332 18.0283 17.2217 18.0276L17.2218 18.0276C18.8621 18.022 22.2004 18.0105 22.1566 20.2888ZM17.0822 16.0542C18.4065 16.1052 21.3162 16.2172 21.3532 14.1796C21.3847 12.1164 18.6091 12.1314 17.2442 12.1387C17.0869 12.1396 16.9483 12.1403 16.8349 12.1378L16.7699 16.0436C16.8594 16.0456 16.9646 16.0497 17.0822 16.0542Z" fill="white"/>
<defs>
<linearGradient id="paint0_linear_198_1682" x1="0.252004" y1="-0.00831891" x2="0.252004" y2="34.6584" gradientUnits="userSpaceOnUse">
<stop stop-color="#F9AA4B"/>
<stop offset="1" stop-color="#F7931A"/>
</linearGradient>
</defs>
</svg>
