<svg xmlns="http://www.w3.org/2000/svg" width="249.925" height="97.5" viewBox="0 0 249.925 97.5">
  <defs>
    <linearGradient id="linearGradient-2" x1="245.538" x2="1.5" y1="33.848" y2="33.848" gradientUnits="userSpaceOnUse">
      <stop offset="0" stop-color="rgb(50,197,255)"/>
      <stop offset="1" stop-color="rgb(103,44,255)"/>
    </linearGradient>
    <linearGradient id="linearGradient-4" x1="246.551" x2=".463" y1="49.5" y2="49.5" gradientUnits="userSpaceOnUse">
      <stop offset="0" stop-color="rgb(50,197,255)"/>
      <stop offset="1" stop-color="rgb(103,44,255)"/>
    </linearGradient>
  </defs>
  <g>
    <path fill="none" stroke="url(#linearGradient-2)" stroke-linecap="round" stroke-linejoin="round" stroke-width="3" d="M1.5 66.19565217l10.31247153-4.259345 20.62494307 1.41978166L53.06235766 50.5780538l20.62494307 2.1296725 20.62494306 2.83956335 20.62494307-6.38901752 20.62494306 1.41978167 20.62494306-16.3274892 20.62494307.70989083 20.62494306 4.96923585 20.62494307-16.32748921 20.62494306-3.54945418L248.425 1.5"/>
    <g opacity=".5">
      <path fill="url(#linearGradient-4)" fill-rule="evenodd" d="M.4625 97.5V67.14705882l10.375-4.23529411 20.75 1.4117647 20.75-12.70588235 20.75 2.11764706 20.75 2.8235294 20.75-6.35294117 20.75 1.4117647 20.75-16.2352941 20.75.70588234 20.75 4.94117647 20.75-16.23529411 20.75-3.52941177L249.4625 1.5v96h-249z"/>
    </g>
  </g>
</svg>
