<svg fill="none" xmlns="http://www.w3.org/2000/svg" viewBox="0 0 175 46.26">
  <path d="M171.52 14.9135C172.428 15.0845 173.112 15.3543 173.599 15.7161L173.605 15.7227L173.618 15.7292C174.099 16.0516 174.441 16.5121 174.638 17.1173L174.645 17.1239V17.1371C174.875 17.7489 175 18.5712 175 19.6238C175 20.4592 174.855 21.1368 174.592 21.6894V21.696C174.362 22.2025 173.96 22.6367 173.349 22.9986C172.724 23.3604 171.862 23.6564 170.73 23.8538C169.579 24.0182 168.145 24.1169 166.415 24.1169H165.757V26.4654L166.349 26.5247C166.671 26.5641 166.987 26.5904 167.316 26.6102C167.645 26.6299 167.974 26.6365 168.296 26.6365C170.072 26.6365 171.868 26.3799 173.664 25.88L174.184 29.1429C172.085 29.656 170.02 29.9126 167.987 29.9126C165.152 29.9126 163.244 29.2548 162.119 28.0838C160.981 26.8799 160.343 24.9853 160.343 22.2749C160.343 19.558 160.974 17.6765 162.119 16.4989V16.4924C163.264 15.3016 165.165 14.6372 167.987 14.6372C169.421 14.6372 170.592 14.7359 171.52 14.9135ZM170.513 19.8145V17.8804H168.579C167.796 17.8804 167.119 17.9594 166.638 18.1765H166.632C165.948 18.4922 165.757 19.2093 165.757 19.8672V21.8078H167.691C168.461 21.8078 169.145 21.7355 169.612 21.5118C170.303 21.196 170.513 20.4987 170.513 19.8145Z" fill="#121122"></path>
  <path d="M158.764 14.7754L159.047 19.3014C158.942 19.3212 158.837 19.3409 158.725 19.3606C158.363 19.4396 157.988 19.5251 157.607 19.6369H157.6H157.593C157.212 19.7554 156.857 19.9001 156.521 20.0777C156.166 20.2422 155.863 20.4593 155.633 20.7356L155.482 20.9198V29.4521H150.535V15.0977H152.732L154.712 17.1042L155.179 16.6766C156.159 15.7688 157.357 15.1306 158.764 14.7754Z" fill="#121122"></path>
  <path d="M147.396 15.0977V29.4389H145.193L143.041 27.3535L142.588 27.8995C141.489 29.2152 139.903 29.906 137.746 29.906C135.956 29.906 134.798 29.5244 134.121 28.906C133.463 28.2811 133.055 27.1759 133.055 25.3931V15.0977H138.002V26.6562H139.627C140.397 26.6562 141.081 26.5838 141.548 26.3601C142.239 26.0444 142.449 25.347 142.449 24.6629V15.0977H147.396Z" fill="#121122"></path>
  <path d="M140.814 30.0049C140.814 30.0143 140.804 30.0143 140.814 30.0049C140.804 30.0143 140.804 30.0049 140.814 30.0049Z" fill="#121122"></path>
  <path d="M130.318 26.4196C130.437 26.4327 130.555 26.4459 130.68 26.459L130.469 29.7812C129.331 29.7681 128.378 29.7286 127.608 29.6628C126.687 29.5904 126.075 29.4786 125.726 29.3536C125.055 29.1102 124.601 28.8273 124.312 28.5313C124.082 28.2813 123.917 27.8537 123.917 27.1498V17.828H122.352V15.0979H123.917V12.4467L128.864 11.21V15.0979H131.029V17.828H128.864V26.1499L129.391 26.2551C129.66 26.3077 129.95 26.3604 130.279 26.4196H130.298H130.318V26.4196Z" fill="#121122"></path>
  <path d="M120.331 19.3606C119.97 19.4396 119.595 19.5251 119.206 19.6369H119.2C118.818 19.7554 118.463 19.9001 118.128 20.0777C117.779 20.2422 117.47 20.4593 117.239 20.7356L117.088 20.9198V29.4521H112.141V15.0977H114.338L116.318 17.1042L116.786 16.6766C117.766 15.7688 118.963 15.1306 120.371 14.7754L120.654 19.3014C120.549 19.3212 120.443 19.3409 120.331 19.3606Z" fill="#121122"></path>
  <path d="M106.313 14.9135C107.227 15.0845 107.912 15.3543 108.398 15.7161L108.405 15.7227L108.418 15.7292C108.898 16.0516 109.24 16.5121 109.438 17.1173L109.444 17.1239V17.1371C109.675 17.7489 109.8 18.5712 109.8 19.6238C109.8 20.4592 109.655 21.1368 109.392 21.6894V21.696C109.161 22.2025 108.76 22.6367 108.148 22.9986C107.517 23.3604 106.655 23.6564 105.53 23.8538C104.379 24.0182 102.951 24.1169 101.215 24.1169H100.557V26.4654L101.149 26.5247C101.471 26.5641 101.787 26.5904 102.116 26.6102C102.445 26.6299 102.774 26.6365 103.096 26.6365C104.879 26.6365 106.668 26.3799 108.464 25.88L108.984 29.1429C106.885 29.656 104.82 29.9126 102.787 29.9126C99.9515 29.9126 98.0437 29.2548 96.9188 28.0838C95.7807 26.8799 95.1426 24.9853 95.1426 22.2749C95.1426 19.558 95.7741 17.6765 96.9188 16.4989V16.4924C98.0635 15.3016 99.9647 14.6372 102.787 14.6372C104.221 14.6372 105.392 14.7359 106.313 14.9135ZM105.313 19.8145V17.8804H103.379C102.596 17.8804 101.918 17.9594 101.438 18.1765L101.425 18.183C100.761 18.4922 100.557 19.2027 100.557 19.8672V21.8078H102.491C103.261 21.8078 103.945 21.7355 104.412 21.5118C105.103 21.196 105.313 20.4987 105.313 19.8145Z" fill="#121122"></path>
  <path d="M92.9323 19.2753C93.1625 20.2292 93.281 21.2291 93.281 22.2751C93.281 23.2882 93.1823 24.2421 92.9783 25.1302C92.7876 25.9986 92.4652 26.7551 92.031 27.413C91.61 28.0314 91.0508 28.5248 90.3403 28.8932C89.6562 29.2484 88.7746 29.4458 87.6694 29.4458H83.4131V34.1889L78.4595 34.5573V15.0979H80.5975L82.104 17.1439L82.6303 16.3742C83.3737 15.2821 84.8078 14.6309 87.2024 14.6309C88.3734 14.6309 89.3141 14.8414 90.0509 15.2295C90.8206 15.6374 91.4192 16.1702 91.8731 16.8478L91.8797 16.8544L91.8863 16.861C92.3665 17.532 92.7152 18.328 92.9257 19.2622L92.9323 19.2753ZM87.8536 24.6632V17.8741H86.2287C85.7551 17.8741 85.367 17.8938 85.0512 17.9333C84.6302 17.9793 84.2683 18.1635 83.9657 18.4333C83.5842 18.7556 83.4263 19.2095 83.4065 19.6832V19.6963V26.6565H85.0314C85.8011 26.6565 86.4853 26.5841 86.9524 26.3604C87.6431 26.0447 87.8536 25.3473 87.8536 24.6632Z" fill="#121122"></path>
  <path d="M72.4203 11.1836L77.1437 29.4391H71.9072L71.177 26.334H64.9668L64.2563 29.4391H59.0264L63.7498 11.1836H72.4203V11.1836ZM70.3349 22.6632L68.7889 15.8675H67.4009L65.8154 22.6632H70.3349Z" fill="#121122"></path>
  <path d="M4.37513 31.7901C4.37513 31.7901 4.44092 32.0335 4.57249 32.4808C4.71064 32.9282 4.92773 33.5729 5.28297 34.3689C5.9803 35.9411 7.28943 38.1121 9.57877 39.9804C11.8352 41.8553 15.085 43.3025 18.7295 43.6709C20.5715 43.8683 22.4398 43.8091 24.3476 43.5131C26.2291 43.2236 28.15 42.6644 29.9262 41.9342C31.7222 41.1908 33.4326 40.2501 34.9851 39.1646C36.5706 38.0594 37.9455 36.8621 39.1888 35.553C40.4322 34.2373 41.4453 32.9084 42.3268 31.5072C43.182 30.1389 43.8465 28.7705 44.3399 27.4745C44.8267 26.1983 45.1688 24.9221 45.353 23.8761C45.5503 22.7906 45.6292 21.8433 45.649 21.067C45.6819 19.5145 45.5372 18.6527 45.5372 18.6527L50.9776 18.2251C50.9776 18.2251 51.0829 19.3961 50.8987 21.4091C50.8 22.4091 50.6158 23.6195 50.2671 24.955C49.9119 26.3299 49.4185 27.7443 48.708 29.2902C48.0041 30.8164 47.0897 32.3821 45.9713 33.9215C44.8727 35.4346 43.511 36.974 42.011 38.3489C40.5111 39.7304 38.7612 41.0395 36.9456 42.1184C35.097 43.2236 33.1103 44.1446 31.038 44.8353C28.946 45.5261 26.8343 45.98 24.6897 46.1642C22.5648 46.3484 20.4005 46.2629 18.4138 45.9077C14.3811 45.2103 10.8945 43.3486 8.56567 41.1185C6.21055 38.8949 4.98036 36.4608 4.3554 34.7438C4.03963 33.8821 3.85543 33.1781 3.74359 32.7045C3.64491 32.2308 3.59229 31.9743 3.59229 31.9743L4.37513 31.7901Z" fill="url(#color_dark_horizontal_logo_paint0)"></path>
  <path d="M40.8143 22.0009C40.8143 22.0009 40.913 21.2773 40.8406 20.0734C40.7683 18.8695 40.4656 17.1131 39.446 15.3434C38.9131 14.4487 38.2881 13.6264 37.3606 12.8502C36.4988 12.1068 35.433 11.4687 34.2686 10.9884C33.1042 10.5082 31.8214 10.199 30.4991 10.0609C29.8413 10.0016 29.1703 9.96217 28.4993 9.98191C28.1703 9.98191 27.848 10.0148 27.4664 10.0345C27.1309 10.074 26.8283 10.0937 26.4928 10.153C23.8285 10.5279 21.2957 11.5805 19.263 12.962C18.2301 13.6659 17.3683 14.4093 16.6118 15.2382C15.8816 16.0342 15.2698 16.8894 14.7961 17.6986C13.8488 19.33 13.4146 20.8299 13.2304 21.8694C13.0462 22.9153 13.0462 23.514 13.0462 23.514L8.2373 23.0601C8.2373 23.0601 8.32283 22.218 8.71096 20.8036C9.09909 19.4024 9.86879 17.442 11.2963 15.4487C12.0068 14.4487 12.862 13.4554 13.908 12.5147C14.9211 11.5937 16.1381 10.7121 17.4275 10.0082C20.0261 8.56752 23.1048 7.61363 26.2296 7.45574C26.6112 7.42943 27.0388 7.42943 27.4269 7.42285C27.769 7.43601 28.1703 7.43601 28.565 7.4689C29.3413 7.50837 30.111 7.62679 30.861 7.76494C32.3674 8.06097 33.8147 8.55436 35.1107 9.22538C36.4067 9.90297 37.5513 10.7319 38.4921 11.7055C39.4065 12.6133 40.1367 13.7448 40.6104 14.7579C41.5774 16.8565 41.7156 18.7774 41.6761 20.0668C41.6564 20.7115 41.5972 21.2312 41.5445 21.5733C41.4919 21.9088 41.4656 22.0865 41.4656 22.0865L40.8143 22.0009Z" fill="url(#color_dark_horizontal_logo_paint1)"></path>
  <path d="M46.4646 14.6723C46.4646 14.6723 46.3857 14.4421 46.2409 14.0013C46.0896 13.5737 45.8462 12.9422 45.4581 12.1856C44.7015 10.6792 43.3266 8.59375 41.0768 6.75834C38.8466 4.9295 35.7284 3.37696 32.1826 2.88357C30.3866 2.62043 28.5775 2.60727 26.7158 2.85725C24.8672 3.10724 23.0384 3.60721 21.295 4.33743C17.8018 5.77813 14.7231 8.09378 12.3679 10.666C9.99967 13.2448 8.31556 16.0801 7.3222 18.5932C7.06563 19.2313 6.86828 19.8168 6.6775 20.4417C6.50646 21.0075 6.36831 21.5667 6.25647 22.0929C6.0328 23.1455 5.92754 24.0599 5.88807 24.8099C5.80913 26.3098 5.92755 27.1387 5.92755 27.1387L0.00684553 27.4018C0.00684553 27.4018 -0.05894 26.2243 0.217359 24.2376C0.355509 23.2508 0.592337 22.0601 0.980472 20.7509C1.17783 20.0996 1.40808 19.4155 1.69753 18.6918C1.96068 18.0274 2.2896 17.2709 2.65142 16.5406C4.11186 13.5737 6.34199 10.4489 9.3155 7.68591C12.2758 4.9295 16.0125 2.57438 20.1306 1.23893C22.1832 0.567916 24.3343 0.146889 26.4526 0.0350534C28.5578 -0.0833606 30.709 0.100839 32.6431 0.548181C36.5902 1.42313 39.886 3.41643 42.1491 5.59393C44.4318 7.79117 45.7015 10.1134 46.3857 11.7778C46.7277 12.6132 46.9251 13.2908 47.0567 13.7579C47.1685 14.225 47.2343 14.4684 47.2343 14.4684L46.4646 14.6723Z" fill="url(#color_dark_horizontal_logo_paint2)"></path>
  <path d="M32.9133 26.9088C32.9133 26.9088 33.091 26.5206 33.3936 25.843C33.4725 25.672 33.558 25.4878 33.6436 25.2839C33.7093 25.0865 33.7817 24.8694 33.8606 24.6458C34.0054 24.1655 34.1304 23.6195 34.2093 23.0209C34.3672 21.8236 34.2948 20.3894 33.7225 19.0737C33.1699 17.7646 32.0647 16.6462 30.7095 16.0936C29.3543 15.5213 27.815 15.4687 26.4729 15.7647C25.0914 16.0607 23.9599 16.666 23.0587 17.3238C22.1771 17.9751 21.5653 18.6658 21.1772 19.1658C20.7891 19.6724 20.6049 19.9816 20.6049 19.9816L17.7563 17.9554C17.7563 17.9554 18.0524 17.5607 18.6445 16.9488C19.2431 16.337 20.1444 15.5213 21.414 14.7845C22.6508 14.0674 24.302 13.4227 26.0914 13.2517C27.8939 13.0675 29.9004 13.3504 31.6108 14.3108C33.3344 15.2516 34.5974 16.8962 35.0974 18.5803C35.6171 20.2776 35.4921 21.9157 35.1829 23.1985C35.025 23.8497 34.8277 24.4221 34.6172 24.9155C34.4922 25.1918 34.4264 25.3497 34.2883 25.6128C34.1764 25.8036 34.0712 25.9812 33.9725 26.1457C33.5975 26.7838 33.3804 27.1522 33.3804 27.1522L32.9133 26.9088Z" fill="url(#color_dark_horizontal_logo_paint3)"></path>
  <path d="M18.2231 21.1259C18.2231 21.1259 18.0718 21.5009 17.8152 22.1522C17.7494 22.3166 17.6771 22.4943 17.5981 22.6916L17.5389 22.8429C17.5652 22.7903 17.5192 22.9219 17.5126 22.9482C17.4863 23.0534 17.46 23.1587 17.4337 23.2705C17.3284 23.7179 17.2495 24.2244 17.2297 24.777C17.1837 25.8756 17.4008 27.165 18.0849 28.2702C18.4336 28.836 18.8612 29.3031 19.4006 29.7175C19.9335 30.1188 20.5453 30.428 21.19 30.6188C22.4926 31.0201 23.9267 30.9806 25.1963 30.6714C26.4923 30.3556 27.5712 29.803 28.4527 29.2175C29.3211 28.6255 29.9395 28.0268 30.3408 27.5795C30.7421 27.1321 30.9394 26.8558 30.9394 26.8558L33.8735 29.336C33.8735 29.336 33.5577 29.6846 32.9459 30.2241C32.3341 30.7569 31.4065 31.474 30.1829 32.1121C28.979 32.7437 27.4067 33.3226 25.7029 33.5331C23.9859 33.7502 22.065 33.5989 20.3282 32.8423C19.4598 32.4674 18.6573 31.9411 17.9928 31.303C17.3284 30.6714 16.7824 29.8951 16.4271 29.1254C15.6903 27.5532 15.6311 25.9217 15.8285 24.6455C15.9272 24.0008 16.085 23.4284 16.2627 22.935C16.3087 22.81 16.3548 22.6916 16.3942 22.5798L16.4798 22.3693L16.5587 22.2245C16.6574 22.0403 16.7495 21.8627 16.835 21.7114C17.1639 21.093 17.3547 20.7378 17.3547 20.7378L18.2231 21.1259Z" fill="url(#color_dark_horizontal_logo_paint4)"></path>
  <path d="M11.0722 26.5336C11.0722 26.5336 11.0788 26.7047 11.0854 27.027C11.0985 27.3362 11.1248 27.7835 11.2169 28.3559C11.388 29.4874 11.8156 31.1189 12.901 32.7306C13.4207 33.5135 14.1773 34.3489 15.0128 35.0002C15.8745 35.6844 16.9008 36.2567 18.0323 36.6646C19.1638 37.0659 20.394 37.3159 21.6571 37.3816C22.9004 37.4606 24.2227 37.3356 25.4661 37.0856C27.9857 36.5659 30.3539 35.441 32.2683 34.0266C32.7551 33.6779 33.2025 33.3029 33.6366 32.928L34.2813 32.3359L34.8339 31.7701C35.5707 30.9807 36.1957 30.1781 36.7022 29.3953C37.7153 27.8362 38.2811 26.4152 38.5706 25.4087C38.8666 24.4022 38.939 23.8232 38.939 23.8232L43.0111 24.6653C43.0111 24.6653 42.8466 25.4284 42.3664 26.6915C41.8927 27.948 41.0375 29.6716 39.656 31.4609C38.9653 32.3556 38.1495 33.2569 37.2022 34.1187C36.9522 34.3358 36.7022 34.5594 36.4457 34.7765C36.1957 34.9739 35.9457 35.1712 35.6891 35.3752C35.1497 35.7765 34.5905 36.1712 33.9985 36.533C31.6433 38 28.8146 39.0789 25.8739 39.4605C24.3938 39.6381 22.9268 39.6644 21.4663 39.467C20.019 39.2828 18.6178 38.8881 17.3547 38.3158C16.0916 37.7435 14.9601 36.9935 14.0391 36.1317C13.0787 35.2502 12.3945 34.3424 11.8485 33.3819C10.7696 31.4807 10.4604 29.6782 10.3749 28.4611C10.3288 27.8493 10.3354 27.3559 10.3486 27.027C10.3683 26.7047 10.3749 26.5402 10.3749 26.5402L11.0722 26.5336Z" fill="url(#color_dark_horizontal_logo_paint5)"></path>
  <path d="M24.0381 20.8497C24.0381 20.8497 23.4987 21.2707 23.0118 22.1128C22.525 22.9219 22.2619 24.2771 22.8737 25.1258C23.1368 25.5007 23.5644 25.7836 24.0052 25.8823C24.1105 25.9086 24.242 25.9283 24.3276 25.9349C24.5249 25.9612 24.5381 25.9481 24.6696 25.9481C24.8867 25.9415 25.0907 25.9086 25.2815 25.8626C26.038 25.6718 26.459 25.3231 26.459 25.3231L27.7089 27.6717C27.7089 27.6717 27.505 27.7703 27.1366 27.8953C26.7682 28.0203 26.2288 28.1716 25.5512 28.2045C25.2157 28.2177 24.8473 28.2111 24.4591 28.1453C24.2881 28.119 23.9986 28.0532 23.8868 28.0138C23.6631 27.948 23.4855 27.8822 23.275 27.7835C22.4856 27.4217 21.7488 26.7507 21.3738 25.8626C21.012 25.0271 21.0317 24.0798 21.2422 23.343C21.4527 22.5864 21.8277 21.9878 22.1961 21.5405C22.5645 21.0865 22.9329 20.7839 23.196 20.58C23.4658 20.376 23.6237 20.2905 23.6237 20.2905L24.0381 20.8497Z" fill="url(#color_dark_horizontal_logo_paint6)"></path>
  <path d="M27.8996 25.6454C27.8996 25.6454 28.4325 25.2243 28.8601 24.3889C29.0706 23.9744 29.235 23.4547 29.2416 22.9284C29.2614 22.3956 29.1101 21.8627 28.814 21.4614C28.5246 21.0601 28.1035 20.8036 27.6693 20.6917C27.4654 20.6391 27.2154 20.6062 27.0247 20.6062C26.8141 20.6062 26.6168 20.6325 26.4326 20.6654C25.6958 20.8233 25.2879 21.1391 25.2879 21.1391L24.1104 18.6721C24.1104 18.6721 24.3143 18.5866 24.6893 18.4879C25.0642 18.3892 25.6103 18.2774 26.2813 18.284C26.6168 18.2905 26.9786 18.3234 27.3536 18.409C27.7483 18.5011 28.1035 18.6195 28.4982 18.8234C29.2548 19.205 29.939 19.8826 30.2876 20.6917C30.6429 21.4943 30.6692 22.3758 30.4915 23.0995C30.3205 23.8363 29.9718 24.4283 29.6232 24.8691C29.2745 25.3099 28.9127 25.6125 28.6561 25.8033C28.393 25.994 28.2417 26.0796 28.2417 26.0796L27.8996 25.6454Z" fill="url(#color_dark_horizontal_logo_paint7)"></path>
  <defs>
    <linearGradient id="color_dark_horizontal_logo_paint0" x1="3.94723" y1="31.9061" x2="48.6814" y2="18.4201" gradientUnits="userSpaceOnUse">
      <stop stop-color="#07D5D8"></stop>
      <stop offset="0.6369" stop-color="#6E6EFF"></stop>
      <stop offset="1" stop-color="#6E35FF"></stop>
    </linearGradient>
    <linearGradient id="color_dark_horizontal_logo_paint1" x1="41.4455" y1="22.0383" x2="10.5263" y2="23.0251" gradientUnits="userSpaceOnUse">
      <stop stop-color="#07D5D8"></stop>
      <stop offset="0.6369" stop-color="#6E6EFF"></stop>
      <stop offset="1" stop-color="#6E35FF"></stop>
    </linearGradient>
    <linearGradient id="color_dark_horizontal_logo_paint2" x1="47.3656" y1="14.4728" x2="2.96035" y2="27.6299" gradientUnits="userSpaceOnUse">
      <stop stop-color="#07D5D8"></stop>
      <stop offset="0.6369" stop-color="#6E6EFF"></stop>
      <stop offset="1" stop-color="#6E35FF"></stop>
    </linearGradient>
    <linearGradient id="color_dark_horizontal_logo_paint3" x1="33.551" y1="26.9723" x2="19.4071" y2="19.4069" gradientUnits="userSpaceOnUse">
      <stop stop-color="#07D5D8"></stop>
      <stop offset="0.6369" stop-color="#6E6EFF"></stop>
      <stop offset="1" stop-color="#6E35FF"></stop>
    </linearGradient>
    <linearGradient id="color_dark_horizontal_logo_paint4" x1="17.7622" y1="21.0513" x2="32.5639" y2="28.2877" gradientUnits="userSpaceOnUse">
      <stop stop-color="#07D5D8"></stop>
      <stop offset="0.6369" stop-color="#6E6EFF"></stop>
      <stop offset="1" stop-color="#6E35FF"></stop>
    </linearGradient>
    <linearGradient id="color_dark_horizontal_logo_paint5" x1="10.5258" y1="26.3143" x2="41.445" y2="24.3407" gradientUnits="userSpaceOnUse">
      <stop stop-color="#07D5D8"></stop>
      <stop offset="0.6369" stop-color="#6E6EFF"></stop>
      <stop offset="1" stop-color="#6E35FF"></stop>
    </linearGradient>
    <linearGradient id="color_dark_horizontal_logo_paint6" x1="23.6826" y1="20.3936" x2="26.9719" y2="26.6433" gradientUnits="userSpaceOnUse">
      <stop stop-color="#07D5D8"></stop>
      <stop offset="0.6369" stop-color="#6E6EFF"></stop>
      <stop offset="1" stop-color="#6E35FF"></stop>
    </linearGradient>
    <linearGradient id="color_dark_horizontal_logo_paint7" x1="28.2875" y1="26.3142" x2="24.3403" y2="19.4067" gradientUnits="userSpaceOnUse">
      <stop stop-color="#07D5D8"></stop>
      <stop offset="0.6369" stop-color="#6E6EFF"></stop>
      <stop offset="1" stop-color="#6E35FF"></stop>
    </linearGradient>
  </defs>
</svg>
