<svg width="365" height="210" viewBox="0 0 365 210" fill="none" xmlns="http://www.w3.org/2000/svg">
<g clip-path="url(#clip0_1529_30510)">
<path d="M69.0034 117.29C69.0034 117.29 69.0936 117.622 69.2742 118.231C69.4638 118.84 69.7617 119.718 70.2492 120.802C71.2061 122.943 73.0026 125.9 76.1442 128.444C79.2407 130.997 83.7003 132.968 88.7016 133.47C91.2293 133.739 93.7931 133.658 96.4111 133.255C98.993 132.861 101.629 132.099 104.067 131.105C106.531 130.093 108.878 128.811 111.009 127.333C113.184 125.828 115.071 124.198 116.777 122.415C118.484 120.623 119.874 118.813 121.084 116.905C122.257 115.041 123.169 113.178 123.846 111.413C124.514 109.675 124.983 107.937 125.236 106.512C125.507 105.034 125.615 103.744 125.643 102.687C125.688 100.573 125.489 99.3989 125.489 99.3989L132.955 98.8165C132.955 98.8165 133.099 100.411 132.847 103.153C132.711 104.514 132.458 106.163 131.98 107.982C131.492 109.854 130.815 111.78 129.84 113.886C128.874 115.964 127.62 118.096 126.085 120.193C124.577 122.253 122.709 124.35 120.65 126.222C118.592 128.104 116.191 129.886 113.699 131.356C111.162 132.861 108.436 134.115 105.592 135.056C102.721 135.997 99.8236 136.615 96.8806 136.866C93.9647 137.116 90.9946 137 88.2683 136.516C82.7343 135.567 77.9497 133.031 74.7539 129.994C71.5221 126.966 69.8339 123.651 68.9763 121.313C68.543 120.139 68.2902 119.18 68.1367 118.535C68.0013 117.89 67.9291 117.541 67.9291 117.541L69.0034 117.29Z" fill="url(#paint0_linear_1529_30510)"/>
<path d="M119.007 103.959C119.007 103.959 119.143 102.974 119.043 101.334C118.944 99.6946 118.529 97.3025 117.129 94.8925C116.398 93.6741 115.541 92.5542 114.268 91.497C113.085 90.4847 111.623 89.6156 110.025 88.9616C108.427 88.3076 106.666 87.8866 104.852 87.6984C103.949 87.6178 103.028 87.564 102.108 87.5909C101.656 87.5909 101.214 87.6357 100.69 87.6626C100.23 87.7163 99.8145 87.7432 99.3541 87.8238C95.698 88.3345 92.2223 89.768 89.4328 91.6494C88.0155 92.608 86.8329 93.6203 85.7947 94.7492C84.7926 95.8332 83.9531 96.9979 83.3031 98.0999C82.0031 100.322 81.4073 102.364 81.1545 103.78C80.9017 105.204 80.9017 106.02 80.9017 106.02L74.3026 105.401C74.3026 105.401 74.4199 104.255 74.9525 102.329C75.4852 100.42 76.5414 97.7505 78.5004 95.0359C79.4754 93.6741 80.649 92.3213 82.0843 91.0401C83.4746 89.7859 85.1447 88.5854 86.9141 87.6267C90.48 85.6647 94.7049 84.3656 98.993 84.1506C99.5166 84.1148 100.103 84.1148 100.636 84.1058C101.105 84.1238 101.656 84.1238 102.198 84.1685C103.263 84.2223 104.319 84.3836 105.348 84.5717C107.416 84.9749 109.402 85.6468 111.18 86.5606C112.959 87.4834 114.53 88.6122 115.82 89.9382C117.075 91.1745 118.077 92.7155 118.727 94.0952C120.054 96.9531 120.244 99.5691 120.19 101.325C120.163 102.203 120.082 102.911 120.009 103.377C119.937 103.834 119.901 104.076 119.901 104.076L119.007 103.959Z" fill="url(#paint1_linear_1529_30510)"/>
<path d="M126.762 93.9786C126.762 93.9786 126.654 93.665 126.455 93.0647C126.247 92.4824 125.913 91.6223 125.381 90.592C124.343 88.5404 122.456 85.7004 119.368 83.2008C116.308 80.7102 112.029 78.5959 107.163 77.924C104.698 77.5656 102.216 77.5477 99.6611 77.8881C97.1243 78.2286 94.6146 78.9094 92.2223 79.9039C87.4287 81.8659 83.2038 85.0195 79.9719 88.5225C76.722 92.0344 74.4109 95.8958 73.0477 99.3181C72.6956 100.187 72.4248 100.985 72.163 101.836C71.9283 102.606 71.7387 103.368 71.5852 104.084C71.2783 105.518 71.1339 106.763 71.0797 107.784C70.9714 109.827 71.1339 110.956 71.1339 110.956L63.009 111.314C63.009 111.314 62.9188 109.711 63.2979 107.005C63.4875 105.661 63.8125 104.04 64.3451 102.257C64.6159 101.37 64.9319 100.438 65.3291 99.4525C65.6902 98.5477 66.1416 97.5174 66.6381 96.5229C68.6422 92.4824 71.7026 88.2269 75.7831 84.4641C79.8455 80.7102 84.9732 77.5029 90.6245 75.6842C93.4411 74.7704 96.3931 74.197 99.3 74.0447C102.189 73.8834 105.141 74.1343 107.795 74.7435C113.212 75.935 117.734 78.6496 120.84 81.6151C123.972 84.6074 125.715 87.7699 126.654 90.0366C127.123 91.1744 127.394 92.0972 127.574 92.7333C127.728 93.3693 127.818 93.7008 127.818 93.7008L126.762 93.9786Z" fill="url(#paint2_linear_1529_30510)"/>
<path d="M108.165 110.643C108.165 110.643 108.409 110.114 108.824 109.191C108.932 108.958 109.05 108.707 109.167 108.43C109.257 108.161 109.357 107.865 109.465 107.561C109.664 106.907 109.835 106.163 109.944 105.348C110.16 103.717 110.061 101.764 109.275 99.9723C108.517 98.1895 107.001 96.6664 105.141 95.9139C103.281 95.1344 101.169 95.0628 99.327 95.4659C97.4313 95.8691 95.8785 96.6933 94.6417 97.5892C93.432 98.4762 92.5925 99.4169 92.0598 100.098C91.5272 100.788 91.2744 101.209 91.2744 101.209L87.3655 98.4493C87.3655 98.4493 87.7717 97.9117 88.5842 97.0786C89.4057 96.2454 90.6425 95.1344 92.3848 94.131C94.082 93.1545 96.3479 92.2765 98.8034 92.0436C101.277 91.7927 104.03 92.178 106.378 93.486C108.743 94.7671 110.476 97.0069 111.162 99.3004C111.875 101.612 111.704 103.843 111.28 105.59C111.063 106.477 110.792 107.256 110.503 107.928C110.332 108.304 110.241 108.519 110.052 108.878C109.898 109.137 109.754 109.379 109.619 109.603C109.104 110.472 108.806 110.974 108.806 110.974L108.165 110.643Z" fill="url(#paint3_linear_1529_30510)"/>
<path d="M78.1935 110.132C78.1935 110.132 78.2025 110.365 78.2115 110.804C78.2296 111.225 78.2657 111.834 78.3921 112.613C78.6268 114.154 79.2136 116.376 80.7031 118.571C81.4163 119.637 82.4545 120.775 83.601 121.662C84.7836 122.594 86.1919 123.373 87.7447 123.929C89.2974 124.475 90.9856 124.816 92.7189 124.905C94.4251 125.013 96.2396 124.843 97.9459 124.502C101.403 123.794 104.653 122.262 107.28 120.336C107.948 119.861 108.562 119.351 109.158 118.84L110.043 118.034L110.801 117.263C111.812 116.188 112.67 115.095 113.365 114.029C114.755 111.906 115.532 109.971 115.929 108.6C116.335 107.229 116.434 106.441 116.434 106.441L122.022 107.587C122.022 107.587 121.797 108.627 121.138 110.347C120.488 112.058 119.314 114.405 117.418 116.842C116.47 118.061 115.351 119.288 114.051 120.462C113.708 120.757 113.365 121.062 113.013 121.357C112.67 121.626 112.327 121.895 111.975 122.173C111.234 122.719 110.467 123.257 109.655 123.75C106.423 125.747 102.541 127.217 98.5056 127.736C96.4744 127.978 94.4612 128.014 92.4571 127.745C90.471 127.494 88.5481 126.957 86.8148 126.177C85.0815 125.398 83.5288 124.377 82.2649 123.203C80.9469 122.003 80.008 120.766 79.2587 119.458C77.7782 116.869 77.3539 114.414 77.2365 112.757C77.1734 111.924 77.1824 111.252 77.2004 110.804C77.2275 110.365 77.2365 110.141 77.2365 110.141L78.1935 110.132Z" fill="url(#paint4_linear_1529_30510)"/>
<path d="M95.9869 102.391C95.9869 102.391 95.2466 102.965 94.5786 104.111C93.9105 105.213 93.5494 107.059 94.389 108.215C94.7501 108.725 95.3369 109.11 95.9417 109.245C96.0862 109.281 96.2667 109.308 96.3841 109.316C96.6549 109.352 96.673 109.334 96.8535 109.334C97.1514 109.325 97.4313 109.281 97.6931 109.218C98.7313 108.958 99.309 108.483 99.309 108.483L101.024 111.682C101.024 111.682 100.744 111.816 100.239 111.986C99.7333 112.157 98.9931 112.363 98.0632 112.407C97.6028 112.425 97.0973 112.416 96.5646 112.327C96.3299 112.291 95.9327 112.201 95.7792 112.148C95.4723 112.058 95.2286 111.968 94.9397 111.834C93.8564 111.341 92.8453 110.427 92.3307 109.218C91.8342 108.08 91.8613 106.79 92.1501 105.787C92.439 104.756 92.9536 103.941 93.4591 103.332C93.9647 102.714 94.4702 102.302 94.8313 102.024C95.2015 101.746 95.4181 101.63 95.4181 101.63L95.9869 102.391Z" fill="url(#paint5_linear_1529_30510)"/>
<path d="M101.286 108.922C101.286 108.922 102.017 108.349 102.604 107.211C102.893 106.647 103.119 105.939 103.128 105.222C103.155 104.497 102.947 103.771 102.541 103.224C102.144 102.678 101.566 102.329 100.97 102.176C100.69 102.105 100.347 102.06 100.085 102.06C99.7965 102.06 99.5257 102.096 99.2729 102.14C98.2618 102.355 97.7021 102.785 97.7021 102.785L96.0862 99.4258C96.0862 99.4258 96.366 99.3093 96.8806 99.175C97.3952 99.0406 98.1445 98.8883 99.0653 98.8972C99.5257 98.9062 100.022 98.951 100.537 99.0674C101.078 99.1929 101.566 99.3541 102.108 99.6319C103.146 100.151 104.085 101.074 104.563 102.176C105.051 103.269 105.087 104.47 104.843 105.455C104.608 106.459 104.13 107.265 103.651 107.865C103.173 108.465 102.676 108.878 102.324 109.137C101.963 109.397 101.756 109.514 101.756 109.514L101.286 108.922Z" fill="url(#paint6_linear_1529_30510)"/>
<path d="M86.8148 102.203C86.8148 102.203 85.3884 104.389 84.9461 106.405C84.5037 108.421 83.926 112.3 87.0224 115.902C87.0224 115.902 89.9835 119.718 96.0861 119.754C96.0861 119.754 100.248 119.996 104.816 117.487C104.816 117.487 107.912 115.749 109.483 113.922L105.457 110.544C105.457 110.544 103.705 113.079 100.465 114.674C100.465 114.674 95.8063 117.272 91.2744 115.382C91.2744 115.382 87.1308 114.092 86.3905 108.734C86.3905 108.734 86.1197 104.918 87.5731 102.544L86.8148 102.203Z" fill="url(#paint7_linear_1529_30510)"/>
</g>
<path d="M297.247 94.094C298.487 94.3276 299.421 94.696 300.086 95.1901L300.095 95.1991L300.113 95.2081C300.769 95.6483 301.236 96.2772 301.506 97.1038L301.515 97.1128V97.1308C301.829 97.9663 302 99.0894 302 100.527C302 101.668 301.802 102.593 301.443 103.348V103.357C301.128 104.049 300.58 104.642 299.745 105.136C298.891 105.63 297.714 106.034 296.169 106.304C294.597 106.528 292.638 106.663 290.275 106.663H289.377V109.871L290.185 109.952C290.626 110.005 291.057 110.041 291.506 110.068C291.955 110.095 292.405 110.104 292.845 110.104C295.271 110.104 297.723 109.754 300.176 109.071L300.886 113.527C298.02 114.228 295.199 114.579 292.423 114.579C288.55 114.579 285.945 113.68 284.408 112.081C282.854 110.437 281.983 107.849 281.983 104.148C281.983 100.437 282.845 97.8675 284.408 96.2593V96.2503C285.972 94.6241 288.568 93.7167 292.423 93.7167C294.381 93.7167 295.98 93.8514 297.247 94.094ZM295.873 100.787V98.146H293.231C292.162 98.146 291.237 98.2538 290.581 98.5503H290.572C289.637 98.9816 289.377 99.9609 289.377 100.859V103.51H292.018C293.069 103.51 294.004 103.411 294.642 103.105C295.585 102.674 295.873 101.722 295.873 100.787Z" fill="#121122"/>
<path d="M279.826 93.9055L280.213 100.087C280.069 100.114 279.925 100.141 279.773 100.168C279.278 100.275 278.766 100.392 278.245 100.545H278.236H278.227C277.706 100.707 277.221 100.904 276.763 101.147C276.278 101.372 275.864 101.668 275.55 102.045L275.343 102.297V113.95H268.587V94.3458H271.588L274.292 97.086L274.93 96.502C276.269 95.2622 277.904 94.3907 279.826 93.9055Z" fill="#121122"/>
<path d="M264.301 94.3458V113.932H261.291L258.353 111.084L257.734 111.83C256.233 113.626 254.068 114.57 251.121 114.57C248.677 114.57 247.096 114.049 246.171 113.204C245.272 112.351 244.715 110.841 244.715 108.406V94.3458H251.471V110.131H253.691C254.742 110.131 255.676 110.033 256.314 109.727C257.257 109.296 257.545 108.344 257.545 107.409V94.3458H264.301Z" fill="#121122"/>
<path d="M255.311 114.705C255.311 114.717 255.298 114.717 255.311 114.705C255.298 114.717 255.298 114.705 255.311 114.705Z" fill="#121122"/>
<path d="M240.978 109.808C241.139 109.826 241.301 109.844 241.472 109.862L241.184 114.399C239.63 114.381 238.327 114.327 237.276 114.237C236.018 114.139 235.183 113.986 234.707 113.815C233.79 113.483 233.17 113.096 232.775 112.692C232.46 112.351 232.236 111.767 232.236 110.805V98.0745H230.098V94.3459H232.236V90.7252L238.992 89.0361V94.3459H241.948V98.0745H238.992V109.44L239.711 109.584C240.079 109.655 240.475 109.727 240.924 109.808H240.951H240.978V109.808Z" fill="#121122"/>
<path d="M227.339 100.168C226.845 100.275 226.333 100.392 225.803 100.545H225.794C225.273 100.707 224.788 100.904 224.329 101.147C223.853 101.372 223.431 101.668 223.116 102.045L222.91 102.297V113.95H216.154V94.3458H219.154L221.859 97.086L222.497 96.502C223.835 95.2622 225.47 94.3907 227.393 93.9055L227.779 100.087C227.636 100.114 227.492 100.141 227.339 100.168Z" fill="#121122"/>
<path d="M208.193 94.094C209.442 94.3276 210.377 94.696 211.042 95.1901L211.051 95.1991L211.069 95.2081C211.724 95.6483 212.192 96.2772 212.461 97.1038L212.47 97.1128V97.1308C212.785 97.9663 212.955 99.0894 212.955 100.527C212.955 101.668 212.758 102.593 212.398 103.348V103.357C212.084 104.049 211.536 104.642 210.7 105.136C209.838 105.63 208.661 106.034 207.124 106.304C205.552 106.528 203.602 106.663 201.231 106.663H200.332V109.871L201.141 109.952C201.581 110.005 202.012 110.041 202.461 110.068C202.911 110.095 203.36 110.104 203.8 110.104C206.235 110.104 208.679 109.754 211.131 109.071L211.841 113.527C208.975 114.228 206.154 114.579 203.378 114.579C199.506 114.579 196.9 113.68 195.364 112.081C193.809 110.437 192.938 107.849 192.938 104.148C192.938 100.437 193.8 97.8675 195.364 96.2593V96.2503C196.927 94.6241 199.524 93.7167 203.378 93.7167C205.336 93.7167 206.936 93.8514 208.193 94.094ZM206.828 100.787V98.146H204.186C203.117 98.146 202.192 98.2538 201.536 98.5503L201.518 98.5593C200.611 98.9816 200.332 99.9519 200.332 100.859V103.51H202.974C204.025 103.51 204.959 103.411 205.597 103.105C206.54 102.674 206.828 101.722 206.828 100.787Z" fill="#121122"/>
<path d="M189.919 100.051C190.234 101.354 190.395 102.719 190.395 104.148C190.395 105.531 190.261 106.834 189.982 108.047C189.722 109.233 189.281 110.266 188.688 111.165C188.113 112.009 187.35 112.683 186.379 113.186C185.445 113.671 184.241 113.941 182.732 113.941H176.919V120.418L170.153 120.922V94.3457H173.073L175.131 97.1398L175.85 96.0886C176.865 94.5972 178.823 93.7078 182.094 93.7078C183.693 93.7078 184.978 93.9953 185.984 94.5253C187.035 95.0824 187.853 95.8101 188.473 96.7355L188.482 96.7445L188.491 96.7535C189.146 97.6699 189.623 98.757 189.91 100.033L189.919 100.051ZM182.983 107.409V98.1371H180.764C180.117 98.1371 179.587 98.164 179.156 98.2179C178.581 98.2808 178.087 98.5324 177.673 98.9008C177.152 99.341 176.937 99.9609 176.91 100.608V100.626V110.131H179.129C180.18 110.131 181.114 110.032 181.752 109.727C182.696 109.296 182.983 108.343 182.983 107.409Z" fill="#121122"/>
<path d="M161.905 89L168.356 113.932H161.205L160.207 109.691H151.726L150.756 113.932H143.613L150.064 89H161.905V89ZM159.057 104.678L156.946 95.3969H155.05L152.885 104.678H159.057Z" fill="#121122"/>
<defs>
<linearGradient id="paint0_linear_1529_30510" x1="68" y1="118" x2="129.906" y2="98.6985" gradientUnits="userSpaceOnUse">
<stop stop-color="#07D5D8"/>
<stop offset="0.6369" stop-color="#6E6EFF"/>
<stop offset="1" stop-color="#6E35FF"/>
</linearGradient>
<linearGradient id="paint1_linear_1529_30510" x1="120" y1="104" x2="77.5" y2="106" gradientUnits="userSpaceOnUse">
<stop stop-color="#07D5D8"/>
<stop offset="0.6369" stop-color="#6E6EFF"/>
<stop offset="1" stop-color="#6E35FF"/>
</linearGradient>
<linearGradient id="paint2_linear_1529_30510" x1="127.5" y1="93.4999" x2="67.0992" y2="111.336" gradientUnits="userSpaceOnUse">
<stop stop-color="#07D5D8"/>
<stop offset="0.6369" stop-color="#6E6EFF"/>
<stop offset="1" stop-color="#6E35FF"/>
</linearGradient>
<linearGradient id="paint3_linear_1529_30510" x1="109" y1="111" x2="89.5835" y2="99.8546" gradientUnits="userSpaceOnUse">
<stop stop-color="#07D5D8"/>
<stop offset="0.6369" stop-color="#6E6EFF"/>
<stop offset="1" stop-color="#6E35FF"/>
</linearGradient>
<linearGradient id="paint4_linear_1529_30510" x1="77" y1="110.5" x2="118.996" y2="107.447" gradientUnits="userSpaceOnUse">
<stop stop-color="#07D5D8"/>
<stop offset="0.6369" stop-color="#6E6EFF"/>
<stop offset="1" stop-color="#6E35FF"/>
</linearGradient>
<linearGradient id="paint5_linear_1529_30510" x1="95.5" y1="102" x2="100.452" y2="110.528" gradientUnits="userSpaceOnUse">
<stop stop-color="#07D5D8"/>
<stop offset="0.6369" stop-color="#6E6EFF"/>
<stop offset="1" stop-color="#6E35FF"/>
</linearGradient>
<linearGradient id="paint6_linear_1529_30510" x1="101.5" y1="109" x2="97.0365" y2="101.478" gradientUnits="userSpaceOnUse">
<stop stop-color="#07D5D8"/>
<stop offset="0.6369" stop-color="#6E6EFF"/>
<stop offset="1" stop-color="#6E35FF"/>
</linearGradient>
<linearGradient id="paint7_linear_1529_30510" x1="87.5" y1="102" x2="107.44" y2="112.612" gradientUnits="userSpaceOnUse">
<stop stop-color="#07D5D8"/>
<stop offset="0.6369" stop-color="#6E6EFF"/>
<stop offset="1" stop-color="#6E35FF"/>
</linearGradient>
<clipPath id="clip0_1529_30510">
<rect width="70" height="63" fill="white" transform="translate(63 74)"/>
</clipPath>
</defs>
</svg>
