<svg width="30" height="28" viewBox="0 0 30 28" fill="none" xmlns="http://www.w3.org/2000/svg">
<path d="M2.57962 19.2428C2.57962 19.2428 2.61983 19.3886 2.69542 19.6621C2.77637 19.9313 2.9047 20.3245 3.11372 20.8032C3.52471 21.753 4.29486 23.0692 5.63971 24.2009C6.96733 25.3341 8.87697 26.2098 11.021 26.4351C12.1042 26.554 13.2023 26.5173 14.3252 26.3381C15.4327 26.1614 16.5606 25.8258 17.6045 25.3827C18.6602 24.9331 19.6644 24.365 20.5801 23.7073C21.5142 23.0394 22.3194 22.3156 23.052 21.5224C23.7816 20.7258 24.3802 19.9205 24.8955 19.074C25.4002 18.245 25.7911 17.4166 26.08 16.633C26.3666 15.8624 26.5652 15.0901 26.676 14.4554C26.7944 13.7988 26.8375 13.2241 26.8506 12.7545C26.8679 11.8142 26.7832 11.2932 26.7832 11.2932L29.9819 11.0326C29.9819 11.0326 30.0449 11.7432 29.9358 12.9598C29.8766 13.5662 29.7682 14.2968 29.563 15.1074C29.3537 15.9395 29.0648 16.7961 28.6446 17.7307C28.2291 18.6524 27.6941 19.6038 27.0342 20.5336C26.3884 21.4475 25.5887 22.3816 24.7044 23.2147C23.8221 24.0497 22.7946 24.8422 21.7246 25.4959C20.6392 26.164 19.4676 26.7204 18.2518 27.1384C17.0229 27.5577 15.7815 27.8296 14.5167 27.9427C13.2685 28.0548 11.9956 28.0022 10.8272 27.7867C8.45462 27.3644 6.40542 26.2366 5.03589 24.8888C3.64979 23.5446 2.92729 22.0696 2.55873 21.0294C2.3723 20.5062 2.26642 20.0835 2.20088 19.7945C2.14239 19.5063 2.11106 19.3525 2.11106 19.3525L2.57962 19.2428Z" fill="url(#paint0_linear_869_26971)"/>
<path d="M24.0073 13.3187C24.0073 13.3187 24.0641 12.8823 24.0231 12.1509C23.9816 11.4203 23.8043 10.3582 23.2038 9.28655C22.889 8.74378 22.5216 8.2472 21.9791 7.77844C21.4738 7.32818 20.8437 6.94047 20.1612 6.65125C19.4746 6.36177 18.7224 6.17291 17.9465 6.08946C17.5579 6.05219 17.1652 6.0285 16.7701 6.04314C16.5765 6.04248 16.3879 6.06297 16.1624 6.07455C15.9653 6.09838 15.7881 6.11169 15.589 6.14576C14.0208 6.37269 12.5334 7.00902 11.3372 7.84432C10.7293 8.26996 10.2229 8.72169 9.77944 9.2212C9.34816 9.70154 8.98808 10.2201 8.71149 10.7105C8.15256 11.6989 7.90014 12.6045 7.79196 13.234C7.68339 13.8662 7.68117 14.2282 7.68117 14.2282L4.8519 13.9547C4.8519 13.9547 4.90116 13.4435 5.12928 12.5905C5.35622 11.7414 5.81089 10.5557 6.64876 9.34817C7.06815 8.74338 7.57051 8.14299 8.18483 7.57201C8.7793 7.01341 9.4971 6.48262 10.254 6.05352C11.7836 5.18108 13.5924 4.60598 15.432 4.50922C15.6571 4.49178 15.9078 4.49338 16.1362 4.48912C16.3374 4.49724 16.5753 4.49537 16.8069 4.51627C17.263 4.54196 17.7152 4.6101 18.1585 4.69502C19.0451 4.87376 19.8939 5.17176 20.6569 5.57904C21.4197 5.98964 22.0934 6.49167 22.6454 7.08009C23.1818 7.63057 23.6135 8.31535 23.8893 8.92892C24.457 10.1981 24.538 11.3632 24.5153 12.1433C24.5027 12.5339 24.468 12.8486 24.4392 13.0531C24.4081 13.2549 24.3915 13.3625 24.3915 13.3625L24.0073 13.3187Z" fill="url(#paint1_linear_869_26971)"/>
<path d="M27.332 8.88343C27.332 8.88343 27.2864 8.74219 27.2009 8.47738C27.1105 8.21694 26.9674 7.83729 26.7422 7.37721C26.2957 6.46528 25.4874 5.20489 24.1671 4.09345C22.8556 2.98492 21.0201 2.04803 18.9342 1.74764C17.8773 1.58729 16.8139 1.58237 15.7175 1.73197C14.6278 1.88144 13.5538 2.18754 12.5296 2.62758C10.4772 3.50036 8.66614 4.89932 7.27723 6.45731C5.88558 8.01756 4.89438 9.73404 4.31069 11.2569C4.16065 11.6439 4.0429 11.9968 3.92984 12.3756C3.82986 12.7186 3.74674 13.0558 3.68061 13.375C3.54821 14.0111 3.48757 14.5673 3.46287 15.0209C3.41542 15.9292 3.48404 16.4287 3.48404 16.4287L0.00373324 16.587C0.00373324 16.587 -0.0333845 15.8732 0.126457 14.6722C0.207358 14.0731 0.345373 13.3555 0.576836 12.5637C0.691718 12.1691 0.829341 11.7537 0.996762 11.3155C1.15164 10.9133 1.3452 10.4554 1.55902 10.0135C2.41874 8.21893 3.73014 6.32537 5.47925 4.65269C7.2226 2.98545 9.41647 1.55901 11.8414 0.749421C13.0488 0.342036 14.3139 0.0900927 15.5606 0.021598C16.7995 -0.0514099 18.0638 0.0627479 19.2001 0.332612C21.5222 0.863578 23.4605 2.06728 24.7918 3.38793C26.135 4.7164 26.8813 6.1232 27.2824 7.13137C27.4827 7.63792 27.6017 8.04849 27.6752 8.32977C27.7422 8.61051 27.7778 8.76025 27.7778 8.76025L27.332 8.88343Z" fill="url(#paint2_linear_869_26971)"/>
<path d="M19.3595 16.2917C19.3595 16.2917 19.4621 16.0574 19.6415 15.6473C19.6864 15.5448 19.7362 15.4313 19.7901 15.3078C19.8294 15.1881 19.8718 15.0587 19.9172 14.9204C20.0022 14.6297 20.076 14.299 20.121 13.9351C20.2129 13.2086 20.171 12.3413 19.8329 11.5474C19.5063 10.7546 18.8561 10.0783 18.0622 9.74437C17.2666 9.3975 16.3607 9.36781 15.57 9.54524C14.7588 9.72307 14.0938 10.09 13.5638 10.4874C13.0451 10.8799 12.6836 11.3006 12.4555 11.602C12.2273 11.9067 12.1206 12.0954 12.1206 12.0954L10.4444 10.8708C10.4444 10.8708 10.617 10.6319 10.966 10.2603C11.3165 9.89145 11.8499 9.39443 12.5964 8.95106C13.3245 8.51607 14.2945 8.12647 15.3475 8.02159C16.4069 7.90924 17.5887 8.08042 18.5922 8.66129C19.6064 9.23018 20.3494 10.2242 20.6433 11.2471C20.9496 12.2726 20.8765 13.2661 20.6926 14.0426C20.6007 14.4353 20.4818 14.784 20.3595 15.0808C20.2873 15.248 20.247 15.3436 20.1662 15.5048C20.0992 15.6215 20.0377 15.7288 19.9822 15.8257C19.76 16.2133 19.6331 16.4348 19.6331 16.4348L19.3595 16.2917Z" fill="url(#paint3_linear_869_26971)"/>
<path d="M10.7236 12.7903C10.7236 12.7903 10.6363 13.0163 10.4835 13.412C10.4453 13.5109 10.403 13.6204 10.357 13.7396L10.3219 13.8308C10.3372 13.7974 10.3108 13.8775 10.307 13.8962C10.2918 13.9586 10.276 14.0232 10.2597 14.09C10.1983 14.3596 10.1519 14.6677 10.1392 15.0015C10.1123 15.6663 10.241 16.445 10.6436 17.1138C10.8472 17.4553 11.1004 17.7397 11.4163 17.9883C11.7296 18.2325 12.088 18.4173 12.469 18.5355C13.2357 18.7769 14.0795 18.7537 14.8238 18.5658C15.5866 18.3761 16.2199 18.0416 16.7375 17.6845C17.2491 17.3279 17.6099 16.9621 17.8492 16.6933C18.0857 16.4238 18.2011 16.2567 18.2011 16.2567L19.9261 17.7587C19.9261 17.7587 19.741 17.9697 19.3818 18.2948C19.024 18.6159 18.4778 19.0517 17.7577 19.4384C17.0482 19.8215 16.1248 20.1724 15.1237 20.2984C14.1143 20.4304 12.9842 20.3367 11.9635 19.88C11.4537 19.6533 10.9801 19.3348 10.5884 18.9481C10.1983 18.5673 9.87574 18.0966 9.66785 17.631C9.235 16.6779 9.19996 15.6928 9.31732 14.919C9.37581 14.5285 9.46907 14.1818 9.57224 13.8849C9.59946 13.8107 9.62577 13.7388 9.65117 13.6695L9.70197 13.5427L9.74704 13.456C9.80592 13.3428 9.85984 13.2388 9.90882 13.1449C10.1041 12.7691 10.2158 12.5543 10.2158 12.5543L10.7236 12.7903Z" fill="url(#paint4_linear_869_26971)"/>
<path d="M6.51612 16.0636C6.51612 16.0636 6.51847 16.1668 6.52304 16.3603C6.53167 16.5486 6.54762 16.8174 6.59976 17.1648C6.70066 17.8494 6.9503 18.8363 7.59204 19.8115C7.89827 20.2871 8.34278 20.7908 8.83552 21.1847C9.34342 21.599 9.94581 21.9449 10.6098 22.1927C11.2745 22.4374 11.997 22.5888 12.7394 22.6255C13.4721 22.6716 14.2481 22.5962 14.9801 22.4447C16.4607 22.1282 17.8549 21.4484 18.9819 20.5928C19.2671 20.383 19.5313 20.1557 19.7844 19.9291L20.1628 19.5692L20.487 19.2257C20.9211 18.7481 21.2866 18.2605 21.5853 17.7903C22.1827 16.8475 22.5154 15.9856 22.685 15.3789C22.8571 14.7708 22.9029 14.4185 22.9029 14.4185L25.2961 14.9279C25.2961 14.9279 25.1985 15.3914 24.9167 16.1529C24.6378 16.9134 24.1345 17.9579 23.3228 19.0394C22.9173 19.5793 22.4352 20.1264 21.8787 20.6495C21.7325 20.781 21.5844 20.9143 21.4343 21.0493C21.2876 21.1683 21.139 21.2888 20.9888 21.4106C20.6724 21.6529 20.3435 21.8923 19.9935 22.1103C18.6065 22.9991 16.9448 23.6519 15.2146 23.8803C14.343 23.9893 13.481 24.0022 12.6208 23.8833C11.7692 23.7727 10.9471 23.532 10.2026 23.1883C9.45843 22.8417 8.79552 22.3872 8.25116 21.8675C7.68836 21.3326 7.28502 20.7849 6.96233 20.2015C6.32908 19.0518 6.14728 17.9614 6.09461 17.222C6.06742 16.8515 6.07252 16.5522 6.07906 16.3538C6.08938 16.1605 6.09487 16.0575 6.09487 16.0575L6.51612 16.0636Z" fill="url(#paint5_linear_869_26971)"/>
<path d="M14.1409 12.6231C14.1409 12.6231 13.8229 12.8774 13.5382 13.3889C13.2503 13.8797 13.0959 14.6979 13.4558 15.2136C13.6095 15.4423 13.8629 15.6101 14.1212 15.6705C14.1822 15.6869 14.2603 15.7 14.3091 15.7032C14.4235 15.7204 14.4325 15.7104 14.5108 15.712C14.6375 15.7093 14.7589 15.6892 14.869 15.6618C15.3144 15.5465 15.5604 15.336 15.5604 15.336L16.2963 16.7568C16.2963 16.7568 16.1778 16.8157 15.961 16.8924C15.7444 16.9675 15.4258 17.0576 15.0296 17.0776C14.8319 17.0874 14.6155 17.0805 14.3885 17.0412C14.29 17.0254 14.1183 16.9868 14.0506 16.961C13.9179 16.9212 13.8123 16.8798 13.6927 16.8226C13.2265 16.6039 12.7945 16.1992 12.5735 15.659C12.362 15.1536 12.3709 14.5804 12.4971 14.1335C12.6205 13.6766 12.8427 13.3145 13.0578 13.0421C13.2756 12.769 13.4917 12.583 13.6471 12.4626C13.807 12.3408 13.8969 12.2881 13.8969 12.2881L14.1409 12.6231Z" fill="url(#paint6_linear_869_26971)"/>
<path d="M16.4144 15.5256C16.4144 15.5256 16.726 15.2711 16.9808 14.7645C17.1039 14.5136 17.2014 14.201 17.2068 13.8793C17.2162 13.5566 17.129 13.2324 16.9548 12.9907C16.7832 12.7485 16.5361 12.5932 16.281 12.5249C16.162 12.4912 16.0141 12.4731 15.9012 12.4738C15.778 12.4731 15.6602 12.4881 15.5532 12.5104C15.1209 12.6049 14.8809 12.7959 14.8809 12.7959L14.1852 11.3065C14.1852 11.3065 14.3064 11.2559 14.5263 11.194C14.746 11.1336 15.0681 11.0655 15.4618 11.071C15.6582 11.0737 15.8717 11.0942 16.0933 11.1452C16.3246 11.199 16.5356 11.2745 16.7653 11.3955C17.2095 11.6271 17.6126 12.0374 17.8174 12.528C18.0279 13.0157 18.0402 13.5485 17.9366 13.9863C17.8349 14.4307 17.6306 14.7894 17.4261 15.0553C17.219 15.3237 17.0091 15.5048 16.8577 15.6201C16.704 15.7371 16.6141 15.7881 16.6141 15.7881L16.4144 15.5256Z" fill="url(#paint7_linear_869_26971)"/>
<defs>
<linearGradient id="paint0_linear_869_26971" x1="1.73077" y1="18.0833" x2="28.6802" y2="16.1089" gradientUnits="userSpaceOnUse">
<stop stop-color="#000000"/>
<stop offset="0.572917" stop-color="#5C5373"/>
<stop offset="1" stop-color="#5D459A"/>
</linearGradient>
<linearGradient id="paint1_linear_869_26971" x1="1.73077" y1="18.0833" x2="28.6802" y2="16.1089" gradientUnits="userSpaceOnUse">
<stop stop-color="#000000"/>
<stop offset="0.572917" stop-color="#5C5373"/>
<stop offset="1" stop-color="#5D459A"/>
</linearGradient>
<linearGradient id="paint2_linear_869_26971" x1="1.73077" y1="18.0833" x2="28.6802" y2="16.1089" gradientUnits="userSpaceOnUse">
<stop stop-color="#000000"/>
<stop offset="0.572917" stop-color="#5C5373"/>
<stop offset="1" stop-color="#5D459A"/>
</linearGradient>
<linearGradient id="paint3_linear_869_26971" x1="1.73077" y1="18.0833" x2="28.6802" y2="16.1089" gradientUnits="userSpaceOnUse">
<stop stop-color="#000000"/>
<stop offset="0.572917" stop-color="#5C5373"/>
<stop offset="1" stop-color="#5D459A"/>
</linearGradient>
<linearGradient id="paint4_linear_869_26971" x1="1.73077" y1="18.0833" x2="28.6802" y2="16.1089" gradientUnits="userSpaceOnUse">
<stop stop-color="#000000"/>
<stop offset="0.572917" stop-color="#5C5373"/>
<stop offset="1" stop-color="#5D459A"/>
</linearGradient>
<linearGradient id="paint5_linear_869_26971" x1="1.73077" y1="18.0833" x2="28.6802" y2="16.1089" gradientUnits="userSpaceOnUse">
<stop stop-color="#000000"/>
<stop offset="0.572917" stop-color="#5C5373"/>
<stop offset="1" stop-color="#5D459A"/>
</linearGradient>
<linearGradient id="paint6_linear_869_26971" x1="1.73077" y1="18.0833" x2="28.6802" y2="16.1089" gradientUnits="userSpaceOnUse">
<stop stop-color="#000000"/>
<stop offset="0.572917" stop-color="#5C5373"/>
<stop offset="1" stop-color="#5D459A"/>
</linearGradient>
<linearGradient id="paint7_linear_869_26971" x1="1.73077" y1="18.0833" x2="28.6802" y2="16.1089" gradientUnits="userSpaceOnUse">
<stop stop-color="#000000"/>
<stop offset="0.572917" stop-color="#5C5373"/>
<stop offset="1" stop-color="#5D459A"/>
</linearGradient>
</defs>
</svg>
