<svg width="16" height="16" viewBox="0 0 16 16" fill="none" xmlns="http://www.w3.org/2000/svg">
<rect opacity="0.01" width="16" height="16" fill="black"/>
<path d="M4.16054 15.0203C7.30827 13.8128 9.08854 12.9717 11.1445 8.07306C11.7675 8.52373 12.3797 8.74879 12.9829 8.74879L11.4437 3.41493L6.05174 5.81226C6.5744 6.0544 7.392 6.4112 8.50507 6.88266C6.85494 10.1147 4.32481 11.7264 0.914675 11.7179C0.312044 10.5714 -0.00191376 9.29522 8.77662e-06 7.99999C8.77662e-06 3.58186 3.58187 0 8 0C12.4181 0 16 3.58186 16 7.99999C16 12.4181 12.4181 16 8 16C6.60854 16 5.30027 15.6448 4.16054 15.0203Z" fill="#B1B5C3"/>
</svg>
