<svg width="17" height="16" viewBox="0 0 17 16" fill="none" xmlns="http://www.w3.org/2000/svg">
<g clip-path="url(#clip0_936_16933)">
<path d="M0.416718 10.3887H2.08328C2.31339 10.3887 2.5 10.6 2.5 10.8608V15.5831C2.5 15.8438 2.31339 16.0553 2.08328 16.0553H0.416718C0.186615 16.0553 0 15.8438 0 15.5831V10.8608C0 10.6 0.186615 10.3887 0.416718 10.3887Z" fill="#B8BBC6"/>
<path d="M5.13873 6.61035H6.80545C7.03555 6.61035 7.22217 6.82185 7.22217 7.08263V15.5826C7.22217 15.8434 7.03555 16.0549 6.80545 16.0549H5.13873C4.90863 16.0549 4.72217 15.8434 4.72217 15.5826V7.08263C4.72217 6.82185 4.90863 6.61035 5.13873 6.61035Z" fill="#B8BBC6"/>
<path d="M9.86105 8.5H11.5278C11.7579 8.5 11.9443 8.7115 11.9443 8.97228V15.5833C11.9443 15.8441 11.7579 16.0556 11.5278 16.0556H9.86105C9.63095 16.0556 9.44434 15.8441 9.44434 15.5833V8.97228C9.44434 8.7115 9.63095 8.5 9.86105 8.5Z" fill="#B8BBC6"/>
<path d="M14.5832 5.66602H16.2498C16.4799 5.66602 16.6665 5.87751 16.6665 6.1383V15.5827C16.6665 15.8435 16.4799 16.055 16.2498 16.055H14.5832C14.3531 16.055 14.1665 15.8435 14.1665 15.5827V6.1383C14.1665 5.87751 14.3531 5.66602 14.5832 5.66602Z" fill="#B8BBC6"/>
<circle cx="1.25" cy="7.25" r="1.25" fill="#B8BBC6"/>
<path d="M7.5 3.25C7.5 3.94036 6.94036 4.5 6.25 4.5C5.55964 4.5 5 3.94036 5 3.25C5 2.55964 5.55964 2 6.25 2C6.94036 2 7.5 2.55964 7.5 3.25Z" fill="#B8BBC6"/>
<circle cx="10.25" cy="5.25" r="1.25" fill="#B8BBC6"/>
<circle cx="15.25" cy="1.25" r="1.25" fill="#B8BBC6"/>
<line x1="0.687652" y1="7.60957" x2="5.68765" y2="3.60957" stroke="#B8BBC6"/>
<line x1="10.6877" y1="4.60957" x2="15.6877" y2="0.609565" stroke="#B8BBC6"/>
<line x1="6.22361" y1="3.55279" x2="10.2236" y2="5.55279" stroke="#B8BBC6"/>
</g>
<defs>
<clipPath id="clip0_936_16933">
<rect width="17" height="16" fill="#B8BBC6"/>
</clipPath>
</defs>
</svg>
