<svg width="16" height="16" viewBox="0 0 16 16" fill="none" xmlns="http://www.w3.org/2000/svg">
<path fill-rule="evenodd" clip-rule="evenodd" d="M13.1665 13.3333C13.2586 13.3333 13.3332 13.2587 13.3332 13.1667V1.50001C13.3327 1.03998 12.9599 0.667188 12.4998 0.666672H1.49984C1.03981 0.667188 0.667021 1.03998 0.666504 1.50001V12.5C0.667021 12.96 1.03981 13.3328 1.49984 13.3333H13.1665ZM15.3332 4.16667V14.5C15.3327 14.96 14.9599 15.3328 14.4998 15.3333H4.1665C3.70648 15.3328 3.33369 14.96 3.33317 14.5V14H13.1665C13.6265 13.9995 13.9993 13.6267 13.9998 13.1667V3.33334H14.4998C14.9599 3.33386 15.3327 3.70665 15.3332 4.16667ZM6.23958 3.04021C5.93418 3.08544 5.69984 3.34869 5.69984 3.66667L5.69884 5.19301L4.16119 3.27094C3.9933 3.06081 3.71077 2.97969 3.45682 3.0688C3.20286 3.1579 3.03296 3.39778 3.03317 3.66691V7.00001C3.03317 7.34979 3.31672 7.63334 3.6665 7.63334L3.76009 7.62647C4.0655 7.58124 4.29984 7.31799 4.29984 7.00001L4.29884 5.47101L5.83848 7.39573C6.00638 7.60586 6.28891 7.68699 6.54286 7.59788C6.79681 7.50877 6.96671 7.2689 6.9665 6.99977V3.66667C6.9665 3.31689 6.68295 3.03334 6.33317 3.03334L6.23958 3.04021ZM10.3332 3.03334C10.683 3.03334 10.9665 3.31689 10.9665 3.66667C10.9665 3.98465 10.7322 4.2479 10.4268 4.29314L10.3332 4.30001H8.33317C7.98339 4.30001 7.69984 4.01645 7.69984 3.66667C7.69984 3.34869 7.93418 3.08544 8.23958 3.04021L8.33317 3.03334H10.3332ZM10.3332 5.70001C10.683 5.70001 10.9665 5.98356 10.9665 6.33334C10.9665 6.65132 10.7322 6.91457 10.4268 6.95981L10.3332 6.96667H8.33317C7.98339 6.96667 7.69984 6.68312 7.69984 6.33334C7.69984 6.01536 7.93418 5.75211 8.23958 5.70687L8.33317 5.70001H10.3332ZM3.6665 9.03334H10.3332C10.683 9.03334 10.9665 9.31689 10.9665 9.66667C10.9665 10.0165 10.683 10.3 10.3332 10.3H3.6665C3.31672 10.3 3.03317 10.0165 3.03317 9.66667C3.03317 9.31689 3.31672 9.03334 3.6665 9.03334Z" fill="#B1B5C3"/>
</svg>
