<svg width="44" height="44" viewBox="0 0 44 44" fill="none" xmlns="http://www.w3.org/2000/svg">
<g filter="url(#filter0_d_1304_2883)">
<circle cx="20" cy="22" r="20" fill="#628DFE"/>
<path d="M20.4428 7.0426V7.0568C20.457 7.1278 20.457 7.213 20.457 7.2982V17.5362C20.4428 17.593 20.4003 17.6072 20.3577 17.6356C20.0595 17.7776 19.7755 17.9053 19.4773 18.0332C19.0655 18.2178 18.6395 18.4165 18.2277 18.6012L16.7367 19.2828C16.3249 19.4673 15.9132 19.652 15.5156 19.8365C15.0328 20.0637 14.5358 20.2767 14.053 20.504C13.6412 20.6885 13.2294 20.8873 12.8034 21.072C12.4626 21.2282 12.1218 21.3702 11.7952 21.5263C11.7668 21.5405 11.7384 21.5547 11.71 21.5547C11.6958 21.5547 11.6958 21.5547 11.6816 21.5405L12.065 20.9015C12.8034 19.6803 13.5276 18.4733 14.266 17.2522C15.047 15.9458 15.8422 14.6394 16.6231 13.3331C17.3473 12.1261 18.0857 10.9191 18.8098 9.71215C19.3353 8.83177 19.8748 7.95138 20.4003 7.071C20.4145 7.0426 20.4287 7.0284 20.4287 7H20.4428C20.4287 7.0142 20.4428 7.0284 20.4428 7.0426Z" fill="white"/>
<path opacity="0.840588" d="M29.162 21.5408L29.1762 21.555L27.0889 22.7903L20.5285 26.667C20.5002 26.6812 20.4719 26.6953 20.4577 26.7095C20.415 26.7095 20.415 26.667 20.415 26.6527V26.525V17.7495C20.415 17.7069 20.415 17.6501 20.4292 17.6075C20.4434 17.5507 20.486 17.5649 20.5285 17.5791C20.7132 17.6643 20.912 17.7495 21.0965 17.8347C21.6504 18.0903 22.2042 18.3458 22.758 18.5873C23.2407 18.8003 23.7094 19.0275 24.1922 19.2405C24.6749 19.4535 25.1577 19.6807 25.6405 19.8937C26.0524 20.0783 26.4784 20.277 26.89 20.4617C27.3019 20.6462 27.7279 20.845 28.1397 21.0297C28.4662 21.1717 28.7929 21.3278 29.1194 21.4698C29.1194 21.5125 29.1337 21.5267 29.162 21.5408Z" fill="white"/>
<path d="M20.4419 35.5278C20.4419 35.542 20.4278 35.5563 20.4278 35.5704H20.4134C20.4134 35.542 20.3851 35.5278 20.3709 35.4994C19.4906 34.2641 18.6101 33.0145 17.7298 31.7791C16.8351 30.5153 15.9264 29.2373 15.0318 27.9736C14.1656 26.7525 13.2852 25.517 12.4191 24.2958C12.1919 23.9693 11.9647 23.6568 11.7375 23.3303C11.7233 23.3018 11.7091 23.2876 11.6807 23.2451C11.7233 23.2451 11.7517 23.2735 11.7659 23.2876C13.0012 24.0118 14.2224 24.7361 15.4578 25.4603C16.8778 26.298 18.2836 27.1358 19.7036 27.9736L20.4278 28.3996C20.4561 28.4279 20.4561 28.4565 20.4561 28.4848V35.3291C20.4561 35.4 20.4561 35.471 20.4419 35.5278Z" fill="white"/>
<path opacity="0.840588" d="M11.666 21.5688V21.5545C12.1204 21.3558 12.5606 21.1428 13.015 20.944C13.5972 20.6742 14.1794 20.4187 14.7615 20.1488C15.2017 19.95 15.6561 19.737 16.0963 19.5382C16.7495 19.24 17.3885 18.956 18.0417 18.6578C18.4818 18.459 18.922 18.2602 19.3765 18.0472C19.6888 17.9052 20.0155 17.7632 20.3278 17.6213C20.3562 17.6071 20.3988 17.5929 20.413 17.5645C20.4272 17.5645 20.4272 17.5787 20.413 17.5929V26.6097C20.413 26.6523 20.3988 26.6948 20.4272 26.7233C20.3988 26.7658 20.3705 26.7233 20.3562 26.709C20.2285 26.638 20.1007 26.567 19.9728 26.4818C17.2323 24.8632 14.4776 23.2302 11.737 21.6113C11.7228 21.5972 11.6944 21.583 11.666 21.5688Z" fill="white"/>
<path d="M29.1332 23.2461H29.1474C29.1474 23.2744 29.119 23.3028 29.1049 23.3313C26.492 27.0089 23.8794 30.7009 21.2665 34.3786C20.9967 34.7621 20.7127 35.1454 20.443 35.5288C20.4287 35.5146 20.4287 35.5004 20.4287 35.4863V35.4009V28.5141V28.3864C21.0252 28.0314 21.6074 27.6906 22.2037 27.3356C24.504 25.9724 26.8044 24.6234 29.0905 23.2603C29.1049 23.2744 29.119 23.2603 29.1332 23.2461Z" fill="white"/>
<path d="M20.4279 17.5928V17.5644V17.4792V7.17024C20.4279 7.12764 20.4137 7.09924 20.4421 7.05664C23.3246 11.8419 26.2072 16.6131 29.0756 21.3983C29.1039 21.441 29.1466 21.4978 29.1607 21.5545C28.9619 21.4835 28.7772 21.3842 28.5927 21.299C28.3656 21.1995 28.1241 21.086 27.8969 20.9865C27.7549 20.9155 27.5987 20.8588 27.4567 20.7878C27.2154 20.6742 26.9739 20.5748 26.7326 20.4612C26.5906 20.4043 26.4486 20.3333 26.3066 20.2623L25.3694 19.8363C25.2132 19.7653 25.0571 19.6943 24.8866 19.6233L24.2051 19.3252C24.0631 19.2683 23.9211 19.1973 23.7791 19.1263L22.8419 18.7003C22.6856 18.6293 22.5294 18.5583 22.3591 18.4873L21.6774 18.1892C21.5212 18.1182 21.3792 18.0472 21.2231 17.9762C20.9532 17.8485 20.6834 17.7206 20.3994 17.607C20.4421 17.5928 20.4279 17.5928 20.4279 17.5928Z" fill="white"/>
</g>
<defs>
<filter id="filter0_d_1304_2883" x="0" y="0" width="44" height="44" filterUnits="userSpaceOnUse" color-interpolation-filters="sRGB">
<feFlood flood-opacity="0" result="BackgroundImageFix"/>
<feColorMatrix in="SourceAlpha" type="matrix" values="0 0 0 0 0 0 0 0 0 0 0 0 0 0 0 0 0 0 127 0" result="hardAlpha"/>
<feOffset dx="2"/>
<feGaussianBlur stdDeviation="1"/>
<feColorMatrix type="matrix" values="0 0 0 0 0 0 0 0 0 0 0 0 0 0 0 0 0 0 0.199301 0"/>
<feBlend mode="normal" in2="BackgroundImageFix" result="effect1_dropShadow_1304_2883"/>
<feBlend mode="normal" in="SourceGraphic" in2="effect1_dropShadow_1304_2883" result="shape"/>
</filter>
</defs>
</svg>
