<svg width="20" height="20" viewBox="0 0 20 20" fill="none" xmlns="http://www.w3.org/2000/svg">
<path d="M10 20C15.523 20 20 15.523 20 10C20 4.477 15.523 0 10 0C4.477 0 0 4.477 0 10C0 15.523 4.477 20 10 20Z" fill="#070A0E"/>
<path fill-rule="evenodd" clip-rule="evenodd" d="M5.77692 13.3528C5.47792 13.1698 5.29492 12.8448 5.29492 12.4948V10.5408C5.29492 10.3088 5.48392 10.1208 5.71592 10.1218C5.78992 10.1218 5.86292 10.1418 5.92692 10.1788L10.3359 12.7498C10.5939 12.8998 10.7529 13.1758 10.7529 13.4748V15.4988C10.7539 15.7768 10.5289 16.0028 10.2509 16.0028C10.1579 16.0028 10.0659 15.9768 9.98692 15.9288L5.77692 13.3528ZM12.3489 9.64378C12.6069 9.79378 12.7649 10.0708 12.7659 10.3688V14.4768C12.7659 14.5978 12.7009 14.7098 12.5949 14.7688L11.6299 15.3118C11.6179 15.3188 11.6049 15.3238 11.5909 15.3278V13.0468C11.5909 12.7518 11.4359 12.4778 11.1819 12.3258L7.30992 10.0098V7.43478C7.30992 7.20278 7.49892 7.01478 7.73092 7.01578C7.80492 7.01578 7.87792 7.03578 7.94192 7.07278L12.3489 9.64378ZM14.2789 6.60978C14.5379 6.75978 14.6969 7.03678 14.6969 7.33578V13.3358C14.6959 13.4588 14.6279 13.5718 14.5199 13.6308L13.6049 14.1248V9.94778C13.6049 9.65278 13.4499 9.37978 13.1979 9.22778L9.23992 6.85378V4.41178C9.23992 4.33778 9.25992 4.26478 9.29592 4.20078C9.41292 4.00078 9.66992 3.93278 9.86992 4.04878L14.2789 6.60978Z" fill="#00D395"/>
</svg>
