<?xml version="1.0" encoding="UTF-8"?>
<svg width="240px" height="210px" viewBox="0 0 240 210" version="1.1" xmlns="http://www.w3.org/2000/svg" xmlns:xlink="http://www.w3.org/1999/xlink">
    <title>11@3x</title>
    <defs>
        <linearGradient x1="100%" y1="32.1844765%" x2="-3.42594313%" y2="46.0954711%" id="linearGradient-1">
            <stop stop-color="#FFFFFF" offset="0%"></stop>
            <stop stop-color="#FFFFFF" stop-opacity="0" offset="100%"></stop>
        </linearGradient>
        <linearGradient x1="5.31774304e-16%" y1="64.051951%" x2="100%" y2="63.0004081%" id="linearGradient-2">
            <stop stop-color="#FFFFFF" offset="0%"></stop>
            <stop stop-color="#FFFFFF" stop-opacity="0" offset="100%"></stop>
        </linearGradient>
        <linearGradient x1="100%" y1="50%" x2="-1.92684099e-14%" y2="65.7123551%" id="linearGradient-3">
            <stop stop-color="#FFFFFF" stop-opacity="0" offset="0%"></stop>
            <stop stop-color="#FFFFFF" offset="100%"></stop>
        </linearGradient>
        <linearGradient x1="-2.82765805e-14%" y1="40.5406009%" x2="94.994271%" y2="77.9111721%" id="linearGradient-4">
            <stop stop-color="#FFFFFF" offset="0%"></stop>
            <stop stop-color="#FFFFFF" stop-opacity="0" offset="100%"></stop>
        </linearGradient>
        <linearGradient x1="100%" y1="56.2713624%" x2="3.53749958%" y2="28.4191116%" id="linearGradient-5">
            <stop stop-color="#FFFFFF" offset="0%"></stop>
            <stop stop-color="#FFFFFF" stop-opacity="0" offset="100%"></stop>
        </linearGradient>
        <linearGradient x1="100%" y1="37.3447669%" x2="-3.27034871e-14%" y2="40.0317097%" id="linearGradient-6">
            <stop stop-color="#FFFFFF" offset="0%"></stop>
            <stop stop-color="#FFFFFF" stop-opacity="0" offset="100%"></stop>
        </linearGradient>
        <linearGradient x1="98.6733611%" y1="85.5335054%" x2="17.4557318%" y2="1.65107623e-15%" id="linearGradient-7">
            <stop stop-color="#FFFFFF" offset="0%"></stop>
            <stop stop-color="#FFFFFF" stop-opacity="0" offset="100%"></stop>
        </linearGradient>
        <linearGradient x1="7.48200731%" y1="17.3655691%" x2="88.6888068%" y2="99.4889847%" id="linearGradient-8">
            <stop stop-color="#FFFFFF" offset="0%"></stop>
            <stop stop-color="#FFFFFF" stop-opacity="0" offset="100%"></stop>
        </linearGradient>
        <linearGradient x1="87.8560114%" y1="84.3557671%" x2="15.9015878%" y2="1.04011886e-13%" id="linearGradient-9">
            <stop stop-color="#FFFFFF" offset="0%"></stop>
            <stop stop-color="#FFFFFF" stop-opacity="0" offset="100%"></stop>
        </linearGradient>
        <linearGradient x1="15.6666834%" y1="24.6241098%" x2="61.8707792%" y2="105.532746%" id="linearGradient-10">
            <stop stop-color="#FFFFFF" offset="0%"></stop>
            <stop stop-color="#FFFFFF" stop-opacity="0" offset="100%"></stop>
        </linearGradient>
    </defs>
    <g id="页面-1" stroke="none" stroke-width="1" fill="none" fill-rule="evenodd">
        <g id="Brand-book备份" transform="translate(-855.000000, -1616.000000)">
            <g id="11" transform="translate(855.000000, 1616.000000)">
                <rect id="矩形备份-3" fill="#000000" opacity="0" x="0" y="0" width="240" height="210"></rect>
                <g id="编组-4备份-3" transform="translate(81.000000, 64.000000)">
                    <path d="M0.351300851,56.1101052 C0.999016749,59.8418362 2.22837493,63.3515198 4.00353545,66.5175455 C6.31494763,70.6409397 9.50668876,74.1002451 13.3964748,76.6983217 C17.286191,79.2963982 21.7976793,80.9828815 26.6733416,81.6613601 C31.5490038,82.3398387 36.6934528,81.9966422 41.8129636,80.6511969 C46.9323419,79.306471 51.9264922,76.9861174 56.5099466,73.8225222 C61.0943088,70.6589269 65.177823,66.7146856 68.5279631,62.2135594 C71.8779046,57.7135124 74.4292605,52.7452936 76.0361439,47.5931014 C77.5193898,42.8373314 78.170798,38.0106951 77.9619084,33.3483648" id="路径" stroke="url(#linearGradient-1)" stroke-width="4.15927024"></path>
                    <path d="M68.5703509,38.1918762 C69.4034751,31.1239652 67.779238,24.4755273 63.8539561,19.4111893 C59.2507472,13.6425117 52.0368517,10.4017563 43.9082877,10.4017563 C35.7796624,10.4017563 27.6199677,13.6425117 21.333438,19.4111893 C15.1867993,25.1798053 11.422504,33.0037461 10.7594938,41.1618025" id="路径" stroke="url(#linearGradient-2)" stroke-width="3.46605853"></path>
                    <path d="M76.571564,25.5667942 C75.7691431,21.9596892 74.3726325,18.5452837 72.4354537,15.4489273 C70.0664347,11.5885008 66.9238237,8.286651 63.1849874,5.73463426 C59.4780393,3.15735876 55.2360518,1.39233363 50.6853466,0.554144557 C46.1454084,-0.29106296 41.3582757,-0.170815586 36.57507,0.924554181 C31.7735388,2.03453347 27.0422491,4.11687314 22.6358709,7.06215104 C18.1903567,10.03434 14.1452462,13.8161792 10.7322313,18.1887926 C7.28049425,22.5843002 4.54086435,27.4729176 2.68702705,32.5620528 C0.816883911,37.6564308 -0.101197596,42.8303349 0.00884533697,47.7723955" id="路径" stroke="url(#linearGradient-3)" stroke-width="4.15927024"></path>
                    <path d="M58.5850542,48.2545432 C59.2587829,46.8051594 59.8200693,45.3196249 60.2597669,43.8173278 C60.3962962,43.3512958 60.5210376,42.8836507 60.633715,42.4149712 C61.3941474,39.2518136 61.5834489,36.1033435 61.1801884,33.1495287 C60.7658145,30.1957139 59.7585326,27.4942722 58.2106408,25.1995216 C56.6463335,22.9047521 54.5716998,21.0616104 52.1083286,19.7752539 C49.6326685,18.4889509 46.8254104,17.7846558 43.8555678,17.7026175 C40.8848683,17.6205194 37.8227081,18.1623343 34.8530398,19.2970081 C31.894495,20.4317418 29.0961901,22.1371253 26.622002,24.3158073 C24.1644132,26.4945493 22.0799657,29.1038712 20.4843675,31.9949524" id="路径" stroke="url(#linearGradient-4)" stroke-width="2.77284683"></path>
                    <path d="M17.6172364,37.4626057 C16.9807046,38.9520534 16.4852859,40.4716576 16.1405306,41.9988358 C15.4668129,44.9834484 15.38175,47.9384805 15.8903167,50.6951696 C16.3988258,53.4518662 17.4909642,55.9562198 19.1043745,58.0653931 C20.7177596,60.1742358 22.8208119,61.8468257 25.2934462,62.9869231 C27.7660268,64.1275837 30.5598474,64.7130949 33.5152866,64.711319 C36.4706683,64.7095424 39.5298696,64.1196324 42.5181845,62.9753755 C45.5064458,61.8316819 48.3653129,60.1556958 50.9315404,58.0436971 C53.2898527,56.103289 55.3586978,53.8287917 57.0391051,51.3324838" id="路径" stroke="url(#linearGradient-5)" stroke-width="2.77284683"></path>
                    <path d="M8.45172892,48.0907769 C8.26292378,54.4782644 10.1869653,60.3839628 13.9988674,64.8851959 C18.6372684,70.3624611 25.6911034,73.3108282 33.6084068,73.0827012 C41.5257102,72.8545742 49.657971,69.468639 56.2162066,63.668757 C62.5686279,58.0510881 66.9403827,50.6150929 68.4424194,42.9076214" id="路径" stroke="url(#linearGradient-6)" stroke-width="3.46605853"></path>
                    <path d="M28.0666437,33.0693262 C26.027777,35.7389344 24.6377721,38.8604882 24.1209226,42.0289164 C23.4494717,46.1450936 24.3367139,50.003198 26.6044621,52.7545466 C28.893934,55.5059419 32.3773437,56.9248402 36.2712743,56.6995885 C40.1652049,56.4743369 44.1167961,54.6233872 47.2397757,51.5534422" id="路径" stroke="url(#linearGradient-7)" stroke-width="2.07963512"></path>
                    <path d="M50.247728,48.3574262 C52.0171313,45.9907698 53.2185792,43.2561878 53.6899168,40.4413643 C54.3671319,36.3970417 53.4816481,32.5183679 51.2286648,29.6586389 C48.9756473,26.7988664 45.5394529,25.1922648 41.6760365,25.1922648 C37.8125784,25.1922648 33.8383385,26.7988664 30.6275998,29.6585954" id="路径" stroke="url(#linearGradient-8)" stroke-width="2.07963512"></path>
                    <path d="M34.0203769,36.0897345 C32.918307,36.9641764 32.0482885,38.0922396 31.5181854,39.3618947 C30.7534168,41.1907306 30.7587691,43.1695209 31.5330561,44.8685782 C32.3073147,46.5714294 33.7871645,47.8603449 35.64695,48.451696 C37.5067356,49.0464519 39.5941095,48.8891915 41.449949,48.0086898" id="路径" stroke="url(#linearGradient-9)" stroke-width="1.38642341"></path>
                    <path d="M43.8172546,46.3929684 C44.8846685,45.7373105 45.8019859,44.8796574 46.4946837,43.8723901 C47.7396392,42.0174129 48.1567245,39.86844 47.6560357,37.955818 C47.155872,36.0616898 45.7807539,34.6271567 43.8334996,33.9779329 C41.88713,33.3601979 39.5267232,33.5324552 37.2698952,34.3992953" id="路径" stroke="url(#linearGradient-10)" stroke-width="1.38642341"></path>
                </g>
            </g>
        </g>
    </g>
</svg>