<?xml version="1.0" encoding="UTF-8"?>
<svg width="365px" height="210px" viewBox="0 0 365 210" version="1.1" xmlns="http://www.w3.org/2000/svg" xmlns:xlink="http://www.w3.org/1999/xlink">
    <title>4@3x</title>
    <defs>
        <linearGradient x1="100%" y1="32.2219905%" x2="-3.42594313%" y2="46.1036928%" id="linearGradient-1">
            <stop stop-color="#1D1D1D" offset="0%"></stop>
            <stop stop-color="#000000" stop-opacity="0" offset="100%"></stop>
        </linearGradient>
        <linearGradient x1="5.31774304e-16%" y1="100%" x2="100%" y2="100%" id="linearGradient-2">
            <stop stop-color="#000000" offset="0%"></stop>
            <stop stop-color="#000000" stop-opacity="0" offset="100%"></stop>
        </linearGradient>
        <linearGradient x1="100%" y1="50%" x2="-1.92684099e-14%" y2="65.6792697%" id="linearGradient-3">
            <stop stop-color="#404040" stop-opacity="0" offset="0%"></stop>
            <stop stop-color="#000000" offset="100%"></stop>
        </linearGradient>
        <linearGradient x1="-2.82765805e-14%" y1="40.5605195%" x2="94.994271%" y2="77.8523997%" id="linearGradient-4">
            <stop stop-color="#1F1F1F" offset="0%"></stop>
            <stop stop-color="#000000" stop-opacity="0" offset="100%"></stop>
        </linearGradient>
        <linearGradient x1="100%" y1="56.2581568%" x2="7.11090698e-15%" y2="28.4645543%" id="linearGradient-5">
            <stop stop-color="#000000" offset="0%"></stop>
            <stop stop-color="#000000" stop-opacity="0" offset="100%"></stop>
        </linearGradient>
        <linearGradient x1="100%" y1="37.371415%" x2="-2.00115178%" y2="39.7051123%" id="linearGradient-6">
            <stop stop-color="#000000" offset="0%"></stop>
            <stop stop-color="#000000" stop-opacity="0" offset="100%"></stop>
        </linearGradient>
        <linearGradient x1="98.7760685%" y1="85.5335054%" x2="6.81446731%" y2="-1.55233958e-13%" id="linearGradient-7">
            <stop stop-color="#000000" offset="0%"></stop>
            <stop stop-color="#000000" stop-opacity="0" offset="100%"></stop>
        </linearGradient>
        <linearGradient x1="7.48200731%" y1="17.4342872%" x2="90.0584325%" y2="99.3847762%" id="linearGradient-8">
            <stop stop-color="#000000" offset="0%"></stop>
            <stop stop-color="#000000" stop-opacity="0" offset="100%"></stop>
        </linearGradient>
        <linearGradient x1="87.9358927%" y1="84.3557671%" x2="15.8296355%" y2="1.04011886e-13%" id="linearGradient-9">
            <stop stop-color="#161616" offset="0%"></stop>
            <stop stop-color="#000000" stop-opacity="0" offset="100%"></stop>
        </linearGradient>
        <linearGradient x1="15.5942355%" y1="24.6241098%" x2="61.8958281%" y2="105.532746%" id="linearGradient-10">
            <stop stop-color="#000000" offset="0%"></stop>
            <stop stop-color="#000000" stop-opacity="0" offset="100%"></stop>
        </linearGradient>
    </defs>
    <g id="页面-1" stroke="none" stroke-width="1" fill="none" fill-rule="evenodd">
        <g id="Brand-book备份" transform="translate(-730.000000, -617.000000)">
            <g id="4" transform="translate(730.000000, 617.000000)">
                <rect id="矩形备份-2" fill="#000000" opacity="0" x="0" y="0" width="365" height="210"></rect>
                <g id="编组-3备份" transform="translate(46.000000, 73.000000)">
                    <g id="Aperture-2备份-2" transform="translate(76.436679, 13.032950)" fill="#000000" fill-rule="nonzero">
                        <path d="M7.16685227,28.8629018 L9.06216779,24.4097684 L21.5691172,24.4097684 L23.4750977,28.8629018 L30.7882123,28.8629018 L18.575311,0 L12.2494669,0 L0,28.8629018 L7.16685227,28.8629018 Z M19.0986557,18.637188 L11.5189172,18.637188 L13.7120898,13.4830984 C13.8949177,13.0089222 14.0708895,12.5579393 14.2400053,12.1301499 L14.4068357,11.7100916 C14.6262291,11.160322 14.8395283,10.6242967 15.0467332,10.1020156 C15.0985344,9.97144536 15.1488121,9.84001607 15.1975662,9.70772777 L15.3324017,9.32890219 L15.5403684,9.97831748 C15.6683479,10.3700283 15.8100395,10.7733358 15.9654432,11.18824 L16.1254176,11.6070098 C16.344811,12.1705236 16.60077,12.7958865 16.8932946,13.4830984 L16.8932946,13.4830984 L19.0986557,18.637188 Z M39.082503,37.9340995 L39.082503,26.4988927 L39.1373514,26.5538696 C39.8859299,27.284605 40.8239808,27.8883016 41.9515039,28.3649595 L42.2637079,28.4918073 C43.5313144,28.9865999 44.9451832,29.2339962 46.5053143,29.2339962 C48.6261175,29.2339962 50.4848675,28.7529479 52.0815642,27.7908512 C53.6782609,26.8287544 54.9214903,25.4886911 55.8112526,23.7706613 C56.7010149,22.0526314 57.145896,20.0803331 57.145896,17.8537664 C57.145896,15.5722227 56.7071091,13.5793081 55.8295354,11.8750224 C54.9519616,10.1707368 53.7331092,8.83754564 52.1729781,7.87544892 C50.612847,6.91335219 48.7723798,6.43230383 46.6515766,6.43230383 C45.0914455,6.43230383 43.6531996,6.66595589 42.336839,7.13326001 C41.0204784,7.60056414 39.9478883,8.20531065 39.1190686,8.94749955 C39.0553133,9.00459101 38.9934331,9.0620891 38.933428,9.11999382 L38.7709339,9.28337439 L38.6071506,6.844631 L32.2447409,6.844631 L32.2447409,37.9340995 L39.082503,37.9340995 Z M44.7136013,22.9253906 C43.5191259,22.9253906 42.4831013,22.719227 41.6055276,22.3068998 C40.7279538,21.8945726 40.057585,21.3035704 39.5944211,20.533893 C39.1312571,19.7642156 38.8996752,18.8708401 38.8996752,17.8537664 C38.8996752,16.8092042 39.1312571,15.9089566 39.5944211,15.1530234 C40.057585,14.3970903 40.7279538,13.806088 41.6055276,13.3800166 C42.4831013,12.9539452 43.5313144,12.7409095 44.7501668,12.7409095 C45.9202652,12.7409095 46.9319127,12.9470731 47.7851094,13.3594003 C48.6383061,13.7717274 49.2964864,14.3558576 49.7596503,15.1117907 C50.2228142,15.8677239 50.4543962,16.7817158 50.4543962,17.8537664 C50.4543962,18.8708401 50.2289085,19.7642156 49.7779331,20.533893 C49.3269577,21.3035704 48.6687774,21.8945726 47.8033922,22.3068998 C46.9380069,22.719227 45.9080766,22.9253906 44.7136013,22.9253906 Z M71.2541128,29.275229 C72.4973423,29.275229 73.697912,29.165275 74.8558218,28.9453672 C76.0137316,28.7254594 77.1350758,28.3818534 78.2198545,27.9145493 C79.3046331,27.4472452 80.3223749,26.8837314 81.2730798,26.2240079 L81.2730798,26.2240079 L78.347834,21.4822455 C77.860293,21.7846187 77.1289815,22.1076083 76.1538996,22.4512143 C75.1788176,22.7948203 73.8990226,22.9666233 72.3145144,22.9666233 C70.6568751,22.9666233 69.2308178,22.7123549 68.0363424,22.203818 C66.8418671,21.6952812 65.933822,21.0149413 65.3122073,20.1627985 C65.1790041,19.9801965 65.0600727,19.7925456 64.9554131,19.5998457 L64.9473133,19.5855405 L82.0409568,19.5855405 L82.0775224,17.7300682 C82.1262765,16.0257826 81.8581289,14.4864278 81.2730798,13.112004 C80.6880306,11.7375801 79.859211,10.5487034 78.7866208,9.54537395 C77.7140307,8.54204451 76.464707,7.77236712 75.0386496,7.23634181 C73.6125923,6.70031649 72.0463669,6.43230383 70.3399735,6.43230383 C68.6823342,6.43230383 67.1161088,6.70031649 65.6412974,7.23634181 C64.166486,7.77236712 62.8684081,8.54204451 61.7470639,9.54537395 C60.6257197,10.5487034 59.7420517,11.7581964 59.0960599,13.173853 C58.4500681,14.5895096 58.1270722,16.163225 58.1270722,17.8949991 C58.1270722,20.0665889 58.6633673,22.0182708 59.7359574,23.7500449 C60.8085475,25.481819 62.3321131,26.8356265 64.306654,27.8114675 C66.2811949,28.7873085 68.5970145,29.275229 71.2541128,29.275229 Z M75.878896,15.2973379 L64.7538205,15.2973379 L64.7741092,15.2497617 C64.8617367,15.0531134 64.9639689,14.8659803 65.0808056,14.6883624 L65.2025105,14.5139163 C65.7509941,13.7717274 66.4883998,13.22883 67.4147277,12.885224 C68.3410555,12.541618 69.3648916,12.3698151 70.4862358,12.3698151 C71.4369407,12.3698151 72.3145144,12.5141296 73.118957,12.8027586 C73.9233996,13.0913876 74.58158,13.4762263 75.093498,13.9572747 C75.465802,14.307128 75.7156164,14.7042343 75.8429411,15.1485935 L75.878896,15.2973379 Z M92.8582721,28.8629018 L92.8582721,19.3381442 C92.8582721,18.7059092 92.9557803,18.1080348 93.1507967,17.544521 C93.3458131,16.9810072 93.6505262,16.4724704 94.064936,16.0189105 C94.4793458,15.5653506 94.9912638,15.1942562 95.60069,14.9056271 C96.2101163,14.6169981 96.9292392,14.4726836 97.7580588,14.4726836 C98.6112555,14.4726836 99.458358,14.5963818 100.299366,14.8437781 C101.140374,15.0911744 101.780272,15.3935476 102.219059,15.7508978 L102.219059,15.7508978 L104.083903,7.46312175 C103.547608,7.13326001 102.889428,6.87899159 102.109362,6.70031649 C101.329296,6.52164138 100.537042,6.43230383 99.7325998,6.43230383 C98.3674851,6.43230383 97.0755015,6.8102704 95.8566491,7.56620354 C94.6377966,8.32213668 93.577395,9.33233824 92.6754442,10.5968082 L92.6754442,10.5968082 L92.5931717,10.7162113 L92.4194852,6.88586371 L86.0570756,6.88586371 L86.0570756,28.8629018 L92.8582721,28.8629018 Z M117.095153,28.8629018 L117.095153,13.400633 L122.835948,13.400633 L122.835948,6.88586371 L117.095153,6.88586371 L117.095153,0.329861735 L110.293956,0.329861735 L110.293956,6.88586371 L105.321038,6.88586371 L105.321038,13.400633 L110.293956,13.400633 L110.293956,28.8629018 L117.095153,28.8629018 Z M135.189017,29.3164617 C136.749148,29.3164617 138.150828,29.048449 139.394058,28.5124237 C140.637287,27.9763984 141.667217,27.2891864 142.483849,26.4507879 C142.619954,26.3110548 142.74878,26.1711308 142.870326,26.0310159 L142.989672,25.8898511 L143.233443,28.8629018 L149.522721,28.8629018 L149.522721,6.88586371 L142.721525,6.88586371 L142.721525,17.6476028 C142.721525,18.4172802 142.593545,19.1113643 142.337586,19.729855 C142.081627,20.3483458 141.722066,20.8706268 141.258902,21.2966982 C140.795738,21.7227697 140.265537,22.0457593 139.6683,22.2656671 C139.071062,22.4855749 138.431164,22.5955288 137.748607,22.5955288 C136.797902,22.5955288 136.011742,22.4099816 135.390128,22.0388872 C134.768513,21.6677927 134.323632,21.0974068 134.055484,20.3277294 C133.787337,19.558052 133.653263,18.5684668 133.653263,17.3589738 L133.653263,17.3589738 L133.653263,6.88586371 L126.852066,6.88586371 L126.852066,18.4722571 C126.852066,20.7812893 127.193345,22.7467155 127.875902,24.3685357 C128.55846,25.9903558 129.521353,27.2204652 130.764583,28.0588638 C132.007812,28.8972624 133.482623,29.3164617 135.189017,29.3164617 Z M162.643668,28.8629018 L162.643668,19.3381442 C162.643668,18.7059092 162.741176,18.1080348 162.936192,17.544521 C163.131209,16.9810072 163.435922,16.4724704 163.850332,16.0189105 C164.264741,15.5653506 164.776659,15.1942562 165.386086,14.9056271 C165.995512,14.6169981 166.714635,14.4726836 167.543455,14.4726836 C168.396651,14.4726836 169.243754,14.5963818 170.084762,14.8437781 C170.92577,15.0911744 171.565668,15.3935476 172.004454,15.7508978 L172.004454,15.7508978 L173.869299,7.46312175 C173.333004,7.13326001 172.674823,6.87899159 171.894758,6.70031649 C171.114692,6.52164138 170.322438,6.43230383 169.517995,6.43230383 C168.152881,6.43230383 166.860897,6.8102704 165.642045,7.56620354 C164.423192,8.32213668 163.362791,9.33233824 162.46084,10.5968082 L162.46084,10.5968082 L162.378567,10.7162113 L162.204881,6.88586371 L155.842471,6.88586371 L155.842471,28.8629018 L162.643668,28.8629018 Z M186.734286,29.275229 C187.977515,29.275229 189.178085,29.165275 190.335995,28.9453672 C191.493905,28.7254594 192.615249,28.3818534 193.700028,27.9145493 C194.784806,27.4472452 195.802548,26.8837314 196.753253,26.2240079 L196.753253,26.2240079 L193.828007,21.4822455 C193.340466,21.7846187 192.609155,22.1076083 191.634073,22.4512143 C190.658991,22.7948203 189.379196,22.9666233 187.794688,22.9666233 C186.137048,22.9666233 184.710991,22.7123549 183.516516,22.203818 C182.32204,21.6952812 181.413995,21.0149413 180.79238,20.1627985 C180.659177,19.9801965 180.540246,19.7925456 180.435586,19.5998457 L180.427486,19.5855405 L197.52113,19.5855405 L197.557696,17.7300682 C197.60645,16.0257826 197.338302,14.4864278 196.753253,13.112004 C196.168204,11.7375801 195.339384,10.5487034 194.266794,9.54537395 C193.194204,8.54204451 191.94488,7.77236712 190.518823,7.23634181 C189.092765,6.70031649 187.52654,6.43230383 185.820147,6.43230383 C184.162507,6.43230383 182.596282,6.70031649 181.121471,7.23634181 C179.646659,7.77236712 178.348581,8.54204451 177.227237,9.54537395 C176.105893,10.5487034 175.222225,11.7581964 174.576233,13.173853 C173.930241,14.5895096 173.607245,16.163225 173.607245,17.8949991 C173.607245,20.0665889 174.14354,22.0182708 175.216131,23.7500449 C176.288721,25.481819 177.812286,26.8356265 179.786827,27.8114675 C181.761368,28.7873085 184.077188,29.275229 186.734286,29.275229 Z M191.359069,15.2973379 L180.233994,15.2973379 L180.254282,15.2497617 C180.34191,15.0531134 180.444142,14.8659803 180.560979,14.6883624 L180.682684,14.5139163 C181.231167,13.7717274 181.968573,13.22883 182.894901,12.885224 C183.821229,12.541618 184.845065,12.3698151 185.966409,12.3698151 C186.917114,12.3698151 187.794688,12.5141296 188.59913,12.8027586 C189.403573,13.0913876 190.061753,13.4762263 190.573671,13.9572747 C190.945975,14.307128 191.195789,14.7042343 191.323114,15.1485935 L191.359069,15.2973379 Z" id="Aperture"></path>
                    </g>
                    <g id="编组-4备份-3">
                        <path d="M0.274475162,43.7932528 C0.780542613,46.7058233 1.74105349,49.4450887 3.12800564,51.916133 C4.93393703,55.134392 7.42767897,57.8343377 10.4668109,59.8621047 C13.5058883,61.8898717 17.0307631,63.2061514 20.8401708,63.7356957 C24.6495786,64.26524 28.6689924,63.9973793 32.6689216,62.9472756 C36.6687474,61.8977335 40.5707311,60.0867258 44.1518338,57.6175783 C47.7336456,55.1484308 50.9241395,52.0699985 53.5416403,48.5569244 C56.1589859,45.0446926 58.1523879,41.1670584 59.4078633,37.1458352 C60.5667394,33.4340147 61.0756917,29.666884 60.912484,26.0279921" id="路径" stroke="url(#linearGradient-1)" stroke-width="3.24464952"></path>
                        <path d="M53.5747584,29.8082936 C54.2256873,24.2918753 52.9566533,19.1028506 49.889788,15.1501965 C46.293251,10.647814 40.6569562,8.11844393 34.306021,8.11844393 C27.955038,8.11844393 21.5797801,10.647814 16.6680464,15.1501965 C11.8656109,19.6525309 8.92452619,25.7590213 8.40650909,32.1262849" id="路径" stroke="url(#linearGradient-2)" stroke-width="2.7038746"></path>
                        <path d="M59.8261929,19.9545711 C59.1992527,17.1392696 58.1081438,14.4743677 56.594605,12.0576993 C54.7436648,9.04468355 52.2883088,6.46763005 49.3671155,4.4758121 C46.4708367,2.46428001 43.156526,1.08669942 39.6010106,0.432503069 C36.0539077,-0.227171091 32.313669,-0.133319482 28.5764986,0.721603263 C24.8250102,1.58792856 21.1284023,3.21316928 17.6856512,5.51192276 C14.2123228,7.83167998 11.0518342,10.7833594 8.38520862,14.1961308 C5.68832906,17.6267709 3.54782653,21.4422772 2.09940336,25.4142851 C0.638240254,29.390385 -0.0790667785,33.4285541 0.00691095765,37.2857721" id="路径" stroke="url(#linearGradient-3)" stroke-width="3.24464952"></path>
                        <path d="M45.7731378,37.6620825 C46.2995293,36.5308561 46.7380685,35.3714146 47.081609,34.19889 C47.1882808,33.8351577 47.2857426,33.4701664 47.3737787,33.1043678 C47.9679127,30.6355618 48.1158161,28.1782193 47.8007443,25.8728029 C47.4769894,23.5673865 46.6899892,21.4589442 45.4806045,19.6679193 C44.2583943,17.8768797 42.6374605,16.4383301 40.7128019,15.4343445 C38.7785418,14.4304007 36.5852006,13.880707 34.2648304,13.8166771 C31.9437907,13.7526005 29.5512917,14.1754805 27.2310578,15.0610795 C24.9195146,15.9467253 22.7331687,17.2777564 20.8000587,18.9781911 C18.879918,20.6786726 17.2513165,22.7152166 16.0046583,24.9716702" id="路径" stroke="url(#linearGradient-4)" stroke-width="2.16309968"></path>
                        <path d="M13.7645378,29.2391069 C13.2672085,30.4016026 12.8801325,31.5876352 12.6107715,32.7795792 C12.0843886,35.1090329 12.017928,37.4153994 12.4152766,39.5669616 C12.8125804,41.7185297 13.6658799,43.6731472 14.9264549,45.3193312 C16.1870102,46.9652572 17.8301477,48.2706932 19.7620437,49.1605253 C21.6938976,50.050797 23.87674,50.5077814 26.1858567,50.5063953 C28.4949284,50.5050087 30.8851155,50.0445911 33.2199184,49.1515126 C35.5546793,48.2588737 37.7883431,46.950787 39.7933645,45.3023977 C41.6359395,43.7879328 43.2523506,42.0127155 44.565271,40.0643776" id="路径" stroke="url(#linearGradient-5)" stroke-width="2.16309968"></path>
                        <path d="M6.60342741,37.5342649 C6.45591191,42.519621 7.95918636,47.1289466 10.9374668,50.6421041 C14.5614998,54.9170428 20.0727375,57.2182074 26.2586125,57.040157 C32.4444875,56.8621067 38.7983109,54.2194256 43.9223315,49.6926884 C48.8855471,45.3081663 52.3012465,39.5044627 53.4748041,33.4888753" id="路径" stroke="url(#linearGradient-6)" stroke-width="2.7038746"></path>
                        <path d="M21.9287729,25.8102058 C20.3357842,27.8938025 19.2497584,30.3301371 18.8459383,32.8030567 C18.3213264,36.0156828 19.0145383,39.0268862 20.7863546,41.1742802 C22.5751438,43.3217108 25.2967696,44.4291435 28.3391398,44.2533374 C31.3815099,44.0775312 34.4689309,42.6328876 36.9089488,40.236833" id="路径" stroke="url(#linearGradient-7)" stroke-width="1.62232476"></path>
                        <path d="M39.2590945,37.7423814 C40.6415484,35.8952349 41.5802527,33.7609271 41.9485139,31.5639917 C42.4776294,28.4074472 41.7857913,25.3801896 40.0255111,23.148206 C38.265204,20.9161884 35.5804681,19.6622555 32.561939,19.6622555 C29.5433774,19.6622555 26.4382606,20.9161884 23.9296756,23.148172" id="路径" stroke="url(#linearGradient-8)" stroke-width="1.62232476"></path>
                        <path d="M26.5804892,28.1675976 C25.71943,28.8500889 25.0396752,29.7305285 24.6254999,30.7214788 C24.0279779,32.1488629 24.0321597,33.6932846 24.6371185,35.0193781 C25.2420551,36.3484327 26.3982778,37.3544155 27.8513484,37.8159579 C29.304419,38.2801575 30.9353069,38.1574178 32.3852944,37.4701969" id="路径" stroke="url(#linearGradient-9)" stroke-width="1.08154984"></path>
                        <path d="M34.2348959,36.2091461 C35.068878,35.6974131 35.785588,35.0280253 36.3268003,34.2418655 C37.2994975,32.7940784 37.6253708,31.1168312 37.2341772,29.6240531 C36.8433938,28.1457091 35.7689992,27.0260735 34.2475883,26.5193623 C32.7268687,26.0372277 30.8826572,26.1716724 29.1193731,26.8482304" id="路径" stroke="url(#linearGradient-10)" stroke-width="1.08154984"></path>
                    </g>
                </g>
            </g>
        </g>
    </g>
</svg>