<?xml version="1.0" encoding="UTF-8"?>
<svg width="365px" height="210px" viewBox="0 0 365 210" version="1.1" xmlns="http://www.w3.org/2000/svg" xmlns:xlink="http://www.w3.org/1999/xlink">
    <title>5@3x</title>
    <defs>
        <linearGradient x1="100%" y1="32.6163519%" x2="7.11256159e-14%" y2="47.2350564%" id="linearGradient-1">
            <stop stop-color="#7534FF" offset="0%"></stop>
            <stop stop-color="#3ACBFF" stop-opacity="0.369782561" offset="87.1468652%"></stop>
            <stop stop-color="#30E6FF" stop-opacity="0" offset="100%"></stop>
        </linearGradient>
        <linearGradient x1="5.31774304e-16%" y1="100%" x2="100%" y2="100%" id="linearGradient-2">
            <stop stop-color="#30E6FF" offset="0%"></stop>
            <stop stop-color="#7534FF" stop-opacity="0" offset="100%"></stop>
        </linearGradient>
        <linearGradient x1="100%" y1="50%" x2="-1.92684099e-14%" y2="65.3314637%" id="linearGradient-3">
            <stop stop-color="#7534FF" stop-opacity="0" offset="0%"></stop>
            <stop stop-color="#2BCDFF" offset="100%"></stop>
        </linearGradient>
        <linearGradient x1="-2.82765805e-14%" y1="40.7699111%" x2="100%" y2="77.2345627%" id="linearGradient-4">
            <stop stop-color="#30E6FF" offset="0%"></stop>
            <stop stop-color="#7534FF" stop-opacity="0" offset="100%"></stop>
        </linearGradient>
        <linearGradient x1="100%" y1="56.119335%" x2="7.11090698e-15%" y2="28.9422652%" id="linearGradient-5">
            <stop stop-color="#7534FF" offset="0%"></stop>
            <stop stop-color="#30E6FF" stop-opacity="0" offset="100%"></stop>
        </linearGradient>
        <linearGradient x1="100%" y1="36.9556973%" x2="-2.00115178%" y2="39.3662172%" id="linearGradient-6">
            <stop stop-color="#7534FF" offset="0%"></stop>
            <stop stop-color="#30E6FF" stop-opacity="0" offset="100%"></stop>
        </linearGradient>
        <linearGradient x1="99.8825911%" y1="85.5335054%" x2="5.83477029%" y2="-1.55233958e-13%" id="linearGradient-7">
            <stop stop-color="#7534FF" offset="0%"></stop>
            <stop stop-color="#30E6FF" stop-opacity="0" offset="100%"></stop>
        </linearGradient>
        <linearGradient x1="7.48200731%" y1="18.1566774%" x2="100%" y2="98.2892964%" id="linearGradient-8">
            <stop stop-color="#30E6FF" offset="0%"></stop>
            <stop stop-color="#7534FF" stop-opacity="0" offset="100%"></stop>
        </linearGradient>
        <linearGradient x1="88.7964976%" y1="84.3557671%" x2="15.0544545%" y2="1.04011886e-13%" id="linearGradient-9">
            <stop stop-color="#7534FF" offset="0%"></stop>
            <stop stop-color="#30E6FF" stop-opacity="0" offset="100%"></stop>
        </linearGradient>
        <linearGradient x1="14.8137142%" y1="24.6241098%" x2="85.1862858%" y2="100%" id="linearGradient-10">
            <stop stop-color="#30E6FF" offset="0%"></stop>
            <stop stop-color="#7534FF" stop-opacity="0" offset="100%"></stop>
        </linearGradient>
    </defs>
    <g id="页面-1" stroke="none" stroke-width="1" fill="none" fill-rule="evenodd">
        <g id="Brand-book备份" transform="translate(-345.000000, -982.000000)">
            <g id="5" transform="translate(345.000000, 982.000000)">
                <rect id="矩形" fill="#000000" opacity="0" x="0" y="0" width="365" height="210"></rect>
                <g id="编组-6" transform="translate(100.000000, 41.000000)">
                    <g id="Aperture-2" transform="translate(0.000000, 97.000000)" fill="#000000" fill-rule="nonzero">
                        <path d="M6.02185401,24.3478261 L7.61436812,20.5913043 L18.123169,20.5913043 L19.7246442,24.3478261 L25.8693932,24.3478261 L15.6076624,0 L10.2924546,0 L0,24.3478261 L6.02185401,24.3478261 Z M16.047396,15.7217391 L9.67861973,15.7217391 L11.5214044,11.373913 C11.6750231,10.973913 11.8228811,10.5934783 11.9649784,10.2326087 L12.1051555,9.87826087 C12.289498,9.41449275 12.4687198,8.96231884 12.642821,8.52173913 C12.6863463,8.4115942 12.7285915,8.30072464 12.7695565,8.18913043 L12.8828503,7.86956522 L13.0575916,8.4173913 C13.1651247,8.74782609 13.2841792,9.08804348 13.4147551,9.43804348 L13.5491715,9.79130435 C13.733514,10.2666667 13.9485802,10.7942029 14.1943702,11.373913 L14.1943702,11.373913 L16.047396,15.7217391 Z M32.8385627,32 L32.8385627,22.3536232 L32.8846483,22.4 C33.5136317,23.0164251 34.3018166,23.5256844 35.2492032,23.9277778 L35.5115285,24.0347826 C36.5766183,24.4521739 37.7646032,24.6608696 39.0754829,24.6608696 C40.8574601,24.6608696 42.4192505,24.2550725 43.760854,23.4434783 C45.1024576,22.6318841 46.1470649,21.5014493 46.894676,20.0521739 C47.6422871,18.6028986 48.0160927,16.9391304 48.0160927,15.0608696 C48.0160927,13.1362319 47.6474078,11.4550725 46.9100379,10.0173913 C46.172668,8.57971014 45.1485432,7.45507246 43.8376634,6.64347826 C42.5267836,5.83188406 40.9803551,5.42608696 39.1983779,5.42608696 C37.8874981,5.42608696 36.6790308,5.62318841 35.572976,6.0173913 C34.4669212,6.4115942 33.5656913,6.92173913 32.8692865,7.54782609 C32.8157169,7.59598662 32.7637228,7.64449018 32.7133044,7.69333676 L32.5767708,7.83115942 L32.439154,5.77391304 L27.0932224,5.77391304 L27.0932224,32 L32.8385627,32 Z M37.5700194,19.3391304 C36.5663771,19.3391304 35.695871,19.1652174 34.9585011,18.8173913 C34.2211312,18.4695652 33.6578626,17.9710145 33.2686951,17.3217391 C32.8795277,16.6724638 32.684944,15.9188406 32.684944,15.0608696 C32.684944,14.1797101 32.8795277,13.4202899 33.2686951,12.7826087 C33.6578626,12.1449275 34.2211312,11.6463768 34.9585011,11.2869565 C35.695871,10.9275362 36.5766183,10.7478261 37.6007432,10.7478261 C38.583903,10.7478261 39.4339266,10.9217391 40.150814,11.2695652 C40.8677014,11.6173913 41.4207288,12.1101449 41.8098962,12.7478261 C42.1990637,13.3855072 42.3936474,14.1565217 42.3936474,15.0608696 C42.3936474,15.9188406 42.2041843,16.6724638 41.8252581,17.3217391 C41.4463319,17.9710145 40.8933045,18.4695652 40.1661759,18.8173913 C39.4390473,19.1652174 38.5736618,19.3391304 37.5700194,19.3391304 Z M59.8703376,24.6956522 C60.914945,24.6956522 61.9237079,24.6028986 62.8966265,24.4173913 C63.8695451,24.2318841 64.8117399,23.942029 65.723211,23.5478261 C66.6346821,23.1536232 67.4898264,22.6782609 68.2886437,22.1217391 L68.2886437,22.1217391 L65.8307442,18.1217391 C65.4210942,18.3768116 64.8066193,18.6492754 63.9873195,18.9391304 C63.1680196,19.2289855 62.0926885,19.373913 60.7613262,19.373913 C59.3685165,19.373913 58.1702904,19.1594203 57.1666481,18.7304348 C56.1630057,18.3014493 55.4000327,17.7275362 54.8777291,17.0086957 C54.7658069,16.8546584 54.6658763,16.696362 54.5779374,16.5338066 L54.5711317,16.5217391 L68.9338424,16.5217391 L68.9645661,14.9565217 C69.0055311,13.5188406 68.7802237,12.2202899 68.2886437,11.0608696 C67.7970638,9.90144928 67.1006589,8.89855072 66.1994291,8.05217391 C65.2981992,7.2057971 64.2484713,6.55652174 63.0502452,6.10434783 C61.8520192,5.65217391 60.5360188,5.42608696 59.102244,5.42608696 C57.7094342,5.42608696 56.3934338,5.65217391 55.1542428,6.10434783 C53.9150517,6.55652174 52.8243588,7.2057971 51.882164,8.05217391 C50.9399691,8.89855072 50.1974786,9.91884058 49.6546924,11.1130435 C49.1119063,12.3072464 48.8405132,13.6347826 48.8405132,15.0956522 C48.8405132,16.9275362 49.2911281,18.573913 50.192358,20.0347826 C51.0935878,21.4956522 52.3737439,22.6376812 54.0328261,23.4608696 C55.6919083,24.284058 57.6377455,24.6956522 59.8703376,24.6956522 Z M63.7562513,12.9043478 L54.4085519,12.9043478 L54.4255992,12.864214 C54.4992271,12.6983278 54.5851263,12.5404682 54.6832969,12.3906355 L54.7855578,12.2434783 C55.246414,11.6173913 55.8660095,11.1594203 56.6443444,10.8695652 C57.4226793,10.5797101 58.2829441,10.4347826 59.225139,10.4347826 C60.0239564,10.4347826 60.7613262,10.5565217 61.4372486,10.8 C62.113171,11.0434783 62.6661984,11.3681159 63.0963309,11.773913 C63.4091544,12.0690382 63.6190577,12.4040244 63.7260407,12.7788717 L63.7562513,12.9043478 Z M78.0229503,24.3478261 L78.0229503,16.3130435 C78.0229503,15.7797101 78.1048803,15.2753623 78.2687402,14.8 C78.4326002,14.3246377 78.6886314,13.8956522 79.0368339,13.5130435 C79.3850363,13.1304348 79.8151687,12.8173913 80.3272311,12.573913 C80.8392936,12.3304348 81.4435272,12.2086957 82.1399321,12.2086957 C82.8568195,12.2086957 83.5685862,12.3130435 84.2752324,12.5217391 C84.9818785,12.7304348 85.519544,12.9855072 85.888229,13.2869565 L85.888229,13.2869565 L87.45514,6.29565217 C87.004525,6.0173913 86.4514976,5.80289855 85.7960577,5.65217391 C85.1406178,5.50144928 84.4749367,5.42608696 83.7990143,5.42608696 C82.6519945,5.42608696 81.5664222,5.74492754 80.5422974,6.3826087 C79.5181725,7.02028986 78.6271839,7.87246377 77.8693315,8.93913043 L77.8693315,8.93913043 L77.8002031,9.03985507 L77.6542653,5.80869565 L72.3083337,5.80869565 L72.3083337,24.3478261 L78.0229503,24.3478261 Z M98.3876725,24.3478261 L98.3876725,11.3043478 L103.2113,11.3043478 L103.2113,5.80869565 L98.3876725,5.80869565 L98.3876725,0.27826087 L92.673056,0.27826087 L92.673056,5.80869565 L88.4946267,5.80869565 L88.4946267,11.3043478 L92.673056,11.3043478 L92.673056,24.3478261 L98.3876725,24.3478261 Z M113.590806,24.7304348 C114.901685,24.7304348 116.079429,24.5043478 117.124036,24.0521739 C118.168644,23.6 119.034029,23.0202899 119.720193,22.3130435 C119.834553,22.1951691 119.942798,22.0771337 120.044926,21.9589372 L120.145205,21.8398551 L120.35003,24.3478261 L125.634514,24.3478261 L125.634514,5.80869565 L119.919897,5.80869565 L119.919897,14.8869565 C119.919897,15.5362319 119.812364,16.1217391 119.597298,16.6434783 C119.382232,17.1652174 119.080115,17.6057971 118.690947,17.9652174 C118.30178,18.3246377 117.856286,18.5971014 117.354464,18.7826087 C116.852643,18.9681159 116.314978,19.0608696 115.741468,19.0608696 C114.94265,19.0608696 114.28209,18.9043478 113.759786,18.5913043 C113.237483,18.2782609 112.863677,17.7971014 112.63837,17.1478261 C112.413062,16.4985507 112.300408,15.6637681 112.300408,14.6434783 L112.300408,14.6434783 L112.300408,5.80869565 L106.585792,5.80869565 L106.585792,15.5826087 C106.585792,17.5304348 106.872547,19.1884058 107.446057,20.5565217 C108.019567,21.9246377 108.828625,22.9623188 109.873233,23.6695652 C110.91784,24.3768116 112.157031,24.7304348 113.590806,24.7304348 Z M136.659217,24.3478261 L136.659217,16.3130435 C136.659217,15.7797101 136.741147,15.2753623 136.905007,14.8 C137.068867,14.3246377 137.324899,13.8956522 137.673101,13.5130435 C138.021304,13.1304348 138.451436,12.8173913 138.963498,12.573913 C139.475561,12.3304348 140.079794,12.2086957 140.776199,12.2086957 C141.493087,12.2086957 142.204853,12.3130435 142.9115,12.5217391 C143.618146,12.7304348 144.155811,12.9855072 144.524496,13.2869565 L144.524496,13.2869565 L146.091407,6.29565217 C145.640792,6.0173913 145.087765,5.80289855 144.432325,5.65217391 C143.776885,5.50144928 143.111204,5.42608696 142.435282,5.42608696 C141.288262,5.42608696 140.202689,5.74492754 139.178565,6.3826087 C138.15444,7.02028986 137.263451,7.87246377 136.505599,8.93913043 L136.505599,8.93913043 L136.43647,9.03985507 L136.290533,5.80869565 L130.944601,5.80869565 L130.944601,24.3478261 L136.659217,24.3478261 Z M156.901045,24.6956522 C157.945652,24.6956522 158.954415,24.6028986 159.927334,24.4173913 C160.900252,24.2318841 161.842447,23.942029 162.753918,23.5478261 C163.665389,23.1536232 164.520534,22.6782609 165.319351,22.1217391 L165.319351,22.1217391 L162.861451,18.1217391 C162.451801,18.3768116 161.837326,18.6492754 161.018027,18.9391304 C160.198727,19.2289855 159.123396,19.373913 157.792033,19.373913 C156.399224,19.373913 155.200998,19.1594203 154.197355,18.7304348 C153.193713,18.3014493 152.43074,17.7275362 151.908436,17.0086957 C151.796514,16.8546584 151.696583,16.696362 151.608645,16.5338066 L151.601839,16.5217391 L165.96455,16.5217391 L165.995273,14.9565217 C166.036238,13.5188406 165.810931,12.2202899 165.319351,11.0608696 C164.827771,9.90144928 164.131366,8.89855072 163.230136,8.05217391 C162.328906,7.2057971 161.279178,6.55652174 160.080952,6.10434783 C158.882726,5.65217391 157.566726,5.42608696 156.132951,5.42608696 C154.740141,5.42608696 153.424141,5.65217391 152.18495,6.10434783 C150.945759,6.55652174 149.855066,7.2057971 148.912871,8.05217391 C147.970676,8.89855072 147.228186,9.91884058 146.6854,11.1130435 C146.142613,12.3072464 145.87122,13.6347826 145.87122,15.0956522 C145.87122,16.9275362 146.321835,18.573913 147.223065,20.0347826 C148.124295,21.4956522 149.404451,22.6376812 151.063533,23.4608696 C152.722615,24.284058 154.668453,24.6956522 156.901045,24.6956522 Z M160.786958,12.9043478 L151.439259,12.9043478 L151.456306,12.864214 C151.529934,12.6983278 151.615833,12.5404682 151.714004,12.3906355 L151.816265,12.2434783 C152.277121,11.6173913 152.896717,11.1594203 153.675052,10.8695652 C154.453386,10.5797101 155.313651,10.4347826 156.255846,10.4347826 C157.054663,10.4347826 157.792033,10.5565217 158.467956,10.8 C159.143878,11.0434783 159.696906,11.3681159 160.127038,11.773913 C160.439862,12.0690382 160.649765,12.4040244 160.756748,12.7788717 L160.786958,12.9043478 Z" id="Aperture"></path>
                    </g>
                    <g id="编组-4备份-3" transform="translate(44.000000, 0.000000)">
                        <path d="M0.351300851,55.4258356 C0.999016749,59.1120577 2.22837493,62.5789403 4.00353545,65.7063559 C6.31494763,69.7794648 9.50668876,73.1965836 13.3964748,75.7629763 C17.286191,78.3293689 21.7976793,79.9952854 26.6733416,80.6654899 C31.5490038,81.3356943 36.6934528,80.9966832 41.8129636,79.6676457 C46.9323419,78.3393189 51.9264922,76.0472624 56.5099466,72.9222475 C61.0943088,69.7972327 65.177823,65.9010918 68.5279631,61.4548574 C71.8779046,57.0096891 74.4292605,52.1020583 76.0361439,47.0126977 C77.5193898,42.3149249 78.170798,37.54715 77.9619084,32.9416775" id="路径" stroke="url(#linearGradient-1)" stroke-width="4.15282799"></path>
                        <path d="M68.5703509,37.7261216 C69.4034751,30.7444047 67.779238,24.1770453 63.8539561,19.1744674 C59.2507472,13.4761396 52.0368517,10.2749056 43.9082877,10.2749056 C35.7796624,10.2749056 27.6199677,13.4761396 21.333438,19.1744674 C15.1867993,24.8727345 11.422504,32.6012614 10.7594938,40.6598293" id="路径" stroke="url(#linearGradient-2)" stroke-width="3.46068999"></path>
                        <path d="M76.571564,25.255004 C75.7691431,21.6918881 74.3726325,18.3191217 72.4354537,15.2605257 C70.0664347,11.4471776 66.9238237,8.18559428 63.1849874,5.66469969 C59.4780393,3.11885439 55.2360518,1.37535395 50.6853466,0.547386697 C46.1454084,-0.287513411 41.3582757,-0.168732469 36.57507,0.91327913 C31.7735388,2.00972208 27.0422491,4.06666737 22.6358709,6.97602725 C18.1903567,9.91196997 14.1452462,13.6476892 10.7322313,17.966978 C7.28049425,22.3088819 4.54086435,27.1378821 2.68702705,32.1649546 C0.816883911,37.197206 -0.101197596,42.3080138 0.00884533697,47.1898053" id="路径" stroke="url(#linearGradient-3)" stroke-width="4.15282799"></path>
                        <path d="M58.5850542,47.6660731 C59.2587829,46.2343647 59.8200693,44.7669465 60.2597669,43.2829701 C60.3962962,42.8226214 60.5210376,42.3606793 60.633715,41.8977155 C61.3941474,38.7731329 61.5834489,35.6630588 61.1801884,32.7452662 C60.7658145,29.8274735 59.7585326,27.1589762 58.2106408,24.8922104 C56.6463335,22.6254258 54.5716998,20.8047615 52.1083286,19.5340922 C49.6326685,18.2634759 46.8254104,17.5677698 43.8555678,17.486732 C40.8848683,17.405635 37.8227081,17.9408425 34.8530398,19.0616787 C31.894495,20.1825742 29.0961901,21.8671604 26.622002,24.0192731 C24.1644132,26.171445 22.0799657,28.748946 20.4843675,31.6047701" id="路径" stroke="url(#linearGradient-4)" stroke-width="2.76855199"></path>
                        <path d="M17.6172364,37.0057446 C16.9807046,38.4770283 16.4852859,39.9781008 16.1405306,41.4866549 C15.4668129,44.4348697 15.38175,47.3538648 15.8903167,50.0769358 C16.3988258,52.8000141 17.4909642,55.2738269 19.1043745,57.3572785 C20.7177596,59.4404036 22.8208119,61.0925961 25.2934462,62.2187898 C27.7660268,63.34554 30.5598474,63.9239108 33.5152866,63.9221566 C36.4706683,63.9204017 39.5298696,63.3376856 42.5181845,62.2073831 C45.5064458,61.077637 48.3653129,59.4220898 50.9315404,57.3358471 C53.2898527,55.4191025 55.3586978,53.172343 57.0391051,50.7064779" id="路径" stroke="url(#linearGradient-5)" stroke-width="2.76855199"></path>
                        <path d="M10.073767,47.504304 C9.89006681,53.8138953 11.7620857,59.647573 15.4709211,64.093913 C19.9839082,69.5043823 26.8470205,72.4167937 34.5502545,72.1914487 C42.2534886,71.9661038 50.165868,68.6214605 56.5467809,62.8923088 C62.7274444,57.343148 66.980995,49.9978357 68.4424194,42.3843577" id="路径" stroke="url(#linearGradient-6)" stroke-width="3.46068999"></path>
                        <path d="M28.0666437,32.6660418 C26.027777,35.3030937 24.6377721,38.3865798 24.1209226,41.5163687 C23.4494717,45.5823485 24.3367139,49.3934029 26.6044621,52.1111984 C28.893934,54.8290402 32.3773437,56.2306348 36.2712743,56.0081301 C40.1652049,55.7856254 44.1167961,53.9572483 47.2397757,50.9247417" id="路径" stroke="url(#linearGradient-7)" stroke-width="2.076414"></path>
                        <path d="M50.247728,47.7677014 C52.0171313,45.4299067 53.2185792,42.7286733 53.6899168,39.9481769 C54.3671319,35.9531754 53.4816481,32.1218025 51.2286648,29.2969482 C48.9756473,26.4720509 45.5394529,24.8850421 41.6760365,24.8850421 C37.8125784,24.8850421 33.8383385,26.4720509 30.6275998,29.2969052" id="路径" stroke="url(#linearGradient-8)" stroke-width="2.076414"></path>
                        <path d="M34.0203769,35.6496157 C32.918307,36.5133938 32.0482885,37.6277001 31.5181854,38.8818716 C30.7534168,40.6884046 30.7587691,42.6430633 31.5330561,44.3214005 C32.3073147,46.0034851 33.7871645,47.2766821 35.64695,47.8608217 C37.5067356,48.4483244 39.5941095,48.2929819 41.449949,47.423218" id="路径" stroke="url(#linearGradient-9)" stroke-width="1.384276"></path>
                        <path d="M43.8172546,45.8272005 C44.8846685,45.1795384 45.8019859,44.3323445 46.4946837,43.337361 C47.7396392,41.5050055 48.1567245,39.3822395 47.6560357,37.4929421 C47.155872,35.6219131 45.7807539,34.2048743 43.8334996,33.5635679 C41.88713,32.9533663 39.5267232,33.1235229 37.2698952,33.9797917" id="路径" stroke="url(#linearGradient-10)" stroke-width="1.384276"></path>
                    </g>
                </g>
            </g>
        </g>
    </g>
</svg>