<?xml version="1.0" encoding="UTF-8"?>
<svg width="240px" height="210px" viewBox="0 0 240 210" version="1.1" xmlns="http://www.w3.org/2000/svg" xmlns:xlink="http://www.w3.org/1999/xlink">
    <title>9@3x</title>
    <defs>
        <linearGradient x1="100%" y1="32.6163519%" x2="7.11256159e-14%" y2="47.2350564%" id="linearGradient-1">
            <stop stop-color="#7534FF" offset="0%"></stop>
            <stop stop-color="#3ACBFF" stop-opacity="0.369782561" offset="87.1468652%"></stop>
            <stop stop-color="#30E6FF" stop-opacity="0" offset="100%"></stop>
        </linearGradient>
        <linearGradient x1="5.31774304e-16%" y1="100%" x2="100%" y2="100%" id="linearGradient-2">
            <stop stop-color="#30E6FF" offset="0%"></stop>
            <stop stop-color="#7534FF" stop-opacity="0" offset="100%"></stop>
        </linearGradient>
        <linearGradient x1="100%" y1="50%" x2="-1.92684099e-14%" y2="65.3314637%" id="linearGradient-3">
            <stop stop-color="#7534FF" stop-opacity="0" offset="0%"></stop>
            <stop stop-color="#2BCDFF" offset="100%"></stop>
        </linearGradient>
        <linearGradient x1="-2.82765805e-14%" y1="40.7699111%" x2="100%" y2="77.2345627%" id="linearGradient-4">
            <stop stop-color="#30E6FF" offset="0%"></stop>
            <stop stop-color="#7534FF" stop-opacity="0" offset="100%"></stop>
        </linearGradient>
        <linearGradient x1="100%" y1="56.119335%" x2="7.11090698e-15%" y2="28.9422652%" id="linearGradient-5">
            <stop stop-color="#7534FF" offset="0%"></stop>
            <stop stop-color="#30E6FF" stop-opacity="0" offset="100%"></stop>
        </linearGradient>
        <linearGradient x1="100%" y1="36.9556973%" x2="-2.00115178%" y2="39.3662172%" id="linearGradient-6">
            <stop stop-color="#7534FF" offset="0%"></stop>
            <stop stop-color="#30E6FF" stop-opacity="0" offset="100%"></stop>
        </linearGradient>
        <linearGradient x1="99.8825911%" y1="85.5335054%" x2="5.83477029%" y2="-1.55233958e-13%" id="linearGradient-7">
            <stop stop-color="#7534FF" offset="0%"></stop>
            <stop stop-color="#30E6FF" stop-opacity="0" offset="100%"></stop>
        </linearGradient>
        <linearGradient x1="7.48200731%" y1="18.1566774%" x2="100%" y2="98.2892964%" id="linearGradient-8">
            <stop stop-color="#30E6FF" offset="0%"></stop>
            <stop stop-color="#7534FF" stop-opacity="0" offset="100%"></stop>
        </linearGradient>
        <linearGradient x1="88.7964976%" y1="84.3557671%" x2="15.0544545%" y2="1.04011886e-13%" id="linearGradient-9">
            <stop stop-color="#7534FF" offset="0%"></stop>
            <stop stop-color="#30E6FF" stop-opacity="0" offset="100%"></stop>
        </linearGradient>
        <linearGradient x1="14.8137142%" y1="24.6241098%" x2="85.1862858%" y2="100%" id="linearGradient-10">
            <stop stop-color="#30E6FF" offset="0%"></stop>
            <stop stop-color="#7534FF" stop-opacity="0" offset="100%"></stop>
        </linearGradient>
    </defs>
    <g id="page-1" stroke="none" stroke-width="1" fill="none" fill-rule="evenodd">
        <g id="Brand-book-backup" transform="translate(-345.000000, -1616.000000)">
            <g id="9" transform="translate(345.000000, 1616.000000)">
                <rect id="rectangle" fill="#000000" opacity="0" x="0" y="0" width="240" height="210"></rect>
                <g id="group-4-backup-3" transform="translate(81.000000, 65.000000)">
                    <path d="M0.351300851,55.4258356 C0.999016749,59.1120577 2.22837493,62.5789403 4.00353545,65.7063559 C6.31494763,69.7794648 9.50668876,73.1965836 13.3964748,75.7629763 C17.286191,78.3293689 21.7976793,79.9952854 26.6733416,80.6654899 C31.5490038,81.3356943 36.6934528,80.9966832 41.8129636,79.6676457 C46.9323419,78.3393189 51.9264922,76.0472624 56.5099466,72.9222475 C61.0943088,69.7972327 65.177823,65.9010918 68.5279631,61.4548574 C71.8779046,57.0096891 74.4292605,52.1020583 76.0361439,47.0126977 C77.5193898,42.3149249 78.170798,37.54715 77.9619084,32.9416775" id="url" stroke="url(#linearGradient-1)" stroke-width="4.15282799"></path>
                    <path d="M68.5703509,37.7261216 C69.4034751,30.7444047 67.779238,24.1770453 63.8539561,19.1744674 C59.2507472,13.4761396 52.0368517,10.2749056 43.9082877,10.2749056 C35.7796624,10.2749056 27.6199677,13.4761396 21.333438,19.1744674 C15.1867993,24.8727345 11.422504,32.6012614 10.7594938,40.6598293" id="url" stroke="url(#linearGradient-2)" stroke-width="3.46068999"></path>
                    <path d="M76.571564,25.255004 C75.7691431,21.6918881 74.3726325,18.3191217 72.4354537,15.2605257 C70.0664347,11.4471776 66.9238237,8.18559428 63.1849874,5.66469969 C59.4780393,3.11885439 55.2360518,1.37535395 50.6853466,0.547386697 C46.1454084,-0.287513411 41.3582757,-0.168732469 36.57507,0.91327913 C31.7735388,2.00972208 27.0422491,4.06666737 22.6358709,6.97602725 C18.1903567,9.91196997 14.1452462,13.6476892 10.7322313,17.966978 C7.28049425,22.3088819 4.54086435,27.1378821 2.68702705,32.1649546 C0.816883911,37.197206 -0.101197596,42.3080138 0.00884533697,47.1898053" id="url" stroke="url(#linearGradient-3)" stroke-width="4.15282799"></path>
                    <path d="M58.5850542,47.6660731 C59.2587829,46.2343647 59.8200693,44.7669465 60.2597669,43.2829701 C60.3962962,42.8226214 60.5210376,42.3606793 60.633715,41.8977155 C61.3941474,38.7731329 61.5834489,35.6630588 61.1801884,32.7452662 C60.7658145,29.8274735 59.7585326,27.1589762 58.2106408,24.8922104 C56.6463335,22.6254258 54.5716998,20.8047615 52.1083286,19.5340922 C49.6326685,18.2634759 46.8254104,17.5677698 43.8555678,17.486732 C40.8848683,17.405635 37.8227081,17.9408425 34.8530398,19.0616787 C31.894495,20.1825742 29.0961901,21.8671604 26.622002,24.0192731 C24.1644132,26.171445 22.0799657,28.748946 20.4843675,31.6047701" id="url" stroke="url(#linearGradient-4)" stroke-width="2.76855199"></path>
                    <path d="M17.6172364,37.0057446 C16.9807046,38.4770283 16.4852859,39.9781008 16.1405306,41.4866549 C15.4668129,44.4348697 15.38175,47.3538648 15.8903167,50.0769358 C16.3988258,52.8000141 17.4909642,55.2738269 19.1043745,57.3572785 C20.7177596,59.4404036 22.8208119,61.0925961 25.2934462,62.2187898 C27.7660268,63.34554 30.5598474,63.9239108 33.5152866,63.9221566 C36.4706683,63.9204017 39.5298696,63.3376856 42.5181845,62.2073831 C45.5064458,61.077637 48.3653129,59.4220898 50.9315404,57.3358471 C53.2898527,55.4191025 55.3586978,53.172343 57.0391051,50.7064779" id="url" stroke="url(#linearGradient-5)" stroke-width="2.76855199"></path>
                    <path d="M10.073767,47.504304 C9.89006681,53.8138953 11.7620857,59.647573 15.4709211,64.093913 C19.9839082,69.5043823 26.8470205,72.4167937 34.5502545,72.1914487 C42.2534886,71.9661038 50.165868,68.6214605 56.5467809,62.8923088 C62.7274444,57.343148 66.980995,49.9978357 68.4424194,42.3843577" id="url" stroke="url(#linearGradient-6)" stroke-width="3.46068999"></path>
                    <path d="M28.0666437,32.6660418 C26.027777,35.3030937 24.6377721,38.3865798 24.1209226,41.5163687 C23.4494717,45.5823485 24.3367139,49.3934029 26.6044621,52.1111984 C28.893934,54.8290402 32.3773437,56.2306348 36.2712743,56.0081301 C40.1652049,55.7856254 44.1167961,53.9572483 47.2397757,50.9247417" id="url" stroke="url(#linearGradient-7)" stroke-width="2.076414"></path>
                    <path d="M50.247728,47.7677014 C52.0171313,45.4299067 53.2185792,42.7286733 53.6899168,39.9481769 C54.3671319,35.9531754 53.4816481,32.1218025 51.2286648,29.2969482 C48.9756473,26.4720509 45.5394529,24.8850421 41.6760365,24.8850421 C37.8125784,24.8850421 33.8383385,26.4720509 30.6275998,29.2969052" id="url" stroke="url(#linearGradient-8)" stroke-width="2.076414"></path>
                    <path d="M34.0203769,35.6496157 C32.918307,36.5133938 32.0482885,37.6277001 31.5181854,38.8818716 C30.7534168,40.6884046 30.7587691,42.6430633 31.5330561,44.3214005 C32.3073147,46.0034851 33.7871645,47.2766821 35.64695,47.8608217 C37.5067356,48.4483244 39.5941095,48.2929819 41.449949,47.423218" id="url" stroke="url(#linearGradient-9)" stroke-width="1.384276"></path>
                    <path d="M43.8172546,45.8272005 C44.8846685,45.1795384 45.8019859,44.3323445 46.4946837,43.337361 C47.7396392,41.5050055 48.1567245,39.3822395 47.6560357,37.4929421 C47.155872,35.6219131 45.7807539,34.2048743 43.8334996,33.5635679 C41.88713,32.9533663 39.5267232,33.1235229 37.2698952,33.9797917" id="url" stroke="url(#linearGradient-10)" stroke-width="1.384276"></path>
                </g>
            </g>
        </g>
    </g>
</svg>