<svg width="502" height="163" viewBox="0 0 502 163" fill="none" xmlns="http://www.w3.org/2000/svg">
<rect opacity="0.142412" y="0.413696" width="502" height="158.588" rx="6" fill="black"/>
<mask id="mask0_2_390" style="mask-type:alpha" maskUnits="userSpaceOnUse" x="0" y="1" width="502" height="133">
<rect y="1.82178" width="502" height="131.799" rx="6" fill="white"/>
</mask>
<g mask="url(#mask0_2_390)">
<path opacity="0.112421" fill-rule="evenodd" clip-rule="evenodd" d="M241.505 114.503C241.604 114.34 241.758 114.224 241.923 114.127L266.387 99.7555C266.552 99.659 266.687 99.4958 266.873 99.456C267.333 99.358 267.675 100.492 267.675 102.28V172.891C267.675 174.753 267.304 176.696 266.816 177.526C266.712 177.702 266.544 177.826 266.365 177.926L242.985 190.997C242.806 191.097 242.659 191.278 242.456 191.305C242.007 191.364 241.675 190.238 241.675 188.477L240.635 119.156C240.635 117.28 241.012 115.323 241.505 114.503Z" fill="url(#paint0_linear_2_390)"/>
<path opacity="0.112421" fill-rule="evenodd" clip-rule="evenodd" d="M299.647 126.078C299.746 125.915 299.9 125.798 300.065 125.702L324.529 111.33C324.694 111.234 324.829 111.071 325.015 111.031C325.475 110.933 325.817 112.067 325.817 113.855V184.466C325.817 186.328 325.446 188.27 324.958 189.101C324.854 189.277 324.686 189.401 324.507 189.501L301.127 202.571C300.948 202.671 300.801 202.853 300.598 202.88C300.149 202.939 299.817 201.813 299.817 200.052L298.777 130.731C298.777 128.855 299.154 126.897 299.647 126.078Z" fill="url(#paint1_linear_2_390)"/>
<path opacity="0.112421" fill-rule="evenodd" clip-rule="evenodd" d="M183.363 126.078C183.462 125.915 183.616 125.798 183.781 125.702L208.245 111.33C208.409 111.234 208.545 111.071 208.731 111.031C209.191 110.933 209.533 112.067 209.533 113.855V184.466C209.533 186.328 209.162 188.27 208.674 189.101C208.57 189.277 208.402 189.401 208.223 189.501L184.843 202.571C184.664 202.671 184.517 202.853 184.314 202.88C183.865 202.939 183.533 201.813 183.533 200.052L182.493 130.731C182.493 128.855 182.87 126.897 183.363 126.078Z" fill="url(#paint2_linear_2_390)"/>
</g>
<ellipse opacity="0.398786" cx="251" cy="91.1237" rx="62" ry="66.4354" fill="url(#paint3_linear_2_390)"/>
<path d="M133.587 111.689V129.488C133.587 129.488 133.587 135.539 129.387 137.138C125.187 138.736 113.607 138.311 109.287 142.256C104.968 146.201 105.657 147.816 105.657 162.587" stroke="url(#paint4_linear_2_390)" stroke-width="1.44"/>
<ellipse opacity="0.300781" cx="133.587" cy="107.803" rx="7.5" ry="8.03654" fill="#7344EC"/>
<ellipse cx="133.587" cy="107.803" rx="4.55221" ry="4.87787" fill="#7344EC"/>
<path d="M254.084 36.1851C248.471 38.024 243.279 40.639 238.578 43.8868C226.574 52.1807 217.777 64.6011 213.372 78.76" stroke="url(#paint5_linear_2_390)" stroke-width="1.4" stroke-linecap="round"/>
<path d="M287.051 102.921C284.758 108.71 281.788 113.971 278.282 118.641C269.33 130.566 256.882 138.643 243.281 141.857" stroke="url(#paint6_linear_2_390)" stroke-width="1.4" stroke-linecap="round"/>
<ellipse opacity="0.296596" cx="245.52" cy="87.9461" rx="24.3046" ry="35.1036" fill="url(#paint7_linear_2_390)"/>
<ellipse cx="253.583" cy="89.034" rx="24.4733" ry="34.6909" fill="url(#paint8_linear_2_390)"/>
<path fill-rule="evenodd" clip-rule="evenodd" d="M265.17 82.5703L256.616 82.5387V69.3368L265.17 82.5703ZM255.572 83.1501L247.018 93.1992L255.572 69.9482V83.1501ZM256.616 95.5046L265.103 84.045L256.616 84.0134V95.5046ZM247.085 94.5954L255.572 84.6248V96.116L247.085 94.5954ZM255.572 98.4016L246.54 96.9104L255.572 107.906V98.4016ZM265.647 85.7224L256.616 107.294V97.7903L265.647 85.7224Z" fill="white"/>
<ellipse opacity="0.296596" cx="192.206" cy="114.463" rx="15.5549" ry="22.4663" fill="url(#paint9_linear_2_390)"/>
<ellipse cx="197.365" cy="115.159" rx="15.6629" ry="22.2021" fill="url(#paint10_linear_2_390)"/>
<path d="M193.899 101.483L194.641 100.813L193.971 100.07L193.229 100.74L193.899 101.483ZM195.105 102.819L195.775 103.561L196.518 102.891L195.848 102.149L195.105 102.819ZM189.977 129.018L190.68 128.306L189.977 129.018ZM196.362 130.224L197.308 129.901L196.984 128.954L196.038 129.278L196.362 130.224ZM196.945 131.927L197.268 132.873L198.214 132.55L197.891 131.604L196.945 131.927ZM188.713 130.299L189.416 129.587H189.416L188.713 130.299ZM207.81 100.729L207.032 101.358L207.81 100.729ZM203.271 127.559L202.591 128.292L203.324 128.972L204.004 128.24L203.271 127.559ZM201.952 126.335L201.219 125.654L200.539 126.387L201.272 127.068L201.952 126.335ZM206.409 101.861L207.187 101.232V101.232L206.409 101.861ZM201.164 99.7102L200.171 99.8273L200.288 100.82L201.281 100.703L201.164 99.7102ZM200.954 97.9226L200.836 96.9295L199.843 97.0466L199.96 98.0397L200.954 97.9226ZM193.229 100.74C188.115 105.358 184.474 113.387 184.474 120.82H186.474C186.474 113.945 189.882 106.457 194.569 102.225L193.229 100.74ZM195.848 102.149L194.641 100.813L193.157 102.153L194.363 103.489L195.848 102.149ZM188.274 120.82C188.274 114.446 191.471 107.447 195.775 103.561L194.435 102.076C189.705 106.347 186.274 113.889 186.274 120.82H188.274ZM190.68 128.306C189.311 126.956 188.274 124.46 188.274 120.82H186.274C186.274 124.795 187.403 127.883 189.275 129.73L190.68 128.306ZM196.038 129.278C193.759 130.058 191.963 129.572 190.68 128.306L189.275 129.73C191.151 131.58 193.762 132.171 196.685 131.17L196.038 129.278ZM197.891 131.604L197.308 129.901L195.416 130.548L195.998 132.251L197.891 131.604ZM188.011 131.011C190.422 133.389 193.766 134.072 197.268 132.873L196.621 130.981C193.761 131.96 191.233 131.379 189.416 129.587L188.011 131.011ZM184.474 120.82C184.474 125.095 185.685 128.717 188.011 131.011L189.416 129.587C187.594 127.79 186.474 124.761 186.474 120.82H184.474ZM211.406 109.498C211.406 105.677 210.441 102.395 208.587 100.101L207.032 101.358C208.516 103.195 209.406 105.984 209.406 109.498H211.406ZM204.004 128.24C208.377 123.529 211.406 116.281 211.406 109.498H209.406C209.406 115.755 206.583 122.522 202.539 126.879L204.004 128.24ZM201.272 127.068L202.591 128.292L203.952 126.826L202.632 125.602L201.272 127.068ZM207.606 109.498C207.606 115.282 204.968 121.616 201.219 125.654L202.685 127.015C206.762 122.623 209.606 115.808 209.606 109.498H207.606ZM205.632 102.489C206.783 103.915 207.606 106.261 207.606 109.498H209.606C209.606 105.953 208.708 103.115 207.187 101.232L205.632 102.489ZM201.281 100.703C203.052 100.495 204.528 101.123 205.632 102.489L207.187 101.232C205.664 99.3461 203.518 98.4258 201.047 98.7171L201.281 100.703ZM199.96 98.0397L200.171 99.8273L202.157 99.5932L201.947 97.8055L199.96 98.0397ZM208.587 100.101C206.686 97.7473 203.939 96.5638 200.836 96.9295L201.071 98.9157C203.472 98.6327 205.55 99.5238 207.032 101.358L208.587 100.101Z" fill="white"/>
<path d="M205.649 115.312C205.649 113.533 205.255 112.922 204.608 112.629C204.298 112.488 203.905 112.392 203.117 112.305C202.245 112.211 201.373 112.169 200.472 112.117C199.263 112.078 198.306 112.056 198.053 111.704C197.968 111.569 197.912 111.316 197.912 110.852C197.912 110.002 197.884 109.063 199.15 108.375C199.741 108.055 200.416 107.765 200.557 108.333C200.613 108.56 200.613 108.638 200.613 109.05V110.391L205.171 107.915C205.199 106.508 205.311 104.462 204.298 103.852C203.37 103.247 201.823 103.959 200.444 104.605V101.589L198.109 102.857V105.873C196.73 106.725 195.239 107.741 194.283 109.318C193.326 110.868 193.214 112.321 193.214 113.61C193.214 115.467 193.608 116.052 194.283 116.355C194.874 116.627 195.83 116.701 195.999 116.712C196.815 116.784 197.631 116.883 198.475 116.94C199.656 117.046 200.444 117.056 200.697 117.511C200.838 117.77 200.838 118.286 200.838 118.363C200.838 119.007 200.922 119.915 199.234 120.832C198.25 121.367 197.912 121.138 197.8 120.787C197.687 120.513 197.715 120.111 197.715 120.008V118.719L192.961 121.301C192.904 123.961 193.017 125.086 194.142 125.48C195.211 125.827 196.562 125.249 197.04 125.04C197.378 124.909 197.743 124.761 198.109 124.589V127.888L200.444 126.62V123.32C201.879 122.386 203.173 121.503 204.27 119.979C205.508 118.275 205.649 116.755 205.649 115.312Z" fill="white"/>
<path d="M398.064 121.951V161.383" stroke="url(#paint11_linear_2_390)" stroke-width="1.44" stroke-dasharray="4.8"/>
<ellipse opacity="0.300781" cx="398.064" cy="117.288" rx="7.59191" ry="8.13503" fill="#7344EC"/>
<ellipse cx="398.064" cy="117.288" rx="4.608" ry="4.93765" fill="#7344EC"/>
<path opacity="0.400507" fill-rule="evenodd" clip-rule="evenodd" d="M386.602 49.2906C385.138 48.3537 383.217 49.4053 383.217 51.1437V78.9691C383.217 79.7067 383.586 80.3952 384.201 80.8027L422.791 106.388C424.253 107.358 426.207 106.309 426.207 104.555V75.8343C426.207 75.084 425.824 74.3855 425.192 73.9811L386.602 49.2906Z" fill="url(#paint12_linear_2_390)"/>
<path fill-rule="evenodd" clip-rule="evenodd" d="M381.616 53.3029C380.15 52.4044 378.267 53.4593 378.267 55.1786V83.0682C378.267 83.8202 378.651 84.5201 379.285 84.924L416.766 108.79C418.231 109.723 420.148 108.671 420.148 106.935V78.1525C420.148 77.3872 419.75 76.6768 419.097 76.2768L381.616 53.3029Z" fill="url(#paint13_linear_2_390)"/>
<path fill-rule="evenodd" clip-rule="evenodd" d="M392.507 72.7271V76.3392C392.507 76.873 392.117 76.9254 391.834 76.4292L386.521 67.0663C386.279 66.6393 386.279 66.0832 386.521 65.9813L391.834 63.7801C392.117 63.6653 392.507 64.2442 392.507 64.7781V68.4045L401.099 74.2212C402.527 75.1882 403.685 77.728 403.685 79.8941C403.685 80.7352 403.51 81.3975 403.213 81.8378C402.817 80.4266 402.026 79.1131 401.115 78.5016L392.507 72.7271ZM401.14 83.9268L406.453 93.1032C406.694 93.5176 406.694 94.0576 406.453 94.1578L401.14 96.4084C400.857 96.5308 400.466 95.9715 400.466 95.4437V91.8584L391.875 86.2851C390.446 85.3586 389.289 82.8151 389.289 80.6037C389.289 79.7452 389.463 79.0645 389.76 78.6081C390.156 80.0362 390.947 81.3513 391.859 81.9483L400.466 87.5848V84.0136C400.466 83.4857 400.857 83.4356 401.14 83.9268Z" fill="white"/>
<path opacity="0.400507" fill-rule="evenodd" clip-rule="evenodd" d="M140.624 44.3C141.796 43.5505 143.333 44.3918 143.333 45.7825V68.0428C143.333 68.6329 143.037 69.1837 142.545 69.5097L111.673 89.9782C110.503 90.7539 108.941 89.9151 108.941 88.5114V65.5349C108.941 64.9347 109.247 64.3759 109.752 64.0524L140.624 44.3Z" fill="url(#paint14_linear_2_390)"/>
<path fill-rule="evenodd" clip-rule="evenodd" d="M144.613 47.5099C145.786 46.791 147.293 47.6349 147.293 49.0104V71.3221C147.293 71.9237 146.985 72.4836 146.478 72.8067L116.493 91.8997C115.322 92.6458 113.788 91.8042 113.788 90.4152V67.3895C113.788 66.7772 114.106 66.2089 114.628 65.889L144.613 47.5099Z" fill="url(#paint15_linear_2_390)"/>
<path fill-rule="evenodd" clip-rule="evenodd" d="M135.9 63.0491V65.9388C135.9 66.3659 136.213 66.4078 136.439 66.0108L140.69 58.5205C140.883 58.1789 140.883 57.734 140.69 57.6525L136.439 55.8915C136.213 55.7997 135.9 56.2628 135.9 56.6899V59.5911L129.027 64.2445C127.884 65.018 126.958 67.0499 126.958 68.7828C126.958 69.4556 127.098 69.9855 127.336 70.3377C127.652 69.2087 128.285 68.158 129.014 67.6687L135.9 63.0491ZM128.994 72.0089L124.744 79.35C124.551 79.6815 124.551 80.1136 124.744 80.1937L128.994 81.9942C129.221 82.0921 129.533 81.6447 129.533 81.2224V78.3541L136.406 73.8955C137.549 73.1544 138.475 71.1195 138.475 69.3504C138.475 68.6636 138.335 68.1191 138.098 67.754C137.781 68.8964 137.148 69.9485 136.419 70.4261L129.533 74.9353V72.0783C129.533 71.656 129.221 71.6159 128.994 72.0089Z" fill="white"/>
<ellipse opacity="0.296596" cx="305.485" cy="109.153" rx="19.2419" ry="27.7914" fill="url(#paint16_linear_2_390)"/>
<ellipse cx="311.868" cy="109.153" rx="19.3754" ry="27.4646" fill="url(#paint17_linear_2_390)"/>
<path fill-rule="evenodd" clip-rule="evenodd" d="M323.963 97.2419V91.0023L302.804 101.082V107.322L310.829 103.499L310.829 107.63C304.62 110.92 299.934 114.651 299.934 116.448C299.934 118.246 304.62 117.512 310.83 114.885V128.051L315.937 125.618V112.457C322.194 109.155 326.929 105.395 326.929 103.588C326.929 101.78 322.195 102.532 315.938 105.191L315.937 101.065L323.963 97.2419ZM315.937 110.236L315.938 105.542C321.374 103.227 325.453 102.435 325.453 103.813C325.453 105.397 320.071 109.244 313.432 112.407C306.793 115.57 301.411 116.85 301.411 115.267C301.411 113.897 305.442 110.831 310.829 107.981L310.829 112.67L315.937 110.236Z" fill="white"/>
<defs>
<linearGradient id="paint0_linear_2_390" x1="240.635" y1="99.4501" x2="240.635" y2="191.307" gradientUnits="userSpaceOnUse">
<stop stop-color="#5210FF"/>
<stop offset="0.996665" stop-color="#713BFF" stop-opacity="0.01"/>
<stop offset="1" stop-color="#C6B1FF" stop-opacity="0.01"/>
</linearGradient>
<linearGradient id="paint1_linear_2_390" x1="298.777" y1="111.025" x2="298.777" y2="202.882" gradientUnits="userSpaceOnUse">
<stop stop-color="#5210FF"/>
<stop offset="0.996665" stop-color="#713BFF" stop-opacity="0.01"/>
<stop offset="1" stop-color="#C6B1FF" stop-opacity="0.01"/>
</linearGradient>
<linearGradient id="paint2_linear_2_390" x1="182.493" y1="111.025" x2="182.493" y2="202.882" gradientUnits="userSpaceOnUse">
<stop stop-color="#5210FF"/>
<stop offset="0.996665" stop-color="#713BFF" stop-opacity="0.01"/>
<stop offset="1" stop-color="#C6B1FF" stop-opacity="0.01"/>
</linearGradient>
<linearGradient id="paint3_linear_2_390" x1="189" y1="24.6884" x2="189" y2="157.559" gradientUnits="userSpaceOnUse">
<stop stop-color="#5210FF"/>
<stop offset="0.996665" stop-color="#713BFF" stop-opacity="0.01"/>
<stop offset="1" stop-color="#C6B1FF" stop-opacity="0.01"/>
</linearGradient>
<linearGradient id="paint4_linear_2_390" x1="105.617" y1="111.689" x2="105.617" y2="162.587" gradientUnits="userSpaceOnUse">
<stop stop-color="#7344EC"/>
<stop offset="1" stop-color="#7344EC" stop-opacity="0.01"/>
</linearGradient>
<linearGradient id="paint5_linear_2_390" x1="205.743" y1="52.0219" x2="214.393" y2="78.4256" gradientUnits="userSpaceOnUse">
<stop stop-color="#6A39EA"/>
<stop offset="1" stop-color="#6837E8" stop-opacity="0.01"/>
</linearGradient>
<linearGradient id="paint6_linear_2_390" x1="267.3" y1="152.781" x2="242.798" y2="143.075" gradientUnits="userSpaceOnUse">
<stop stop-color="#6A39EA"/>
<stop offset="1" stop-color="#6837E8" stop-opacity="0.01"/>
</linearGradient>
<linearGradient id="paint7_linear_2_390" x1="221.216" y1="52.8425" x2="221.216" y2="123.05" gradientUnits="userSpaceOnUse">
<stop stop-color="#7FFBCE"/>
<stop offset="0.460867" stop-color="#A17DFF"/>
<stop offset="1" stop-color="#672CFF" stop-opacity="0.807665"/>
</linearGradient>
<linearGradient id="paint8_linear_2_390" x1="223.334" y1="37.8373" x2="223.258" y2="123.698" gradientUnits="userSpaceOnUse">
<stop stop-color="#7FFBCE"/>
<stop offset="0.460867" stop-color="#A17DFF"/>
<stop offset="1" stop-color="#672CFF" stop-opacity="0.807665"/>
</linearGradient>
<linearGradient id="paint9_linear_2_390" x1="176.651" y1="91.9962" x2="176.651" y2="136.929" gradientUnits="userSpaceOnUse">
<stop stop-color="#7FFBCE"/>
<stop offset="0.460867" stop-color="#A17DFF"/>
<stop offset="1" stop-color="#672CFF" stop-opacity="0.807665"/>
</linearGradient>
<linearGradient id="paint10_linear_2_390" x1="178.006" y1="82.3928" x2="177.958" y2="137.344" gradientUnits="userSpaceOnUse">
<stop stop-color="#7FFBCE"/>
<stop offset="0.460867" stop-color="#A17DFF"/>
<stop offset="1" stop-color="#672CFF" stop-opacity="0.807665"/>
</linearGradient>
<linearGradient id="paint11_linear_2_390" x1="397.464" y1="121.951" x2="397.464" y2="161.598" gradientUnits="userSpaceOnUse">
<stop stop-color="#7344EC"/>
<stop offset="1" stop-color="#9166FF" stop-opacity="0.01"/>
</linearGradient>
<linearGradient id="paint12_linear_2_390" x1="383.217" y1="47.1244" x2="383.217" y2="108.653" gradientUnits="userSpaceOnUse">
<stop stop-color="#7FFBCE"/>
<stop offset="0.460867" stop-color="#A17DFF"/>
<stop offset="1" stop-color="#672CFF" stop-opacity="0.807665"/>
</linearGradient>
<linearGradient id="paint13_linear_2_390" x1="373.325" y1="37.0487" x2="373.26" y2="110.921" gradientUnits="userSpaceOnUse">
<stop stop-color="#7FFBCE"/>
<stop offset="0.460867" stop-color="#A17DFF"/>
<stop offset="1" stop-color="#672CFF" stop-opacity="0.807665"/>
</linearGradient>
<linearGradient id="paint14_linear_2_390" x1="143.333" y1="42.567" x2="143.333" y2="91.79" gradientUnits="userSpaceOnUse">
<stop stop-color="#7FFBCE"/>
<stop offset="0.460867" stop-color="#A17DFF"/>
<stop offset="1" stop-color="#672CFF" stop-opacity="0.807665"/>
</linearGradient>
<linearGradient id="paint15_linear_2_390" x1="151.246" y1="34.5064" x2="151.298" y2="93.6039" gradientUnits="userSpaceOnUse">
<stop stop-color="#7FFBCE"/>
<stop offset="0.460867" stop-color="#A17DFF"/>
<stop offset="1" stop-color="#672CFF" stop-opacity="0.807665"/>
</linearGradient>
<linearGradient id="paint16_linear_2_390" x1="286.244" y1="81.3617" x2="286.244" y2="136.945" gradientUnits="userSpaceOnUse">
<stop stop-color="#7FFBCE"/>
<stop offset="0.460867" stop-color="#A17DFF"/>
<stop offset="1" stop-color="#672CFF" stop-opacity="0.807665"/>
</linearGradient>
<linearGradient id="paint17_linear_2_390" x1="287.921" y1="68.6208" x2="287.861" y2="136.597" gradientUnits="userSpaceOnUse">
<stop stop-color="#7FFBCE"/>
<stop offset="0.460867" stop-color="#A17DFF"/>
<stop offset="1" stop-color="#672CFF" stop-opacity="0.807665"/>
</linearGradient>
</defs>
</svg>
