<svg width="182" height="48" viewBox="0 0 182 48" fill="none" xmlns="http://www.w3.org/2000/svg">
<path d="M177.978 15.2389C178.92 15.4163 179.63 15.6962 180.135 16.0717L180.142 16.0785L180.155 16.0853C180.654 16.4198 181.008 16.8976 181.213 17.5256L181.22 17.5325V17.5461C181.459 18.181 181.589 19.0342 181.589 20.1264C181.589 20.9934 181.439 21.6965 181.165 22.2699V22.2767C180.927 22.8023 180.51 23.2529 179.875 23.6283C179.227 24.0037 178.333 24.3109 177.158 24.5157C175.964 24.6864 174.476 24.7888 172.68 24.7888H171.998V27.2257L172.612 27.2872C172.947 27.3281 173.274 27.3554 173.616 27.3759C173.957 27.3964 174.298 27.4032 174.633 27.4032C176.476 27.4032 178.339 27.137 180.203 26.6182L180.742 30.004C178.565 30.5365 176.421 30.8027 174.312 30.8027C171.37 30.8027 169.39 30.1201 168.223 28.905C167.042 27.6558 166.38 25.6898 166.38 22.8774C166.38 20.0582 167.035 18.1059 168.223 16.884V16.8771C169.411 15.6416 171.383 14.9521 174.312 14.9521C175.8 14.9521 177.015 15.0545 177.978 15.2389ZM176.933 20.3244V18.3175H174.926C174.114 18.3175 173.411 18.3994 172.913 18.6247H172.906C172.196 18.9523 171.998 19.6964 171.998 20.379V22.3927H174.005C174.803 22.3927 175.513 22.3177 175.998 22.0856C176.715 21.7579 176.933 21.0343 176.933 20.3244Z" fill="white"/>
<path d="M164.742 15.0959L165.035 19.7924C164.926 19.8129 164.817 19.8334 164.701 19.8538C164.325 19.9358 163.936 20.0245 163.54 20.1405H163.533H163.526C163.131 20.2634 162.762 20.4136 162.414 20.5979C162.045 20.7686 161.731 20.9938 161.492 21.2805L161.335 21.4717V30.3253H156.202V15.4304H158.482L160.537 17.5124L161.021 17.0687C162.038 16.1267 163.281 15.4646 164.742 15.0959Z" fill="white"/>
<path d="M152.946 15.4302V30.3114H150.659L148.427 28.1475L147.956 28.714C146.816 30.0793 145.171 30.796 142.932 30.796C141.075 30.796 139.873 30.4001 139.17 29.7585C138.488 29.11 138.064 27.9632 138.064 26.1132V15.4302H143.198V27.4239H144.884C145.683 27.4239 146.392 27.3488 146.877 27.1167C147.594 26.789 147.812 26.0655 147.812 25.3555V15.4302H152.946Z" fill="white"/>
<path d="M146.114 30.8984C146.114 30.9071 146.105 30.9071 146.114 30.8984C146.105 30.9071 146.105 30.8984 146.114 30.8984Z" fill="white"/>
<path d="M135.225 27.178C135.348 27.1917 135.471 27.2053 135.6 27.219L135.382 30.6662C134.201 30.6526 133.211 30.6116 132.412 30.5434C131.457 30.4683 130.822 30.3522 130.46 30.2225C129.764 29.9699 129.293 29.6764 128.992 29.3692C128.754 29.1098 128.583 28.6661 128.583 27.9357V18.2629H126.958V15.4301H128.583V12.6791L133.716 11.3958V15.4301H135.962V18.2629H133.716V26.8981L134.262 27.0074C134.542 27.062 134.843 27.1166 135.184 27.178H135.204H135.225Z" fill="white"/>
<path d="M124.863 19.8538C124.487 19.9358 124.098 20.0245 123.695 20.1405H123.688C123.292 20.2634 122.924 20.4136 122.576 20.5979C122.214 20.7686 121.893 20.9938 121.654 21.2805L121.497 21.4717V30.3253H116.364V15.4304H118.644L120.698 17.5124L121.183 17.0687C122.2 16.1267 123.443 15.4646 124.903 15.0959L125.197 19.7924C125.088 19.8129 124.979 19.8334 124.863 19.8538Z" fill="white"/>
<path d="M110.316 15.2389C111.265 15.4163 111.975 15.6962 112.48 16.0717L112.487 16.0785L112.5 16.0853C112.999 16.4198 113.354 16.8976 113.558 17.5256L113.565 17.5325V17.5461C113.804 18.181 113.934 19.0342 113.934 20.1264C113.934 20.9934 113.784 21.6965 113.511 22.2699V22.2767C113.272 22.8023 112.855 23.2529 112.22 23.6283C111.565 24.0037 110.671 24.3109 109.504 24.5157C108.309 24.6864 106.828 24.7888 105.026 24.7888H104.343V27.2257L104.957 27.2872C105.292 27.3281 105.619 27.3554 105.961 27.3759C106.302 27.3964 106.643 27.4032 106.978 27.4032C108.828 27.4032 110.684 27.137 112.548 26.6182L113.087 30.004C110.91 30.5365 108.766 30.8027 106.657 30.8027C103.715 30.8027 101.735 30.1201 100.568 28.905C99.3871 27.6558 98.7249 25.6898 98.7249 22.8774C98.7249 20.0582 99.3802 18.1059 100.568 16.884V16.8771C101.756 15.6416 103.729 14.9521 106.657 14.9521C108.145 14.9521 109.36 15.0545 110.316 15.2389ZM109.278 20.3244V18.3175H107.271C106.459 18.3175 105.756 18.3994 105.258 18.6247L105.244 18.6315C104.555 18.9523 104.343 19.6896 104.343 20.379V22.3927H106.35C107.148 22.3927 107.858 22.3177 108.343 22.0856C109.06 21.7579 109.278 21.0343 109.278 20.3244Z" fill="white"/>
<path d="M96.4314 19.7646C96.6703 20.7544 96.7932 21.792 96.7932 22.8774C96.7932 23.9286 96.6908 24.9184 96.4792 25.84C96.2812 26.7411 95.9467 27.5261 95.4962 28.2087C95.0593 28.8504 94.4791 29.3623 93.7418 29.7446C93.0319 30.1132 92.1172 30.318 90.9704 30.318H86.5538V35.2397L81.4137 35.622V15.43H83.6322L85.1954 17.5529L85.7415 16.7543C86.5129 15.6211 88.001 14.9453 90.4857 14.9453C91.7008 14.9453 92.677 15.1638 93.4415 15.5665C94.2402 15.9897 94.8614 16.5427 95.3324 17.2458L95.3392 17.2526L95.346 17.2594C95.8443 17.9557 96.2061 18.7817 96.4246 19.751L96.4314 19.7646ZM91.1615 25.3553V18.3106H89.4754C88.984 18.3106 88.5812 18.3311 88.2536 18.3721C87.8167 18.4199 87.4412 18.611 87.1272 18.8909C86.7313 19.2254 86.5675 19.6964 86.547 20.1879V20.2015V27.4237H88.2331C89.0317 27.4237 89.7417 27.3486 90.2263 27.1165C90.9431 26.7888 91.1615 26.0653 91.1615 25.3553Z" fill="white"/>
<path d="M75.1469 11.3684L80.0481 30.3112H74.6145L73.8568 27.0892H67.4128L66.6755 30.3112H61.2487L66.1499 11.3684H75.1469ZM72.983 23.2802L71.3788 16.2287H69.9385L68.2934 23.2802H72.983Z" fill="white"/>
<path d="M4.53986 32.9866C4.53986 32.9866 4.60812 33.2392 4.74465 33.7033C4.888 34.1675 5.11327 34.8365 5.48188 35.6625C6.20546 37.2939 7.56388 39.5466 9.93942 41.4853C12.2808 43.4307 15.653 44.9325 19.4347 45.3148C21.3461 45.5196 23.2847 45.4581 25.2643 45.1509C27.2166 44.8506 29.2099 44.2704 31.053 43.5127C32.9165 42.7413 34.6914 41.7651 36.3023 40.6388C37.9475 39.492 39.3742 38.2496 40.6643 36.8912C41.9545 35.526 43.0057 34.1471 43.9204 32.6931C44.8078 31.2732 45.4973 29.8533 46.0093 28.5086C46.5144 27.1843 46.8694 25.86 47.0605 24.7746C47.2653 23.6483 47.3472 22.6653 47.3677 21.8598C47.4018 20.2488 47.2516 19.3546 47.2516 19.3546L52.8969 18.9109C52.8969 18.9109 53.0062 20.126 52.815 22.2148C52.7126 23.2524 52.5215 24.5084 52.1597 25.8941C51.7911 27.3208 51.2791 28.7885 50.5419 30.3926C49.8115 31.9763 48.8626 33.601 47.7022 35.1983C46.5622 36.7683 45.1492 38.3657 43.5928 39.7924C42.0364 41.2259 40.2206 42.5843 38.3366 43.7038C36.4184 44.8506 34.3569 45.8063 32.2066 46.523C30.0359 47.2398 27.8446 47.7108 25.6193 47.9019C23.4144 48.0931 21.1686 48.0043 19.1071 47.6357C14.9226 46.9121 11.3047 44.9803 8.88818 42.6662C6.44438 40.3589 5.16788 37.8332 4.51938 36.0516C4.19172 35.1573 4.00059 34.4269 3.88454 33.9354C3.78215 33.4439 3.72754 33.1777 3.72754 33.1777L4.53986 32.9866Z" fill="url(#paint0_linear_2_954)"/>
<path d="M42.3503 22.8293C42.3503 22.8293 42.4527 22.0785 42.3777 20.8293C42.3026 19.58 41.9886 17.7574 40.9305 15.9212C40.3776 14.9928 39.7291 14.1395 38.7666 13.334C37.8723 12.5627 36.7665 11.9005 35.5582 11.4022C34.35 10.9039 33.0189 10.5831 31.6468 10.4397C30.9642 10.3783 30.2679 10.3373 29.5716 10.3578C29.2303 10.3578 28.8958 10.3919 28.4999 10.4124C28.1518 10.4534 27.8378 10.4738 27.4896 10.5353C24.725 10.9244 22.0969 12.0166 19.9876 13.4501C18.9159 14.1805 18.0216 14.9519 17.2366 15.812C16.4789 16.6379 15.8441 17.5254 15.3526 18.365C14.3696 20.0579 13.9191 21.6143 13.7279 22.6928C13.5368 23.7782 13.5368 24.3994 13.5368 24.3994L8.54681 23.9284C8.54681 23.9284 8.63555 23.0546 9.0383 21.587C9.44105 20.133 10.2397 18.0988 11.721 16.0304C12.4582 14.9928 13.3457 13.9621 14.431 12.9859C15.4823 12.0302 16.7451 11.1155 18.0831 10.3851C20.7794 8.89016 23.9741 7.90035 27.2166 7.73652C27.6125 7.70922 28.0562 7.70922 28.459 7.70239C28.8139 7.71605 29.2303 7.71605 29.6399 7.75018C30.4454 7.79113 31.2441 7.91401 32.0222 8.05736C33.5855 8.36454 35.0872 8.87651 36.432 9.57278C37.7768 10.2759 38.9645 11.136 39.9407 12.1463C40.8895 13.0883 41.6472 14.2624 42.1387 15.3136C43.1422 17.4912 43.2855 19.4845 43.2446 20.8224C43.2241 21.4914 43.1627 22.0307 43.1081 22.3856C43.0535 22.7338 43.0261 22.9181 43.0261 22.9181L42.3503 22.8293Z" fill="url(#paint1_linear_2_954)"/>
<path d="M48.214 15.2248C48.214 15.2248 48.1321 14.9858 47.9819 14.5285C47.8249 14.0848 47.5723 13.4295 47.1696 12.6444C46.3846 11.0812 44.9579 8.91731 42.6233 7.01279C40.3092 5.1151 37.0736 3.5041 33.3942 2.99213C31.5307 2.71908 29.6535 2.70543 27.7216 2.96483C25.8035 3.22423 23.9058 3.74302 22.0968 4.50073C18.4721 5.99568 15.2774 8.39851 12.8336 11.0676C10.3762 13.7435 8.62864 16.6856 7.59788 19.2932C7.33166 19.9553 7.12687 20.5629 6.92891 21.2114C6.75143 21.7984 6.60808 22.3787 6.49203 22.9248C6.25994 24.017 6.15072 24.9658 6.10976 25.744C6.02785 27.3004 6.15072 28.1605 6.15072 28.1605L0.00710326 28.4335C0.00710326 28.4335 -0.0611591 27.2116 0.225543 25.1501C0.368894 24.1262 0.614638 22.8906 1.01739 21.5322C1.22217 20.8564 1.46109 20.1465 1.76145 19.3956C2.0345 18.7061 2.37581 17.9211 2.75125 17.1634C4.26668 14.0848 6.58077 10.8423 9.66623 7.97529C12.738 5.1151 16.6153 2.6713 20.8886 1.28557C23.0184 0.589298 25.2505 0.152419 27.4486 0.0363731C29.633 -0.0864992 31.8652 0.104635 33.8721 0.56882C37.9678 1.47671 41.3878 3.54506 43.736 5.80454C46.1047 8.08451 47.4222 10.4942 48.1321 12.2212C48.487 13.0881 48.6918 13.7912 48.8284 14.2759C48.9444 14.7606 49.0127 15.0131 49.0127 15.0131L48.214 15.2248Z" fill="url(#paint2_linear_2_954)"/>
<path d="M34.1521 27.9218C34.1521 27.9218 34.3364 27.519 34.6504 26.8159C34.7323 26.6385 34.8211 26.4473 34.9098 26.2357C34.9781 26.0309 35.0532 25.8057 35.1351 25.5736C35.2852 25.0752 35.4149 24.5087 35.4969 23.8875C35.6607 22.6451 35.5856 21.157 34.9917 19.7917C34.4183 18.4333 33.2715 17.2729 31.8653 16.6995C30.4591 16.1056 28.8618 16.051 27.4692 16.3581C26.0357 16.6653 24.8616 17.2933 23.9264 17.976C23.0117 18.6518 22.3768 19.3685 21.9741 19.8873C21.5713 20.4129 21.3802 20.7338 21.3802 20.7338L18.4244 18.6313C18.4244 18.6313 18.7316 18.2217 19.346 17.5869C19.9672 16.952 20.9024 16.1056 22.2198 15.341C23.5032 14.597 25.2165 13.928 27.0733 13.7505C28.9437 13.5594 31.0257 13.8529 32.8005 14.8495C34.589 15.8257 35.8996 17.5323 36.4184 19.2798C36.9577 21.0409 36.828 22.7407 36.5071 24.0718C36.3433 24.7476 36.1385 25.3415 35.9201 25.8534C35.7904 26.1401 35.7221 26.304 35.5788 26.577C35.4627 26.775 35.3535 26.9593 35.2511 27.1299C34.862 27.7921 34.6368 28.1744 34.6368 28.1744L34.1521 27.9218Z" fill="url(#paint3_linear_2_954)"/>
<path d="M18.9089 21.9215C18.9089 21.9215 18.7519 22.3106 18.4857 22.9864C18.4174 23.1571 18.3424 23.3414 18.2604 23.5462L18.199 23.7032C18.2263 23.6486 18.1785 23.7851 18.1717 23.8124C18.1444 23.9216 18.1171 24.0309 18.0898 24.1469C17.9806 24.6111 17.8986 25.1367 17.8782 25.7101C17.8304 26.8501 18.0557 28.188 18.7656 29.3348C19.1274 29.9219 19.5711 30.4066 20.1308 30.8366C20.6838 31.253 21.3186 31.5738 21.9876 31.7718C23.3392 32.1882 24.8273 32.1473 26.1447 31.8264C27.4895 31.4988 28.609 30.9254 29.5237 30.3178C30.4248 29.7035 31.0665 29.0823 31.4829 28.6181C31.8993 28.1539 32.104 27.8672 32.104 27.8672L35.1486 30.4407C35.1486 30.4407 34.8209 30.8025 34.1861 31.3622C33.5512 31.9152 32.5887 32.6592 31.319 33.3214C30.0698 33.9767 28.4384 34.5774 26.6704 34.7958C24.8887 35.0211 22.8955 34.8641 21.0933 34.0791C20.1923 33.69 19.3595 33.1439 18.67 32.4817C17.9806 31.8264 17.414 31.0209 17.0454 30.2223C16.2808 28.5908 16.2194 26.8979 16.4242 25.5736C16.5266 24.9046 16.6904 24.3107 16.8747 23.7988C16.9225 23.6691 16.9703 23.5462 17.0112 23.4301L17.1 23.2117L17.1819 23.0615C17.2843 22.8704 17.3799 22.6861 17.4686 22.5291C17.8099 21.8874 18.0079 21.5188 18.0079 21.5188L18.9089 21.9215Z" fill="url(#paint4_linear_2_954)"/>
<path d="M11.4888 27.5324C11.4888 27.5324 11.4957 27.7099 11.5025 28.0444C11.5162 28.3652 11.5435 28.8294 11.639 29.4232C11.8165 30.5974 12.2602 32.2903 13.3865 33.9627C13.9258 34.775 14.7108 35.642 15.5778 36.3178C16.472 37.0277 17.5369 37.6216 18.711 38.0448C19.8851 38.4612 21.1616 38.7206 22.4723 38.7888C23.7624 38.8708 25.1345 38.7411 26.4247 38.4817C29.0391 37.9424 31.4966 36.7751 33.483 35.3075C33.9881 34.9457 34.4523 34.5566 34.9028 34.1675L35.5718 33.5531L36.1452 32.9661C36.9098 32.1469 37.5583 31.3141 38.0839 30.5018C39.1351 28.884 39.7222 27.4095 40.0225 26.3651C40.3297 25.3207 40.4048 24.72 40.4048 24.72L44.6302 25.5937C44.6302 25.5937 44.4596 26.3856 43.9613 27.6962C43.4698 29 42.5824 30.7885 41.1489 32.6452C40.4321 33.5736 39.5856 34.5088 38.6027 35.403C38.3433 35.6283 38.0839 35.8604 37.8177 36.0857C37.5583 36.2904 37.2989 36.4952 37.0326 36.7068C36.4729 37.1232 35.8927 37.5328 35.2783 37.9083C32.8345 39.4305 29.8992 40.55 26.8479 40.9459C25.312 41.1303 23.7897 41.1576 22.2743 40.9528C20.7725 40.7616 19.3185 40.3521 18.0079 39.7582C16.6973 39.1643 15.5232 38.3861 14.5675 37.4919C13.5709 36.5771 12.8609 35.6351 12.2943 34.6385C11.1748 32.6657 10.854 30.7953 10.7653 29.5325C10.7175 28.8976 10.7243 28.3857 10.738 28.0444C10.7584 27.7099 10.7653 27.5392 10.7653 27.5392L11.4888 27.5324Z" fill="url(#paint5_linear_2_954)"/>
<path d="M24.9434 21.6342C24.9434 21.6342 24.3836 22.0711 23.8785 22.9448C23.3733 23.7845 23.1003 25.1907 23.7351 26.0712C24.0082 26.4603 24.4519 26.7539 24.9092 26.8563C25.0185 26.8836 25.155 26.904 25.2437 26.9109C25.4485 26.9382 25.4622 26.9245 25.5987 26.9245C25.8239 26.9177 26.0356 26.8836 26.2335 26.8358C27.0185 26.6378 27.4554 26.276 27.4554 26.276L28.7524 28.713C28.7524 28.713 28.5408 28.8154 28.1585 28.9451C27.7763 29.0748 27.2165 29.2318 26.5134 29.2659C26.1653 29.2796 25.783 29.2727 25.3802 29.2045C25.2028 29.1772 24.9024 29.1089 24.7864 29.068C24.5543 28.9997 24.37 28.9314 24.1515 28.829C23.3324 28.4536 22.5678 27.7573 22.1787 26.8358C21.8033 25.9688 21.8238 24.9859 22.0422 24.2213C22.2607 23.4363 22.6497 22.8151 23.032 22.3509C23.4143 21.8799 23.7966 21.5659 24.0696 21.3543C24.3495 21.1427 24.5133 21.054 24.5133 21.054L24.9434 21.6342Z" fill="url(#paint6_linear_2_954)"/>
<path d="M28.9503 26.6113C28.9503 26.6113 29.5032 26.1744 29.9469 25.3074C30.1654 24.8774 30.336 24.3381 30.3428 23.792C30.3633 23.2391 30.2063 22.6862 29.8991 22.2698C29.5988 21.8534 29.1619 21.5871 28.7114 21.4711C28.4998 21.4165 28.2404 21.3824 28.0424 21.3824C27.824 21.3824 27.6192 21.4097 27.428 21.4438C26.6635 21.6076 26.2403 21.9353 26.2403 21.9353L25.0184 19.3754C25.0184 19.3754 25.23 19.2867 25.6191 19.1843C26.0082 19.0819 26.5748 18.9659 27.271 18.9727C27.6192 18.9795 27.9946 19.0137 28.3837 19.1024C28.7933 19.198 29.1619 19.3208 29.5715 19.5325C30.3565 19.9284 31.0664 20.6315 31.4282 21.4711C31.7968 22.3039 31.8241 23.2186 31.6398 23.9695C31.4623 24.734 31.1005 25.3484 30.7388 25.8058C30.377 26.2631 30.0015 26.5771 29.7353 26.7751C29.4623 26.9731 29.3052 27.0618 29.3052 27.0618L28.9503 26.6113Z" fill="url(#paint7_linear_2_954)"/>
<defs>
<linearGradient id="paint0_linear_2_954" x1="4.09585" y1="33.107" x2="50.5143" y2="19.1132" gradientUnits="userSpaceOnUse">
<stop stop-color="#07D5D8"/>
<stop offset="0.6369" stop-color="#6E6EFF"/>
<stop offset="1" stop-color="#6E35FF"/>
</linearGradient>
<linearGradient id="paint1_linear_2_954" x1="43.0053" y1="22.8681" x2="10.922" y2="23.892" gradientUnits="userSpaceOnUse">
<stop stop-color="#07D5D8"/>
<stop offset="0.6369" stop-color="#6E6EFF"/>
<stop offset="1" stop-color="#6E35FF"/>
</linearGradient>
<linearGradient id="paint2_linear_2_954" x1="49.1489" y1="15.0177" x2="3.07181" y2="28.6702" gradientUnits="userSpaceOnUse">
<stop stop-color="#07D5D8"/>
<stop offset="0.6369" stop-color="#6E6EFF"/>
<stop offset="1" stop-color="#6E35FF"/>
</linearGradient>
<linearGradient id="paint3_linear_2_954" x1="34.8137" y1="27.9877" x2="20.1373" y2="20.1375" gradientUnits="userSpaceOnUse">
<stop stop-color="#07D5D8"/>
<stop offset="0.6369" stop-color="#6E6EFF"/>
<stop offset="1" stop-color="#6E35FF"/>
</linearGradient>
<linearGradient id="paint4_linear_2_954" x1="18.4307" y1="21.8441" x2="33.7897" y2="29.353" gradientUnits="userSpaceOnUse">
<stop stop-color="#07D5D8"/>
<stop offset="0.6369" stop-color="#6E6EFF"/>
<stop offset="1" stop-color="#6E35FF"/>
</linearGradient>
<linearGradient id="paint5_linear_2_954" x1="10.9219" y1="27.3048" x2="43.0052" y2="25.2569" gradientUnits="userSpaceOnUse">
<stop stop-color="#07D5D8"/>
<stop offset="0.6369" stop-color="#6E6EFF"/>
<stop offset="1" stop-color="#6E35FF"/>
</linearGradient>
<linearGradient id="paint6_linear_2_954" x1="24.5745" y1="21.1609" x2="27.9876" y2="27.6459" gradientUnits="userSpaceOnUse">
<stop stop-color="#07D5D8"/>
<stop offset="0.6369" stop-color="#6E6EFF"/>
<stop offset="1" stop-color="#6E35FF"/>
</linearGradient>
<linearGradient id="paint7_linear_2_954" x1="29.3528" y1="27.3052" x2="25.257" y2="20.1377" gradientUnits="userSpaceOnUse">
<stop stop-color="#07D5D8"/>
<stop offset="0.6369" stop-color="#6E6EFF"/>
<stop offset="1" stop-color="#6E35FF"/>
</linearGradient>
</defs>
</svg>
