<svg width="24" height="15" viewBox="0 0 24 15" fill="none" xmlns="http://www.w3.org/2000/svg">
<path d="M13.5375 7.50001C13.5375 11.2275 10.5075 14.25 6.768 14.25C5.8804 14.2512 5.00125 14.0775 4.18076 13.739C3.36026 13.4004 2.61449 12.9035 1.98603 12.2767C1.35756 11.6499 0.858704 10.9055 0.517941 10.0859C0.177178 9.26629 0.00118111 8.38761 0 7.50001C0 3.77101 3.03 0.750008 6.768 0.750008C7.65573 0.748628 8.53504 0.922139 9.3557 1.26063C10.1764 1.59912 10.9223 2.09596 11.5509 2.72278C12.1796 3.34959 12.6786 4.0941 13.0194 4.91379C13.3603 5.73347 13.5363 6.61228 13.5375 7.50001V7.50001ZM20.9625 7.50001C20.9625 11.01 19.4475 13.854 17.5785 13.854C15.7095 13.854 14.1945 11.0085 14.1945 7.50001C14.1945 3.99001 15.7095 1.14601 17.5785 1.14601C19.4475 1.14601 20.9625 3.99151 20.9625 7.50001ZM24 7.50001C24 10.644 23.4675 13.1925 22.809 13.1925C22.152 13.1925 21.6195 10.6425 21.6195 7.50001C21.6195 4.35601 22.152 1.80751 22.8105 1.80751C23.4675 1.80751 24 4.35601 24 7.50001Z" fill="white"/>
</svg>
