<svg width="502" height="167" viewBox="0 0 502 167" fill="none" xmlns="http://www.w3.org/2000/svg">
<rect opacity="0.142412" y="0.125" width="502" height="166.75" rx="6" fill="black"/>
<mask id="mask0_3_171" style="mask-type:alpha" maskUnits="userSpaceOnUse" x="0" y="0" width="502" height="165">
<rect y="0.125" width="502" height="164" rx="6" fill="white"/>
</mask>
<g mask="url(#mask0_3_171)">
<path d="M285.2 127.067C280.392 130.86 275.272 133.778 269.99 135.849C256.5 141.138 241.95 140.908 228.826 135.653" stroke="url(#paint0_linear_3_171)" stroke-width="1.4" stroke-linecap="round"/>
<path d="M144.068 86.9288V114.391C144.068 114.391 144.068 123.727 139.868 126.193C135.668 128.659 124.089 128.003 119.769 134.089C115.45 140.176 116.139 142.668 116.139 165.457" stroke="url(#paint1_linear_3_171)" stroke-width="1.4" stroke-linecap="round"/>
<ellipse opacity="0.300781" cx="144.068" cy="82.8427" rx="7.5" ry="8.45017" fill="#F6B166"/>
<ellipse cx="144.068" cy="82.8427" rx="4.55221" ry="5.12893" fill="#F6B166"/>
<path d="M378.686 111.382V149.74" stroke="url(#paint2_linear_3_171)" stroke-width="1.4" stroke-dasharray="4"/>
<ellipse opacity="0.300781" cx="378.686" cy="106.478" rx="7.59191" ry="8.55373" fill="#F6B166"/>
<ellipse cx="378.686" cy="106.478" rx="4.608" ry="5.19178" fill="#F6B166"/>
<ellipse opacity="0.205869" cx="251" cy="75.6258" rx="78" ry="87.8818" fill="url(#paint3_linear_3_171)"/>
</g>
<path opacity="0.227911" d="M289.5 104.481C289.5 128.531 272.209 147.922 251 147.922C229.791 147.922 212.5 128.531 212.5 104.481C212.5 80.4319 229.791 61.0405 251 61.0405C272.209 61.0405 289.5 80.4319 289.5 104.481Z" stroke="#F6B166"/>
<path d="M257.013 44.5869C251.158 44.1256 245.436 44.596 239.961 45.8861C225.98 49.1807 213.613 57.821 204.766 69.9414" stroke="url(#paint4_linear_3_171)" stroke-width="1.4" stroke-linecap="round"/>
<path fill-rule="evenodd" clip-rule="evenodd" d="M234.906 85.1274C233.224 86.1205 232.195 87.9309 232.203 89.8839L232.385 138.555C232.391 140.299 234.328 141.343 235.788 140.389L269.519 118.349C271.074 117.333 272.011 115.602 272.011 113.745V67.0692C272.011 65.366 270.159 64.3088 268.692 65.1749L234.906 85.1274Z" fill="url(#paint5_linear_3_171)"/>
<path opacity="0.304827" fill-rule="evenodd" clip-rule="evenodd" d="M229.484 80.1982C227.803 81.1913 226.774 83.0016 226.781 84.9546L226.963 133.626C226.97 135.37 228.906 136.413 230.366 135.459L264.098 113.42C265.652 112.404 266.59 110.672 266.59 108.815V62.14C266.59 60.4368 264.737 59.3795 263.271 60.2456L229.484 80.1982Z" fill="url(#paint6_linear_3_171)"/>
<path fill-rule="evenodd" clip-rule="evenodd" d="M252.979 105.326C252.935 105.478 252.832 105.681 252.671 105.936C252.29 106.528 251.88 107.08 251.441 107.592C251.001 108.104 250.58 108.623 250.177 109.148C249.774 109.672 249.423 110.234 249.123 110.834C248.822 111.433 248.636 112.114 248.562 112.878C248.533 113.117 248.515 113.342 248.507 113.555C248.5 113.768 248.489 113.969 248.474 114.157C248.46 114.207 248.445 114.252 248.431 114.292C248.416 114.332 248.401 114.377 248.387 114.427C247.815 114.767 247.237 115.104 246.651 115.436C246.065 115.768 245.527 116.057 245.036 116.303C244.545 116.549 244.132 116.742 243.795 116.881C243.458 117.019 243.245 117.071 243.158 117.035C243.026 116.991 242.927 116.651 242.861 116.015C242.795 115.378 242.821 114.473 242.938 113.296C243.011 112.639 243.198 112.042 243.498 111.505C243.798 110.967 244.154 110.457 244.564 109.977C244.974 109.496 245.395 109.021 245.827 108.553C246.259 108.085 246.644 107.591 246.98 107.072C247.244 106.645 247.446 106.283 247.585 105.985C247.724 105.687 247.823 105.413 247.881 105.163C247.94 104.913 247.969 104.679 247.969 104.462C247.969 104.244 247.962 104.012 247.947 103.766C247.918 103.392 247.819 103.153 247.651 103.049C247.482 102.945 247.295 102.85 247.09 102.763C246.973 102.75 246.874 102.665 246.794 102.507C246.713 102.349 246.644 102.184 246.585 102.01C246.526 101.817 246.468 101.594 246.409 101.342C246.321 101.367 246.233 101.373 246.146 101.359C246.072 101.335 245.995 101.273 245.915 101.175C245.834 101.078 245.757 100.918 245.684 100.697C245.611 100.476 245.582 100.238 245.596 99.9813C245.611 99.7248 245.648 99.4864 245.706 99.266C245.765 99.0063 245.845 98.7694 245.948 98.5554C245.933 97.9371 245.955 97.2816 246.014 96.5888C246.072 96.0138 246.168 95.3717 246.299 94.6625C246.431 93.9528 246.629 93.2519 246.893 92.5596C247.127 91.9086 247.391 91.3236 247.684 90.8047C247.976 90.2853 248.273 89.827 248.573 89.4299C248.874 89.0325 249.178 88.6866 249.485 88.3923C249.793 88.0979 250.093 87.8388 250.386 87.6151C251.118 87.0558 251.777 86.7619 252.363 86.7344C252.949 86.7081 253.389 86.8243 253.682 87.0828C253.872 87.2793 253.993 87.5037 254.044 87.7558C254.095 88.008 254.165 88.2916 254.253 88.6066C253.975 89.0371 253.678 89.5863 253.363 90.254C253.048 90.921 252.773 91.5622 252.539 92.1776C252.246 92.9561 252.026 93.7391 251.88 94.5269C251.734 95.3141 251.624 96.0239 251.55 96.6564C251.477 97.4083 251.441 98.133 251.441 98.8308C251.323 99.0962 251.236 99.3599 251.177 99.622C251.118 99.8641 251.082 100.125 251.067 100.404C251.052 100.684 251.082 100.956 251.155 101.222C251.228 101.507 251.309 101.708 251.397 101.823C251.485 101.939 251.565 102.02 251.638 102.066C251.726 102.122 251.814 102.138 251.902 102.115C251.961 102.392 252.019 102.649 252.078 102.886C252.136 103.083 252.206 103.277 252.286 103.469C252.367 103.661 252.466 103.774 252.583 103.81C252.686 103.856 252.766 103.898 252.825 103.936C252.883 103.974 252.931 104.015 252.968 104.059C253.004 104.102 253.026 104.182 253.033 104.296C253.041 104.411 253.059 104.558 253.088 104.737C253.059 104.979 253.022 105.175 252.979 105.326ZM264.942 102.984C264.978 103.37 264.997 103.775 264.997 104.197C264.997 104.62 264.975 105.032 264.931 105.433C264.887 105.834 264.821 106.158 264.733 106.404C264.674 106.568 264.502 106.811 264.217 107.132C263.931 107.453 263.576 107.811 263.151 108.207C262.726 108.603 262.258 109.024 261.745 109.47C261.232 109.915 260.716 110.348 260.196 110.767C259.676 111.187 259.174 111.583 258.691 111.957C258.208 112.33 257.783 112.643 257.417 112.896C257.05 113.148 256.629 113.418 256.153 113.705C255.677 113.993 255.183 114.283 254.67 114.576C254.158 114.869 253.652 115.153 253.154 115.426C252.656 115.7 252.199 115.936 251.781 116.134C251.364 116.332 251.012 116.486 250.727 116.593C250.441 116.701 250.261 116.741 250.188 116.712C250.071 116.654 249.976 116.303 249.903 115.658C249.829 115.014 249.851 114.105 249.969 112.931C250.042 112.244 250.229 111.636 250.529 111.106C250.829 110.576 251.184 110.066 251.594 109.577C252.004 109.087 252.426 108.615 252.858 108.159C253.29 107.702 253.674 107.204 254.011 106.665C254.275 106.236 254.476 105.872 254.615 105.573C254.755 105.273 254.857 104.998 254.923 104.75C254.989 104.502 255.022 104.268 255.022 104.046C255.022 103.825 255.015 103.579 255 103.308C254.971 102.927 254.868 102.684 254.692 102.579C254.517 102.474 254.326 102.385 254.121 102.312C254.018 102.266 253.927 102.161 253.846 101.999C253.766 101.836 253.696 101.666 253.638 101.488C253.579 101.29 253.52 101.062 253.462 100.803C253.374 100.827 253.286 100.831 253.198 100.814C253.125 100.788 253.048 100.723 252.968 100.622C252.887 100.52 252.81 100.356 252.737 100.129C252.664 99.9028 252.634 99.6592 252.649 99.3986C252.664 99.1379 252.7 98.9062 252.759 98.7033C252.817 98.4604 252.898 98.2214 253.001 97.9861C252.986 97.3565 253.008 96.6899 253.066 95.9863C253.125 95.3825 253.217 94.7291 253.341 94.026C253.466 93.3225 253.66 92.6119 253.923 91.8939C254.158 91.2373 254.421 90.6485 254.714 90.1278C255.007 89.6066 255.307 89.1448 255.615 88.7427C255.923 88.3403 256.23 87.9932 256.538 87.7014C256.845 87.4094 257.138 87.1588 257.417 86.9494C258.164 86.3875 258.83 86.0994 259.416 86.0859C260.002 86.0736 260.434 86.2083 260.712 86.4894C261.035 86.7997 261.273 87.2399 261.426 87.8098C261.58 88.3802 261.694 88.9348 261.767 89.4736C261.84 90.1148 261.869 90.7886 261.855 91.4947C261.928 91.5228 261.994 91.587 262.053 91.6873C262.096 91.7779 262.137 91.907 262.173 92.0746C262.21 92.2423 262.214 92.4801 262.184 92.788C262.155 93.1778 262.096 93.5172 262.009 93.8062C261.921 94.0951 261.833 94.3328 261.745 94.5193C261.642 94.7368 261.525 94.9138 261.393 95.0503C261.335 95.3991 261.276 95.7173 261.218 96.0047C261.159 96.2717 261.086 96.5491 260.998 96.8371C260.91 97.125 260.815 97.3568 260.712 97.5327C260.595 97.7598 260.489 97.9586 260.394 98.1291C260.299 98.2994 260.214 98.467 260.141 98.6316C260.068 98.7963 260.006 98.9683 259.954 99.1476C259.903 99.3269 259.863 99.5287 259.833 99.7533C259.804 100.039 259.793 100.316 259.801 100.586C259.808 100.855 259.855 101.091 259.943 101.293C260.031 101.495 260.174 101.648 260.372 101.752C260.569 101.856 260.844 101.875 261.196 101.809C261.503 101.775 261.844 101.692 262.217 101.56C262.591 101.429 262.95 101.334 263.294 101.275C263.638 101.216 263.946 101.235 264.217 101.332C264.488 101.429 264.682 101.663 264.799 102.034C264.857 102.281 264.905 102.598 264.942 102.984Z" fill="white"/>
<path fill-rule="evenodd" clip-rule="evenodd" d="M283.007 106.274C281.662 107.069 280.838 108.517 280.844 110.08L280.99 149.017C280.995 150.412 282.544 151.247 283.712 150.483L310.698 132.852C311.941 132.039 312.691 130.654 312.691 129.168V91.8279C312.691 90.4653 311.209 89.6195 310.036 90.3124L283.007 106.274Z" fill="url(#paint7_linear_3_171)"/>
<path opacity="0.304827" fill-rule="evenodd" clip-rule="evenodd" d="M278.67 102.331C277.324 103.125 276.501 104.574 276.507 106.136L276.653 145.073C276.658 146.469 278.207 147.303 279.375 146.54L306.361 128.908C307.604 128.096 308.354 126.71 308.354 125.225V87.8844C308.354 86.5219 306.872 85.6761 305.699 86.369L278.67 102.331Z" fill="url(#paint8_linear_3_171)"/>
<path fill-rule="evenodd" clip-rule="evenodd" d="M297.465 122.434C297.43 122.555 297.348 122.717 297.219 122.922C296.914 123.395 296.586 123.836 296.235 124.246C295.883 124.656 295.546 125.071 295.224 125.491C294.902 125.91 294.621 126.36 294.38 126.839C294.14 127.319 293.991 127.864 293.932 128.475C293.909 128.666 293.894 128.846 293.888 129.017C293.882 129.187 293.874 129.348 293.862 129.498C293.85 129.538 293.838 129.574 293.827 129.606C293.815 129.638 293.803 129.674 293.791 129.714C293.334 129.986 292.872 130.255 292.403 130.521C291.934 130.787 291.504 131.018 291.111 131.215C290.718 131.412 290.387 131.566 290.118 131.677C289.848 131.788 289.679 131.829 289.608 131.801C289.503 131.765 289.424 131.493 289.371 130.984C289.318 130.475 289.339 129.75 289.432 128.81C289.491 128.284 289.64 127.806 289.881 127.376C290.121 126.946 290.405 126.538 290.733 126.154C291.061 125.769 291.398 125.389 291.744 125.015C292.089 124.64 292.397 124.245 292.667 123.83C292.878 123.489 293.039 123.199 293.15 122.96C293.261 122.722 293.34 122.502 293.387 122.303C293.434 122.103 293.458 121.916 293.458 121.742C293.458 121.568 293.452 121.382 293.44 121.185C293.417 120.886 293.337 120.695 293.203 120.612C293.068 120.528 292.919 120.452 292.754 120.383C292.661 120.373 292.582 120.304 292.517 120.178C292.453 120.052 292.397 119.92 292.35 119.781C292.303 119.626 292.256 119.448 292.21 119.246C292.139 119.266 292.069 119.271 291.999 119.26C291.94 119.24 291.879 119.191 291.814 119.113C291.75 119.035 291.688 118.907 291.63 118.73C291.571 118.554 291.548 118.363 291.559 118.157C291.571 117.952 291.6 117.762 291.647 117.585C291.694 117.377 291.758 117.188 291.84 117.017C291.829 116.522 291.846 115.998 291.893 115.444C291.94 114.984 292.016 114.47 292.122 113.902C292.227 113.335 292.385 112.774 292.596 112.22C292.784 111.699 292.995 111.231 293.229 110.816C293.463 110.401 293.701 110.034 293.941 109.716C294.181 109.398 294.424 109.122 294.67 108.886C294.916 108.651 295.157 108.444 295.391 108.265C295.977 107.817 296.504 107.582 296.973 107.56C297.442 107.539 297.793 107.632 298.027 107.839C298.18 107.996 298.276 108.175 298.318 108.377C298.359 108.579 298.414 108.806 298.484 109.058C298.262 109.402 298.025 109.842 297.773 110.376C297.521 110.909 297.301 111.422 297.113 111.915C296.879 112.537 296.703 113.164 296.586 113.794C296.469 114.424 296.381 114.992 296.323 115.498C296.264 116.099 296.235 116.679 296.235 117.237C296.141 117.449 296.071 117.66 296.024 117.87C295.977 118.064 295.948 118.272 295.936 118.496C295.924 118.72 295.948 118.938 296.006 119.15C296.065 119.378 296.129 119.539 296.2 119.631C296.27 119.723 296.334 119.788 296.393 119.826C296.463 119.87 296.533 119.883 296.604 119.864C296.651 120.086 296.698 120.291 296.744 120.481C296.791 120.639 296.847 120.794 296.911 120.948C296.976 121.101 297.055 121.192 297.149 121.22C297.231 121.257 297.295 121.291 297.342 121.321C297.389 121.352 297.427 121.384 297.456 121.419C297.486 121.454 297.503 121.518 297.509 121.61C297.515 121.702 297.529 121.819 297.553 121.962C297.529 122.155 297.5 122.312 297.465 122.434ZM307.036 120.56C307.065 120.869 307.08 121.192 307.08 121.53C307.08 121.868 307.062 122.198 307.027 122.519C306.992 122.84 306.939 123.099 306.869 123.296C306.822 123.427 306.684 123.621 306.456 123.878C306.227 124.135 305.943 124.421 305.603 124.738C305.263 125.055 304.888 125.392 304.478 125.748C304.068 126.105 303.655 126.451 303.239 126.786C302.823 127.122 302.422 127.439 302.035 127.738C301.648 128.037 301.308 128.287 301.016 128.489C300.723 128.691 300.386 128.907 300.005 129.137C299.624 129.367 299.229 129.599 298.818 129.834C298.408 130.068 298.004 130.295 297.606 130.513C297.207 130.732 296.841 130.921 296.507 131.08C296.173 131.238 295.892 131.361 295.663 131.447C295.435 131.533 295.291 131.565 295.233 131.542C295.139 131.496 295.063 131.215 295.004 130.699C294.946 130.184 294.963 129.457 295.057 128.517C295.116 127.968 295.265 127.481 295.505 127.057C295.745 126.633 296.03 126.225 296.358 125.834C296.686 125.442 297.023 125.064 297.368 124.699C297.714 124.334 298.022 123.936 298.291 123.504C298.502 123.162 298.663 122.87 298.774 122.631C298.886 122.391 298.968 122.171 299.021 121.973C299.073 121.774 299.1 121.587 299.1 121.41C299.1 121.233 299.094 121.036 299.082 120.819C299.059 120.514 298.977 120.319 298.836 120.236C298.695 120.152 298.543 120.081 298.379 120.022C298.297 119.985 298.224 119.901 298.159 119.771C298.095 119.641 298.039 119.505 297.992 119.363C297.945 119.204 297.899 119.022 297.852 118.815C297.781 118.834 297.711 118.837 297.641 118.824C297.582 118.803 297.521 118.751 297.456 118.67C297.392 118.589 297.33 118.457 297.272 118.276C297.213 118.095 297.19 117.9 297.201 117.691C297.213 117.483 297.242 117.297 297.289 117.135C297.336 116.941 297.401 116.75 297.483 116.561C297.471 116.058 297.488 115.524 297.535 114.962C297.582 114.479 297.655 113.956 297.755 113.393C297.855 112.831 298.01 112.262 298.221 111.688C298.408 111.162 298.619 110.691 298.854 110.275C299.088 109.858 299.328 109.488 299.574 109.167C299.82 108.845 300.066 108.567 300.312 108.334C300.559 108.1 300.793 107.9 301.016 107.732C301.613 107.283 302.146 107.052 302.615 107.041C303.084 107.031 303.429 107.139 303.652 107.364C303.91 107.612 304.1 107.964 304.223 108.42C304.346 108.877 304.437 109.32 304.496 109.751C304.554 110.264 304.578 110.803 304.566 111.368C304.625 111.391 304.677 111.442 304.724 111.522C304.759 111.595 304.792 111.698 304.821 111.832C304.85 111.966 304.853 112.157 304.83 112.403C304.806 112.715 304.759 112.986 304.689 113.217C304.619 113.449 304.548 113.639 304.478 113.788C304.396 113.962 304.302 114.104 304.197 114.213C304.15 114.492 304.103 114.746 304.056 114.976C304.009 115.19 303.951 115.412 303.881 115.642C303.81 115.873 303.734 116.058 303.652 116.199C303.558 116.38 303.473 116.539 303.397 116.676C303.321 116.812 303.254 116.946 303.195 117.078C303.136 117.21 303.087 117.347 303.046 117.491C303.005 117.634 302.972 117.796 302.949 117.975C302.926 118.204 302.917 118.426 302.923 118.641C302.928 118.857 302.967 119.045 303.037 119.207C303.107 119.368 303.221 119.491 303.38 119.574C303.538 119.657 303.758 119.672 304.039 119.62C304.285 119.592 304.557 119.526 304.856 119.421C305.155 119.316 305.442 119.24 305.717 119.192C305.993 119.146 306.239 119.161 306.456 119.238C306.672 119.316 306.828 119.503 306.921 119.799C306.968 119.997 307.006 120.251 307.036 120.56Z" fill="white"/>
<path fill-rule="evenodd" clip-rule="evenodd" d="M188.253 113.726C187.176 114.362 186.518 115.52 186.523 116.77L186.639 147.92C186.643 149.036 187.883 149.704 188.817 149.093L210.405 134.988C211.4 134.338 212 133.23 212 132.041V102.169C212 101.079 210.815 100.402 209.876 100.957L188.253 113.726Z" fill="url(#paint9_linear_3_171)"/>
<path opacity="0.304827" fill-rule="evenodd" clip-rule="evenodd" d="M184.783 110.571C183.707 111.207 183.048 112.366 183.053 113.616L183.169 144.765C183.173 145.881 184.413 146.549 185.347 145.939L206.936 131.833C207.931 131.183 208.53 130.075 208.53 128.887V99.0142C208.53 97.9241 207.345 97.2475 206.406 97.8018L184.783 110.571Z" fill="url(#paint10_linear_3_171)"/>
<path fill-rule="evenodd" clip-rule="evenodd" d="M199.819 126.654C199.791 126.75 199.725 126.881 199.622 127.044C199.379 127.422 199.116 127.776 198.835 128.104C198.554 128.431 198.284 128.763 198.026 129.099C197.769 129.435 197.544 129.795 197.351 130.178C197.159 130.561 197.04 130.998 196.993 131.487C196.974 131.639 196.962 131.784 196.958 131.92C196.953 132.056 196.946 132.185 196.937 132.305C196.927 132.337 196.918 132.366 196.909 132.391C196.899 132.417 196.89 132.446 196.88 132.478C196.515 132.696 196.145 132.911 195.77 133.123C195.395 133.336 195.05 133.521 194.736 133.678C194.422 133.836 194.157 133.959 193.942 134.048C193.726 134.137 193.59 134.17 193.534 134.147C193.449 134.119 193.386 133.901 193.344 133.494C193.302 133.087 193.318 132.507 193.393 131.754C193.44 131.334 193.56 130.951 193.752 130.608C193.944 130.263 194.171 129.937 194.434 129.63C194.696 129.322 194.966 129.018 195.242 128.719C195.519 128.419 195.765 128.103 195.98 127.771C196.149 127.498 196.278 127.266 196.367 127.075C196.456 126.884 196.519 126.709 196.557 126.549C196.594 126.389 196.613 126.239 196.613 126.1C196.613 125.961 196.609 125.812 196.599 125.655C196.58 125.416 196.517 125.263 196.409 125.196C196.302 125.129 196.182 125.068 196.051 125.013C195.976 125.005 195.912 124.95 195.861 124.849C195.809 124.748 195.765 124.642 195.727 124.531C195.69 124.407 195.652 124.265 195.615 124.104C195.559 124.12 195.502 124.123 195.446 124.115C195.399 124.099 195.35 124.059 195.298 123.997C195.247 123.934 195.198 123.832 195.151 123.691C195.104 123.549 195.085 123.397 195.095 123.233C195.104 123.068 195.127 122.916 195.165 122.775C195.202 122.609 195.254 122.457 195.32 122.32C195.31 121.924 195.324 121.505 195.362 121.061C195.399 120.693 195.46 120.283 195.545 119.829C195.629 119.374 195.755 118.926 195.924 118.483C196.074 118.066 196.243 117.692 196.43 117.36C196.618 117.027 196.808 116.734 197 116.48C197.192 116.225 197.387 116.004 197.583 115.816C197.78 115.627 197.972 115.461 198.16 115.318C198.629 114.96 199.051 114.772 199.425 114.755C199.8 114.738 200.082 114.812 200.269 114.978C200.391 115.103 200.468 115.247 200.501 115.408C200.534 115.57 200.579 115.751 200.635 115.953C200.457 116.228 200.267 116.58 200.065 117.007C199.864 117.434 199.688 117.844 199.538 118.238C199.351 118.737 199.21 119.238 199.116 119.742C199.022 120.246 198.952 120.7 198.905 121.105C198.858 121.586 198.835 122.05 198.835 122.496C198.76 122.666 198.704 122.835 198.666 123.003C198.629 123.158 198.605 123.325 198.596 123.503C198.587 123.682 198.605 123.857 198.652 124.027C198.699 124.209 198.751 124.337 198.807 124.411C198.863 124.485 198.915 124.537 198.961 124.567C199.018 124.603 199.074 124.613 199.13 124.598C199.168 124.775 199.205 124.94 199.243 125.091C199.28 125.218 199.325 125.342 199.376 125.465C199.428 125.587 199.491 125.66 199.566 125.683C199.632 125.713 199.683 125.739 199.721 125.764C199.758 125.788 199.789 125.814 199.812 125.842C199.836 125.87 199.85 125.921 199.854 125.994C199.859 126.068 199.871 126.162 199.89 126.277C199.871 126.431 199.847 126.557 199.819 126.654ZM207.476 125.154C207.499 125.402 207.511 125.661 207.511 125.931C207.511 126.201 207.497 126.465 207.469 126.722C207.44 126.979 207.398 127.186 207.342 127.343C207.305 127.448 207.194 127.604 207.012 127.809C206.829 128.014 206.601 128.244 206.33 128.497C206.058 128.751 205.758 129.02 205.43 129.305C205.102 129.59 204.771 129.867 204.438 130.136C204.106 130.404 203.785 130.658 203.475 130.897C203.166 131.136 202.894 131.336 202.66 131.498C202.425 131.659 202.156 131.832 201.851 132.016C201.546 132.2 201.23 132.386 200.902 132.573C200.574 132.761 200.25 132.942 199.932 133.117C199.613 133.292 199.32 133.443 199.053 133.57C198.786 133.697 198.561 133.795 198.378 133.864C198.195 133.933 198.08 133.959 198.033 133.94C197.958 133.903 197.897 133.678 197.851 133.266C197.804 132.854 197.818 132.272 197.893 131.521C197.94 131.081 198.059 130.691 198.251 130.352C198.444 130.013 198.671 129.687 198.933 129.374C199.196 129.061 199.465 128.758 199.742 128.466C200.018 128.174 200.264 127.855 200.48 127.51C200.649 127.236 200.778 127.003 200.867 126.811C200.956 126.619 201.021 126.444 201.064 126.285C201.106 126.126 201.127 125.976 201.127 125.834C201.127 125.693 201.122 125.535 201.113 125.362C201.094 125.118 201.028 124.962 200.916 124.895C200.804 124.828 200.682 124.771 200.55 124.724C200.485 124.695 200.426 124.628 200.375 124.524C200.323 124.42 200.279 124.311 200.241 124.197C200.204 124.07 200.166 123.924 200.129 123.759C200.072 123.774 200.016 123.776 199.96 123.766C199.913 123.749 199.864 123.708 199.812 123.643C199.761 123.578 199.711 123.473 199.665 123.327C199.618 123.182 199.599 123.027 199.608 122.86C199.618 122.693 199.641 122.545 199.679 122.415C199.716 122.259 199.768 122.106 199.833 121.956C199.824 121.553 199.838 121.126 199.875 120.676C199.913 120.289 199.972 119.871 200.051 119.421C200.131 118.971 200.255 118.516 200.424 118.057C200.574 117.637 200.743 117.26 200.93 116.926C201.118 116.593 201.31 116.297 201.507 116.04C201.703 115.782 201.9 115.56 202.097 115.374C202.294 115.187 202.482 115.026 202.66 114.892C203.138 114.533 203.564 114.348 203.939 114.34C204.314 114.332 204.591 114.418 204.769 114.598C204.975 114.796 205.127 115.078 205.226 115.443C205.324 115.808 205.397 116.163 205.444 116.508C205.491 116.918 205.509 117.349 205.5 117.801C205.547 117.819 205.589 117.86 205.627 117.925C205.655 117.983 205.68 118.065 205.704 118.172C205.727 118.28 205.73 118.432 205.711 118.629C205.692 118.878 205.655 119.096 205.598 119.281C205.542 119.466 205.486 119.618 205.43 119.737C205.364 119.876 205.289 119.989 205.205 120.077C205.167 120.3 205.13 120.504 205.092 120.688C205.055 120.859 205.008 121.036 204.952 121.22C204.895 121.405 204.834 121.553 204.769 121.666C204.694 121.811 204.626 121.938 204.565 122.047C204.504 122.156 204.45 122.264 204.403 122.369C204.356 122.474 204.317 122.584 204.284 122.699C204.251 122.814 204.225 122.943 204.206 123.087C204.188 123.27 204.181 123.447 204.185 123.62C204.19 123.792 204.22 123.943 204.277 124.072C204.333 124.201 204.424 124.299 204.551 124.366C204.677 124.432 204.853 124.445 205.078 124.402C205.275 124.381 205.493 124.327 205.732 124.243C205.971 124.159 206.201 124.098 206.421 124.061C206.641 124.023 206.838 124.035 207.012 124.097C207.185 124.159 207.309 124.309 207.384 124.546C207.422 124.704 207.452 124.907 207.476 125.154Z" fill="white"/>
<ellipse opacity="0.304827" cx="373.981" cy="95.0786" rx="12.3195" ry="18.7091" fill="url(#paint11_linear_3_171)"/>
<ellipse cx="378.067" cy="95.6583" rx="12.405" ry="18.4891" fill="url(#paint12_linear_3_171)"/>
<path fill-rule="evenodd" clip-rule="evenodd" d="M383.941 92.2134L379.605 92.1965V85.1603L383.941 92.2134ZM379.075 92.5223L374.74 97.8782L379.075 85.4862V92.5223ZM379.605 99.107L383.907 92.9994L379.605 92.9825V99.107ZM374.774 98.6223L379.075 93.3083V99.4328L374.774 98.6223ZM379.075 100.651L374.497 99.8562L379.075 105.716V100.651ZM384.183 93.8933L379.605 105.39V100.325L384.183 93.8933Z" fill="white"/>
<ellipse opacity="0.304827" cx="138.327" cy="72.0066" rx="14.9327" ry="22.6777" fill="url(#paint13_linear_3_171)"/>
<ellipse cx="143.28" cy="72.7094" rx="15.0364" ry="22.4111" fill="url(#paint14_linear_3_171)"/>
<path d="M139.937 58.9524L140.633 58.2914L139.972 57.5952L139.276 58.2562L139.937 58.9524ZM141.127 60.2056L141.788 60.9018L142.484 60.2408L141.823 59.5446L141.127 60.2056ZM136.203 86.7459L135.512 87.4122L135.512 87.4122L136.203 86.7459ZM142.304 87.9633L143.208 87.6383L142.882 86.735L141.979 87.06L142.304 87.9633ZM142.889 89.5893L143.214 90.4926L144.118 90.1675L143.793 89.2642L142.889 89.5893ZM134.959 87.9453L135.65 87.2789L134.959 87.9453ZM153.32 58.1888L152.559 58.7737L153.32 58.1888ZM148.965 85.1803L148.33 85.9L149.049 86.5354L149.685 85.8157L148.965 85.1803ZM147.669 84.0368L146.95 83.4014L146.314 84.1212L147.034 84.7565L147.669 84.0368ZM151.95 59.2416L151.189 59.8265V59.8265L151.95 59.2416ZM146.933 57.0707L145.98 57.1888L146.098 58.1415L147.051 58.0234L146.933 57.0707ZM146.72 55.3559L146.602 54.4031L145.649 54.5212L145.767 55.474L146.72 55.3559ZM139.276 58.2562C134.377 62.9076 130.905 70.9783 130.905 78.4235H132.825C132.825 71.4808 136.097 63.9213 140.598 59.6486L139.276 58.2562ZM141.823 59.5446L140.633 58.2914L139.241 59.6133L140.431 60.8665L141.823 59.5446ZM134.553 78.4235C134.553 71.9331 137.646 64.8336 141.788 60.9018L140.466 59.5094C135.925 63.8199 132.633 71.4305 132.633 78.4235H134.553ZM136.894 86.0795C135.561 84.6965 134.553 82.1372 134.553 78.4235H132.633C132.633 82.4342 133.716 85.5494 135.512 87.4122L136.894 86.0795ZM141.979 87.06C139.828 87.8343 138.131 87.3625 136.894 86.0795L135.512 87.4122C137.313 89.28 139.821 89.8774 142.629 88.8666L141.979 87.06ZM143.793 89.2642L143.208 87.6383L141.401 88.2884L141.986 89.9143L143.793 89.2642ZM134.268 88.6116C136.578 91.0074 139.816 91.7154 143.214 90.4926L142.564 88.686C139.821 89.673 137.395 89.0883 135.65 87.2789L134.268 88.6116ZM130.905 78.4235C130.905 82.7002 132.055 86.3163 134.268 88.6116L135.65 87.2789C133.901 85.4641 132.825 82.4045 132.825 78.4235H130.905ZM156.759 66.9951C156.759 63.1716 155.842 59.8959 154.081 57.6039L152.559 58.7737C153.985 60.6292 154.839 63.4467 154.839 66.9951H156.759ZM149.685 85.8157C153.872 81.0724 156.759 73.7905 156.759 66.9951H154.839C154.839 73.3144 152.128 80.1464 148.245 84.545L149.685 85.8157ZM147.034 84.7565L148.33 85.9L149.6 84.4606L148.305 83.3171L147.034 84.7565ZM153.111 66.9951C153.111 72.8859 150.559 79.313 146.95 83.4014L148.389 84.6721C152.302 80.239 155.031 73.362 155.031 66.9951H153.111ZM151.189 59.8265C152.313 61.2895 153.111 63.6948 153.111 66.9951H155.031C155.031 63.4191 154.17 60.5559 152.711 58.6567L151.189 59.8265ZM147.051 58.0234C148.707 57.8181 150.114 58.4282 151.189 59.8265L152.711 58.6567C151.249 56.7538 149.189 55.8237 146.815 56.118L147.051 58.0234ZM145.767 55.474L145.98 57.1888L147.885 56.9526L147.673 55.2377L145.767 55.474ZM154.081 57.6039C152.271 55.2479 149.624 54.0286 146.602 54.4031L146.838 56.3086C149.141 56.0231 151.135 56.9212 152.559 58.7737L154.081 57.6039Z" fill="white"/>
<path d="M151.233 72.8638C151.233 71.0684 150.855 70.4516 150.233 70.1558C149.936 70.0133 149.558 69.9169 148.802 69.8284C147.965 69.7341 147.128 69.6918 146.263 69.639C145.102 69.5997 144.184 69.5777 143.94 69.2221C143.859 69.0863 143.805 68.8309 143.805 68.3625C143.805 67.5037 143.778 66.5564 144.994 65.8623C145.561 65.5384 146.209 65.2462 146.344 65.8196C146.398 66.049 146.398 66.127 146.398 66.5434V67.8965L150.774 65.3977C150.801 63.9771 150.909 61.9117 149.936 61.2961C149.045 60.6861 147.56 61.4044 146.236 62.0562V59.0116L143.994 60.2919V63.3364C142.671 64.1963 141.24 65.222 140.321 66.8133C139.403 68.3786 139.295 69.8454 139.295 71.1465C139.295 73.0202 139.673 73.6109 140.321 73.9172C140.889 74.1918 141.807 74.2658 141.969 74.2774C142.752 74.3505 143.535 74.4496 144.346 74.5073C145.48 74.6141 146.236 74.6246 146.479 75.0842C146.614 75.3454 146.614 75.8658 146.614 75.9439C146.614 76.5944 146.695 77.5109 145.075 78.4364C144.13 78.9763 143.805 78.745 143.697 78.3904C143.589 78.1138 143.616 77.7081 143.616 77.604V76.3029L139.052 78.9097C138.998 81.5947 139.106 82.7301 140.186 83.1278C141.213 83.4785 142.509 82.8942 142.968 82.6841C143.292 82.551 143.643 82.4025 143.994 82.228V85.5588L146.236 84.2785V80.9478C147.614 80.005 148.856 79.1133 149.909 77.5749C151.098 75.8554 151.233 74.321 151.233 72.8638Z" fill="white"/>
<ellipse opacity="0.304827" cx="87.5263" cy="124.042" rx="12.3148" ry="18.702" fill="url(#paint15_linear_3_171)"/>
<ellipse cx="91.6112" cy="124.042" rx="12.4003" ry="18.4821" fill="url(#paint16_linear_3_171)"/>
<path fill-rule="evenodd" clip-rule="evenodd" d="M99.3517 116.026V111.827L85.8103 118.611V122.81L90.9464 120.237L90.9463 123.017C86.9725 125.231 83.9735 127.741 83.9735 128.951C83.9735 130.161 86.9725 129.667 90.9466 127.899V136.759L94.2154 135.121V126.265C98.2201 124.043 101.25 121.513 101.25 120.297C101.25 119.081 98.2205 119.586 94.216 121.376L94.2156 118.599L99.3517 116.026ZM94.2156 124.771L94.216 121.612C97.6949 120.054 100.305 119.521 100.305 120.448C100.305 121.514 96.8608 124.103 92.612 126.231C88.3633 128.36 84.9187 129.222 84.9187 128.156C84.9187 127.234 87.4982 125.171 90.9464 123.253L90.9464 126.408L94.2156 124.771Z" fill="white"/>
<path opacity="0.124349" fill-rule="evenodd" clip-rule="evenodd" d="M431.364 136.051V125.723H427.697V136.051H418.531V140.182H427.697V150.51H431.364V140.182H440.531V136.051H431.364Z" fill="url(#paint17_linear_3_171)"/>
<path opacity="0.215169" fill-rule="evenodd" clip-rule="evenodd" d="M348.539 68.0155V58.2858H345.085V68.0155H336.449V71.9074H345.085V81.6371H348.539V71.9074H357.175V68.0155H348.539Z" fill="url(#paint18_linear_3_171)"/>
<path opacity="0.734631" fill-rule="evenodd" clip-rule="evenodd" d="M102.556 68.4047V60.6209H99.7929V68.4047H92.8844V71.5182H99.7929V79.3019H102.556V71.5182H109.465V68.4047H102.556Z" fill="url(#paint19_linear_3_171)"/>
<path opacity="0.746094" fill-rule="evenodd" clip-rule="evenodd" d="M413.699 73.9081V65.8H410.82V73.9081H403.624V77.1513H410.82V85.2594H413.699V77.1513H420.895V73.9081H413.699Z" fill="url(#paint20_linear_3_171)"/>
<defs>
<linearGradient id="paint0_linear_3_171" x1="243.792" y1="159.735" x2="226.34" y2="137.613" gradientUnits="userSpaceOnUse">
<stop stop-color="#F9A46F"/>
<stop offset="1" stop-color="#FFC58A" stop-opacity="0.01"/>
</linearGradient>
<linearGradient id="paint1_linear_3_171" x1="116.099" y1="86.9288" x2="116.099" y2="165.457" gradientUnits="userSpaceOnUse">
<stop stop-color="#F9A46F"/>
<stop offset="1" stop-color="#FFC58A" stop-opacity="0.01"/>
</linearGradient>
<linearGradient id="paint2_linear_3_171" x1="378.086" y1="111.382" x2="378.086" y2="150.816" gradientUnits="userSpaceOnUse">
<stop stop-color="#F9A46F"/>
<stop offset="1" stop-color="#FFC58A" stop-opacity="0.01"/>
</linearGradient>
<linearGradient id="paint3_linear_3_171" x1="179.411" y1="-12.256" x2="179.411" y2="149.062" gradientUnits="userSpaceOnUse">
<stop stop-color="#F6B166"/>
<stop offset="0.996665" stop-color="#F6B166" stop-opacity="0.0587303"/>
<stop offset="1" stop-color="#F6B166" stop-opacity="0.206294"/>
</linearGradient>
<linearGradient id="paint4_linear_3_171" x1="206.586" y1="40.614" x2="204.279" y2="69.903" gradientUnits="userSpaceOnUse">
<stop stop-color="#F9A46F"/>
<stop offset="1" stop-color="#FFC58A" stop-opacity="0.01"/>
</linearGradient>
<linearGradient id="paint5_linear_3_171" x1="234.922" y1="63.215" x2="234.922" y2="131.711" gradientUnits="userSpaceOnUse">
<stop stop-color="#FFEBD2"/>
<stop offset="0.460867" stop-color="#FFBC7D"/>
<stop offset="1" stop-color="#F69466"/>
</linearGradient>
<linearGradient id="paint6_linear_3_171" x1="226.769" y1="58.2858" x2="226.769" y2="137.673" gradientUnits="userSpaceOnUse">
<stop stop-color="#FBC57F"/>
<stop offset="0.460867" stop-color="#FFBC7D"/>
<stop offset="1" stop-color="#F69466"/>
</linearGradient>
<linearGradient id="paint7_linear_3_171" x1="283.02" y1="88.7445" x2="283.02" y2="143.541" gradientUnits="userSpaceOnUse">
<stop stop-color="#FFEBD2"/>
<stop offset="0.460867" stop-color="#FFBC7D"/>
<stop offset="1" stop-color="#F69466"/>
</linearGradient>
<linearGradient id="paint8_linear_3_171" x1="276.498" y1="84.8011" x2="276.498" y2="148.311" gradientUnits="userSpaceOnUse">
<stop stop-color="#FBC57F"/>
<stop offset="0.460867" stop-color="#FFBC7D"/>
<stop offset="1" stop-color="#F69466"/>
</linearGradient>
<linearGradient id="paint9_linear_3_171" x1="188.263" y1="99.7022" x2="188.263" y2="143.539" gradientUnits="userSpaceOnUse">
<stop stop-color="#FFEBD2"/>
<stop offset="0.460867" stop-color="#FFBC7D"/>
<stop offset="1" stop-color="#F69466"/>
</linearGradient>
<linearGradient id="paint10_linear_3_171" x1="183.045" y1="96.5475" x2="183.045" y2="147.355" gradientUnits="userSpaceOnUse">
<stop stop-color="#FBC57F"/>
<stop offset="0.460867" stop-color="#FFBC7D"/>
<stop offset="1" stop-color="#F69466"/>
</linearGradient>
<linearGradient id="paint11_linear_3_171" x1="361.661" y1="76.3694" x2="361.661" y2="113.788" gradientUnits="userSpaceOnUse">
<stop stop-color="#FBC57F"/>
<stop offset="0.460867" stop-color="#FFBC7D"/>
<stop offset="1" stop-color="#F69466"/>
</linearGradient>
<linearGradient id="paint12_linear_3_171" x1="367.364" y1="77.1692" x2="367.364" y2="109.074" gradientUnits="userSpaceOnUse">
<stop stop-color="#FFEBD2"/>
<stop offset="0.460867" stop-color="#FFBC7D"/>
<stop offset="1" stop-color="#F69466"/>
</linearGradient>
<linearGradient id="paint13_linear_3_171" x1="123.394" y1="49.3289" x2="123.394" y2="94.6843" gradientUnits="userSpaceOnUse">
<stop stop-color="#FBC57F"/>
<stop offset="0.460867" stop-color="#FFBC7D"/>
<stop offset="1" stop-color="#F69466"/>
</linearGradient>
<linearGradient id="paint14_linear_3_171" x1="130.307" y1="50.2983" x2="130.307" y2="88.9709" gradientUnits="userSpaceOnUse">
<stop stop-color="#FFEBD2"/>
<stop offset="0.460867" stop-color="#FFBC7D"/>
<stop offset="1" stop-color="#F69466"/>
</linearGradient>
<linearGradient id="paint15_linear_3_171" x1="75.2115" y1="105.34" x2="75.2115" y2="142.744" gradientUnits="userSpaceOnUse">
<stop stop-color="#FBC57F"/>
<stop offset="0.460867" stop-color="#FFBC7D"/>
<stop offset="1" stop-color="#F69466"/>
</linearGradient>
<linearGradient id="paint16_linear_3_171" x1="80.9122" y1="105.56" x2="80.9122" y2="137.453" gradientUnits="userSpaceOnUse">
<stop stop-color="#FFEBD2"/>
<stop offset="0.460867" stop-color="#FFBC7D"/>
<stop offset="1" stop-color="#F69466"/>
</linearGradient>
<linearGradient id="paint17_linear_3_171" x1="418.531" y1="125.723" x2="418.531" y2="150.51" gradientUnits="userSpaceOnUse">
<stop stop-color="#F6B166"/>
<stop offset="0.996665" stop-color="#F6B166" stop-opacity="0.0587303"/>
<stop offset="1" stop-color="#F6B166" stop-opacity="0.206294"/>
</linearGradient>
<linearGradient id="paint18_linear_3_171" x1="336.449" y1="58.2858" x2="336.449" y2="81.6371" gradientUnits="userSpaceOnUse">
<stop stop-color="#F6B166"/>
<stop offset="0.996665" stop-color="#F6B166" stop-opacity="0.0587303"/>
<stop offset="1" stop-color="#F6B166" stop-opacity="0.206294"/>
</linearGradient>
<linearGradient id="paint19_linear_3_171" x1="92.8844" y1="60.6209" x2="92.8844" y2="79.3019" gradientUnits="userSpaceOnUse">
<stop stop-color="#F6B166"/>
<stop offset="0.996665" stop-color="#F6B166" stop-opacity="0.0587303"/>
<stop offset="1" stop-color="#F6B166" stop-opacity="0.206294"/>
</linearGradient>
<linearGradient id="paint20_linear_3_171" x1="403.624" y1="65.8" x2="403.624" y2="85.2594" gradientUnits="userSpaceOnUse">
<stop stop-color="#F6B166"/>
<stop offset="0.996665" stop-color="#F6B166" stop-opacity="0.0587303"/>
<stop offset="1" stop-color="#F6B166" stop-opacity="0.206294"/>
</linearGradient>
</defs>
</svg>
