<svg width="502" height="185" viewBox="0 0 502 185" fill="none" xmlns="http://www.w3.org/2000/svg">
<g clip-path="url(#clip0_3_389)">
<rect y="0.5" width="502" height="184" rx="6" fill="black" fill-opacity="0.1424"/>
<g opacity="0.327823">
<rect x="101.175" y="14.9884" width="256" height="157.483" rx="7" fill="url(#paint0_linear_3_389)"/>
<rect x="101.175" y="14.9884" width="256" height="28" rx="6" fill="#00ACED"/>
<rect x="102.175" y="15.9884" width="254" height="155.483" rx="6" stroke="url(#paint1_linear_3_389)" stroke-width="2"/>
</g>
<circle cx="116.524" cy="29.4921" r="4.5" fill="#326E9B"/>
<circle cx="133.317" cy="29.4921" r="4.5" fill="#326E9B"/>
<circle cx="150.11" cy="29.4921" r="4.5" fill="#326E9B"/>
<path d="M169.71 -37.8734V-13.4994C169.71 -13.4994 169.71 -5.21306 165.51 -3.02426C161.31 -0.835454 149.73 -1.41794 145.41 3.98426C141.091 9.38646 141.78 11.598 141.78 31.8249" stroke="url(#paint2_linear_3_389)" stroke-width="1.44" stroke-dasharray="4.8"/>
<path d="M251.499 -29.6049V24.9711" stroke="url(#paint3_linear_3_389)" stroke-width="1.44" stroke-dasharray="4.8"/>
<path d="M251.499 147.395V177.971" stroke="url(#paint4_linear_3_389)" stroke-width="1.44" stroke-dasharray="4.8"/>
<path d="M73.1747 144.426V178.471" stroke="url(#paint5_linear_3_389)" stroke-width="1.44" stroke-dasharray="4.8"/>
<circle opacity="0.300781" cx="73.1747" cy="140.074" r="7.59191" fill="#89DADC"/>
<circle cx="73.1747" cy="140.074" r="4.608" fill="#21BCEF"/>
<path d="M405.656 66.6412V103.44" stroke="url(#paint6_linear_3_389)" stroke-width="1.44" stroke-dasharray="4.8"/>
<circle opacity="0.300781" cx="405.656" cy="62.2893" r="7.59191" fill="#89DADC"/>
<circle cx="405.656" cy="62.2893" r="4.608" fill="#21BCEF"/>
<path d="M325.346 166.252L286.014 144.431L325.346 122.117L364.685 144.431L325.346 166.252Z" stroke="#00ACED" stroke-width="0.96"/>
<path fill-rule="evenodd" clip-rule="evenodd" d="M325.189 89.1624L296.412 104.235V138.233L325.189 153.968L353.824 138.233V104.235L325.189 89.1624Z" fill="url(#paint7_linear_3_389)"/>
<path d="M324.866 165.986L285.513 144.153V101.642L324.866 123.036V165.986Z" stroke="#00ACED" stroke-width="0.96"/>
<path fill-rule="evenodd" clip-rule="evenodd" d="M365.431 100.835L365.431 144.436L325.118 166.801V122.75L365.431 100.835Z" stroke="#00ACED" stroke-width="0.96"/>
<path d="M325.346 78.9923L364.669 100.83L325.346 122.204L286.029 100.83L325.346 78.9923Z" stroke="#00ACED" stroke-width="0.96"/>
<path d="M178.583 156.526L147.117 139.069L178.583 121.218L210.054 139.069L178.583 156.526Z" stroke="#00ACED" stroke-width="0.768"/>
<path fill-rule="evenodd" clip-rule="evenodd" d="M178.458 94.8544L155.436 106.912V134.111L178.458 146.699L201.365 134.111V106.912L178.458 94.8544Z" fill="url(#paint8_linear_3_389)"/>
<path d="M178.199 156.313L146.717 138.847V104.838L178.199 121.953V156.313Z" stroke="#00ACED" stroke-width="0.768"/>
<path d="M178.785 156.313L210.267 138.847V104.838L178.785 121.953V156.313Z" stroke="#00ACED" stroke-width="0.768"/>
<path d="M178.583 86.7183L210.042 104.189L178.583 121.288L147.13 104.189L178.583 86.7183Z" stroke="#00ACED" stroke-width="0.768"/>
<path d="M250.954 136.56L201.788 109.283L250.954 81.3911L300.127 109.283L250.954 136.56Z" stroke="#00ACED" stroke-width="1.2"/>
<path fill-rule="evenodd" clip-rule="evenodd" d="M250.757 40.1975L214.785 59.0382L214.785 101.535L250.757 121.205L286.55 101.535V59.0382L250.757 40.1975Z" fill="url(#paint9_linear_3_389)"/>
<path d="M250.353 136.227L201.162 108.936V55.7973L250.353 82.539V136.227Z" stroke="#00ACED" stroke-width="1.2"/>
<path d="M250.958 136.233L300.758 108.934V55.7916L250.958 82.5411V136.233Z" stroke="#00ACED" stroke-width="1.2"/>
<path d="M250.954 27.4849L300.107 54.7825L250.954 81.4993L201.807 54.7825L250.954 27.4849Z" stroke="#00ACED" stroke-width="1.2"/>
<path opacity="0.302641" fill-rule="evenodd" clip-rule="evenodd" d="M389.964 -0.800044C388.498 -1.67565 386.636 -0.619099 386.636 1.08885V26.8079C386.636 27.57 387.03 28.2778 387.679 28.6788L426.269 52.5563C427.734 53.4632 429.626 52.409 429.626 50.6855V24.131C429.626 23.3565 429.219 22.6391 428.554 22.2421L389.964 -0.800044Z" fill="url(#paint10_linear_3_389)"/>
<path fill-rule="evenodd" clip-rule="evenodd" d="M384.978 2.94618C383.512 2.10722 381.686 3.16618 381.686 4.85583V30.632C381.686 31.4081 382.095 32.1268 382.762 32.5232L420.243 54.7962C421.71 55.6677 423.567 54.6108 423.567 52.9049V26.2959C423.567 25.5068 423.144 24.7781 422.459 24.3863L384.978 2.94618Z" fill="url(#paint11_linear_3_389)"/>
<path fill-rule="evenodd" clip-rule="evenodd" d="M393.624 28.9011C392.744 29.067 391.495 28.7372 389.893 27.8859C388.344 27.0627 387.13 26.118 386.267 25.0613C385.211 23.7608 384.631 22.2905 384.543 20.6421L386.584 21.7272C386.725 22.7525 387.059 23.6166 387.605 24.3114C388.098 24.9254 388.855 25.5212 389.893 26.0731C390.808 26.5596 391.547 26.7941 392.075 26.7755C392.603 26.7394 392.885 26.4842 392.885 25.9562C392.885 25.2874 392.48 24.5443 391.706 23.7455C391.459 23.4913 390.65 22.7794 389.259 21.618C387.711 20.302 386.743 19.4354 386.373 19.0278C385.405 17.9325 384.93 16.8351 384.93 15.7263C384.93 14.6175 385.387 13.9807 386.338 13.8523C387.218 13.704 388.327 13.9942 389.682 14.7145C391.16 15.5003 392.322 16.4169 393.149 17.4726C394.029 18.5915 394.539 19.8836 394.663 21.3219L392.621 20.2367C392.445 19.3688 392.111 18.6278 391.653 18.0502C391.195 17.455 390.491 16.9224 389.576 16.436C388.784 16.015 388.186 15.8025 387.763 15.8068C387.235 15.7902 386.989 16.0992 386.989 16.6976C386.989 17.2256 387.271 17.8153 387.869 18.4501C388.133 18.7313 388.855 19.3788 390.016 20.3658C391.723 21.8012 392.815 22.8036 393.307 23.3472C394.399 24.5784 394.944 25.766 394.944 26.9276C394.944 28.054 394.504 28.7177 393.624 28.9011ZM405.927 34.4721C404.871 35.0372 403.339 34.7866 401.298 33.7014L396.704 31.2598V18.6934L401.298 21.135C403.339 22.2202 404.871 23.5972 405.927 25.2849C406.93 26.8741 407.44 28.6766 407.44 30.683C407.44 32.6718 406.93 33.9317 405.927 34.4721ZM400.911 31.7356L398.763 30.5943V21.5479L400.911 22.6892C402.477 23.5218 403.621 24.4818 404.343 25.587C405.047 26.6652 405.399 28.0139 405.399 29.5979C405.399 31.1467 405.047 32.1036 404.343 32.4686C403.621 32.8066 402.477 32.5682 400.911 31.7356ZM411.435 34.7602V39.0898L409.376 37.9953V25.4289L411.435 26.5234V32.4546L417.279 29.6291L419.883 31.0136L414.357 33.4618L420.711 44.0197L417.93 42.5417L412.967 34.078L411.435 34.7602Z" fill="white"/>
<g opacity="0.404064">
<rect x="378.248" y="105.81" width="62" height="102.46" rx="6.58" fill="url(#paint12_linear_3_389)"/>
<rect opacity="0.339588" x="392.887" y="105.81" width="32.7222" height="6.58" rx="3.29" fill="white"/>
<rect x="379.188" y="106.75" width="60.12" height="100.58" rx="5.64" stroke="url(#paint13_linear_3_389)" stroke-width="1.88"/>
</g>
<path opacity="0.303618" fill-rule="evenodd" clip-rule="evenodd" d="M44.5814 93.5214C43.9472 93.8744 43.554 94.5432 43.554 95.269V127.648C43.554 129.199 45.2434 130.16 46.5766 129.367L82.6341 107.915C83.2401 107.554 83.6115 106.901 83.6115 106.196V75.2018C83.6115 73.6762 81.972 72.7123 80.6389 73.4542L44.5814 93.5214Z" fill="url(#paint14_linear_3_389)"/>
<path fill-rule="evenodd" clip-rule="evenodd" d="M50.5814 95.9987C49.9472 96.3516 49.554 97.0205 49.554 97.7463V130.125C49.554 131.677 51.2434 132.637 52.5766 131.844L88.6341 110.392C89.2401 110.032 89.6115 109.379 89.6115 108.673V77.679C89.6115 76.1534 87.972 75.1895 86.6389 75.9315L50.5814 95.9987Z" fill="url(#paint15_linear_3_389)"/>
<path fill-rule="evenodd" clip-rule="evenodd" d="M56.3518 99.6581C56.0372 99.8353 55.8426 100.168 55.8426 100.529V100.748C55.8426 101.516 56.6713 101.997 57.338 101.617L73.6249 92.3289C73.9369 92.151 74.1295 91.8194 74.1295 91.4602V91.3541C74.1295 90.589 73.3053 90.1073 72.6387 90.4829L56.3518 99.6581Z" fill="white"/>
<path fill-rule="evenodd" clip-rule="evenodd" d="M60.305 103.415C59.9904 103.592 59.7958 103.925 59.7958 104.286V104.505C59.7958 105.272 60.6245 105.754 61.2912 105.374L77.5781 96.0856C77.8901 95.9077 78.0827 95.5761 78.0827 95.217V95.1109C78.0827 94.3458 77.2585 93.8641 76.5919 94.2396L60.305 103.415Z" fill="white"/>
<path fill-rule="evenodd" clip-rule="evenodd" d="M56.3518 112.485C56.0372 112.662 55.8426 112.995 55.8426 113.356V113.575C55.8426 114.342 56.6713 114.824 57.338 114.443L73.6249 105.155C73.9369 104.978 74.1295 104.646 74.1295 104.287V104.181C74.1295 103.416 73.3053 102.934 72.6387 103.309L56.3518 112.485Z" fill="white"/>
<path fill-rule="evenodd" clip-rule="evenodd" d="M56.3424 118.896C56.0331 119.075 55.8426 119.405 55.8426 119.762V119.97C55.8426 120.742 56.679 121.223 57.3457 120.834L84.1946 105.206C84.5023 105.027 84.6915 104.698 84.6915 104.342V104.252C84.6915 103.482 83.858 103.001 83.1913 103.386L56.3424 118.896Z" fill="white"/>
<path fill-rule="evenodd" clip-rule="evenodd" d="M80.9189 92.1376C80.625 92.3201 80.4463 92.6414 80.4463 92.9872V93.1198C80.4463 93.9118 81.3233 94.3895 81.9887 93.9599L85.1015 91.9504C85.3868 91.7662 85.5591 91.4498 85.5591 91.1102V91.0547C85.5591 90.2706 84.6979 89.7915 84.0317 90.2051L80.9189 92.1376Z" fill="white"/>
</g>
<defs>
<linearGradient id="paint0_linear_3_389" x1="101.175" y1="14.9884" x2="101.175" y2="172.471" gradientUnits="userSpaceOnUse">
<stop stop-color="#00ACED"/>
<stop offset="0.996665" stop-color="#713BFF" stop-opacity="0.01"/>
<stop offset="1" stop-color="#00ACED"/>
</linearGradient>
<linearGradient id="paint1_linear_3_389" x1="101.175" y1="14.9884" x2="101.175" y2="172.471" gradientUnits="userSpaceOnUse">
<stop stop-color="#00ACED"/>
<stop offset="1" stop-color="#00ACED"/>
</linearGradient>
<linearGradient id="paint2_linear_3_389" x1="141.74" y1="-37.8734" x2="141.74" y2="31.8249" gradientUnits="userSpaceOnUse">
<stop stop-color="#10B4EE"/>
<stop offset="1" stop-color="#05AFEE" stop-opacity="0.01"/>
</linearGradient>
<linearGradient id="paint3_linear_3_389" x1="250.899" y1="-29.6049" x2="250.899" y2="25.3951" gradientUnits="userSpaceOnUse">
<stop stop-color="#10B4EE"/>
<stop offset="1" stop-color="#05AFEE" stop-opacity="0.01"/>
</linearGradient>
<linearGradient id="paint4_linear_3_389" x1="250.899" y1="147.395" x2="250.899" y2="178.395" gradientUnits="userSpaceOnUse">
<stop stop-color="#10B4EE"/>
<stop offset="1" stop-color="#05AFEE" stop-opacity="0.01"/>
</linearGradient>
<linearGradient id="paint5_linear_3_389" x1="72.5747" y1="144.426" x2="72.5747" y2="179.426" gradientUnits="userSpaceOnUse">
<stop stop-color="#10B4EE"/>
<stop offset="1" stop-color="#05AFEE" stop-opacity="0.01"/>
</linearGradient>
<linearGradient id="paint6_linear_3_389" x1="405.056" y1="66.6412" x2="405.056" y2="103.641" gradientUnits="userSpaceOnUse">
<stop stop-color="#10B4EE"/>
<stop offset="1" stop-color="#05AFEE" stop-opacity="0.01"/>
</linearGradient>
<linearGradient id="paint7_linear_3_389" x1="291.469" y1="78.0043" x2="291.469" y2="153.968" gradientUnits="userSpaceOnUse">
<stop stop-color="#9FF4FF"/>
<stop offset="0.580196" stop-color="#65DDF5"/>
<stop offset="1" stop-color="#00ACED"/>
</linearGradient>
<linearGradient id="paint8_linear_3_389" x1="151.482" y1="85.9279" x2="151.482" y2="146.699" gradientUnits="userSpaceOnUse">
<stop stop-color="#9FF4FF"/>
<stop offset="0.580196" stop-color="#65D6F5"/>
<stop offset="1" stop-color="#00ACED"/>
</linearGradient>
<linearGradient id="paint9_linear_3_389" x1="214.785" y1="40.1975" x2="214.785" y2="121.205" gradientUnits="userSpaceOnUse">
<stop stop-color="#9FF4FF"/>
<stop offset="0.512988" stop-color="#65DDF5"/>
<stop offset="1" stop-color="#00ACED"/>
</linearGradient>
<linearGradient id="paint10_linear_3_389" x1="366.861" y1="25.9233" x2="420.696" y2="63.003" gradientUnits="userSpaceOnUse">
<stop stop-color="#9FF4FF"/>
<stop offset="0.527234" stop-color="#48C5DD"/>
<stop offset="1" stop-color="#00ACED"/>
</linearGradient>
<linearGradient id="paint11_linear_3_389" x1="362.422" y1="28.9171" x2="414.728" y2="65.0933" gradientUnits="userSpaceOnUse">
<stop stop-color="#9FF4FF"/>
<stop offset="0.527234" stop-color="#48C5DD"/>
<stop offset="1" stop-color="#00ACED"/>
</linearGradient>
<linearGradient id="paint12_linear_3_389" x1="377.911" y1="105.81" x2="377.911" y2="209.384" gradientUnits="userSpaceOnUse">
<stop stop-color="#00ACED"/>
<stop offset="0.996665" stop-color="#00ACED" stop-opacity="0.01"/>
<stop offset="1" stop-color="#00ACED"/>
</linearGradient>
<linearGradient id="paint13_linear_3_389" x1="378.248" y1="105.81" x2="378.248" y2="208.27" gradientUnits="userSpaceOnUse">
<stop stop-color="#00ACED"/>
<stop offset="1" stop-color="#00ACED" stop-opacity="0.01"/>
</linearGradient>
<linearGradient id="paint14_linear_3_389" x1="64.7341" y1="44.4282" x2="13.5514" y2="79.7273" gradientUnits="userSpaceOnUse">
<stop stop-color="#9FF4FF"/>
<stop offset="0.505053" stop-color="#65DDF5"/>
<stop offset="1" stop-color="#00ACED"/>
</linearGradient>
<linearGradient id="paint15_linear_3_389" x1="70.7341" y1="46.9055" x2="19.5514" y2="82.2046" gradientUnits="userSpaceOnUse">
<stop stop-color="#9FF4FF"/>
<stop offset="0.505053" stop-color="#65DDF5"/>
<stop offset="1" stop-color="#00ACED"/>
</linearGradient>
<clipPath id="clip0_3_389">
<rect y="0.5" width="502" height="184" rx="6" fill="white"/>
</clipPath>
</defs>
</svg>
