<svg width="24" height="20" viewBox="0 0 24 20" fill="none" xmlns="http://www.w3.org/2000/svg">
<path d="M24 2.55273C23.1174 2.93211 22.157 3.20514 21.1676 3.31148C22.1887 2.70506 22.9645 1.748 23.3308 0.609877C22.3877 1.17032 21.3205 1.58131 20.2101 1.79399C19.3102 0.836927 18.0324 0.244873 16.6163 0.244873C13.8906 0.244873 11.6986 2.44639 11.6986 5.148C11.6986 5.52738 11.7447 5.90675 11.8197 6.27175C7.73849 6.05907 4.09855 4.11622 1.67864 1.14158C1.25177 1.87158 1.00949 2.70506 1.00949 3.61613C1.00949 5.31757 1.87766 6.81782 3.20154 7.70016C2.39394 7.66854 1.6325 7.44149 0.977767 7.07649V7.13684C0.977767 9.51943 2.66795 11.4939 4.92056 11.948C4.50811 12.0543 4.06682 12.1147 3.62553 12.1147C3.30537 12.1147 3.00252 12.0831 2.69679 12.04C3.31979 13.9828 5.134 15.394 7.29431 15.44C5.60413 16.7592 3.48708 17.5352 1.18832 17.5352C0.775868 17.5352 0.395145 17.5208 0 17.4748C2.18051 18.8687 4.7677 19.6734 7.5539 19.6734C16.599 19.6734 21.5484 12.2067 21.5484 5.72568C21.5484 5.51301 21.5484 5.30033 21.5339 5.08765C22.4915 4.38925 23.3308 3.52416 24 2.55273Z" fill="white"/>
</svg>
