<svg width="98" height="88" viewBox="0 0 98 88" fill="none" xmlns="http://www.w3.org/2000/svg">
<g clip-path="url(#clip0_1418_2154)">
<path d="M8.40488 60.4688C8.40488 60.4688 8.53127 60.9318 8.78407 61.7828C9.04947 62.6338 9.46648 63.8598 10.149 65.3738C11.4887 68.3648 14.0038 72.4948 18.4021 76.0488C22.7371 79.6148 28.9806 82.3688 35.9822 83.0688C39.5212 83.4448 43.1102 83.3318 46.7762 82.7688C50.3902 82.2178 54.0812 81.1548 57.4932 79.7658C60.9442 78.3508 64.2302 76.5618 67.2122 74.4968C70.2582 72.3948 72.9002 70.1168 75.2882 67.6268C77.6772 65.1238 79.6232 62.5958 81.3172 59.9308C82.9602 57.3278 84.2372 54.7248 85.1842 52.2588C86.1202 49.8318 86.7772 47.4038 87.1312 45.4138C87.5102 43.3488 87.6622 41.5468 87.6992 40.0698C87.7632 37.1169 87.4852 35.4775 87.4852 35.4775L97.9372 34.6641C97.9372 34.6641 98.1392 36.8916 97.7852 40.7208C97.5962 42.6228 97.2422 44.9258 96.5722 47.4658C95.8892 50.0818 94.9412 52.7718 93.5762 55.7128C92.2242 58.6168 90.4672 61.5948 88.3192 64.5228C86.2082 67.4018 83.5922 70.3298 80.7102 72.9448C77.8292 75.5728 74.4672 78.0638 70.9792 80.1158C67.4272 82.2178 63.6102 83.9698 59.6292 85.2838C55.6102 86.5978 51.5532 87.4618 47.4332 87.8118C43.3512 88.1628 39.1922 87.9998 35.3762 87.3238C27.6283 85.9978 20.9298 82.4558 16.4557 78.2138C11.9311 73.9838 9.56757 69.3538 8.36697 66.0878C7.76027 64.4478 7.40637 63.1088 7.19157 62.2078C7.00197 61.3068 6.90088 60.8188 6.90088 60.8188L8.40488 60.4688Z" fill="url(#paint0_linear_1418_2154)"/>
<path d="M78.4101 41.8472C78.4101 41.8472 78.6001 40.4712 78.4611 38.181C78.3221 35.8909 77.7401 32.5496 75.7811 29.1833C74.7581 27.4814 73.5571 25.9171 71.7751 24.4404C70.1191 23.0263 68.0721 21.8124 65.8351 20.8989C63.5981 19.9853 61.1331 19.3972 58.5931 19.1344C57.3291 19.0217 56.0401 18.9467 54.7511 18.9842C54.1191 18.9842 53.4991 19.0468 52.7661 19.0843C52.1221 19.1594 51.5401 19.1969 50.8961 19.3096C45.7771 20.0229 40.9111 22.0252 37.0061 24.6531C35.0221 25.9922 33.3661 27.4063 31.9131 28.9831C30.5101 30.4973 29.3341 32.1241 28.4244 33.6634C26.6044 36.7669 25.7703 39.6202 25.4164 41.5972C25.0625 43.5872 25.0625 44.7262 25.0625 44.7262L15.8237 43.8622C15.8237 43.8622 15.988 42.2602 16.7337 39.5702C17.4793 36.9046 18.9581 33.1753 21.7006 29.3835C23.0656 27.4814 24.7086 25.5917 26.7182 23.8022C28.6645 22.0502 31.0031 20.3733 33.4801 19.0343C38.4721 16.2936 44.3871 14.4791 50.3901 14.1787C51.1231 14.1287 51.9451 14.1287 52.6901 14.1162C53.3481 14.1412 54.1191 14.1412 54.8771 14.2038C56.3681 14.2789 57.8471 14.5041 59.2881 14.7669C62.1821 15.33 64.9631 16.2686 67.4521 17.5451C69.9421 18.834 72.1411 20.4108 73.9491 22.2629C75.7051 23.9899 77.1081 26.1423 78.0181 28.0695C79.8761 32.0616 80.1421 35.7157 80.0661 38.1685C80.0281 39.3952 79.9141 40.3832 79.8131 41.0342C79.7121 41.6722 79.6611 42.0102 79.6611 42.0102L78.4101 41.8472Z" fill="url(#paint1_linear_1418_2154)"/>
<path d="M89.2671 27.9069C89.2671 27.9069 89.1151 27.469 88.8371 26.6305C88.5461 25.8171 88.0791 24.6156 87.3331 23.1765C85.8801 20.3107 83.2381 16.3437 78.9161 12.8523C74.6311 9.37334 68.6401 6.42005 61.8281 5.48145C58.3781 4.98085 54.9021 4.95585 51.3261 5.43135C47.7741 5.90695 44.2611 6.85805 40.9111 8.24705C34.2001 10.9877 28.2854 15.3927 23.7607 20.2857C19.2108 25.1913 15.9753 30.5849 14.0669 35.3654C13.574 36.5792 13.1948 37.693 12.8283 38.8818C12.4997 39.9582 12.2343 41.0223 12.0194 42.0233C11.5897 44.0253 11.3875 45.7642 11.3117 47.1912C11.16 50.0442 11.3875 51.6213 11.3875 51.6213L0.0126652 52.1222C0.0126652 52.1222 -0.11374 49.8822 0.41716 46.1022C0.68256 44.2252 1.13756 41.9602 1.88326 39.4702C2.26236 38.2311 2.70476 36.9297 3.26086 35.5532C3.76636 34.2892 4.39826 32.85 5.09346 31.4609C7.89916 25.817 12.1837 19.8727 17.8964 14.6168C23.5838 9.37335 30.7621 4.89325 38.6741 2.35285C42.6171 1.07645 46.7501 0.275548 50.8201 0.062748C54.8641 -0.162452 58.9971 0.187949 62.7131 1.03885C70.2961 2.70325 76.6281 6.49505 80.9761 10.6372C85.3611 14.817 87.8011 19.2345 89.1151 22.4006C89.7721 23.9899 90.1511 25.2789 90.4041 26.1674C90.6191 27.0559 90.7451 27.5189 90.7451 27.5189L89.2671 27.9069Z" fill="url(#paint2_linear_1418_2154)"/>
<path d="M63.2313 51.1828C63.2313 51.1828 63.5723 50.4448 64.1543 49.1558C64.3053 48.8298 64.4703 48.4798 64.6343 48.0918C64.7603 47.7168 64.8993 47.3038 65.0513 46.8778C65.3293 45.9648 65.5693 44.9258 65.7213 43.7868C66.0243 41.5098 65.8853 38.7813 64.7863 36.2784C63.7243 33.7881 61.6013 31.6607 58.9973 30.6095C56.3943 29.5207 53.4363 29.4206 50.8583 29.9838C48.2043 30.5469 46.0303 31.6982 44.2983 32.9496C42.6053 34.1886 41.4293 35.5025 40.6843 36.4536C39.9383 37.4172 39.5843 38.0054 39.5843 38.0054L34.1123 34.151C34.1123 34.151 34.6803 33.4002 35.8183 32.2363C36.9683 31.0725 38.7003 29.5207 41.1393 28.1192C43.5153 26.7551 46.6873 25.5287 50.1253 25.2033C53.5883 24.8529 57.4433 25.3911 60.7293 27.2181C64.0403 29.0077 66.4673 32.1362 67.4273 35.3399C68.4263 38.5685 68.1853 41.6848 67.5913 44.1248C67.2883 45.3638 66.9093 46.4528 66.5053 47.3908C66.2643 47.9168 66.1383 48.2168 65.8733 48.7178C65.6583 49.0808 65.4563 49.4188 65.2663 49.7308C64.5463 50.9448 64.1283 51.6458 64.1283 51.6458L63.2313 51.1828Z" fill="url(#paint3_linear_1418_2154)"/>
<path d="M21.2706 50.4705C21.2706 50.4705 21.2833 50.7954 21.2959 51.4084C21.3212 51.9974 21.3717 52.8484 21.5487 53.9364C21.8773 56.0894 22.6988 59.1925 24.7842 62.2585C25.7826 63.7475 27.2361 65.3374 28.8412 66.5764C30.4968 67.8774 32.4688 68.9665 34.6428 69.7425C36.8158 70.5055 39.1798 70.9815 41.6058 71.1065C43.9948 71.2565 46.5348 71.0184 48.9238 70.5434C53.7648 69.5544 58.3148 67.4144 61.9928 64.7244C62.9278 64.0604 63.7868 63.3475 64.6208 62.6345L65.8598 61.5075L66.9218 60.4314C68.3368 58.9294 69.5378 57.4035 70.5108 55.9145C72.4568 52.9485 73.5439 50.2455 74.0999 48.3305C74.6689 46.4155 74.8078 45.3145 74.8078 45.3145L82.6308 46.9165C82.6308 46.9165 82.3149 48.3674 81.3929 50.7704C80.4829 53.1604 78.8399 56.4395 76.1859 59.8435C74.8589 61.5455 73.2908 63.2595 71.4718 64.8995C70.9908 65.3125 70.5109 65.7375 70.0179 66.1505C69.5379 66.5265 69.0578 66.9015 68.5648 67.2895C67.5278 68.0525 66.4538 68.8034 65.3158 69.4914C60.7918 72.2824 55.3568 74.3344 49.7078 75.0604C46.8638 75.3984 44.0458 75.4484 41.2398 75.0734C38.4588 74.7224 35.7668 73.9724 33.3408 72.8834C30.9138 71.7944 28.7401 70.3674 26.9707 68.7284C25.1254 67.0514 23.811 65.3245 22.762 63.4975C20.6893 59.8815 20.0952 56.4525 19.9309 54.1365C19.8425 52.9735 19.8551 52.0344 19.8804 51.4084C19.9183 50.7954 19.9309 50.4825 19.9309 50.4825L21.2706 50.4705Z" fill="url(#paint4_linear_1418_2154)"/>
<path d="M46.1821 39.6569C46.1821 39.6569 45.1451 40.4579 44.2101 42.0599C43.2751 43.5989 42.7691 46.1769 43.9451 47.7919C44.4501 48.5049 45.2721 49.0429 46.1181 49.2309C46.3211 49.2809 46.5731 49.3179 46.7381 49.3309C47.1171 49.3809 47.1421 49.3559 47.3951 49.3559C47.8121 49.3429 48.2041 49.2809 48.5701 49.1929C50.0241 48.8299 50.8331 48.1669 50.8331 48.1669L53.2341 52.6349C53.2341 52.6349 52.8421 52.8219 52.1341 53.0599C51.4271 53.2979 50.3901 53.5859 49.0881 53.6479C48.4441 53.6729 47.7361 53.6609 46.9901 53.5359C46.6621 53.4859 46.1061 53.361 45.8911 53.285C45.4611 53.16 45.1201 53.0349 44.7161 52.8469C43.1991 52.1589 41.7831 50.8829 41.0631 49.1929C40.3681 47.6039 40.4061 45.8019 40.8101 44.3999C41.2151 42.9609 41.9351 41.8219 42.6431 40.9709C43.3511 40.1079 44.0581 39.5319 44.5641 39.1439C45.0821 38.7563 45.3851 38.5938 45.3851 38.5938L46.1821 39.6569Z" fill="url(#paint5_linear_1418_2154)"/>
<path d="M53.6003 48.7808C53.6003 48.7808 54.6243 47.9798 55.4463 46.3898C55.8503 45.6018 56.1663 44.6128 56.1793 43.6118C56.2173 42.5988 55.9263 41.5848 55.3573 40.8218C54.8013 40.0578 53.9923 39.5698 53.1583 39.3568C52.7663 39.2568 52.2863 39.1948 51.9203 39.1948C51.5153 39.1948 51.1363 39.2448 50.7823 39.3068C49.3673 39.6078 48.5833 40.2078 48.5833 40.2078L46.3213 35.5153C46.3213 35.5153 46.7123 35.3526 47.4333 35.1649C48.1533 34.9772 49.2023 34.7644 50.4913 34.7769C51.1363 34.7895 51.8313 34.852 52.5513 35.0147C53.3103 35.1899 53.9923 35.4152 54.7513 35.8031C56.2043 36.5289 57.5183 37.8179 58.1883 39.3568C58.8713 40.8838 58.9213 42.5608 58.5803 43.9378C58.2513 45.3388 57.5823 46.4648 56.9123 47.3038C56.2423 48.1418 55.5473 48.7178 55.0543 49.0808C54.5483 49.4438 54.2583 49.6058 54.2583 49.6058L53.6003 48.7808Z" fill="url(#paint6_linear_1418_2154)"/>
<path d="M33.3411 39.3955C33.3411 39.3955 31.3441 42.4485 30.7251 45.2645C30.1051 48.0805 29.2961 53.4985 33.6311 58.5295C33.6311 58.5295 37.7771 63.8605 46.3211 63.9105C46.3211 63.9105 52.1471 64.2485 58.5421 60.7445C58.5421 60.7445 62.8771 58.3165 65.0761 55.7635L59.4401 51.0465C59.4401 51.0465 56.9881 54.5875 52.4501 56.8155C52.4501 56.8155 45.9291 60.4445 39.5841 57.8035C39.5841 57.8035 33.7831 56.0015 32.7471 48.5185C32.7471 48.5185 32.3681 43.1875 34.4021 39.8705L33.3411 39.3955Z" fill="url(#paint7_linear_1418_2154)"/>
</g>
<defs>
<linearGradient id="paint0_linear_1418_2154" x1="7.70018" y1="60.7618" x2="62.7122" y2="90.7198" gradientUnits="userSpaceOnUse">
<stop stop-color="#B5B5B5"/>
<stop offset="0.6369" stop-color="#7C7C7C"/>
<stop offset="1" stop-color="#444444"/>
</linearGradient>
<linearGradient id="paint1_linear_1418_2154" x1="79.1001" y1="41.9052" x2="56.1341" y2="14.8117" gradientUnits="userSpaceOnUse">
<stop stop-color="#B5B5B5"/>
<stop offset="0.6369" stop-color="#7C7C7C"/>
<stop offset="1" stop-color="#444444"/>
</linearGradient>
<linearGradient id="paint2_linear_1418_2154" x1="90.3001" y1="27.9367" x2="37.5801" y2="-2.93315" gradientUnits="userSpaceOnUse">
<stop stop-color="#B5B5B5"/>
<stop offset="0.6369" stop-color="#7C7C7C"/>
<stop offset="1" stop-color="#444444"/>
</linearGradient>
<linearGradient id="paint3_linear_1418_2154" x1="63.7003" y1="51.6818" x2="53.6853" y2="28.9956" gradientUnits="userSpaceOnUse">
<stop stop-color="#B5B5B5"/>
<stop offset="0.6369" stop-color="#7C7C7C"/>
<stop offset="1" stop-color="#444444"/>
</linearGradient>
<linearGradient id="paint4_linear_1418_2154" x1="20.2998" y1="50.2865" x2="44.9428" y2="77.2795" gradientUnits="userSpaceOnUse">
<stop stop-color="#B5B5B5"/>
<stop offset="0.6369" stop-color="#7C7C7C"/>
<stop offset="1" stop-color="#444444"/>
</linearGradient>
<linearGradient id="paint5_linear_1418_2154" x1="45.5001" y1="39.111" x2="46.8761" y2="50.8619" gradientUnits="userSpaceOnUse">
<stop stop-color="#B5B5B5"/>
<stop offset="0.6369" stop-color="#7C7C7C"/>
<stop offset="1" stop-color="#444444"/>
</linearGradient>
<linearGradient id="paint6_linear_1418_2154" x1="53.9003" y1="49.5878" x2="52.4973" y2="37.8286" gradientUnits="userSpaceOnUse">
<stop stop-color="#B5B5B5"/>
<stop offset="0.6369" stop-color="#7C7C7C"/>
<stop offset="1" stop-color="#444444"/>
</linearGradient>
<linearGradient id="paint7_linear_1418_2154" x1="33.6001" y1="39.8095" x2="43.8021" y2="62.2045" gradientUnits="userSpaceOnUse">
<stop stop-color="#B5B5B5"/>
<stop offset="0.6369" stop-color="#7C7C7C"/>
<stop offset="1" stop-color="#444444"/>
</linearGradient>
<clipPath id="clip0_1418_2154">
<rect width="98" height="88" fill="white"/>
</clipPath>
</defs>
</svg>
