<svg width="97" height="88" viewBox="0 0 97 88" fill="none" xmlns="http://www.w3.org/2000/svg">
<g clip-path="url(#clip0_1418_2164)">
<path d="M8.31917 60.4688C8.31917 60.4688 8.44427 60.9318 8.69447 61.7828C8.95717 62.6338 9.36997 63.8598 10.0456 65.3738C11.3716 68.3648 13.861 72.4948 18.2144 76.0488C22.5052 79.6148 28.685 82.3688 35.6153 83.0688C39.1183 83.4448 42.6703 83.3318 46.2983 82.7688C49.8763 82.2178 53.5293 81.1548 56.9063 79.7658C60.3223 78.3508 63.5743 76.5618 66.5263 74.4968C69.5413 72.3948 72.1563 70.1168 74.5203 67.6268C76.8843 65.1238 78.8113 62.5958 80.4873 59.9308C82.1133 57.3278 83.3773 54.7248 84.3153 52.2588C85.2413 49.8318 85.8913 47.4038 86.2423 45.4138C86.6173 43.3488 86.7673 41.5468 86.8053 40.0698C86.8673 37.1169 86.5923 35.4775 86.5923 35.4775L96.9373 34.6641C96.9373 34.6641 97.1383 36.8916 96.7873 40.7208C96.6003 42.6228 96.2493 44.9258 95.5863 47.4658C94.9113 50.0818 93.9733 52.7718 92.6223 55.7128C91.2833 58.6168 89.5443 61.5948 87.4183 64.5228C85.3283 67.4018 82.7393 70.3298 79.8873 72.9448C77.0353 75.5728 73.7073 78.0638 70.2543 80.1158C66.7393 82.2178 62.9613 83.9698 59.0213 85.2838C55.0433 86.5978 51.0273 87.4618 46.9493 87.8118C42.9083 88.1628 38.7923 87.9998 35.0153 87.3238C27.3464 85.9978 20.7163 82.4558 16.2879 78.2138C11.8094 73.9838 9.47007 69.3538 8.28167 66.0878C7.68117 64.4478 7.33096 63.1088 7.11826 62.2078C6.93066 61.3068 6.83057 60.8188 6.83057 60.8188L8.31917 60.4688Z" fill="url(#paint0_linear_1418_2164)"/>
<path d="M77.61 41.8472C77.61 41.8472 77.798 40.4712 77.66 38.181C77.522 35.8909 76.947 32.5496 75.008 29.1833C73.995 27.4814 72.806 25.9171 71.042 24.4404C69.404 23.0263 67.377 21.8124 65.163 20.8989C62.949 19.9853 60.509 19.3972 57.995 19.1344C56.744 19.0217 55.468 18.9467 54.192 18.9842C53.566 18.9842 52.953 19.0468 52.228 19.0843C51.59 19.1594 51.014 19.1969 50.376 19.3096C45.31 20.0229 40.494 22.0252 36.628 24.6531C34.664 25.9922 33.026 27.4063 31.587 28.9831C30.198 30.4973 29.035 32.1241 28.1343 33.6634C26.3329 36.7669 25.5072 39.6202 25.157 41.5972C24.8067 43.5872 24.8067 44.7262 24.8067 44.7262L15.6621 43.8622C15.6621 43.8622 15.8247 42.2602 16.5628 39.5702C17.3009 36.9046 18.7645 33.1753 21.4791 29.3835C22.8302 27.4814 24.4564 25.5917 26.4454 23.8022C28.3719 22.0502 30.686 20.3733 33.138 19.0343C38.079 16.2936 43.934 14.4791 49.876 14.1787C50.602 14.1287 51.415 14.1287 52.153 14.1162C52.803 14.1412 53.566 14.1412 54.317 14.2038C55.793 14.2789 57.257 14.5041 58.683 14.7669C61.548 15.33 64.3 16.2686 66.764 17.5451C69.229 18.834 71.405 20.4108 73.194 22.2629C74.933 23.9899 76.322 26.1423 77.222 28.0695C79.061 32.0616 79.324 35.7157 79.249 38.1685C79.211 39.3952 79.099 40.3832 78.999 41.0342C78.899 41.6722 78.848 42.0102 78.848 42.0102L77.61 41.8472Z" fill="url(#paint1_linear_1418_2164)"/>
<path d="M88.356 27.9069C88.356 27.9069 88.206 27.469 87.93 26.6305C87.643 25.8171 87.18 24.6156 86.442 23.1765C85.003 20.3107 82.389 16.3437 78.11 12.8523C73.87 9.37334 67.94 6.42005 61.197 5.48145C57.782 4.98085 54.342 4.95585 50.802 5.43135C47.287 5.90695 43.809 6.85805 40.494 8.24705C33.851 10.9877 27.9966 15.3927 23.5182 20.2857C19.0147 25.1913 15.8122 30.5849 13.9233 35.3654C13.4354 36.5792 13.0601 37.693 12.6973 38.8818C12.3721 39.9582 12.1094 41.0223 11.8967 42.0233C11.4714 44.0253 11.2712 45.7642 11.1962 47.1912C11.046 50.0442 11.2712 51.6213 11.2712 51.6213L0.0125284 52.1222C0.0125284 52.1222 -0.112565 49.8822 0.412835 46.1022C0.675535 44.2252 1.12593 41.9602 1.86393 39.4702C2.23923 38.2311 2.67713 36.9297 3.22753 35.5532C3.72793 34.2892 4.35343 32.85 5.04143 31.4609C7.81853 25.817 12.0593 19.8727 17.7137 14.6168C23.3431 9.37335 30.449 4.89325 38.28 2.35285C42.183 1.07645 46.273 0.275548 50.301 0.062748C54.304 -0.162452 58.395 0.187949 62.073 1.03885C69.579 2.70325 75.846 6.49505 80.149 10.6372C84.49 14.817 86.905 19.2345 88.206 22.4006C88.856 23.9899 89.232 25.2789 89.482 26.1674C89.694 27.0559 89.819 27.5189 89.819 27.5189L88.356 27.9069Z" fill="url(#paint2_linear_1418_2164)"/>
<path d="M62.5862 51.1828C62.5862 51.1828 62.9242 50.4448 63.4992 49.1558C63.6492 48.8298 63.8122 48.4798 63.9742 48.0918C64.1002 47.7168 64.2372 47.3038 64.3872 46.8778C64.6622 45.9648 64.9002 44.9258 65.0502 43.7868C65.3512 41.5098 65.2132 38.7813 64.1252 36.2784C63.0742 33.7881 60.9722 31.6607 58.3952 30.6095C55.8182 29.5207 52.8912 29.4206 50.3392 29.9838C47.7122 30.5469 45.5602 31.6982 43.8462 32.9496C42.1702 34.1886 41.0072 35.5025 40.2692 36.4536C39.5312 37.4172 39.1802 38.0054 39.1802 38.0054L33.7642 34.151C33.7642 34.151 34.3272 33.4002 35.4522 32.2363C36.5912 31.0725 38.3052 29.5207 40.7192 28.1192C43.0712 26.7551 46.2112 25.5287 49.6132 25.2033C53.0412 24.8529 56.8562 25.3911 60.1092 27.2181C63.3872 29.0077 65.7882 32.1362 66.7392 35.3399C67.7272 38.5685 67.4902 41.6848 66.9022 44.1248C66.6012 45.3638 66.2262 46.4528 65.8262 47.3908C65.5882 47.9168 65.4632 48.2168 65.2002 48.7178C64.9882 49.0808 64.7882 49.4188 64.6002 49.7308C63.8872 50.9448 63.4742 51.6458 63.4742 51.6458L62.5862 51.1828Z" fill="url(#paint3_linear_1418_2164)"/>
<path d="M21.0537 50.4705C21.0537 50.4705 21.0662 50.7954 21.0787 51.4084C21.1037 51.9974 21.1538 52.8484 21.3289 53.9364C21.6541 56.0894 22.4673 59.1925 24.5314 62.2585C25.5196 63.7475 26.9582 65.3374 28.547 66.5764C30.1859 67.8774 32.1369 68.9665 34.2889 69.7425C36.4409 70.5055 38.7799 70.9815 41.1819 71.1065C43.5459 71.2565 46.0609 71.0184 48.4249 70.5434C53.2159 69.5544 57.7199 67.4144 61.3599 64.7244C62.2859 64.0604 63.1359 63.3475 63.9619 62.6345L65.1879 61.5075L66.2389 60.4314C67.6399 58.9294 68.8279 57.4035 69.7909 55.9145C71.7179 52.9485 72.7939 50.2455 73.3439 48.3305C73.9069 46.4155 74.0449 45.3145 74.0449 45.3145L81.7879 46.9165C81.7879 46.9165 81.4749 48.3674 80.5619 50.7704C79.6619 53.1604 78.0349 56.4395 75.4079 59.8435C74.0949 61.5455 72.5439 63.2595 70.7419 64.8995C70.2669 65.3125 69.7909 65.7375 69.3039 66.1505C68.8279 66.5265 68.3529 66.9015 67.8649 67.2895C66.8389 68.0525 65.7759 68.8034 64.6499 69.4914C60.1719 72.2824 54.7919 74.3344 49.2009 75.0604C46.3859 75.3984 43.5959 75.4484 40.8189 75.0734C38.0669 74.7224 35.4019 73.9724 33.0009 72.8834C30.5989 71.7944 28.4469 70.3674 26.6955 68.7284C24.8691 67.0514 23.5681 65.3245 22.5298 63.4975C20.4782 59.8815 19.8903 56.4525 19.7277 54.1365C19.6401 52.9735 19.6526 52.0344 19.6776 51.4084C19.7151 50.7954 19.7277 50.4825 19.7277 50.4825L21.0537 50.4705Z" fill="url(#paint4_linear_1418_2164)"/>
<path d="M45.7103 39.6569C45.7103 39.6569 44.6853 40.4579 43.7593 42.0599C42.8333 43.5989 42.3333 46.1769 43.4963 47.7919C43.9973 48.5049 44.8103 49.0429 45.6483 49.2309C45.8483 49.2809 46.0983 49.3179 46.2613 49.3309C46.6363 49.3809 46.6613 49.3559 46.9113 49.3559C47.3243 49.3429 47.7123 49.2809 48.0753 49.1929C49.5133 48.8299 50.3143 48.1669 50.3143 48.1669L52.6913 52.6349C52.6913 52.6349 52.3033 52.8219 51.6023 53.0599C50.9023 53.2979 49.8763 53.5859 48.5883 53.6479C47.9503 53.6729 47.2493 53.6609 46.5113 53.5359C46.1863 53.4859 45.6353 53.361 45.4233 53.285C44.9973 53.16 44.6603 53.0349 44.2593 52.8469C42.7583 52.1589 41.3573 50.8829 40.6443 49.1929C39.9563 47.6039 39.9933 45.8019 40.3943 44.3999C40.7943 42.9609 41.5073 41.8219 42.2083 40.9709C42.9083 40.1079 43.6093 39.5319 44.1093 39.1439C44.6223 38.7563 44.9223 38.5938 44.9223 38.5938L45.7103 39.6569Z" fill="url(#paint5_linear_1418_2164)"/>
<path d="M53.0541 48.7808C53.0541 48.7808 54.0671 47.9798 54.8801 46.3898C55.2801 45.6018 55.5931 44.6128 55.6051 43.6118C55.6431 42.5988 55.3551 41.5848 54.7921 40.8218C54.2421 40.0578 53.4411 39.5698 52.6161 39.3568C52.2281 39.2568 51.7531 39.1948 51.3901 39.1948C50.9891 39.1948 50.6141 39.2448 50.2641 39.3068C48.8631 39.6078 48.0871 40.2078 48.0871 40.2078L45.8481 35.5153C45.8481 35.5153 46.2361 35.3526 46.9491 35.1649C47.6621 34.9772 48.7001 34.7644 49.9761 34.7769C50.6141 34.7895 51.3021 34.852 52.0151 35.0147C52.7661 35.1899 53.4411 35.4152 54.1921 35.8031C55.6311 36.5289 56.9321 37.8179 57.5951 39.3568C58.2701 40.8838 58.3201 42.5608 57.9821 43.9378C57.6571 45.3388 56.9941 46.4648 56.3311 47.3038C55.6681 48.1418 54.9801 48.7178 54.4921 49.0808C53.9921 49.4438 53.7041 49.6058 53.7041 49.6058L53.0541 48.7808Z" fill="url(#paint6_linear_1418_2164)"/>
<path d="M33.0009 39.3955C33.0009 39.3955 31.0239 42.4485 30.4109 45.2645C29.7979 48.0805 28.9973 53.4985 33.2879 58.5295C33.2879 58.5295 37.3909 63.8605 45.8479 63.9105C45.8479 63.9105 51.6149 64.2485 57.9449 60.7445C57.9449 60.7445 62.2359 58.3165 64.4119 55.7635L58.8328 51.0465C58.8328 51.0465 56.4059 54.5875 51.9149 56.8155C51.9149 56.8155 45.4599 60.4445 39.1799 57.8035C39.1799 57.8035 33.4379 56.0015 32.4129 48.5185C32.4129 48.5185 32.0369 43.1875 34.0509 39.8705L33.0009 39.3955Z" fill="url(#paint7_linear_1418_2164)"/>
</g>
<defs>
<linearGradient id="paint0_linear_1418_2164" x1="90.7643" y1="34.9202" x2="12.6026" y2="12.3289" gradientUnits="userSpaceOnUse">
<stop stop-color="#D8D8D8"/>
<stop offset="0.288174" stop-color="#919191"/>
<stop offset="1" stop-color="#444444"/>
</linearGradient>
<linearGradient id="paint1_linear_1418_2164" x1="19.5872" y1="44.4682" x2="57.905" y2="70.4382" gradientUnits="userSpaceOnUse">
<stop stop-color="#D8D8D8"/>
<stop offset="0.269639" stop-color="#919191"/>
<stop offset="1" stop-color="#444444"/>
</linearGradient>
<linearGradient id="paint2_linear_1418_2164" x1="5.54293" y1="51.6823" x2="67.234" y2="73.7172" gradientUnits="userSpaceOnUse">
<stop stop-color="#D8D8D8"/>
<stop offset="0.288174" stop-color="#919191"/>
<stop offset="1" stop-color="#444444"/>
</linearGradient>
<linearGradient id="paint3_linear_1418_2164" x1="33.9502" y1="38.4123" x2="45.9092" y2="58.8758" gradientUnits="userSpaceOnUse">
<stop stop-color="#D8D8D8"/>
<stop offset="0.331064" stop-color="#919191"/>
<stop offset="1" stop-color="#444444"/>
</linearGradient>
<linearGradient id="paint4_linear_1418_2164" x1="78.9859" y1="46.0955" x2="43.6039" y2="17.5496" gradientUnits="userSpaceOnUse">
<stop stop-color="#D8D8D8"/>
<stop offset="0.288174" stop-color="#919191"/>
<stop offset="1" stop-color="#444444"/>
</linearGradient>
<linearGradient id="paint5_linear_1418_2164" x1="54.0433" y1="49.587" x2="54.1783" y2="40.744" gradientUnits="userSpaceOnUse">
<stop stop-color="#D8D8D8"/>
<stop offset="0.500549" stop-color="#919191"/>
<stop offset="1" stop-color="#444444"/>
</linearGradient>
<linearGradient id="paint6_linear_1418_2164" x1="42.2641" y1="39.1108" x2="43.4091" y2="48.7888" gradientUnits="userSpaceOnUse">
<stop stop-color="#D8D8D8"/>
<stop offset="0.551338" stop-color="#919191"/>
<stop offset="1" stop-color="#444444"/>
</linearGradient>
<linearGradient id="paint7_linear_1418_2164" x1="60.9709" y1="50.2865" x2="46.4279" y2="29.9458" gradientUnits="userSpaceOnUse">
<stop stop-color="#D8D8D8"/>
<stop offset="0.424241" stop-color="#919191"/>
<stop offset="1" stop-color="#444444"/>
</linearGradient>
<clipPath id="clip0_1418_2164">
<rect width="97" height="88" fill="white"/>
</clipPath>
</defs>
</svg>
