<svg width="239" height="63" viewBox="0 0 239 63" fill="none" xmlns="http://www.w3.org/2000/svg">
<g clip-path="url(#clip0_1418_2212)">
<path d="M234.247 21.3675C235.487 21.6011 236.421 21.9695 237.086 22.4636L237.095 22.4726L237.113 22.4816C237.769 22.9218 238.236 23.5508 238.506 24.3773L238.515 24.3863V24.4043C238.829 25.2398 239 26.3629 239 27.8004C239 28.9412 238.802 29.8672 238.443 30.6212V30.6302C238.128 31.3222 237.58 31.9152 236.745 32.4092C235.891 32.9032 234.714 33.3082 233.169 33.5772C231.597 33.8022 229.638 33.9372 227.275 33.9372H226.377V37.1442L227.185 37.2252C227.626 37.2792 228.057 37.3152 228.506 37.3422C228.955 37.3692 229.405 37.3782 229.845 37.3782C232.271 37.3782 234.723 37.0272 237.176 36.3442L237.886 40.8012C235.02 41.5012 232.199 41.8522 229.423 41.8522C225.55 41.8522 222.945 40.9532 221.408 39.3542C219.854 37.7102 218.983 35.1222 218.983 31.4212C218.983 27.7105 219.845 25.141 221.408 23.5328V23.5238C222.972 21.8976 225.568 20.9902 229.423 20.9902C231.381 20.9902 232.98 21.125 234.247 21.3675ZM232.873 28.0612V25.4195H230.231C229.162 25.4195 228.237 25.5273 227.581 25.8238H227.572C226.637 26.2551 226.377 27.2344 226.377 28.1332V30.7832H229.018C230.069 30.7832 231.004 30.6842 231.642 30.3792C232.585 29.9472 232.873 28.9952 232.873 28.0612Z" fill="white"/>
<path d="M216.826 21.1787L217.213 27.36C217.069 27.387 216.925 27.4139 216.773 27.4409C216.278 27.5487 215.766 27.6655 215.245 27.8182H215.236H215.227C214.706 27.9799 214.221 28.178 213.763 28.42C213.278 28.645 212.864 28.941 212.55 29.319L212.343 29.57V41.223H205.587V21.6189H208.588L211.292 24.3592L211.93 23.7752C213.269 22.5354 214.904 21.6639 216.826 21.1787Z" fill="white"/>
<path d="M201.301 21.6191V41.2052H198.291L195.353 38.3572L194.734 39.1032C193.233 40.8992 191.068 41.8432 188.121 41.8432C185.677 41.8432 184.096 41.3222 183.171 40.4772C182.272 39.6242 181.715 38.1142 181.715 35.6802V21.6191H188.471V37.4052H190.691C191.742 37.4052 192.676 37.3062 193.314 37.0002C194.257 36.5692 194.545 35.6172 194.545 34.6822V21.6191H201.301Z" fill="white"/>
<path d="M192.311 41.9775C192.311 41.9895 192.298 41.9895 192.311 41.9775C192.298 41.9895 192.298 41.9775 192.311 41.9775Z" fill="white"/>
<path d="M177.978 37.0813C178.139 37.0993 178.301 37.1173 178.472 37.1353L178.184 41.6723C176.63 41.6543 175.327 41.6003 174.276 41.5113C173.018 41.4123 172.183 41.2593 171.707 41.0883C170.79 40.7563 170.17 40.3703 169.775 39.9653C169.46 39.6243 169.236 39.0403 169.236 38.0793V25.348H167.098V21.6194H169.236V17.9987L175.992 16.3096V21.6194H178.948V25.348H175.992V36.7133L176.711 36.8573C177.079 36.9293 177.475 37.0003 177.924 37.0813H177.951H177.978Z" fill="white"/>
<path d="M164.339 27.4409C163.845 27.5487 163.333 27.6655 162.803 27.8182H162.794C162.273 27.9799 161.788 28.178 161.329 28.42C160.853 28.645 160.431 28.941 160.116 29.319L159.91 29.57V41.223H153.154V21.6189H156.154L158.859 24.3592L159.497 23.7752C160.835 22.5354 162.47 21.6639 164.393 21.1787L164.779 27.36C164.636 27.387 164.492 27.4139 164.339 27.4409Z" fill="white"/>
<path d="M145.194 21.3675C146.442 21.6011 147.377 21.9695 148.042 22.4636L148.051 22.4726L148.069 22.4816C148.724 22.9218 149.192 23.5508 149.461 24.3773L149.47 24.3863V24.4043C149.785 25.2398 149.955 26.3629 149.955 27.8004C149.955 28.9412 149.758 29.8672 149.398 30.6212V30.6302C149.084 31.3222 148.536 31.9152 147.7 32.4092C146.838 32.9032 145.661 33.3082 144.124 33.5772C142.552 33.8022 140.602 33.9372 138.231 33.9372H137.332V37.1442L138.141 37.2252C138.581 37.2792 139.012 37.3152 139.461 37.3422C139.911 37.3692 140.36 37.3782 140.8 37.3782C143.235 37.3782 145.679 37.0272 148.131 36.3442L148.841 40.8012C145.975 41.5012 143.154 41.8522 140.378 41.8522C136.506 41.8522 133.9 40.9532 132.364 39.3542C130.809 37.7102 129.938 35.1222 129.938 31.4212C129.938 27.7105 130.8 25.141 132.364 23.5328V23.5238C133.927 21.8976 136.524 20.9902 140.378 20.9902C142.336 20.9902 143.936 21.125 145.194 21.3675ZM143.828 28.0612V25.4195H141.186C140.117 25.4195 139.192 25.5273 138.536 25.8238L138.518 25.8328C137.611 26.2551 137.332 27.2254 137.332 28.1332V30.7832H139.974C141.025 30.7832 141.959 30.6842 142.597 30.3792C143.54 29.9472 143.828 28.9952 143.828 28.0612Z" fill="white"/>
<path d="M126.919 27.3244C127.234 28.6274 127.395 29.9924 127.395 31.4214C127.395 32.8044 127.261 34.1074 126.982 35.3204C126.721 36.5064 126.281 37.5394 125.688 38.4384C125.113 39.2824 124.35 39.9564 123.379 40.4594C122.445 40.9444 121.241 41.2144 119.732 41.2144H113.919V47.6924L107.153 48.1954V21.6193H110.073L112.131 24.4134L112.85 23.3622C113.865 21.8708 115.823 20.9814 119.094 20.9814C120.693 20.9814 121.978 21.2689 122.984 21.7989C124.035 22.356 124.853 23.0837 125.473 24.0091L125.482 24.0181L125.491 24.0271C126.146 24.9435 126.623 26.0306 126.91 27.3064L126.919 27.3244ZM119.983 34.6824V25.4107H117.764C117.117 25.4107 116.587 25.4376 116.156 25.4915C115.581 25.5544 115.087 25.806 114.673 26.1744C114.152 26.6146 113.937 27.2345 113.91 27.8814V27.8994V37.4044H116.129C117.18 37.4044 118.114 37.3064 118.752 37.0004C119.696 36.5694 119.983 35.6174 119.983 34.6824Z" fill="white"/>
<path d="M98.9048 16.2734L105.356 41.2052H98.2048L97.2068 36.9642H88.7258L87.7558 41.2052H80.6128L87.0638 16.2734H98.9048ZM96.0568 31.9512L93.9458 22.6703H92.0498L89.8848 31.9512H96.0568Z" fill="white"/>
<path d="M6.0034 43.2897C6.0034 43.2897 6.0937 43.6217 6.2743 44.2307C6.4639 44.8397 6.7618 45.7177 7.2493 46.8017C8.2062 48.9427 10.0027 51.8997 13.1443 54.4437C16.2407 56.9977 20.7004 58.9687 25.7017 59.4697C28.2294 59.7387 30.7932 59.6577 33.4112 59.2547C35.9931 58.8607 38.6291 58.0997 41.0671 57.1047C43.5311 56.0927 45.8781 54.8117 48.0091 53.3327C50.1841 51.8277 52.0711 50.1977 53.7771 48.4147C55.4841 46.6227 56.8741 44.8127 58.0841 42.9047C59.2571 41.0407 60.1691 39.1777 60.8461 37.4127C61.5141 35.6747 61.9831 33.9367 62.2361 32.5117C62.5071 31.0337 62.6151 29.7437 62.6421 28.6867C62.6881 26.5723 62.4891 25.3987 62.4891 25.3987L69.9551 24.8164C69.9551 24.8164 70.0991 26.4111 69.8471 29.1527C69.7111 30.5147 69.4581 32.1627 68.9801 33.9817C68.4921 35.8537 67.8151 37.7797 66.8401 39.8857C65.8741 41.9637 64.6201 44.0967 63.0851 46.1927C61.5771 48.2537 59.7091 50.3497 57.6501 52.2217C55.5921 54.1037 53.1911 55.8867 50.6991 57.3557C48.1621 58.8607 45.4361 60.1147 42.5921 61.0557C39.7211 61.9967 36.8237 62.6147 33.8807 62.8657C30.9648 63.1167 27.9947 62.9997 25.2683 62.5157C19.7344 61.5667 14.9498 59.0307 11.754 55.9937C8.5221 52.9657 6.834 49.6507 5.9764 47.3127C5.543 46.1387 5.2903 45.1807 5.1368 44.5357C5.0014 43.8897 4.9292 43.5407 4.9292 43.5407L6.0034 43.2897Z" fill="url(#paint0_linear_1418_2212)"/>
<path d="M56.0071 29.9588C56.0071 29.9588 56.1431 28.9728 56.0431 27.3338C55.9441 25.6943 55.5291 23.3022 54.1291 20.8922C53.3981 19.6738 52.5411 18.5539 51.2681 17.4967C50.0851 16.4844 48.6231 15.6153 47.0251 14.9613C45.4271 14.3073 43.6661 13.8862 41.8521 13.6981C40.9491 13.6175 40.0281 13.5637 39.1081 13.5906C38.6561 13.5906 38.2141 13.6354 37.6901 13.6623C37.2301 13.716 36.8146 13.7429 36.3542 13.8235C32.6981 14.3342 29.2224 15.7676 26.4329 17.649C25.0156 18.6076 23.833 19.62 22.7948 20.7489C21.7927 21.8329 20.9532 22.9976 20.3032 24.0995C19.0032 26.3214 18.4074 28.3638 18.1546 29.7798C17.9018 31.2038 17.9018 32.0198 17.9018 32.0198L11.3027 31.4008C11.3027 31.4008 11.42 30.2548 11.9526 28.3278C12.4853 26.4199 13.5415 23.7501 15.5005 21.0355C16.4755 19.6738 17.6491 18.321 19.0844 17.0398C20.4747 15.7855 22.1448 14.585 23.9142 13.6264C27.4801 11.6644 31.705 10.3653 35.9931 10.1503C36.5167 10.1145 37.1031 10.1145 37.6361 10.1055C38.1051 10.1234 38.6561 10.1234 39.1981 10.1682C40.2631 10.222 41.3191 10.3832 42.3481 10.5714C44.4161 10.9745 46.4021 11.6465 48.1801 12.5603C49.9591 13.4831 51.5301 14.6119 52.8201 15.9379C54.0751 17.1742 55.0771 18.7152 55.7271 20.0948C57.0541 22.9528 57.2441 25.5688 57.1901 27.3248C57.1631 28.2028 57.0821 28.9108 57.0091 29.3768C56.9371 29.8338 56.9011 30.0748 56.9011 30.0748L56.0071 29.9588Z" fill="url(#paint1_linear_1418_2212)"/>
<path d="M63.7619 19.9787C63.7619 19.9787 63.6539 19.6651 63.4549 19.0649C63.2469 18.4825 62.9129 17.6225 62.3809 16.5922C61.3429 14.5405 59.4559 11.7005 56.3679 9.20102C53.3079 6.71032 49.0289 4.59602 44.1629 3.92412C41.6979 3.56572 39.2159 3.54782 36.661 3.88822C34.1242 4.22872 31.6145 4.90962 29.2222 5.90402C24.4286 7.86612 20.2037 11.0196 16.9718 14.5226C13.7218 18.0346 11.4108 21.8959 10.0476 25.3183C9.69551 26.1873 9.42471 26.9847 9.16291 27.8358C8.92821 28.606 8.73861 29.368 8.58511 30.084C8.27821 31.518 8.13381 32.763 8.07961 33.785C7.97131 35.827 8.13381 36.956 8.13381 36.956L0.00890964 37.314C0.00890964 37.314 -0.0813881 35.711 0.297812 33.005C0.487412 31.661 0.812411 30.04 1.34501 28.257C1.61581 27.3699 1.93181 26.4382 2.32901 25.4527C2.69011 24.5478 3.14151 23.5175 3.63801 22.523C5.64211 18.4825 8.70251 14.227 12.783 10.4642C16.8454 6.71032 21.9731 3.50302 27.6243 1.68432C30.4409 0.770525 33.393 0.197121 36.2999 0.0448214C39.1889 -0.116479 42.1409 0.134421 44.7949 0.743621C50.2109 1.93522 54.7339 4.64982 57.8399 7.61522C60.9719 10.6075 62.7149 13.7701 63.6539 16.0367C64.1229 17.1745 64.3939 18.0973 64.5739 18.7334C64.7279 19.3695 64.8179 19.701 64.8179 19.701L63.7619 19.9787Z" fill="url(#paint2_linear_1418_2212)"/>
<path d="M45.1647 36.6432C45.1647 36.6432 45.4087 36.1142 45.8237 35.1912C45.9317 34.9582 46.0497 34.7072 46.1667 34.4302C46.2567 34.1612 46.3567 33.8652 46.4647 33.5612C46.6637 32.9072 46.8347 32.1632 46.9437 31.3482C47.1597 29.7172 47.0607 27.7643 46.2747 25.9725C45.5167 24.1897 44.0007 22.6666 42.1407 21.9141C40.2807 21.1346 38.1687 21.063 36.3268 21.4661C34.431 21.8693 32.8782 22.6935 31.6414 23.5894C30.4317 24.4764 29.5922 25.4171 29.0595 26.0979C28.5269 26.7878 28.2741 27.2089 28.2741 27.2089L24.3652 24.4495C24.3652 24.4495 24.7714 23.9119 25.5839 23.0788C26.4054 22.2456 27.6422 21.1346 29.3845 20.1312C31.0817 19.1547 33.3477 18.2767 35.8032 18.0438C38.2767 17.7929 41.0297 18.1782 43.3777 19.4862C45.7427 20.7673 47.4757 23.0071 48.1617 25.3006C48.8747 27.612 48.7037 29.8432 48.2797 31.5902C48.0627 32.4772 47.7917 33.2562 47.5027 33.9282C47.3317 34.3042 47.2407 34.5192 47.0517 34.8782C46.8977 35.1372 46.7537 35.3792 46.6187 35.6032C46.1037 36.4722 45.8057 36.9742 45.8057 36.9742L45.1647 36.6432Z" fill="url(#paint3_linear_1418_2212)"/>
<path d="M15.1934 36.1324C15.1934 36.1324 15.2024 36.3654 15.2114 36.8044C15.2295 37.2254 15.2656 37.8344 15.392 38.6134C15.6267 40.1544 16.2135 42.3764 17.703 44.5714C18.4162 45.6374 19.4544 46.7754 20.6009 47.6624C21.7835 48.5944 23.1918 49.3734 24.7446 49.9294C26.2973 50.4754 27.9855 50.8164 29.7188 50.9054C31.425 51.0134 33.2395 50.8434 34.9457 50.5024C38.4029 49.7944 41.6529 48.2624 44.2799 46.3364C44.9479 45.8614 45.5619 45.3514 46.1579 44.8404L47.0429 44.0344L47.8009 43.2634C48.8119 42.1884 49.6699 41.0954 50.3649 40.0294C51.7549 37.9064 52.5319 35.9714 52.9289 34.6004C53.3349 33.2294 53.4339 32.4414 53.4339 32.4414L59.0219 33.5874C59.0219 33.5874 58.7969 34.6274 58.1379 36.3474C57.4879 38.0584 56.3139 40.4054 54.4179 42.8424C53.4699 44.0614 52.3509 45.2884 51.0509 46.4624C50.7079 46.7574 50.3649 47.0624 50.0129 47.3574C49.6699 47.6264 49.3269 47.8954 48.9749 48.1734C48.2339 48.7194 47.4669 49.2574 46.6549 49.7504C43.4229 51.7474 39.5409 53.2174 35.5055 53.7364C33.4742 53.9784 31.4611 54.0144 29.457 53.7454C27.4709 53.4944 25.548 52.9574 23.8147 52.1774C22.0814 51.3984 20.5287 50.3774 19.2648 49.2034C17.9468 48.0034 17.0079 46.7664 16.2586 45.4584C14.7781 42.8694 14.3538 40.4144 14.2364 38.7574C14.1732 37.9244 14.1823 37.2524 14.2003 36.8044C14.2274 36.3654 14.2364 36.1414 14.2364 36.1414L15.1934 36.1324Z" fill="url(#paint4_linear_1418_2212)"/>
<path d="M32.9866 28.3913C32.9866 28.3913 32.2464 28.9653 31.5783 30.1113C30.9103 31.2133 30.5492 33.0593 31.3888 34.2153C31.7499 34.7253 32.3367 35.1103 32.9415 35.2453C33.0859 35.2813 33.2665 35.3083 33.3839 35.3163C33.6547 35.3523 33.6727 35.3343 33.8533 35.3343C34.1512 35.3253 34.4311 35.2813 34.6929 35.2183C35.731 34.9583 36.3088 34.4833 36.3088 34.4833L38.0238 37.6823C38.0238 37.6823 37.7438 37.8163 37.2388 37.9863C36.7331 38.1573 35.9928 38.3633 35.063 38.4073C34.6026 38.4253 34.097 38.4163 33.5644 38.3273C33.3297 38.2913 32.9325 38.2013 32.779 38.1483C32.4721 38.0583 32.2283 37.9683 31.9394 37.8343C30.8561 37.3413 29.845 36.4273 29.3305 35.2183C28.834 34.0803 28.861 32.7903 29.1499 31.7873C29.4388 30.7563 29.9534 29.9413 30.4589 29.3323C30.9645 28.7143 31.47 28.3023 31.8311 28.0243C32.2012 27.7464 32.4179 27.6299 32.4179 27.6299L32.9866 28.3913Z" fill="url(#paint5_linear_1418_2212)"/>
<path d="M38.2857 34.9218C38.2857 34.9218 39.0167 34.3488 39.6037 33.2108C39.8927 32.6468 40.1187 31.9388 40.1277 31.2218C40.1547 30.4968 39.9467 29.7708 39.5407 29.2238C39.1437 28.6778 38.5657 28.3278 37.9697 28.1758C37.6897 28.1038 37.3467 28.0598 37.0847 28.0598C36.7962 28.0598 36.5254 28.0948 36.2726 28.1398C35.2615 28.3548 34.7018 28.7848 34.7018 28.7848L33.0859 25.4255C33.0859 25.4255 33.3657 25.309 33.8803 25.1746C34.3948 25.0402 35.1441 24.8879 36.065 24.8969C36.5254 24.9059 37.0217 24.9507 37.5367 25.0671C38.0777 25.1926 38.5657 25.3538 39.1077 25.6315C40.1457 26.1512 41.0847 27.074 41.5627 28.1758C42.0507 29.2688 42.0867 30.4698 41.8427 31.4548C41.6077 32.4588 41.1297 33.2648 40.6507 33.8648C40.1727 34.4648 39.6757 34.8768 39.3237 35.1368C38.9627 35.3968 38.7547 35.5138 38.7547 35.5138L38.2857 34.9218Z" fill="url(#paint6_linear_1418_2212)"/>
<path d="M23.8149 28.2031C23.8149 28.2031 22.3885 30.3891 21.9462 32.4051C21.5038 34.4211 20.9261 38.3001 24.0225 41.9021C24.0225 41.9021 26.9836 45.7181 33.0863 45.7541C33.0863 45.7541 37.2481 45.9961 41.8161 43.4871C41.8161 43.4871 44.9121 41.7491 46.4831 39.9221L42.4571 36.5441C42.4571 36.5441 40.7051 39.0791 37.4651 40.6741C37.4651 40.6741 32.8064 43.2721 28.2745 41.3821C28.2745 41.3821 24.1309 40.0921 23.3906 34.7341C23.3906 34.7341 23.1198 30.9181 24.5732 28.5441L23.8149 28.2031Z" fill="url(#paint7_linear_1418_2212)"/>
</g>
<defs>
<linearGradient id="paint0_linear_1418_2212" x1="65.5001" y1="24.9997" x2="9.1645" y2="8.5864" gradientUnits="userSpaceOnUse">
<stop stop-color="#D8D8D8"/>
<stop offset="0.288174" stop-color="#919191"/>
<stop offset="1" stop-color="#444444"/>
</linearGradient>
<linearGradient id="paint1_linear_1418_2212" x1="14.1352" y1="31.8348" x2="41.6481" y2="50.6308" gradientUnits="userSpaceOnUse">
<stop stop-color="#D8D8D8"/>
<stop offset="0.269639" stop-color="#919191"/>
<stop offset="1" stop-color="#444444"/>
</linearGradient>
<linearGradient id="paint2_linear_1418_2212" x1="3.99991" y1="37" x2="48.4379" y2="53" gradientUnits="userSpaceOnUse">
<stop stop-color="#D8D8D8"/>
<stop offset="0.288174" stop-color="#919191"/>
<stop offset="1" stop-color="#444444"/>
</linearGradient>
<linearGradient id="paint3_linear_1418_2212" x1="24.4997" y1="27.5002" x2="33.0277" y2="42.2092" gradientUnits="userSpaceOnUse">
<stop stop-color="#D8D8D8"/>
<stop offset="0.331064" stop-color="#919191"/>
<stop offset="1" stop-color="#444444"/>
</linearGradient>
<linearGradient id="paint4_linear_1418_2212" x1="56.9999" y1="33.0004" x2="31.6281" y2="12.3659" gradientUnits="userSpaceOnUse">
<stop stop-color="#D8D8D8"/>
<stop offset="0.288174" stop-color="#919191"/>
<stop offset="1" stop-color="#444444"/>
</linearGradient>
<linearGradient id="paint5_linear_1418_2212" x1="38.9998" y1="35.5003" x2="39.0958" y2="29.1693" gradientUnits="userSpaceOnUse">
<stop stop-color="#D8D8D8"/>
<stop offset="0.500549" stop-color="#919191"/>
<stop offset="1" stop-color="#444444"/>
</linearGradient>
<linearGradient id="paint6_linear_1418_2212" x1="30.4997" y1="27.9998" x2="31.3127" y2="34.9298" gradientUnits="userSpaceOnUse">
<stop stop-color="#D8D8D8"/>
<stop offset="0.551338" stop-color="#919191"/>
<stop offset="1" stop-color="#444444"/>
</linearGradient>
<linearGradient id="paint7_linear_1418_2212" x1="44.0001" y1="36.0001" x2="33.6152" y2="21.3598" gradientUnits="userSpaceOnUse">
<stop stop-color="#D8D8D8"/>
<stop offset="0.424241" stop-color="#919191"/>
<stop offset="1" stop-color="#444444"/>
</linearGradient>
<clipPath id="clip0_1418_2212">
<rect width="239" height="63" fill="white"/>
</clipPath>
</defs>
</svg>
