<svg width="158" height="135" viewBox="0 0 158 135" fill="none" xmlns="http://www.w3.org/2000/svg">
<g clip-path="url(#clip0_1418_2193)">
<path d="M38.4049 60.4684C38.4049 60.4684 38.5309 60.9315 38.7839 61.7824C39.0489 62.6338 39.4659 63.8598 40.1489 65.3738C41.4889 68.3648 44.0039 72.4948 48.4019 76.0488C52.7369 79.6148 58.9799 82.3688 65.9819 83.0688C69.5209 83.4448 73.1099 83.3318 76.7759 82.7688C80.3899 82.2178 84.0809 81.1548 87.4929 79.7658C90.9439 78.3508 94.2299 76.5618 97.2119 74.4968C100.258 72.3948 102.9 70.1168 105.288 67.6268C107.677 65.1238 109.623 62.5958 111.317 59.9303C112.96 57.3274 114.237 54.7244 115.184 52.2591C116.12 49.8313 116.777 47.4036 117.131 45.4138C117.51 43.349 117.662 41.5469 117.699 40.0703C117.763 37.1169 117.485 35.4775 117.485 35.4775L127.937 34.6641C127.937 34.6641 128.139 36.8916 127.785 40.721C127.596 42.6232 127.242 44.9258 126.572 47.4662C125.889 50.0816 124.941 52.7722 123.576 55.713C122.224 58.6163 120.467 61.5947 118.319 64.5228C116.208 67.4018 113.592 70.3298 110.71 72.9448C107.829 75.5728 104.467 78.0638 100.979 80.1158C97.4269 82.2178 93.6099 83.9698 89.6289 85.2838C85.6099 86.5978 81.5529 87.4618 77.4329 87.8118C73.3509 88.1628 69.1919 87.9998 65.3759 87.3238C57.6279 85.9978 50.9299 82.4558 46.4559 78.2138C41.9309 73.9838 39.5669 69.3538 38.3669 66.0878C37.7599 64.4478 37.4059 63.1088 37.1909 62.2078C37.0019 61.3069 36.9009 60.8188 36.9009 60.8188L38.4049 60.4684Z" fill="url(#paint0_linear_1418_2193)"/>
<path d="M108.41 41.8477C108.41 41.8477 108.6 40.4711 108.461 38.181C108.322 35.8909 107.74 32.5496 105.781 29.1833C104.758 27.4814 103.557 25.9171 101.775 24.4404C100.119 23.0263 98.0717 21.8124 95.8347 20.8989C93.5977 19.9853 91.1327 19.3972 88.5927 19.1344C87.3287 19.0217 86.0397 18.9467 84.7507 18.9842C84.1187 18.9842 83.4987 19.0468 82.7657 19.0843C82.1217 19.1594 81.5397 19.1969 80.8957 19.3096C75.7767 20.0229 70.9107 22.0252 67.0057 24.6531C65.0217 25.9922 63.3657 27.4063 61.9127 28.9831C60.5097 30.4973 59.3337 32.1241 58.4237 33.6634C56.6037 36.7669 55.7697 39.6201 55.4157 41.5974C55.0617 43.5872 55.0617 44.726 55.0617 44.726L45.8237 43.8625C45.8237 43.8625 45.9877 42.2606 46.7337 39.5701C47.4787 36.9046 48.9577 33.1753 51.7007 29.3835C53.0657 27.4814 54.7087 25.5917 56.7177 23.8022C58.6637 22.0502 61.0027 20.3733 63.4797 19.0343C68.4717 16.2936 74.3867 14.4791 80.3897 14.1787C81.1227 14.1287 81.9447 14.1287 82.6897 14.1162C83.3477 14.1412 84.1187 14.1412 84.8767 14.2038C86.3677 14.2789 87.8467 14.5041 89.2877 14.7669C92.1817 15.33 94.9627 16.2686 97.4517 17.5451C99.9417 18.834 102.141 20.4108 103.949 22.2629C105.705 23.9899 107.108 26.1423 108.018 28.0695C109.876 32.0616 110.142 35.7157 110.066 38.1685C110.028 39.3949 109.914 40.3835 109.813 41.0343C109.712 41.6725 109.661 42.0104 109.661 42.0104L108.41 41.8477Z" fill="url(#paint1_linear_1418_2193)"/>
<path d="M119.267 27.9069C119.267 27.9069 119.115 27.469 118.837 26.6305C118.546 25.8171 118.079 24.6156 117.333 23.1765C115.88 20.3107 113.238 16.3437 108.916 12.8523C104.631 9.37335 98.6398 6.42005 91.8278 5.48145C88.3778 4.98085 84.9018 4.95585 81.3248 5.43135C77.7738 5.90695 74.2598 6.85805 70.9108 8.24705C64.1998 10.9876 58.2848 15.3927 53.7608 20.2857C49.2108 25.1913 45.9748 30.5849 44.0668 35.3654C43.5738 36.5792 43.1948 37.693 42.8278 38.8818C42.4998 39.9581 42.2338 41.0218 42.0188 42.0229C41.5898 44.0252 41.3868 45.7647 41.3118 47.1913C41.1598 50.0445 41.3868 51.6213 41.3868 51.6213L30.0128 52.1219C30.0128 52.1219 29.8858 49.8818 30.4168 46.1026C30.6818 44.2254 31.1368 41.9604 31.8828 39.4701C32.2618 38.2312 32.7048 36.9297 33.2608 35.5532C33.7658 34.2892 34.3978 32.85 35.0928 31.4609C37.8988 25.817 42.1838 19.8727 47.8958 14.6168C53.5838 9.37335 60.7618 4.89325 68.6738 2.35285C72.6168 1.07645 76.7498 0.275548 80.8198 0.062748C84.8638 -0.162452 88.9968 0.187949 92.7128 1.03885C100.296 2.70325 106.628 6.49505 110.976 10.6372C115.361 14.817 117.801 19.2345 119.115 22.4006C119.772 23.9899 120.151 25.2789 120.404 26.1674C120.619 27.0559 120.745 27.5189 120.745 27.5189L119.267 27.9069Z" fill="url(#paint2_linear_1418_2193)"/>
<path d="M93.2308 51.1829C93.2308 51.1829 93.5718 50.4445 94.1538 49.1556C94.3048 48.8302 94.4698 48.4798 94.6338 48.0918C94.7598 47.7164 94.8988 47.3034 95.0508 46.878C95.3288 45.9644 95.5688 44.9258 95.7208 43.787C96.0238 41.5094 95.8848 38.7813 94.7858 36.2784C93.7238 33.7881 91.6008 31.6607 88.9968 30.6095C86.3938 29.5207 83.4358 29.4206 80.8578 29.9838C78.2038 30.5469 76.0298 31.6982 74.2978 32.9496C72.6048 34.1886 71.4288 35.5025 70.6838 36.4536C69.9378 37.4172 69.5838 38.0054 69.5838 38.0054L64.1118 34.151C64.1118 34.151 64.6798 33.4002 65.8178 32.2363C66.9678 31.0725 68.6998 29.5207 71.1388 28.1192C73.5148 26.7551 76.6868 25.5287 80.1248 25.2033C83.5878 24.8529 87.4428 25.3911 90.7288 27.2181C94.0398 29.0077 96.4668 32.1362 97.4268 35.3399C98.4258 38.5685 98.1848 41.6846 97.5908 44.1248C97.2878 45.3637 96.9088 46.4525 96.5048 47.391C96.2638 47.9166 96.1378 48.217 95.8728 48.7176C95.6578 49.0805 95.4558 49.4184 95.2658 49.7312C94.5458 50.9451 94.1278 51.6459 94.1278 51.6459L93.2308 51.1829Z" fill="url(#paint3_linear_1418_2193)"/>
<path d="M51.2708 50.4703C51.2708 50.4703 51.2828 50.7957 51.2958 51.4089C51.3208 51.9971 51.3718 52.848 51.5488 53.9368C51.8768 56.0892 52.6988 59.1927 54.7838 62.2585C55.7828 63.7475 57.2358 65.3374 58.8408 66.5764C60.4968 67.8774 62.4688 68.9664 64.6428 69.7424C66.8158 70.5054 69.1798 70.9815 71.6058 71.1065C73.9948 71.2565 76.5348 71.0184 78.9238 70.5434C83.7648 69.5544 88.3148 67.4144 91.9928 64.7244C92.9278 64.0604 93.7868 63.3475 94.6208 62.6345L95.8598 61.5079L96.9218 60.4315C98.3368 58.9298 99.5378 57.4031 100.511 55.9139C102.457 52.948 103.544 50.2451 104.1 48.3304C104.669 46.4157 104.808 45.3145 104.808 45.3145L112.631 46.9163C112.631 46.9163 112.315 48.3679 111.393 50.7707C110.483 53.1609 108.84 56.4396 106.186 59.8435C104.859 61.5454 103.291 63.2595 101.471 64.8995C100.991 65.3125 100.511 65.7375 100.018 66.1505C99.5378 66.5265 99.0578 66.9015 98.5648 67.2895C97.5278 68.0525 96.4538 68.8034 95.3158 69.4914C90.7918 72.2824 85.3568 74.3344 79.7078 75.0604C76.8638 75.3984 74.0458 75.4484 71.2398 75.0734C68.4588 74.7224 65.7668 73.9725 63.3408 72.8835C60.9138 71.7945 58.7398 70.3674 56.9708 68.7284C55.1258 67.0514 53.8108 65.3245 52.7618 63.4975C50.6888 59.881 50.0948 56.452 49.9308 54.1369C49.8428 52.9731 49.8548 52.0346 49.8808 51.4089C49.9178 50.7957 49.9308 50.4827 49.9308 50.4827L51.2708 50.4703Z" fill="url(#paint4_linear_1418_2193)"/>
<path d="M76.1816 39.6574C76.1816 39.6574 75.1446 40.4584 74.2096 42.0602C73.2746 43.5994 72.7686 46.1773 73.9446 47.7916C74.4496 48.5049 75.2716 49.043 76.1176 49.2307C76.3206 49.2808 76.5726 49.3183 76.7376 49.3309C77.1166 49.3809 77.1416 49.3559 77.3946 49.3559C77.8116 49.3434 78.2036 49.2808 78.5696 49.1932C80.0236 48.8303 80.8326 48.167 80.8326 48.167L83.2336 52.6346C83.2336 52.6346 82.8416 52.8224 82.1336 53.0602C81.4266 53.298 80.3896 53.5857 79.0876 53.6483C78.4436 53.6733 77.7356 53.6608 76.9896 53.5356C76.6616 53.4856 76.1056 53.3604 75.8906 53.2854C75.4606 53.1602 75.1196 53.0352 74.7156 52.8475C73.1986 52.1592 71.7826 50.8826 71.0626 49.1932C70.3676 47.6039 70.4056 45.8018 70.8096 44.4002C71.2146 42.9611 71.9346 41.8223 72.6426 40.9714C73.3506 40.1079 74.0576 39.5322 74.5636 39.1443C75.0816 38.7563 75.3846 38.5938 75.3846 38.5938L76.1816 39.6574Z" fill="url(#paint5_linear_1418_2193)"/>
<path d="M83.5998 48.7803C83.5998 48.7803 84.6238 47.9794 85.4458 46.3901C85.8498 45.6017 86.1658 44.6131 86.1788 43.612C86.2168 42.5983 85.9258 41.5847 85.3568 40.8213C84.8008 40.0579 83.9918 39.5699 83.1578 39.3571C82.7658 39.257 82.2858 39.1945 81.9198 39.1945C81.5148 39.1945 81.1358 39.2445 80.7818 39.3071C79.3668 39.6074 78.5828 40.2081 78.5828 40.2081L76.3208 35.5153C76.3208 35.5153 76.7118 35.3526 77.4328 35.1649C78.1528 34.9772 79.2018 34.7644 80.4908 34.7769C81.1358 34.7895 81.8308 34.852 82.5508 35.0147C83.3098 35.1899 83.9918 35.4152 84.7508 35.8031C86.2038 36.5289 87.5178 37.8179 88.1878 39.3571C88.8708 40.8839 88.9208 42.5608 88.5798 43.9373C88.2508 45.3389 87.5818 46.4652 86.9118 47.3037C86.2418 48.1421 85.5468 48.7178 85.0538 49.0807C84.5478 49.4436 84.2578 49.6063 84.2578 49.6063L83.5998 48.7803Z" fill="url(#paint6_linear_1418_2193)"/>
<path d="M63.3406 39.3955C63.3406 39.3955 61.3436 42.4489 60.7246 45.2646C60.1046 48.0803 59.2956 53.499 63.6306 58.5297C63.6306 58.5297 67.7766 63.8607 76.3206 63.9107C76.3206 63.9107 82.1466 64.2487 88.5416 60.7447C88.5416 60.7447 92.8766 58.317 95.0756 55.7641L89.4396 51.0462C89.4396 51.0462 86.9876 54.5877 82.4496 56.8153C82.4496 56.8153 75.9286 60.4444 69.5836 57.8039C69.5836 57.8039 63.7826 56.0018 62.7466 48.5183C62.7466 48.5183 62.3676 43.1873 64.4016 39.871L63.3406 39.3955Z" fill="url(#paint7_linear_1418_2193)"/>
<path d="M153.634 108.094C154.874 108.328 155.808 108.696 156.473 109.19L156.482 109.199L156.5 109.208C157.156 109.648 157.623 110.277 157.893 111.104L157.902 111.113V111.131C158.216 111.966 158.387 113.089 158.387 114.527C158.387 115.668 158.189 116.593 157.83 117.348V117.357C157.515 118.049 156.967 118.642 156.132 119.136C155.278 119.63 154.101 120.034 152.556 120.304C150.984 120.529 149.025 120.663 146.662 120.663H145.764V123.871L146.572 123.952C147.013 124.006 147.444 124.042 147.893 124.068C148.342 124.095 148.791 124.104 149.232 124.104C151.657 124.104 154.11 123.754 156.563 123.071L157.273 127.527C154.407 128.228 151.586 128.579 148.809 128.579C144.937 128.579 142.332 127.68 140.795 126.081C139.241 124.437 138.37 121.849 138.37 118.148C138.37 114.437 139.232 111.868 140.795 110.259V110.25C142.359 108.624 144.955 107.717 148.809 107.717C150.768 107.717 152.367 107.852 153.634 108.094ZM152.259 114.788V112.146H149.618C148.549 112.146 147.623 112.254 146.968 112.55H146.959C146.024 112.982 145.764 113.961 145.764 114.859V117.51H148.405C149.456 117.51 150.391 117.411 151.029 117.106C151.972 116.674 152.259 115.722 152.259 114.788Z" fill="white"/>
<path d="M136.213 107.906L136.6 114.087C136.456 114.114 136.312 114.141 136.159 114.168C135.665 114.275 135.153 114.392 134.632 114.545H134.623H134.614C134.093 114.707 133.608 114.904 133.15 115.147C132.664 115.372 132.251 115.668 131.937 116.045L131.73 116.297V127.95H124.974V108.346H127.975L130.679 111.086L131.317 110.502C132.655 109.262 134.291 108.391 136.213 107.906Z" fill="white"/>
<path d="M120.688 108.346V127.932H117.678L114.74 125.084L114.12 125.829C112.62 127.626 110.455 128.57 107.508 128.57C105.064 128.57 103.483 128.049 102.557 127.204C101.659 126.35 101.102 124.841 101.102 122.406V108.346H107.858V124.131H110.077C111.129 124.131 112.063 124.033 112.701 123.727C113.644 123.296 113.932 122.343 113.932 121.409V108.346H120.688Z" fill="white"/>
<path d="M111.697 128.705C111.697 128.717 111.685 128.717 111.697 128.705C111.685 128.717 111.685 128.705 111.697 128.705Z" fill="white"/>
<path d="M97.3649 123.808C97.5259 123.826 97.6879 123.844 97.8589 123.862L97.5709 128.399C96.0169 128.381 94.7139 128.327 93.6629 128.237C92.4049 128.139 91.5699 127.986 91.0929 127.815C90.1769 127.483 89.5569 127.096 89.1619 126.692C88.8469 126.351 88.6229 125.767 88.6229 124.805V112.074H86.4839V108.346H88.6229V104.725L95.3789 103.036V108.346H98.3349V112.074H95.3789V123.44L96.0979 123.584C96.4659 123.655 96.8609 123.727 97.3109 123.808H97.3379H97.3649Z" fill="white"/>
<path d="M83.726 114.168C83.232 114.275 82.72 114.392 82.19 114.545H82.181C81.66 114.707 81.174 114.904 80.716 115.147C80.24 115.372 79.8181 115.668 79.5031 116.045L79.297 116.297V127.95H72.54V108.346H75.541L78.245 111.086L78.883 110.502C80.222 109.262 81.857 108.391 83.78 107.906L84.166 114.087C84.022 114.114 83.879 114.141 83.726 114.168Z" fill="white"/>
<path d="M64.5802 108.094C65.8292 108.328 66.7642 108.696 67.4282 109.19L67.4372 109.199L67.4552 109.208C68.1112 109.648 68.5782 110.277 68.8482 111.104L68.8572 111.113V111.131C69.1712 111.966 69.3422 113.089 69.3422 114.527C69.3422 115.668 69.1442 116.593 68.7852 117.348V117.357C68.4712 118.049 67.9232 118.642 67.0872 119.136C66.2242 119.63 65.0482 120.034 63.5112 120.304C61.9392 120.529 59.9892 120.663 57.6172 120.663H56.7192V123.871L57.5282 123.952C57.9682 124.006 58.3992 124.042 58.8482 124.068C59.2972 124.095 59.7472 124.104 60.1872 124.104C62.6222 124.104 65.0652 123.754 67.5182 123.071L68.2282 127.527C65.3622 128.228 62.5412 128.579 59.7652 128.579C55.8922 128.579 53.2872 127.68 51.7512 126.081C50.1962 124.437 49.3252 121.849 49.3252 118.148C49.3252 114.437 50.1872 111.868 51.7512 110.259V110.25C53.3142 108.624 55.9102 107.717 59.7652 107.717C61.7232 107.717 63.3232 107.852 64.5802 108.094ZM63.2152 114.788V112.146H60.5732C59.5042 112.146 58.5792 112.254 57.9232 112.55L57.9052 112.559C56.9972 112.982 56.7192 113.952 56.7192 114.859V117.51H59.3602C60.4122 117.51 61.3462 117.411 61.9842 117.106C62.9272 116.674 63.2152 115.722 63.2152 114.788Z" fill="white"/>
<path d="M46.306 114.051C46.62 115.354 46.782 116.719 46.782 118.148C46.782 119.531 46.647 120.834 46.369 122.047C46.108 123.233 45.668 124.266 45.075 125.165C44.5 126.009 43.7361 126.683 42.7661 127.186C41.8321 127.671 40.628 127.941 39.118 127.941H33.306V134.418L26.54 134.922V108.346H29.4601L31.5181 111.14L32.236 110.089C33.252 108.597 35.21 107.708 38.481 107.708C40.08 107.708 41.365 107.995 42.371 108.525C43.422 109.082 44.24 109.81 44.859 110.736L44.868 110.745L44.877 110.753C45.533 111.67 46.01 112.757 46.297 114.033L46.306 114.051ZM39.37 121.409V112.137H37.151C36.504 112.137 35.974 112.164 35.543 112.218C34.968 112.281 34.473 112.532 34.06 112.901C33.539 113.341 33.323 113.961 33.297 114.608V114.626V124.131H35.5161C36.5671 124.131 37.5011 124.032 38.1391 123.727C39.0831 123.296 39.37 122.343 39.37 121.409Z" fill="white"/>
<path d="M18.292 103L24.743 127.932H17.592L16.594 123.691H8.113L7.143 127.932H0L6.451 103H18.292ZM15.444 118.678L13.333 109.397H11.437L9.272 118.678H15.444Z" fill="white"/>
</g>
<defs>
<linearGradient id="paint0_linear_1418_2193" x1="36.9999" y1="61.4599" x2="123.634" y2="34.3875" gradientUnits="userSpaceOnUse">
<stop stop-color="#07D5D8"/>
<stop offset="0.6369" stop-color="#6E6EFF"/>
<stop offset="1" stop-color="#6E35FF"/>
</linearGradient>
<linearGradient id="paint1_linear_1418_2193" x1="109.8" y1="41.905" x2="50.3007" y2="44.7113" gradientUnits="userSpaceOnUse">
<stop stop-color="#07D5D8"/>
<stop offset="0.6369" stop-color="#6E6EFF"/>
<stop offset="1" stop-color="#6E35FF"/>
</linearGradient>
<linearGradient id="paint2_linear_1418_2193" x1="120.3" y1="27.2382" x2="35.7698" y2="52.2562" gradientUnits="userSpaceOnUse">
<stop stop-color="#07D5D8"/>
<stop offset="0.6369" stop-color="#6E6EFF"/>
<stop offset="1" stop-color="#6E35FF"/>
</linearGradient>
<linearGradient id="paint3_linear_1418_2193" x1="94.3998" y1="51.6822" x2="67.2468" y2="36.0608" gradientUnits="userSpaceOnUse">
<stop stop-color="#07D5D8"/>
<stop offset="0.6369" stop-color="#6E6EFF"/>
<stop offset="1" stop-color="#6E35FF"/>
</linearGradient>
<linearGradient id="paint4_linear_1418_2193" x1="49.5998" y1="50.9846" x2="108.393" y2="46.7005" gradientUnits="userSpaceOnUse">
<stop stop-color="#07D5D8"/>
<stop offset="0.6369" stop-color="#6E6EFF"/>
<stop offset="1" stop-color="#6E35FF"/>
</linearGradient>
<linearGradient id="paint5_linear_1418_2193" x1="75.4996" y1="39.111" x2="82.4086" y2="51.0366" gradientUnits="userSpaceOnUse">
<stop stop-color="#07D5D8"/>
<stop offset="0.6369" stop-color="#6E6EFF"/>
<stop offset="1" stop-color="#6E35FF"/>
</linearGradient>
<linearGradient id="paint6_linear_1418_2193" x1="83.8998" y1="48.8889" x2="77.6718" y2="38.37" gradientUnits="userSpaceOnUse">
<stop stop-color="#07D5D8"/>
<stop offset="0.6369" stop-color="#6E6EFF"/>
<stop offset="1" stop-color="#6E35FF"/>
</linearGradient>
<linearGradient id="paint7_linear_1418_2193" x1="64.2996" y1="39.1117" x2="92.1876" y2="53.9879" gradientUnits="userSpaceOnUse">
<stop stop-color="#07D5D8"/>
<stop offset="0.6369" stop-color="#6E6EFF"/>
<stop offset="1" stop-color="#6E35FF"/>
</linearGradient>
<clipPath id="clip0_1418_2193">
<rect width="158" height="135" fill="white"/>
</clipPath>
</defs>
</svg>
