<svg width="158" height="135" viewBox="0 0 158 135" fill="none" xmlns="http://www.w3.org/2000/svg">
<g clip-path="url(#clip0_1418_2231)">
<path d="M153.634 108.094C154.874 108.328 155.808 108.696 156.473 109.19L156.482 109.199L156.5 109.208C157.156 109.648 157.623 110.277 157.893 111.104L157.902 111.113V111.131C158.216 111.966 158.387 113.089 158.387 114.527C158.387 115.668 158.189 116.593 157.83 117.348V117.357C157.515 118.049 156.967 118.642 156.132 119.136C155.278 119.63 154.101 120.034 152.556 120.304C150.984 120.529 149.025 120.663 146.662 120.663H145.764V123.871L146.572 123.952C147.013 124.006 147.444 124.042 147.893 124.068C148.342 124.095 148.791 124.104 149.232 124.104C151.657 124.104 154.11 123.754 156.563 123.071L157.273 127.527C154.407 128.228 151.586 128.579 148.809 128.579C144.937 128.579 142.332 127.68 140.795 126.081C139.241 124.437 138.37 121.849 138.37 118.148C138.37 114.437 139.232 111.868 140.795 110.259V110.25C142.359 108.624 144.955 107.717 148.809 107.717C150.768 107.717 152.367 107.852 153.634 108.094ZM152.259 114.788V112.146H149.618C148.549 112.146 147.623 112.254 146.968 112.55H146.959C146.024 112.982 145.764 113.961 145.764 114.859V117.51H148.405C149.456 117.51 150.391 117.411 151.029 117.106C151.972 116.674 152.259 115.722 152.259 114.788Z" fill="white"/>
<path d="M136.213 107.906L136.6 114.087C136.456 114.114 136.312 114.141 136.159 114.168C135.665 114.275 135.153 114.392 134.632 114.545H134.623H134.614C134.093 114.707 133.608 114.904 133.15 115.147C132.664 115.372 132.251 115.668 131.937 116.045L131.73 116.297V127.95H124.974V108.346H127.975L130.679 111.086L131.317 110.502C132.655 109.262 134.291 108.391 136.213 107.906Z" fill="white"/>
<path d="M120.688 108.346V127.932H117.678L114.74 125.084L114.12 125.829C112.62 127.626 110.455 128.57 107.508 128.57C105.064 128.57 103.483 128.049 102.557 127.204C101.659 126.35 101.102 124.841 101.102 122.406V108.346H107.858V124.131H110.077C111.129 124.131 112.063 124.033 112.701 123.727C113.644 123.296 113.932 122.343 113.932 121.409V108.346H120.688Z" fill="white"/>
<path d="M111.697 128.705C111.697 128.717 111.685 128.717 111.697 128.705C111.685 128.717 111.685 128.705 111.697 128.705Z" fill="white"/>
<path d="M97.3649 123.808C97.5259 123.826 97.6879 123.844 97.8589 123.862L97.5709 128.399C96.0169 128.381 94.7139 128.327 93.6629 128.237C92.4049 128.139 91.5699 127.986 91.0929 127.815C90.1769 127.483 89.5569 127.096 89.1619 126.692C88.8469 126.351 88.6229 125.767 88.6229 124.805V112.074H86.4839V108.346H88.6229V104.725L95.3789 103.036V108.346H98.3349V112.074H95.3789V123.44L96.0979 123.584C96.4659 123.655 96.8609 123.727 97.3109 123.808H97.3379H97.3649Z" fill="white"/>
<path d="M83.726 114.168C83.232 114.275 82.72 114.392 82.19 114.545H82.181C81.66 114.707 81.174 114.904 80.716 115.147C80.24 115.372 79.8181 115.668 79.5031 116.045L79.297 116.297V127.95H72.54V108.346H75.541L78.245 111.086L78.883 110.502C80.222 109.262 81.857 108.391 83.78 107.906L84.166 114.087C84.022 114.114 83.879 114.141 83.726 114.168Z" fill="white"/>
<path d="M64.5802 108.094C65.8292 108.328 66.7642 108.696 67.4282 109.19L67.4372 109.199L67.4552 109.208C68.1112 109.648 68.5782 110.277 68.8482 111.104L68.8572 111.113V111.131C69.1712 111.966 69.3422 113.089 69.3422 114.527C69.3422 115.668 69.1442 116.593 68.7852 117.348V117.357C68.4712 118.049 67.9232 118.642 67.0872 119.136C66.2242 119.63 65.0482 120.034 63.5112 120.304C61.9392 120.529 59.9892 120.663 57.6172 120.663H56.7192V123.871L57.5282 123.952C57.9682 124.006 58.3992 124.042 58.8482 124.068C59.2972 124.095 59.7472 124.104 60.1872 124.104C62.6222 124.104 65.0652 123.754 67.5182 123.071L68.2282 127.527C65.3622 128.228 62.5412 128.579 59.7652 128.579C55.8922 128.579 53.2872 127.68 51.7512 126.081C50.1962 124.437 49.3252 121.849 49.3252 118.148C49.3252 114.437 50.1872 111.868 51.7512 110.259V110.25C53.3142 108.624 55.9102 107.717 59.7652 107.717C61.7232 107.717 63.3232 107.852 64.5802 108.094ZM63.2152 114.788V112.146H60.5732C59.5042 112.146 58.5792 112.254 57.9232 112.55L57.9052 112.559C56.9972 112.982 56.7192 113.952 56.7192 114.859V117.51H59.3602C60.4122 117.51 61.3462 117.411 61.9842 117.106C62.9272 116.674 63.2152 115.722 63.2152 114.788Z" fill="white"/>
<path d="M46.306 114.051C46.62 115.354 46.782 116.719 46.782 118.148C46.782 119.531 46.647 120.834 46.369 122.047C46.108 123.233 45.668 124.266 45.075 125.165C44.5 126.009 43.736 126.683 42.766 127.186C41.832 127.671 40.628 127.941 39.118 127.941H33.306V134.418L26.54 134.922V108.346H29.46L31.518 111.14L32.236 110.089C33.252 108.597 35.21 107.708 38.481 107.708C40.08 107.708 41.365 107.995 42.371 108.525C43.422 109.082 44.24 109.81 44.859 110.736L44.868 110.745L44.877 110.753C45.533 111.67 46.01 112.757 46.297 114.033L46.306 114.051ZM39.37 121.409V112.137H37.151C36.504 112.137 35.974 112.164 35.543 112.218C34.968 112.281 34.473 112.532 34.06 112.901C33.539 113.341 33.323 113.961 33.297 114.608V114.626V124.131H35.516C36.567 124.131 37.501 124.032 38.139 123.727C39.083 123.296 39.37 122.343 39.37 121.409Z" fill="white"/>
<path d="M18.292 103L24.743 127.932H17.592L16.594 123.691H8.113L7.143 127.932H0L6.451 103H18.292ZM15.444 118.678L13.333 109.397H11.437L9.272 118.678H15.444Z" fill="white"/>
<path d="M39.3191 60.4684C39.3191 60.4684 39.4441 60.9315 39.6941 61.7824C39.9571 62.6338 40.3701 63.8598 41.0451 65.3738C42.3711 68.3648 44.8611 72.4948 49.2141 76.0488C53.5051 79.6148 59.6851 82.3688 66.6151 83.0688C70.1181 83.4448 73.6701 83.3318 77.2981 82.7688C80.8761 82.2178 84.5291 81.1548 87.9071 79.7658C91.3221 78.3508 94.5741 76.5618 97.5261 74.4968C100.541 72.3948 103.156 70.1168 105.52 67.6268C107.884 65.1238 109.811 62.5958 111.487 59.9303C113.113 57.3274 114.377 54.7244 115.315 52.2591C116.241 49.8313 116.891 47.4036 117.242 45.4138C117.617 43.349 117.767 41.5469 117.805 40.0703C117.867 37.1169 117.592 35.4775 117.592 35.4775L127.937 34.6641C127.937 34.6641 128.138 36.8916 127.787 40.721C127.6 42.6232 127.249 44.9258 126.586 47.4662C125.911 50.0816 124.973 52.7722 123.622 55.713C122.283 58.6163 120.544 61.5947 118.418 64.5228C116.328 67.4018 113.739 70.3298 110.887 72.9448C108.035 75.5728 104.707 78.0638 101.254 80.1158C97.7391 82.2178 93.9611 83.9698 90.0211 85.2838C86.0431 86.5978 82.0271 87.4618 77.9491 87.8118C73.9081 88.1628 69.7921 87.9998 66.0151 87.3238C58.3461 85.9978 51.7161 82.4558 47.2881 78.2138C42.8091 73.9838 40.4701 69.3538 39.2811 66.0878C38.6811 64.4478 38.3311 63.1088 38.1181 62.2078C37.9301 61.3069 37.8301 60.8188 37.8301 60.8188L39.3191 60.4684Z" fill="url(#paint0_linear_1418_2231)"/>
<path d="M108.61 41.8477C108.61 41.8477 108.798 40.4711 108.66 38.181C108.522 35.8909 107.947 32.5496 106.008 29.1833C104.995 27.4814 103.806 25.9171 102.042 24.4404C100.404 23.0263 98.3771 21.8124 96.1631 20.8989C93.9491 19.9853 91.5091 19.3972 88.9951 19.1344C87.7441 19.0217 86.4681 18.9467 85.1921 18.9842C84.5661 18.9842 83.9531 19.0468 83.2281 19.0843C82.5901 19.1594 82.0141 19.1969 81.3761 19.3096C76.3101 20.0229 71.4941 22.0252 67.6281 24.6531C65.6641 25.9922 64.0261 27.4063 62.5871 28.9831C61.1981 30.4973 60.0351 32.1241 59.1341 33.6634C57.3331 36.7669 56.5071 39.6201 56.1571 41.5974C55.8071 43.5872 55.8071 44.726 55.8071 44.726L46.6621 43.8625C46.6621 43.8625 46.8251 42.2606 47.5631 39.5701C48.3011 36.9046 49.7651 33.1753 52.4791 29.3835C53.8301 27.4814 55.4561 25.5917 57.4451 23.8022C59.3721 22.0502 61.6861 20.3733 64.1381 19.0343C69.0791 16.2936 74.9341 14.4791 80.8761 14.1787C81.6021 14.1287 82.4151 14.1287 83.1531 14.1162C83.8031 14.1412 84.5661 14.1412 85.3171 14.2038C86.7931 14.2789 88.2571 14.5041 89.6831 14.7669C92.5481 15.33 95.3001 16.2686 97.7641 17.5451C100.229 18.834 102.405 20.4108 104.194 22.2629C105.933 23.9899 107.322 26.1423 108.222 28.0695C110.061 32.0616 110.324 35.7157 110.249 38.1685C110.211 39.3949 110.099 40.3835 109.999 41.0343C109.899 41.6725 109.848 42.0104 109.848 42.0104L108.61 41.8477Z" fill="url(#paint1_linear_1418_2231)"/>
<path d="M119.356 27.9069C119.356 27.9069 119.206 27.469 118.931 26.6305C118.643 25.8171 118.18 24.6156 117.442 23.1765C116.003 20.3107 113.389 16.3437 109.11 12.8523C104.87 9.37335 98.9402 6.42005 92.1972 5.48145C88.7822 4.98085 85.3422 4.95585 81.8022 5.43135C78.2872 5.90695 74.8092 6.85805 71.4942 8.24705C64.8512 10.9876 58.9972 15.3927 54.5182 20.2857C50.0152 25.1913 46.8122 30.5849 44.9232 35.3654C44.4352 36.5792 44.0602 37.693 43.6972 38.8818C43.3722 39.9581 43.1092 41.0218 42.8972 42.0229C42.4712 44.0252 42.2712 45.7647 42.1962 47.1913C42.0462 50.0445 42.2712 51.6213 42.2712 51.6213L31.0132 52.1219C31.0132 52.1219 30.8872 49.8818 31.4132 46.1026C31.6762 44.2254 32.1262 41.9604 32.8642 39.4701C33.2392 38.2312 33.6772 36.9297 34.2272 35.5532C34.7282 34.2892 35.3532 32.85 36.0412 31.4609C38.8192 25.817 43.0592 19.8727 48.7142 14.6168C54.3432 9.37335 61.4492 4.89325 69.2802 2.35285C73.1832 1.07645 77.2732 0.275548 81.3012 0.062748C85.3042 -0.162452 89.3952 0.187949 93.0732 1.03885C100.579 2.70325 106.846 6.49505 111.149 10.6372C115.49 14.817 117.905 19.2345 119.206 22.4006C119.856 23.9899 120.232 25.2789 120.482 26.1674C120.694 27.0559 120.819 27.5189 120.819 27.5189L119.356 27.9069Z" fill="url(#paint2_linear_1418_2231)"/>
<path d="M93.5862 51.1829C93.5862 51.1829 93.9241 50.4445 94.4991 49.1556C94.6491 48.8302 94.8122 48.4798 94.9742 48.0918C95.1002 47.7164 95.2371 47.3034 95.3871 46.878C95.6621 45.9644 95.9002 44.9258 96.0502 43.787C96.3512 41.5094 96.2132 38.7813 95.1252 36.2784C94.0742 33.7881 91.9722 31.6607 89.3952 30.6095C86.8182 29.5207 83.8912 29.4206 81.3392 29.9838C78.7122 30.5469 76.5601 31.6982 74.8461 32.9496C73.1701 34.1886 72.0071 35.5025 71.2691 36.4536C70.5311 37.4172 70.1801 38.0054 70.1801 38.0054L64.7642 34.151C64.7642 34.151 65.3271 33.4002 66.4521 32.2363C67.5911 31.0725 69.3051 29.5207 71.7191 28.1192C74.0711 26.7551 77.2112 25.5287 80.6132 25.2033C84.0412 24.8529 87.8561 25.3911 91.1091 27.2181C94.3871 29.0077 96.7882 32.1362 97.7392 35.3399C98.7272 38.5685 98.4901 41.6846 97.9021 44.1248C97.6011 45.3637 97.2262 46.4525 96.8262 47.391C96.5882 47.9166 96.4631 48.217 96.2001 48.7176C95.9881 49.0805 95.7882 49.4184 95.6002 49.7312C94.8872 50.9451 94.4742 51.6459 94.4742 51.6459L93.5862 51.1829Z" fill="url(#paint3_linear_1418_2231)"/>
<path d="M52.0542 50.4703C52.0542 50.4703 52.0662 50.7957 52.0792 51.4089C52.1042 51.9971 52.1542 52.848 52.3292 53.9368C52.6542 56.0892 53.4672 59.1927 55.5312 62.2585C56.5202 63.7475 57.9582 65.3374 59.5472 66.5764C61.1862 67.8774 63.1372 68.9664 65.2892 69.7424C67.4412 70.5054 69.7802 70.9815 72.1822 71.1065C74.5462 71.2565 77.0612 71.0184 79.4252 70.5434C84.2162 69.5544 88.7202 67.4144 92.3602 64.7244C93.2862 64.0604 94.1362 63.3475 94.9622 62.6345L96.1882 61.5079L97.2392 60.4315C98.6402 58.9298 99.8282 57.4031 100.791 55.9139C102.718 52.948 103.794 50.2451 104.344 48.3304C104.907 46.4157 105.045 45.3145 105.045 45.3145L112.788 46.9163C112.788 46.9163 112.475 48.3679 111.562 50.7707C110.662 53.1609 109.035 56.4396 106.408 59.8435C105.095 61.5454 103.544 63.2595 101.742 64.8995C101.267 65.3125 100.791 65.7375 100.304 66.1505C99.8282 66.5265 99.3532 66.9015 98.8652 67.2895C97.8392 68.0525 96.7762 68.8034 95.6502 69.4914C91.1722 72.2824 85.7922 74.3344 80.2012 75.0604C77.3862 75.3984 74.5962 75.4484 71.8192 75.0734C69.0672 74.7224 66.4022 73.9725 64.0012 72.8835C61.5992 71.7945 59.4472 70.3674 57.6962 68.7284C55.8692 67.0514 54.5682 65.3245 53.5302 63.4975C51.4782 59.881 50.8902 56.452 50.7282 54.1369C50.6402 52.9731 50.6532 52.0346 50.6782 51.4089C50.7152 50.7957 50.7282 50.4827 50.7282 50.4827L52.0542 50.4703Z" fill="url(#paint4_linear_1418_2231)"/>
<path d="M76.7103 39.6574C76.7103 39.6574 75.6853 40.4584 74.7593 42.0602C73.8333 43.5994 73.3333 46.1773 74.4963 47.7916C74.9973 48.5049 75.8103 49.043 76.6483 49.2307C76.8483 49.2808 77.0983 49.3183 77.2613 49.3309C77.6363 49.3809 77.6613 49.3559 77.9113 49.3559C78.3243 49.3434 78.7123 49.2808 79.0753 49.1932C80.5133 48.8303 81.3143 48.167 81.3143 48.167L83.6913 52.6346C83.6913 52.6346 83.3033 52.8224 82.6023 53.0602C81.9023 53.298 80.8763 53.5857 79.5883 53.6483C78.9503 53.6733 78.2493 53.6608 77.5113 53.5356C77.1863 53.4856 76.6353 53.3604 76.4233 53.2854C75.9973 53.1602 75.6603 53.0351 75.2593 52.8473C73.7583 52.1591 72.3573 50.8826 71.6443 49.1932C70.9563 47.6039 70.9933 45.8018 71.3943 44.4002C71.7943 42.9611 72.5073 41.8223 73.2083 40.9714C73.9083 40.1079 74.6093 39.5322 75.1093 39.1443C75.6223 38.7563 75.9223 38.5938 75.9223 38.5938L76.7103 39.6574Z" fill="url(#paint5_linear_1418_2231)"/>
<path d="M84.0541 48.7803C84.0541 48.7803 85.0671 47.9794 85.8801 46.3901C86.2801 45.6017 86.5931 44.6131 86.6051 43.612C86.6431 42.5983 86.3551 41.5847 85.7921 40.8213C85.2421 40.0579 84.4411 39.5699 83.6161 39.3571C83.2281 39.257 82.7531 39.1945 82.3901 39.1945C81.9891 39.1945 81.6141 39.2445 81.2641 39.3071C79.8631 39.6074 79.0871 40.2081 79.0871 40.2081L76.8481 35.5153C76.8481 35.5153 77.2361 35.3526 77.9491 35.1649C78.6621 34.9772 79.7001 34.7644 80.9761 34.7769C81.6141 34.7895 82.3021 34.852 83.0151 35.0147C83.7661 35.1899 84.4411 35.4152 85.1921 35.8031C86.6311 36.5289 87.9321 37.8179 88.5951 39.3571C89.2701 40.8839 89.3201 42.5608 88.9821 43.9373C88.6571 45.3389 87.9941 46.4652 87.3311 47.3037C86.6681 48.1421 85.9801 48.7178 85.4921 49.0807C84.9921 49.4436 84.7041 49.6063 84.7041 49.6063L84.0541 48.7803Z" fill="url(#paint6_linear_1418_2231)"/>
<path d="M64.0015 39.3955C64.0015 39.3955 62.0245 42.4489 61.4115 45.2646C60.7985 48.0803 59.9975 53.499 64.2885 58.5297C64.2885 58.5297 68.3915 63.8607 76.8485 63.9107C76.8485 63.9107 82.6155 64.2487 88.9455 60.7447C88.9455 60.7447 93.2365 58.317 95.4125 55.7641L89.8335 51.0462C89.8335 51.0462 87.4065 54.5877 82.9155 56.8153C82.9155 56.8153 76.4605 60.4444 70.1805 57.8039C70.1805 57.8039 64.4385 56.0018 63.4135 48.5183C63.4135 48.5183 63.0375 43.1873 65.0515 39.871L64.0015 39.3955Z" fill="url(#paint7_linear_1418_2231)"/>
</g>
<defs>
<linearGradient id="paint0_linear_1418_2231" x1="121.764" y1="34.9202" x2="43.6021" y2="12.3289" gradientUnits="userSpaceOnUse">
<stop stop-color="#D8D8D8"/>
<stop offset="0.288174" stop-color="#919191"/>
<stop offset="1" stop-color="#444444"/>
</linearGradient>
<linearGradient id="paint1_linear_1418_2231" x1="50.5871" y1="44.468" x2="88.9051" y2="70.4382" gradientUnits="userSpaceOnUse">
<stop stop-color="#D8D8D8"/>
<stop offset="0.269639" stop-color="#919191"/>
<stop offset="1" stop-color="#444444"/>
</linearGradient>
<linearGradient id="paint2_linear_1418_2231" x1="36.5432" y1="51.6827" x2="98.2342" y2="73.7172" gradientUnits="userSpaceOnUse">
<stop stop-color="#D8D8D8"/>
<stop offset="0.288174" stop-color="#919191"/>
<stop offset="1" stop-color="#444444"/>
</linearGradient>
<linearGradient id="paint3_linear_1418_2231" x1="64.9502" y1="38.4123" x2="76.9092" y2="58.8759" gradientUnits="userSpaceOnUse">
<stop stop-color="#D8D8D8"/>
<stop offset="0.331064" stop-color="#919191"/>
<stop offset="1" stop-color="#444444"/>
</linearGradient>
<linearGradient id="paint4_linear_1418_2231" x1="109.986" y1="46.0957" x2="74.6042" y2="17.5496" gradientUnits="userSpaceOnUse">
<stop stop-color="#D8D8D8"/>
<stop offset="0.288174" stop-color="#919191"/>
<stop offset="1" stop-color="#444444"/>
</linearGradient>
<linearGradient id="paint5_linear_1418_2231" x1="85.0433" y1="49.5872" x2="85.1783" y2="40.7435" gradientUnits="userSpaceOnUse">
<stop stop-color="#D8D8D8"/>
<stop offset="0.500549" stop-color="#919191"/>
<stop offset="1" stop-color="#444444"/>
</linearGradient>
<linearGradient id="paint6_linear_1418_2231" x1="73.2641" y1="39.1111" x2="74.4091" y2="48.7888" gradientUnits="userSpaceOnUse">
<stop stop-color="#D8D8D8"/>
<stop offset="0.551338" stop-color="#919191"/>
<stop offset="1" stop-color="#444444"/>
</linearGradient>
<linearGradient id="paint7_linear_1418_2231" x1="91.9715" y1="50.2863" x2="77.4285" y2="29.946" gradientUnits="userSpaceOnUse">
<stop stop-color="#D8D8D8"/>
<stop offset="0.424241" stop-color="#919191"/>
<stop offset="1" stop-color="#444444"/>
</linearGradient>
<clipPath id="clip0_1418_2231">
<rect width="158" height="135" fill="white"/>
</clipPath>
</defs>
</svg>
