<?xml version="1.0" encoding="UTF-8"?>
<svg width="365px" height="210px" viewBox="0 0 365 210" version="1.1" xmlns="http://www.w3.org/2000/svg" xmlns:xlink="http://www.w3.org/1999/xlink">
    <title>7@3x</title>
    <defs>
        <linearGradient x1="100%" y1="32.1844765%" x2="-3.42594313%" y2="46.0954711%" id="linearGradient-1">
            <stop stop-color="#FFFFFF" offset="0%"></stop>
            <stop stop-color="#FFFFFF" stop-opacity="0" offset="100%"></stop>
        </linearGradient>
        <linearGradient x1="5.31774304e-16%" y1="64.051951%" x2="100%" y2="63.0004081%" id="linearGradient-2">
            <stop stop-color="#FFFFFF" offset="0%"></stop>
            <stop stop-color="#FFFFFF" stop-opacity="0" offset="100%"></stop>
        </linearGradient>
        <linearGradient x1="100%" y1="50%" x2="-1.92684099e-14%" y2="65.7123551%" id="linearGradient-3">
            <stop stop-color="#FFFFFF" stop-opacity="0" offset="0%"></stop>
            <stop stop-color="#FFFFFF" offset="100%"></stop>
        </linearGradient>
        <linearGradient x1="-2.82765805e-14%" y1="40.5406009%" x2="94.994271%" y2="77.9111721%" id="linearGradient-4">
            <stop stop-color="#FFFFFF" offset="0%"></stop>
            <stop stop-color="#FFFFFF" stop-opacity="0" offset="100%"></stop>
        </linearGradient>
        <linearGradient x1="100%" y1="56.2713624%" x2="3.53749958%" y2="28.4191116%" id="linearGradient-5">
            <stop stop-color="#FFFFFF" offset="0%"></stop>
            <stop stop-color="#FFFFFF" stop-opacity="0" offset="100%"></stop>
        </linearGradient>
        <linearGradient x1="100%" y1="37.3447669%" x2="-3.27034871e-14%" y2="40.0317097%" id="linearGradient-6">
            <stop stop-color="#FFFFFF" offset="0%"></stop>
            <stop stop-color="#FFFFFF" stop-opacity="0" offset="100%"></stop>
        </linearGradient>
        <linearGradient x1="98.6733611%" y1="85.5335054%" x2="17.4557318%" y2="1.65107623e-15%" id="linearGradient-7">
            <stop stop-color="#FFFFFF" offset="0%"></stop>
            <stop stop-color="#FFFFFF" stop-opacity="0" offset="100%"></stop>
        </linearGradient>
        <linearGradient x1="7.48200731%" y1="17.3655691%" x2="88.6888068%" y2="99.4889847%" id="linearGradient-8">
            <stop stop-color="#FFFFFF" offset="0%"></stop>
            <stop stop-color="#FFFFFF" stop-opacity="0" offset="100%"></stop>
        </linearGradient>
        <linearGradient x1="87.8560114%" y1="84.3557671%" x2="15.9015878%" y2="1.04011886e-13%" id="linearGradient-9">
            <stop stop-color="#FFFFFF" offset="0%"></stop>
            <stop stop-color="#FFFFFF" stop-opacity="0" offset="100%"></stop>
        </linearGradient>
        <linearGradient x1="15.6666834%" y1="24.6241098%" x2="61.8707792%" y2="105.532746%" id="linearGradient-10">
            <stop stop-color="#FFFFFF" offset="0%"></stop>
            <stop stop-color="#FFFFFF" stop-opacity="0" offset="100%"></stop>
        </linearGradient>
    </defs>
    <g id="页面-1" stroke="none" stroke-width="1" fill="none" fill-rule="evenodd">
        <g id="Brand-book备份" transform="translate(-345.000000, -1249.000000)">
            <g id="7" transform="translate(345.000000, 1249.000000)">
                <rect id="矩形" fill="#000000" opacity="0" x="0" y="0" width="365" height="210"></rect>
                <g id="编组-8" transform="translate(100.000000, 40.000000)">
                    <g id="Aperture-2备份-4" transform="translate(0.000000, 98.000000)" fill="#FFFFFF" fill-rule="nonzero">
                        <path d="M6.02185401,24.3478261 L7.61436812,20.5913043 L18.123169,20.5913043 L19.7246442,24.3478261 L25.8693932,24.3478261 L15.6076624,0 L10.2924546,0 L0,24.3478261 L6.02185401,24.3478261 Z M16.047396,15.7217391 L9.67861973,15.7217391 L11.5214044,11.373913 C11.6750231,10.973913 11.8228811,10.5934783 11.9649784,10.2326087 L12.1051555,9.87826087 C12.289498,9.41449275 12.4687198,8.96231884 12.642821,8.52173913 C12.6863463,8.4115942 12.7285915,8.30072464 12.7695565,8.18913043 L12.8828503,7.86956522 L13.0575916,8.4173913 C13.1651247,8.74782609 13.2841792,9.08804348 13.4147551,9.43804348 L13.5491715,9.79130435 C13.733514,10.2666667 13.9485802,10.7942029 14.1943702,11.373913 L14.1943702,11.373913 L16.047396,15.7217391 Z M32.8385627,32 L32.8385627,22.3536232 L32.8846483,22.4 C33.5136317,23.0164251 34.3018166,23.5256844 35.2492032,23.9277778 L35.5115285,24.0347826 C36.5766183,24.4521739 37.7646032,24.6608696 39.0754829,24.6608696 C40.8574601,24.6608696 42.4192505,24.2550725 43.760854,23.4434783 C45.1024576,22.6318841 46.1470649,21.5014493 46.894676,20.0521739 C47.6422871,18.6028986 48.0160927,16.9391304 48.0160927,15.0608696 C48.0160927,13.1362319 47.6474078,11.4550725 46.9100379,10.0173913 C46.172668,8.57971014 45.1485432,7.45507246 43.8376634,6.64347826 C42.5267836,5.83188406 40.9803551,5.42608696 39.1983779,5.42608696 C37.8874981,5.42608696 36.6790308,5.62318841 35.572976,6.0173913 C34.4669212,6.4115942 33.5656913,6.92173913 32.8692865,7.54782609 C32.8157169,7.59598662 32.7637228,7.64449018 32.7133044,7.69333676 L32.5767708,7.83115942 L32.439154,5.77391304 L27.0932224,5.77391304 L27.0932224,32 L32.8385627,32 Z M37.5700194,19.3391304 C36.5663771,19.3391304 35.695871,19.1652174 34.9585011,18.8173913 C34.2211312,18.4695652 33.6578626,17.9710145 33.2686951,17.3217391 C32.8795277,16.6724638 32.684944,15.9188406 32.684944,15.0608696 C32.684944,14.1797101 32.8795277,13.4202899 33.2686951,12.7826087 C33.6578626,12.1449275 34.2211312,11.6463768 34.9585011,11.2869565 C35.695871,10.9275362 36.5766183,10.7478261 37.6007432,10.7478261 C38.583903,10.7478261 39.4339266,10.9217391 40.150814,11.2695652 C40.8677014,11.6173913 41.4207288,12.1101449 41.8098962,12.7478261 C42.1990637,13.3855072 42.3936474,14.1565217 42.3936474,15.0608696 C42.3936474,15.9188406 42.2041843,16.6724638 41.8252581,17.3217391 C41.4463319,17.9710145 40.8933045,18.4695652 40.1661759,18.8173913 C39.4390473,19.1652174 38.5736618,19.3391304 37.5700194,19.3391304 Z M59.8703376,24.6956522 C60.914945,24.6956522 61.9237079,24.6028986 62.8966265,24.4173913 C63.8695451,24.2318841 64.8117399,23.942029 65.723211,23.5478261 C66.6346821,23.1536232 67.4898264,22.6782609 68.2886437,22.1217391 L68.2886437,22.1217391 L65.8307442,18.1217391 C65.4210942,18.3768116 64.8066193,18.6492754 63.9873195,18.9391304 C63.1680196,19.2289855 62.0926885,19.373913 60.7613262,19.373913 C59.3685165,19.373913 58.1702904,19.1594203 57.1666481,18.7304348 C56.1630057,18.3014493 55.4000327,17.7275362 54.8777291,17.0086957 C54.7658069,16.8546584 54.6658763,16.696362 54.5779374,16.5338066 L54.5711317,16.5217391 L68.9338424,16.5217391 L68.9645661,14.9565217 C69.0055311,13.5188406 68.7802237,12.2202899 68.2886437,11.0608696 C67.7970638,9.90144928 67.1006589,8.89855072 66.1994291,8.05217391 C65.2981992,7.2057971 64.2484713,6.55652174 63.0502452,6.10434783 C61.8520192,5.65217391 60.5360188,5.42608696 59.102244,5.42608696 C57.7094342,5.42608696 56.3934338,5.65217391 55.1542428,6.10434783 C53.9150517,6.55652174 52.8243588,7.2057971 51.882164,8.05217391 C50.9399691,8.89855072 50.1974786,9.91884058 49.6546924,11.1130435 C49.1119063,12.3072464 48.8405132,13.6347826 48.8405132,15.0956522 C48.8405132,16.9275362 49.2911281,18.573913 50.192358,20.0347826 C51.0935878,21.4956522 52.3737439,22.6376812 54.0328261,23.4608696 C55.6919083,24.284058 57.6377455,24.6956522 59.8703376,24.6956522 Z M63.7562513,12.9043478 L54.4085519,12.9043478 L54.4255992,12.864214 C54.4992271,12.6983278 54.5851263,12.5404682 54.6832969,12.3906355 L54.7855578,12.2434783 C55.246414,11.6173913 55.8660095,11.1594203 56.6443444,10.8695652 C57.4226793,10.5797101 58.2829441,10.4347826 59.225139,10.4347826 C60.0239564,10.4347826 60.7613262,10.5565217 61.4372486,10.8 C62.113171,11.0434783 62.6661984,11.3681159 63.0963309,11.773913 C63.4091544,12.0690382 63.6190577,12.4040244 63.7260407,12.7788717 L63.7562513,12.9043478 Z M78.0229503,24.3478261 L78.0229503,16.3130435 C78.0229503,15.7797101 78.1048803,15.2753623 78.2687402,14.8 C78.4326002,14.3246377 78.6886314,13.8956522 79.0368339,13.5130435 C79.3850363,13.1304348 79.8151687,12.8173913 80.3272311,12.573913 C80.8392936,12.3304348 81.4435272,12.2086957 82.1399321,12.2086957 C82.8568195,12.2086957 83.5685862,12.3130435 84.2752324,12.5217391 C84.9818785,12.7304348 85.519544,12.9855072 85.888229,13.2869565 L85.888229,13.2869565 L87.45514,6.29565217 C87.004525,6.0173913 86.4514976,5.80289855 85.7960577,5.65217391 C85.1406178,5.50144928 84.4749367,5.42608696 83.7990143,5.42608696 C82.6519945,5.42608696 81.5664222,5.74492754 80.5422974,6.3826087 C79.5181725,7.02028986 78.6271839,7.87246377 77.8693315,8.93913043 L77.8693315,8.93913043 L77.8002031,9.03985507 L77.6542653,5.80869565 L72.3083337,5.80869565 L72.3083337,24.3478261 L78.0229503,24.3478261 Z M98.3876725,24.3478261 L98.3876725,11.3043478 L103.2113,11.3043478 L103.2113,5.80869565 L98.3876725,5.80869565 L98.3876725,0.27826087 L92.673056,0.27826087 L92.673056,5.80869565 L88.4946267,5.80869565 L88.4946267,11.3043478 L92.673056,11.3043478 L92.673056,24.3478261 L98.3876725,24.3478261 Z M113.590806,24.7304348 C114.901685,24.7304348 116.079429,24.5043478 117.124036,24.0521739 C118.168644,23.6 119.034029,23.0202899 119.720193,22.3130435 C119.834553,22.1951691 119.942798,22.0771337 120.044926,21.9589372 L120.145205,21.8398551 L120.35003,24.3478261 L125.634514,24.3478261 L125.634514,5.80869565 L119.919897,5.80869565 L119.919897,14.8869565 C119.919897,15.5362319 119.812364,16.1217391 119.597298,16.6434783 C119.382232,17.1652174 119.080115,17.6057971 118.690947,17.9652174 C118.30178,18.3246377 117.856286,18.5971014 117.354464,18.7826087 C116.852643,18.9681159 116.314978,19.0608696 115.741468,19.0608696 C114.94265,19.0608696 114.28209,18.9043478 113.759786,18.5913043 C113.237483,18.2782609 112.863677,17.7971014 112.63837,17.1478261 C112.413062,16.4985507 112.300408,15.6637681 112.300408,14.6434783 L112.300408,14.6434783 L112.300408,5.80869565 L106.585792,5.80869565 L106.585792,15.5826087 C106.585792,17.5304348 106.872547,19.1884058 107.446057,20.5565217 C108.019567,21.9246377 108.828625,22.9623188 109.873233,23.6695652 C110.91784,24.3768116 112.157031,24.7304348 113.590806,24.7304348 Z M136.659217,24.3478261 L136.659217,16.3130435 C136.659217,15.7797101 136.741147,15.2753623 136.905007,14.8 C137.068867,14.3246377 137.324899,13.8956522 137.673101,13.5130435 C138.021304,13.1304348 138.451436,12.8173913 138.963498,12.573913 C139.475561,12.3304348 140.079794,12.2086957 140.776199,12.2086957 C141.493087,12.2086957 142.204853,12.3130435 142.9115,12.5217391 C143.618146,12.7304348 144.155811,12.9855072 144.524496,13.2869565 L144.524496,13.2869565 L146.091407,6.29565217 C145.640792,6.0173913 145.087765,5.80289855 144.432325,5.65217391 C143.776885,5.50144928 143.111204,5.42608696 142.435282,5.42608696 C141.288262,5.42608696 140.202689,5.74492754 139.178565,6.3826087 C138.15444,7.02028986 137.263451,7.87246377 136.505599,8.93913043 L136.505599,8.93913043 L136.43647,9.03985507 L136.290533,5.80869565 L130.944601,5.80869565 L130.944601,24.3478261 L136.659217,24.3478261 Z M156.901045,24.6956522 C157.945652,24.6956522 158.954415,24.6028986 159.927334,24.4173913 C160.900252,24.2318841 161.842447,23.942029 162.753918,23.5478261 C163.665389,23.1536232 164.520534,22.6782609 165.319351,22.1217391 L165.319351,22.1217391 L162.861451,18.1217391 C162.451801,18.3768116 161.837326,18.6492754 161.018027,18.9391304 C160.198727,19.2289855 159.123396,19.373913 157.792033,19.373913 C156.399224,19.373913 155.200998,19.1594203 154.197355,18.7304348 C153.193713,18.3014493 152.43074,17.7275362 151.908436,17.0086957 C151.796514,16.8546584 151.696583,16.696362 151.608645,16.5338066 L151.601839,16.5217391 L165.96455,16.5217391 L165.995273,14.9565217 C166.036238,13.5188406 165.810931,12.2202899 165.319351,11.0608696 C164.827771,9.90144928 164.131366,8.89855072 163.230136,8.05217391 C162.328906,7.2057971 161.279178,6.55652174 160.080952,6.10434783 C158.882726,5.65217391 157.566726,5.42608696 156.132951,5.42608696 C154.740141,5.42608696 153.424141,5.65217391 152.18495,6.10434783 C150.945759,6.55652174 149.855066,7.2057971 148.912871,8.05217391 C147.970676,8.89855072 147.228186,9.91884058 146.6854,11.1130435 C146.142613,12.3072464 145.87122,13.6347826 145.87122,15.0956522 C145.87122,16.9275362 146.321835,18.573913 147.223065,20.0347826 C148.124295,21.4956522 149.404451,22.6376812 151.063533,23.4608696 C152.722615,24.284058 154.668453,24.6956522 156.901045,24.6956522 Z M160.786958,12.9043478 L151.439259,12.9043478 L151.456306,12.864214 C151.529934,12.6983278 151.615833,12.5404682 151.714004,12.3906355 L151.816265,12.2434783 C152.277121,11.6173913 152.896717,11.1594203 153.675052,10.8695652 C154.453386,10.5797101 155.313651,10.4347826 156.255846,10.4347826 C157.054663,10.4347826 157.792033,10.5565217 158.467956,10.8 C159.143878,11.0434783 159.696906,11.3681159 160.127038,11.773913 C160.439862,12.0690382 160.649765,12.4040244 160.756748,12.7788717 L160.786958,12.9043478 Z" id="Aperture"></path>
                    </g>
                    <g id="编组-4备份-3" transform="translate(44.000000, 0.000000)">
                        <path d="M0.351300851,56.1101052 C0.999016749,59.8418362 2.22837493,63.3515198 4.00353545,66.5175455 C6.31494763,70.6409397 9.50668876,74.1002451 13.3964748,76.6983217 C17.286191,79.2963982 21.7976793,80.9828815 26.6733416,81.6613601 C31.5490038,82.3398387 36.6934528,81.9966422 41.8129636,80.6511969 C46.9323419,79.306471 51.9264922,76.9861174 56.5099466,73.8225222 C61.0943088,70.6589269 65.177823,66.7146856 68.5279631,62.2135594 C71.8779046,57.7135124 74.4292605,52.7452936 76.0361439,47.5931014 C77.5193898,42.8373314 78.170798,38.0106951 77.9619084,33.3483648" id="路径" stroke="url(#linearGradient-1)" stroke-width="4.15927024"></path>
                        <path d="M68.5703509,38.1918762 C69.4034751,31.1239652 67.779238,24.4755273 63.8539561,19.4111893 C59.2507472,13.6425117 52.0368517,10.4017563 43.9082877,10.4017563 C35.7796624,10.4017563 27.6199677,13.6425117 21.333438,19.4111893 C15.1867993,25.1798053 11.422504,33.0037461 10.7594938,41.1618025" id="路径" stroke="url(#linearGradient-2)" stroke-width="3.46605853"></path>
                        <path d="M76.571564,25.5667942 C75.7691431,21.9596892 74.3726325,18.5452837 72.4354537,15.4489273 C70.0664347,11.5885008 66.9238237,8.286651 63.1849874,5.73463426 C59.4780393,3.15735876 55.2360518,1.39233363 50.6853466,0.554144557 C46.1454084,-0.29106296 41.3582757,-0.170815586 36.57507,0.924554181 C31.7735388,2.03453347 27.0422491,4.11687314 22.6358709,7.06215104 C18.1903567,10.03434 14.1452462,13.8161792 10.7322313,18.1887926 C7.28049425,22.5843002 4.54086435,27.4729176 2.68702705,32.5620528 C0.816883911,37.6564308 -0.101197596,42.8303349 0.00884533697,47.7723955" id="路径" stroke="url(#linearGradient-3)" stroke-width="4.15927024"></path>
                        <path d="M58.5850542,48.2545432 C59.2587829,46.8051594 59.8200693,45.3196249 60.2597669,43.8173278 C60.3962962,43.3512958 60.5210376,42.8836507 60.633715,42.4149712 C61.3941474,39.2518136 61.5834489,36.1033435 61.1801884,33.1495287 C60.7658145,30.1957139 59.7585326,27.4942722 58.2106408,25.1995216 C56.6463335,22.9047521 54.5716998,21.0616104 52.1083286,19.7752539 C49.6326685,18.4889509 46.8254104,17.7846558 43.8555678,17.7026175 C40.8848683,17.6205194 37.8227081,18.1623343 34.8530398,19.2970081 C31.894495,20.4317418 29.0961901,22.1371253 26.622002,24.3158073 C24.1644132,26.4945493 22.0799657,29.1038712 20.4843675,31.9949524" id="路径" stroke="url(#linearGradient-4)" stroke-width="2.77284683"></path>
                        <path d="M17.6172364,37.4626057 C16.9807046,38.9520534 16.4852859,40.4716576 16.1405306,41.9988358 C15.4668129,44.9834484 15.38175,47.9384805 15.8903167,50.6951696 C16.3988258,53.4518662 17.4909642,55.9562198 19.1043745,58.0653931 C20.7177596,60.1742358 22.8208119,61.8468257 25.2934462,62.9869231 C27.7660268,64.1275837 30.5598474,64.7130949 33.5152866,64.711319 C36.4706683,64.7095424 39.5298696,64.1196324 42.5181845,62.9753755 C45.5064458,61.8316819 48.3653129,60.1556958 50.9315404,58.0436971 C53.2898527,56.103289 55.3586978,53.8287917 57.0391051,51.3324838" id="路径" stroke="url(#linearGradient-5)" stroke-width="2.77284683"></path>
                        <path d="M8.45172892,48.0907769 C8.26292378,54.4782644 10.1869653,60.3839628 13.9988674,64.8851959 C18.6372684,70.3624611 25.6911034,73.3108282 33.6084068,73.0827012 C41.5257102,72.8545742 49.657971,69.468639 56.2162066,63.668757 C62.5686279,58.0510881 66.9403827,50.6150929 68.4424194,42.9076214" id="路径" stroke="url(#linearGradient-6)" stroke-width="3.46605853"></path>
                        <path d="M28.0666437,33.0693262 C26.027777,35.7389344 24.6377721,38.8604882 24.1209226,42.0289164 C23.4494717,46.1450936 24.3367139,50.003198 26.6044621,52.7545466 C28.893934,55.5059419 32.3773437,56.9248402 36.2712743,56.6995885 C40.1652049,56.4743369 44.1167961,54.6233872 47.2397757,51.5534422" id="路径" stroke="url(#linearGradient-7)" stroke-width="2.07963512"></path>
                        <path d="M50.247728,48.3574262 C52.0171313,45.9907698 53.2185792,43.2561878 53.6899168,40.4413643 C54.3671319,36.3970417 53.4816481,32.5183679 51.2286648,29.6586389 C48.9756473,26.7988664 45.5394529,25.1922648 41.6760365,25.1922648 C37.8125784,25.1922648 33.8383385,26.7988664 30.6275998,29.6585954" id="路径" stroke="url(#linearGradient-8)" stroke-width="2.07963512"></path>
                        <path d="M34.0203769,36.0897345 C32.918307,36.9641764 32.0482885,38.0922396 31.5181854,39.3618947 C30.7534168,41.1907306 30.7587691,43.1695209 31.5330561,44.8685782 C32.3073147,46.5714294 33.7871645,47.8603449 35.64695,48.451696 C37.5067356,49.0464519 39.5941095,48.8891915 41.449949,48.0086898" id="路径" stroke="url(#linearGradient-9)" stroke-width="1.38642341"></path>
                        <path d="M43.8172546,46.3929684 C44.8846685,45.7373105 45.8019859,44.8796574 46.4946837,43.8723901 C47.7396392,42.0174129 48.1567245,39.86844 47.6560357,37.955818 C47.155872,36.0616898 45.7807539,34.6271567 43.8334996,33.9779329 C41.88713,33.3601979 39.5267232,33.5324552 37.2698952,34.3992953" id="路径" stroke="url(#linearGradient-10)" stroke-width="1.38642341"></path>
                    </g>
                </g>
            </g>
        </g>
    </g>
</svg>