<svg width="293" height="240" viewBox="0 0 293 240" fill="none" xmlns="http://www.w3.org/2000/svg">
<path d="M188.252 31.7416L149.186 5.71347C148.398 5.16502 147.46 4.87103 146.5 4.87103C145.54 4.87103 144.602 5.16502 143.814 5.71347L104.748 31.7416C104.047 32.2111 103.476 32.8493 103.087 33.5973C102.739 34.2777 102.555 35.0304 102.55 35.7948V81.3563C102.554 82.1606 102.757 82.9515 103.14 83.6586C103.524 84.3657 104.076 84.9671 104.748 85.4095L143.814 111.486C144.606 112.027 145.542 112.316 146.5 112.316C147.458 112.316 148.394 112.027 149.186 111.486L188.252 85.4095C188.924 84.9671 189.476 84.3657 189.86 83.6586C190.243 82.9515 190.446 82.1606 190.45 81.3563V35.7948C190.445 35.0304 190.261 34.2777 189.913 33.5973C189.524 32.8493 188.953 32.2111 188.252 31.7416Z" fill="#93A4FF"/>
<path d="M90.5858 119.642L51.5192 93.6135C50.7309 93.065 49.7936 92.7711 48.8333 92.7711C47.873 92.7711 46.9358 93.065 46.1475 93.6135L7.08083 119.642C6.38047 120.111 5.80949 120.749 5.4205 121.497C5.07191 122.178 4.88791 122.93 4.88333 123.695V169.256C4.88749 170.061 5.09026 170.851 5.47363 171.559C5.85699 172.266 6.40908 172.867 7.08083 173.31L46.1475 199.387C46.9388 199.927 47.8749 200.216 48.8333 200.216C49.7917 200.216 50.7278 199.927 51.5192 199.387L90.5858 173.31C91.2576 172.867 91.8097 172.266 92.193 171.559C92.5764 170.851 92.7792 170.061 92.7833 169.256V123.695C92.7787 122.93 92.5947 122.178 92.2462 121.497C91.8572 120.749 91.2862 120.111 90.5858 119.642Z" fill="#93A4FF"/>
<path d="M287.58 121.497C287.191 120.749 286.62 120.111 285.919 119.642L246.853 93.6135C246.064 93.065 245.127 92.7711 244.167 92.7711C243.206 92.7711 242.269 93.065 241.481 93.6135L202.414 119.642C201.714 120.111 201.143 120.749 200.754 121.497C200.405 122.178 200.221 122.93 200.217 123.695V169.256C200.221 170.061 200.424 170.851 200.807 171.559C201.19 172.266 201.742 172.867 202.414 173.31L241.481 199.387C242.272 199.927 243.208 200.216 244.167 200.216C245.125 200.216 246.061 199.927 246.853 199.387L285.919 173.31C286.591 172.867 287.143 172.266 287.526 171.559C287.91 170.851 288.113 170.061 288.117 169.256V123.695C288.112 122.93 287.928 122.178 287.58 121.497Z" fill="#93A4FF"/>
<path d="M188.252 207.542L149.186 181.513C148.398 180.965 147.46 180.671 146.5 180.671C145.54 180.671 144.602 180.965 143.814 181.513L104.748 207.542C104.047 208.011 103.476 208.649 103.087 209.397C102.739 210.078 102.555 210.83 102.55 211.595V257.156C102.554 257.961 102.757 258.751 103.14 259.459C103.524 260.166 104.076 260.767 104.748 261.209L143.814 287.286C144.606 287.827 145.542 288.116 146.5 288.116C147.458 288.116 148.394 287.827 149.186 287.286L188.252 261.209C188.924 260.767 189.476 260.166 189.86 259.459C190.243 258.751 190.446 257.961 190.45 257.156V211.595C190.445 210.83 190.261 210.078 189.913 209.397C189.524 208.649 188.953 208.011 188.252 207.542Z" fill="#93A4FF"/>
<path d="M189.913 33.5973L146.5 63.4833L103.087 33.5973C103.476 32.8493 104.047 32.2111 104.748 31.7416L143.814 5.71347C144.602 5.16502 145.54 4.87103 146.5 4.87103C147.46 4.87103 148.398 5.16502 149.186 5.71347L188.252 31.7416C188.953 32.2111 189.524 32.8493 189.913 33.5973Z" fill="#B1C3FF"/>
<path d="M190.45 35.7949V81.3563C190.446 82.1607 190.243 82.9515 189.86 83.6586C189.476 84.3657 188.924 84.9671 188.252 85.4095L149.186 111.487C148.389 112.016 147.457 112.305 146.5 112.317V63.4833L189.913 33.5974C190.261 34.2777 190.445 35.0304 190.45 35.7949Z" fill="#7381FF"/>
<path d="M66.7161 116.897C65.6735 116.9 64.6573 116.57 63.8162 115.954C62.975 115.338 62.3532 114.468 62.0415 113.474C61.7299 112.479 61.7449 111.41 62.0843 110.424C62.4237 109.438 63.0697 108.587 63.9277 107.995L112.859 74.1192C113.386 73.754 113.98 73.4962 114.607 73.3605C115.233 73.2248 115.881 73.2139 116.512 73.3284C117.143 73.4429 117.745 73.6806 118.284 74.0278C118.823 74.3751 119.289 74.8251 119.654 75.3522C120.019 75.8794 120.277 76.4733 120.413 77.1001C120.548 77.7269 120.559 78.3742 120.445 79.0052C120.33 79.6362 120.093 80.2384 119.745 80.7776C119.398 81.3167 118.948 81.7822 118.421 82.1474L69.4898 116.028C68.6749 116.593 67.7075 116.896 66.7161 116.897Z" fill="#6361B9"/>
<path d="M224.682 115.784C223.689 115.783 222.72 115.48 221.904 114.915L174.579 82.1474C173.515 81.4098 172.787 80.2796 172.555 79.0052C172.324 77.7309 172.609 76.4169 173.346 75.3523C174.084 74.2877 175.214 73.5597 176.488 73.3284C177.763 73.0972 179.077 73.3816 180.141 74.1192L227.466 106.886C228.321 107.479 228.965 108.33 229.303 109.314C229.641 110.299 229.656 111.365 229.345 112.359C229.035 113.352 228.414 114.22 227.576 114.836C226.737 115.452 225.723 115.784 224.682 115.784Z" fill="#6361B9"/>
<path d="M92.2462 121.497L48.8333 151.383L5.42049 121.497C5.80948 120.749 6.38046 120.111 7.08082 119.642L46.1475 93.6135C46.9358 93.065 47.873 92.7711 48.8333 92.7711C49.7936 92.7711 50.7309 93.065 51.5192 93.6135L90.5858 119.642C91.2862 120.111 91.8572 120.749 92.2462 121.497Z" fill="#B1C3FF"/>
<path d="M92.7833 123.695V169.256C92.7792 170.061 92.5764 170.851 92.193 171.559C91.8097 172.266 91.2576 172.867 90.5858 173.309L51.5192 199.386C50.7226 199.916 49.7899 200.205 48.8333 200.217V151.383L92.2462 121.497C92.5947 122.178 92.7787 122.93 92.7833 123.695Z" fill="#7381FF"/>
<path d="M287.579 121.497L244.167 151.383L200.754 121.497C201.143 120.749 201.714 120.111 202.414 119.642L241.481 93.6135C242.269 93.065 243.206 92.7711 244.167 92.7711C245.127 92.7711 246.064 93.065 246.852 93.6135L285.919 119.642C286.62 120.111 287.19 120.749 287.579 121.497Z" fill="#B1C3FF"/>
<path d="M288.117 123.695V169.256C288.113 170.061 287.91 170.851 287.526 171.559C287.143 172.266 286.591 172.867 285.919 173.309L246.853 199.386C246.056 199.916 245.123 200.205 244.167 200.217V151.383L287.58 121.497C287.928 122.178 288.112 122.93 288.117 123.695Z" fill="#7381FF"/>
<path d="M121.351 209.104C120.358 209.105 119.389 208.804 118.572 208.24L70.4714 174.931C69.4402 174.18 68.7435 173.057 68.5301 171.799C68.3167 170.542 68.6036 169.251 69.3294 168.203C70.0552 167.154 71.1623 166.431 72.4142 166.188C73.666 165.945 74.9633 166.202 76.0286 166.903L124.134 200.217C124.99 200.809 125.634 201.66 125.972 202.644C126.31 203.629 126.325 204.695 126.014 205.689C125.703 206.682 125.083 207.55 124.244 208.166C123.405 208.783 122.392 209.115 121.351 209.114V209.104Z" fill="#6361B9"/>
<path d="M169.715 210.472C168.675 210.472 167.661 210.14 166.822 209.524C165.983 208.908 165.363 208.04 165.052 207.046C164.742 206.053 164.756 204.986 165.094 204.002C165.433 203.018 166.076 202.167 166.932 201.574L216.971 166.903C218.037 166.202 219.334 165.945 220.586 166.188C221.838 166.431 222.945 167.154 223.671 168.203C224.396 169.251 224.683 170.542 224.47 171.799C224.256 173.057 223.56 174.18 222.529 174.931L172.489 209.578C171.678 210.154 170.71 210.466 169.715 210.472Z" fill="#6361B9"/>
<path d="M189.913 209.397L146.5 239.283L103.087 209.397C103.476 208.649 104.047 208.011 104.748 207.542L143.814 181.513C144.602 180.965 145.54 180.671 146.5 180.671C147.46 180.671 148.398 180.965 149.186 181.513L188.252 207.542C188.953 208.011 189.524 208.649 189.913 209.397Z" fill="#B1C3FF"/>
<path d="M190.45 211.595V257.156C190.446 257.961 190.243 258.751 189.86 259.459C189.476 260.166 188.924 260.767 188.252 261.21L149.186 287.287C148.389 287.816 147.457 288.105 146.5 288.117V239.283L189.913 209.397C190.261 210.078 190.445 210.83 190.45 211.595Z" fill="#7381FF"/>
</svg>
