<svg width="320" height="309" viewBox="0 0 320 309" fill="none" xmlns="http://www.w3.org/2000/svg">
<path fill-rule="evenodd" clip-rule="evenodd" d="M7.16559 299.427C20.4237 314.625 36.0246 324.421 53.3632 329.65L45.2046 314.973C31.3409 312.149 18.649 306.623 7.16559 299.427ZM46.6907 141.668C93.2323 117.697 148.044 128.799 169.12 166.716C189.97 204.226 169.152 254.28 122.61 278.251C76.0685 302.222 21.2566 291.121 0.406974 253.611C-20.669 215.694 0.14913 165.639 46.6907 141.668ZM103.881 177.242C96.9688 167.691 86.2024 168.517 74.5293 173.48L66.8243 159.618L58.0979 164.113L65.5765 177.567C63.0831 178.851 61.0055 179.921 58.7388 181.613L51.0335 167.751L42.3071 172.246L50.0124 186.108C48.3503 186.964 46.2727 188.034 44.8368 189.298L44.6101 188.89L32.559 195.097L37.7714 204.475L44.0045 201.264C47.7442 199.338 49.7086 200.948 51.0307 202.365L59.8691 218.266L60.7004 217.838C60.7004 217.838 60.2847 218.052 59.8691 218.266L72.5601 241.098C73.0134 241.913 73.5042 243.758 71.0108 245.042C71.2375 245.45 64.5888 248.874 64.5888 248.874L68.5925 259.923L80.2279 253.931L86.461 250.72L94.3929 264.99L102.893 260.088L95.1874 246.226L101.836 242.802L109.541 256.664L118.268 252.169L110.563 238.307C124.843 229.379 132.776 220.573 126.544 206.476C121.898 195.234 113.777 193.124 104.333 195.366C107.96 190.35 108.791 184.153 103.881 177.242ZM108.6 213.62C114.492 224.22 95.1129 232.629 89.5216 236.033L78.8701 216.87C84.6881 213.874 102.481 202.612 108.6 213.62ZM89.7144 189.259C95.1535 199.044 79.0983 205.74 74.1116 208.308L64.5932 191.184C69.1637 188.83 84.0486 179.066 89.7144 189.259ZM37.8523 125.767C93.536 97.0878 159.265 111.482 185.327 158.369C211.162 204.848 187.132 265.473 131.449 294.153C75.7651 322.832 10.0359 308.437 -15.7994 261.958C-41.8612 215.072 -17.8313 154.447 37.8523 125.767ZM42.3847 133.921C93.4973 107.596 153.863 120.033 177.432 162.435C200.774 204.43 178.256 260.08 127.143 286.406C76.0296 312.731 15.8538 299.672 -7.48868 257.678C-31.0576 215.276 -8.72789 160.247 42.3847 133.921ZM65.5269 332.3C69.1533 333.055 72.7797 333.809 76.5954 333.942L67.5304 317.633C63.715 317.501 60.3149 317.154 56.9152 316.807L65.5269 332.3ZM87.3991 334.146C102.623 333.648 117.96 330.468 132.995 324.822L123.477 307.698C108.669 313.752 93.3313 316.931 78.1076 317.431L87.3991 334.146ZM141.117 321.163L149.428 316.883L139.91 299.759C138.89 300.808 137.227 301.665 135.981 302.307C134.735 302.949 133.488 303.591 131.599 304.039L141.117 321.163ZM157.513 312.194C170.319 303.501 181.578 292.982 190.456 281.068L181.164 264.351C172.701 276.052 161.443 286.57 147.994 295.07L157.513 312.194ZM196.274 272.302C198.277 269.173 199.637 265.85 201.412 262.313L192.8 246.821C190.798 249.949 189.211 252.865 187.209 255.994L196.274 272.302ZM205.455 251.316C210.556 234.529 210.746 216.6 204.968 197.55C205.231 210.525 202.548 223.969 197.296 236.638L205.455 251.316Z" fill="url(#paint0_linear_502_835)"/>
<path fill-rule="evenodd" clip-rule="evenodd" d="M209.455 194.277C217.912 204.041 227.734 210.129 238.653 213.422L233.515 204.179C224.603 202.452 216.681 199.101 209.455 194.277ZM234.594 94.3852C264.035 79.2215 298.641 86.2926 311.967 110.268C325.294 134.244 312.204 165.88 282.763 181.044C253.027 196.359 218.422 189.288 205.095 165.312C191.768 141.337 204.858 109.7 234.594 94.3852ZM240.695 105.362L238.685 148.755L265.582 150.135L279.02 127.981L240.695 105.362ZM267.67 153.89L240.772 152.51L276.661 170.067L281.107 131.736L267.67 153.89ZM228.974 84.2749C264.01 66.2301 305.895 75.4968 322.272 104.96C338.649 134.424 323.418 173.108 288.382 191.153C253.052 209.35 211.167 200.083 194.79 170.619C178.413 141.156 193.644 102.471 228.974 84.2749ZM231.704 89.1854C264.089 72.5053 302.334 80.6744 317.267 107.538C332.038 134.114 317.878 169.274 285.492 185.954C253.107 202.634 214.567 194.617 199.795 168.041C184.863 141.177 199.318 105.865 231.704 89.1854ZM246.227 215.466C248.636 215.712 251.045 215.957 253.454 216.203L247.834 206.093C245.425 205.847 243.177 205.891 240.768 205.645L246.227 215.466ZM260.064 216.514C269.806 216.327 279.923 214.088 288.943 210.557L283.002 199.87C273.688 203.552 263.865 205.639 254.284 206.115L260.064 216.514ZM294.403 208.117L299.408 205.539L293.467 194.851C292.584 195.306 291.995 195.609 291.112 196.064C290.229 196.519 289.345 196.974 288.462 197.429L294.403 208.117ZM304.547 202.521C312.898 197.105 320.151 190.397 325.718 182.699L319.938 172.3C314.21 179.709 306.957 186.417 298.606 191.833L304.547 202.521ZM329.118 177.232C330.537 175.015 331.367 173.102 332.491 171.036L327.032 161.215C325.907 163.281 324.917 164.905 323.498 167.122L329.118 177.232ZM335.221 163.685C338.14 153.265 338.622 141.87 334.582 129.832C334.741 138.295 333.242 146.499 330.083 154.442L335.221 163.685Z" fill="url(#paint1_linear_502_835)"/>
<defs>
<linearGradient id="paint0_linear_502_835" x1="137.116" y1="121.219" x2="-20.1385" y2="209.566" gradientUnits="userSpaceOnUse">
<stop stop-color="#9FB4FF"/>
<stop offset="0.479167" stop-color="#9EC5FF"/>
<stop offset="1" stop-color="#8176FF"/>
</linearGradient>
<linearGradient id="paint1_linear_502_835" x1="291.743" y1="81.465" x2="192.069" y2="137.462" gradientUnits="userSpaceOnUse">
<stop stop-color="#9FB4FF"/>
<stop offset="0.479167" stop-color="#9EC5FF"/>
<stop offset="1" stop-color="#8176FF"/>
</linearGradient>
</defs>
</svg>
