<svg width="24" height="19" viewBox="0 0 24 19" fill="none" xmlns="http://www.w3.org/2000/svg">
<path d="M20.3175 1.99173C18.7875 1.30173 17.1475 0.791729 15.4325 0.501729C15.4172 0.498797 15.4014 0.500687 15.3872 0.507137C15.3731 0.513587 15.3613 0.524278 15.3535 0.537729C15.1435 0.906729 14.9095 1.38773 14.7455 1.76773C12.9266 1.49597 11.0774 1.49597 9.25848 1.76773C9.07581 1.34659 8.86983 0.935954 8.64148 0.537729C8.63374 0.524112 8.62203 0.513179 8.60792 0.50639C8.5938 0.4996 8.57795 0.497276 8.56248 0.499729C6.84848 0.789729 5.20848 1.29973 3.67748 1.99073C3.66431 1.99625 3.65314 2.00568 3.64548 2.01773C0.533481 6.59273 -0.319519 11.0547 0.0994806 15.4607C0.100647 15.4715 0.103996 15.482 0.109326 15.4914C0.114655 15.5009 0.121853 15.5091 0.130481 15.5157C1.94687 16.8382 3.97282 17.8455 6.12348 18.4957C6.13847 18.5003 6.15451 18.5003 6.16949 18.4957C6.18448 18.4911 6.19772 18.482 6.20748 18.4697C6.67028 17.8508 7.08038 17.1942 7.43348 16.5067C7.43838 16.4973 7.44121 16.487 7.44176 16.4764C7.44232 16.4658 7.4406 16.4552 7.43671 16.4454C7.43282 16.4355 7.42686 16.4266 7.41923 16.4192C7.4116 16.4119 7.40248 16.4063 7.39248 16.4027C6.74649 16.1595 6.12057 15.8659 5.52048 15.5247C5.5097 15.5186 5.50061 15.5098 5.49404 15.4993C5.48746 15.4888 5.48361 15.4768 5.48281 15.4644C5.48202 15.452 5.48432 15.4396 5.48949 15.4283C5.49467 15.417 5.50257 15.4072 5.51248 15.3997C5.63848 15.3067 5.76448 15.2097 5.88448 15.1127C5.89528 15.104 5.90829 15.0985 5.92206 15.0967C5.93584 15.0949 5.94983 15.097 5.96248 15.1027C9.88948 16.8667 14.1425 16.8667 18.0235 15.1027C18.0362 15.0967 18.0503 15.0943 18.0643 15.0959C18.0782 15.0975 18.0915 15.103 18.1025 15.1117C18.2225 15.2097 18.3475 15.3067 18.4745 15.3997C18.4845 15.4071 18.4925 15.4167 18.4979 15.4279C18.5032 15.4391 18.5057 15.4515 18.5051 15.4638C18.5045 15.4762 18.5008 15.4883 18.4945 15.4989C18.4881 15.5095 18.4791 15.5184 18.4685 15.5247C17.8705 15.8687 17.2485 16.1597 16.5955 16.4017C16.5855 16.4054 16.5763 16.4111 16.5687 16.4186C16.561 16.426 16.5551 16.435 16.5512 16.4449C16.5473 16.4549 16.5456 16.4655 16.5462 16.4762C16.5467 16.4868 16.5496 16.4973 16.5545 16.5067C16.9145 17.1937 17.3265 17.8477 17.7795 18.4687C17.7889 18.4815 17.802 18.491 17.8171 18.496C17.8321 18.501 17.8483 18.5013 17.8635 18.4967C20.0178 17.8484 22.0471 16.8405 23.8655 15.5157C23.8744 15.5095 23.8818 15.5015 23.8873 15.4922C23.8928 15.4829 23.8963 15.4725 23.8975 15.4617C24.3975 10.3677 23.0595 5.94173 20.3485 2.01973C20.3418 2.00698 20.3308 1.99705 20.3175 1.99173ZM8.02048 12.7777C6.83848 12.7777 5.86348 11.7087 5.86348 10.3977C5.86348 9.08573 6.81948 8.01773 8.02048 8.01773C9.23048 8.01773 10.1965 9.09473 10.1775 10.3977C10.1775 11.7097 9.22148 12.7777 8.02048 12.7777V12.7777ZM15.9955 12.7777C14.8125 12.7777 13.8385 11.7087 13.8385 10.3977C13.8385 9.08573 14.7935 8.01773 15.9955 8.01773C17.2055 8.01773 18.1715 9.09473 18.1525 10.3977C18.1525 11.7097 17.2065 12.7777 15.9955 12.7777V12.7777Z" fill="white"/>
</svg>
