<svg width="131" height="36" viewBox="0 0 131 36" fill="none" xmlns="http://www.w3.org/2000/svg">
<g clip-path="url(#clip0_2_1218)">
<path d="M4.23656 23.8575C4.23656 23.8575 4.28538 24.0382 4.38303 24.3704C4.48556 24.7025 4.64667 25.181 4.91034 25.7719C5.42786 26.9392 6.39943 28.5511 8.0985 29.9382C9.77313 31.3299 12.185 32.4048 14.8898 32.678C16.2569 32.8247 17.6432 32.7806 19.0592 32.5609C20.4556 32.3458 21.8813 31.931 23.1993 31.3889C24.5325 30.8366 25.8017 30.1384 26.9539 29.3324C28.1306 28.5121 29.1512 27.623 30.0738 26.6512C30.9964 25.6743 31.7485 24.6877 32.4026 23.6476C33.0372 22.6317 33.5305 21.6157 33.8966 20.6533C34.258 19.7061 34.5117 18.7585 34.6487 17.9818C34.7951 17.1759 34.8536 16.4726 34.8684 15.8961C34.8926 14.7437 34.7853 14.1038 34.7853 14.1038L38.8228 13.7864C38.8228 13.7864 38.9012 14.6557 38.7642 16.1502C38.6913 16.8925 38.5543 17.7914 38.2955 18.7827C38.0321 19.8037 37.666 20.8535 37.1387 22.0013C36.6161 23.1347 35.9374 24.297 35.1077 25.4398C34.292 26.5634 33.2815 27.7061 32.1684 28.7267C31.0553 29.7524 29.7565 30.7246 28.4088 31.5254C27.037 32.3458 25.5625 33.0296 24.0248 33.5424C22.4722 34.0553 20.9048 34.3925 19.3133 34.5291C17.7361 34.6661 16.1297 34.6025 14.6556 34.3386C11.6626 33.8211 9.07494 32.4387 7.34661 30.7831C5.59872 29.1322 4.68573 27.3252 4.22192 26.0505C3.98756 25.4105 3.85088 24.8879 3.76786 24.5362C3.69464 24.1846 3.65558 23.9941 3.65558 23.9941L4.23656 23.8575Z" fill="url(#paint0_linear_2_1218)"/>
<path d="M31.2798 16.5898C31.2798 16.5898 31.3532 16.0528 31.2993 15.159C31.2455 14.2652 31.0211 12.9611 30.2643 11.6473C29.8689 10.9831 29.4049 10.3726 28.7164 9.79622C28.0771 9.24432 27.286 8.77055 26.4219 8.41403C25.5579 8.05746 24.6056 7.82794 23.6244 7.72537C23.1361 7.68139 22.6381 7.65211 22.1401 7.66675C21.8958 7.66675 21.6566 7.69118 21.3736 7.70582C21.1246 7.73513 20.8998 7.74976 20.6508 7.79375C18.6736 8.07214 16.794 8.8536 15.2852 9.87923C14.5187 10.4019 13.8794 10.9538 13.3178 11.5692C12.7757 12.1601 12.3218 12.795 11.9702 13.3958C11.2672 14.6071 10.9449 15.7207 10.8082 16.4922C10.6715 17.2689 10.6715 17.7134 10.6715 17.7134L7.10254 17.3762C7.10254 17.3762 7.166 16.751 7.45407 15.7011C7.74213 14.6608 8.31336 13.2053 9.37282 11.7254C9.90013 10.9831 10.5348 10.2456 11.3111 9.54714C12.063 8.86336 12.9661 8.20889 13.9231 7.6863C15.8515 6.61665 18.1366 5.90848 20.4557 5.79124C20.739 5.77172 21.0563 5.77172 21.3444 5.76685C21.598 5.7766 21.8958 5.7766 22.1889 5.80103C22.765 5.83035 23.3364 5.91824 23.8929 6.0208C25.0111 6.24057 26.0851 6.60689 27.0468 7.10509C28.0088 7.60813 28.8581 8.22353 29.5563 8.94638C30.235 9.6204 30.7771 10.4604 31.1284 11.2126C31.8461 12.7706 31.9488 14.1968 31.9195 15.1541C31.9047 15.6328 31.8609 16.0184 31.8219 16.2725C31.7829 16.5215 31.763 16.6534 31.763 16.6534L31.2798 16.5898Z" fill="url(#paint1_linear_2_1218)"/>
<path d="M35.4736 11.1493C35.4736 11.1493 35.4151 10.9783 35.3074 10.6511C35.1954 10.3336 35.0147 9.86472 34.7266 9.30307C34.165 8.18459 33.1448 6.63633 31.4748 5.27369C29.82 3.91589 27.5056 2.76327 24.8739 2.39695C23.5411 2.20157 22.1985 2.19182 20.8169 2.3774C19.4451 2.56302 18.0877 2.93422 16.7939 3.47632C14.2012 4.54593 11.9163 6.26517 10.1685 8.17483C8.41084 10.0894 7.16095 12.1944 6.42375 14.0602C6.23333 14.5339 6.08685 14.9686 5.94526 15.4326C5.81834 15.8527 5.71581 16.268 5.6328 16.6586C5.46681 17.44 5.38867 18.1187 5.3594 18.6756C5.30078 19.7891 5.38868 20.4046 5.38868 20.4046L0.994582 20.6001C0.994582 20.6001 0.94576 19.7259 1.15082 18.2506C1.25334 17.518 1.42913 16.634 1.71715 15.6622C1.86363 15.1786 2.03453 14.6707 2.24935 14.1335C2.44465 13.6401 2.68877 13.0785 2.95728 12.5363C4.04114 10.3336 5.69626 8.01364 7.90308 5.96235C10.1001 3.9159 12.8735 2.16738 15.9298 1.17591C17.4531 0.677749 19.0493 0.36517 20.6214 0.282118C22.1837 0.194226 23.7803 0.330982 25.2158 0.663074C28.1453 1.31266 30.5912 2.79254 32.2706 4.40918C33.9648 6.04049 34.9073 7.76456 35.4151 9.00024C35.6688 9.62052 35.8155 10.1236 35.9131 10.4704C35.9958 10.8171 36.0446 10.9978 36.0446 10.9978L35.4736 11.1493Z" fill="url(#paint2_linear_2_1218)"/>
<path d="M25.4161 20.2334C25.4161 20.2334 25.548 19.9454 25.7724 19.4423C25.8309 19.3151 25.8946 19.1785 25.9578 19.027C26.007 18.8807 26.0604 18.7195 26.119 18.5532C26.2263 18.1969 26.3192 17.7914 26.3777 17.3469C26.4952 16.4582 26.4413 15.3933 26.0167 14.4164C25.6065 13.4445 24.7861 12.6142 23.7804 12.204C22.7746 11.779 21.6323 11.74 20.6363 11.9598C19.611 12.1795 18.7711 12.6289 18.1021 13.1173C17.448 13.6008 16.9941 14.1136 16.7061 14.4848C16.4181 14.8609 16.2811 15.0905 16.2811 15.0905L14.1673 13.5862C14.1673 13.5862 14.387 13.2931 14.8261 12.8389C15.2706 12.3847 15.9396 11.779 16.8817 11.232C17.7997 10.6997 19.0252 10.221 20.3529 10.094C21.6908 9.95725 23.1797 10.1673 24.4493 10.8804C25.7287 11.5788 26.6658 12.7998 27.0369 14.0502C27.4225 15.3102 27.33 16.5265 27.1005 17.4788C26.9831 17.9623 26.8367 18.3873 26.6806 18.7534C26.5877 18.9587 26.5389 19.0758 26.4363 19.2713C26.3535 19.413 26.2755 19.5449 26.2021 19.6667C25.9238 20.1405 25.7626 20.4141 25.7626 20.4141L25.4161 20.2334Z" fill="url(#paint3_linear_2_1218)"/>
<path d="M9.20679 19.9554C9.20679 19.9554 9.21167 20.0823 9.21655 20.3215C9.22631 20.5514 9.24586 20.8835 9.3142 21.3081C9.44112 22.1484 9.7585 23.3595 10.5641 24.5561C10.9498 25.1372 11.5112 25.7578 12.1313 26.2413C12.7709 26.7491 13.5324 27.1741 14.3723 27.477C15.2122 27.7748 16.125 27.9605 17.0625 28.0093C17.9851 28.0679 18.9667 27.975 19.8893 27.7896C21.7592 27.4036 23.517 26.5684 24.9377 25.5185C25.2991 25.2594 25.6308 24.9811 25.9532 24.7028L26.4317 24.263L26.8419 23.843C27.3886 23.2568 27.8523 22.6613 28.2281 22.0801C28.9802 20.9225 29.4002 19.8676 29.6148 19.1202C29.8345 18.3728 29.8884 17.9431 29.8884 17.9431L32.9104 18.5683C32.9104 18.5683 32.7882 19.1346 32.4319 20.0725C32.0806 21.0053 31.4456 22.285 30.4204 23.6136C29.9079 24.2778 29.3026 24.9468 28.5993 25.5868C28.4139 25.748 28.2281 25.9139 28.0381 26.0751C27.8523 26.2218 27.6669 26.3682 27.4765 26.5196C27.076 26.8174 26.6611 27.1105 26.2217 27.379C24.474 28.4683 22.3743 29.2692 20.1922 29.5525C19.0935 29.6844 18.0047 29.7039 16.9208 29.5576C15.8468 29.4206 14.8067 29.1279 13.8696 28.7029C12.9321 28.2778 12.0922 27.7209 11.4087 27.0812C10.6959 26.4267 10.1881 25.7527 9.78289 25.0396C8.98218 23.6284 8.75274 22.2901 8.68928 21.3862C8.65509 20.9323 8.65996 20.5658 8.66972 20.3215C8.68436 20.0823 8.68928 19.9601 8.68928 19.9601L9.20679 19.9554Z" fill="url(#paint4_linear_2_1218)"/>
<path d="M18.8296 15.735C18.8296 15.735 18.4296 16.0476 18.0682 16.6729C17.7068 17.2735 17.5117 18.2797 17.9656 18.91C18.1611 19.1882 18.4784 19.3982 18.8055 19.4716C18.8835 19.4911 18.9811 19.5056 19.0447 19.5106C19.1911 19.5301 19.2008 19.5204 19.2984 19.5204C19.4596 19.5153 19.611 19.4911 19.7527 19.4568C20.3139 19.3151 20.6265 19.0563 20.6265 19.0563L21.5542 20.8001C21.5542 20.8001 21.4028 20.8731 21.1292 20.966C20.856 21.0589 20.4556 21.1713 19.9529 21.1955C19.7039 21.2052 19.4303 21.2006 19.1423 21.1518C19.0154 21.1323 18.8004 21.0835 18.7176 21.0538C18.5514 21.005 18.4199 20.9562 18.2633 20.8829C17.6775 20.6143 17.1307 20.1163 16.8525 19.4568C16.584 18.8366 16.5984 18.1333 16.7549 17.5861C16.911 17.0245 17.1893 16.58 17.4629 16.2479C17.7361 15.911 18.0097 15.6862 18.2048 15.5348C18.405 15.3835 18.5221 15.3201 18.5221 15.3201L18.8296 15.735Z" fill="url(#paint5_linear_2_1218)"/>
<path d="M21.6959 19.296C21.6959 19.296 22.0912 18.9834 22.4085 18.3629C22.5646 18.0553 22.6868 17.6693 22.6915 17.2786C22.7063 16.8833 22.5939 16.4875 22.3742 16.1898C22.1595 15.8916 21.8469 15.7011 21.5249 15.618C21.3735 15.579 21.1881 15.5548 21.0464 15.5548C20.8899 15.5548 20.7436 15.5743 20.607 15.5985C20.0602 15.716 19.7573 15.9501 19.7573 15.9501L18.8835 14.1187C18.8835 14.1187 19.0349 14.0552 19.3132 13.982C19.5915 13.9087 19.9966 13.8256 20.4946 13.8305C20.7436 13.8354 21.0121 13.8598 21.2904 13.9233C21.5835 13.9917 21.8469 14.0796 22.14 14.231C22.7016 14.5143 23.2094 15.0174 23.4682 15.618C23.7316 16.214 23.7511 16.8685 23.6192 17.4059C23.4923 17.9527 23.2336 18.3921 22.9748 18.7196C22.7161 19.0466 22.4476 19.2714 22.2571 19.4131C22.062 19.5548 21.9496 19.618 21.9496 19.618L21.6959 19.296Z" fill="url(#paint6_linear_2_1218)"/>
<path d="M13.8694 15.6331C13.8694 15.6331 13.0978 16.8246 12.8586 17.9236C12.6193 19.0227 12.3069 21.1372 13.9814 23.1008C13.9814 23.1008 15.5828 25.1814 18.8834 25.2009C18.8834 25.2009 21.1342 25.3328 23.6047 23.9652C23.6047 23.9652 25.2794 23.0176 26.1286 22.0212L23.9512 20.1803C23.9512 20.1803 23.004 21.5623 21.2513 22.4318C21.2513 22.4318 18.732 23.8481 16.281 22.8174C16.281 22.8174 14.04 22.1141 13.6399 19.1936C13.6399 19.1936 13.4932 17.113 14.2792 15.8184L13.8694 15.6331Z" fill="url(#paint7_linear_2_1218)"/>
</g>
<path d="M127.787 12.1846C128.456 12.3107 128.96 12.5095 129.319 12.7762L129.324 12.7811L129.334 12.7859C129.688 13.0236 129.94 13.363 130.085 13.8092L130.09 13.814V13.8237C130.26 14.2747 130.352 14.8809 130.352 15.6568C130.352 16.2726 130.245 16.7721 130.051 17.1794V17.1843C129.882 17.5577 129.586 17.8778 129.135 18.1445C128.674 18.4112 128.039 18.6294 127.205 18.7749C126.356 18.8961 125.299 18.9689 124.024 18.9689H123.539V20.7001L123.975 20.7437C124.213 20.7728 124.446 20.7922 124.688 20.8068C124.93 20.8213 125.173 20.8262 125.411 20.8262C126.72 20.8262 128.044 20.637 129.368 20.2685L129.751 22.6738C128.204 23.052 126.681 23.2411 125.183 23.2411C123.093 23.2411 121.686 22.7562 120.857 21.893C120.018 21.0056 119.548 19.609 119.548 17.611C119.548 15.6083 120.013 14.2214 120.857 13.3533V13.3485C121.701 12.4707 123.102 11.981 125.183 11.981C126.24 11.981 127.103 12.0537 127.787 12.1846ZM127.045 15.7974V14.3717H125.619C125.042 14.3717 124.542 14.4299 124.188 14.5899H124.184C123.679 14.8227 123.539 15.3512 123.539 15.8362V17.2667H124.964C125.532 17.2667 126.036 17.2134 126.38 17.0485C126.89 16.8157 127.045 16.3017 127.045 15.7974Z" fill="white"/>
<path d="M118.384 12.083L118.592 15.4194C118.515 15.4339 118.437 15.4484 118.355 15.463C118.088 15.5212 117.812 15.5842 117.53 15.6667H117.525H117.521C117.239 15.754 116.977 15.8606 116.73 15.9916C116.468 16.1128 116.245 16.2728 116.075 16.4765L115.964 16.6123V22.9019H112.317V12.3206H113.937L115.397 13.7997L115.741 13.4845C116.463 12.8153 117.346 12.3449 118.384 12.083Z" fill="white"/>
<path d="M110.004 12.3206V22.8921H108.38L106.794 21.3549L106.459 21.7574C105.649 22.7272 104.481 23.2364 102.89 23.2364C101.571 23.2364 100.718 22.9552 100.218 22.4993C99.7332 22.0386 99.4325 21.2239 99.4325 19.9098V12.3206H103.079V20.8408H104.277C104.844 20.8408 105.349 20.7875 105.693 20.6226C106.202 20.3899 106.357 19.8758 106.357 19.3715V12.3206H110.004Z" fill="white"/>
<path d="M105.152 23.3091C105.152 23.3164 105.144 23.3164 105.152 23.3091C105.144 23.3164 105.144 23.3091 105.152 23.3091Z" fill="white"/>
<path d="M97.4152 20.666C97.5025 20.6757 97.5898 20.6854 97.682 20.6951L97.5268 23.144C96.6878 23.1343 95.9847 23.1052 95.4173 23.0567C94.7384 23.0034 94.2874 22.921 94.0304 22.8288C93.5358 22.6494 93.2012 22.4409 92.9878 22.2227C92.8181 22.0384 92.6968 21.7232 92.6968 21.2043V14.3328H91.5427V12.3203H92.6968V10.366L96.3435 9.45435V12.3203H97.939V14.3328H96.3435V20.4672L96.7315 20.5448C96.9303 20.5836 97.1437 20.6224 97.3861 20.666H97.4007H97.4152Z" fill="white"/>
<path d="M90.0539 15.463C89.7871 15.5212 89.5107 15.5842 89.2246 15.6667H89.2198C88.9385 15.754 88.6766 15.8606 88.4293 15.9916C88.1723 16.1128 87.9444 16.2728 87.7747 16.4765L87.6631 16.6123V22.9019H84.0164V12.3206H85.6361L87.0958 13.7997L87.4401 13.4845C88.1626 12.8153 89.0452 12.3449 90.0829 12.083L90.2915 15.4194C90.2139 15.4339 90.1363 15.4484 90.0539 15.463Z" fill="white"/>
<path d="M79.72 12.1846C80.3941 12.3107 80.8984 12.5095 81.2572 12.7762L81.2621 12.7811L81.2718 12.7859C81.6258 13.0236 81.8779 13.363 82.0234 13.8092L82.0283 13.814V13.8237C82.198 14.2747 82.2901 14.8809 82.2901 15.6568C82.2901 16.2726 82.1835 16.7721 81.9895 17.1794V17.1843C81.8198 17.5577 81.5239 17.8778 81.073 18.1445C80.6074 18.4112 79.9722 18.6294 79.1429 18.7749C78.2943 18.8961 77.242 18.9689 75.9618 18.9689H75.4768V20.7001L75.9133 20.7437C76.1509 20.7728 76.3836 20.7922 76.6261 20.8068C76.8686 20.8213 77.111 20.8262 77.3487 20.8262C78.6628 20.8262 79.9819 20.637 81.3057 20.2685L81.6888 22.6738C80.1419 23.052 78.6192 23.2411 77.1207 23.2411C75.0307 23.2411 73.6244 22.7562 72.7951 21.893C71.9562 21.0056 71.4858 19.609 71.4858 17.611C71.4858 15.6083 71.9513 14.2214 72.7951 13.3533V13.3485C73.6389 12.4707 75.0404 11.981 77.1207 11.981C78.1779 11.981 79.0411 12.0537 79.72 12.1846ZM78.9829 15.7974V14.3717H77.5572C76.9801 14.3717 76.4806 14.4299 76.1266 14.5899L76.1169 14.5948C75.6271 14.8227 75.4768 15.3464 75.4768 15.8362V17.2667H76.9025C77.4699 17.2667 77.9742 17.2134 78.3185 17.0485C78.8277 16.8157 78.9829 16.3017 78.9829 15.7974Z" fill="white"/>
<path d="M69.8565 15.3997C70.0262 16.1029 70.1135 16.84 70.1135 17.611C70.1135 18.3578 70.0408 19.061 69.8904 19.7156C69.7498 20.3557 69.5122 20.9134 69.1921 21.3983C68.8818 21.8542 68.4696 22.2179 67.9458 22.4894C67.4415 22.7513 66.7917 22.8968 65.977 22.8968H62.8395V26.3932L59.1879 26.6647V12.3204H60.764L61.8745 13.8285L62.2624 13.2611C62.8104 12.4562 63.8675 11.9761 65.6327 11.9761C66.4959 11.9761 67.1893 12.1313 67.7325 12.4174C68.2998 12.718 68.7411 13.1108 69.0757 13.6103L69.0806 13.6152L69.0854 13.62C69.4394 14.1146 69.6964 14.7014 69.8516 15.39L69.8565 15.3997ZM66.1128 19.3713V14.3668H64.915C64.5658 14.3668 64.2797 14.3813 64.047 14.4104C63.7366 14.4444 63.4699 14.5802 63.2468 14.779C62.9656 15.0166 62.8492 15.3512 62.8346 15.7004V15.7101V20.8407H64.0324C64.5998 20.8407 65.1041 20.7873 65.4484 20.6224C65.9576 20.3897 66.1128 19.8756 66.1128 19.3713Z" fill="white"/>
<path d="M54.736 9.43506L58.2179 22.892H54.3578L53.8195 20.6031H49.2417L48.718 22.892H44.8628L48.3446 9.43506H54.736ZM53.1988 17.8972L52.0592 12.8878H51.036L49.8673 17.8972H53.1988Z" fill="white"/>
<defs>
<linearGradient id="paint0_linear_2_1218" x1="36.4136" y1="13.8863" x2="5.9083" y2="5.06931" gradientUnits="userSpaceOnUse">
<stop stop-color="#D8D8D8"/>
<stop offset="0.288174" stop-color="#919191"/>
<stop offset="1" stop-color="#444444"/>
</linearGradient>
<linearGradient id="paint1_linear_2_1218" x1="8.63444" y1="17.6127" x2="23.5893" y2="27.7484" gradientUnits="userSpaceOnUse">
<stop stop-color="#D8D8D8"/>
<stop offset="0.269639" stop-color="#919191"/>
<stop offset="1" stop-color="#444444"/>
</linearGradient>
<linearGradient id="paint2_linear_2_1218" x1="3.15301" y1="20.4284" x2="27.2301" y2="29.0283" gradientUnits="userSpaceOnUse">
<stop stop-color="#D8D8D8"/>
<stop offset="0.288174" stop-color="#919191"/>
<stop offset="1" stop-color="#444444"/>
</linearGradient>
<linearGradient id="paint3_linear_2_1218" x1="14.2399" y1="15.2493" x2="18.9073" y2="23.2358" gradientUnits="userSpaceOnUse">
<stop stop-color="#D8D8D8"/>
<stop offset="0.331064" stop-color="#919191"/>
<stop offset="1" stop-color="#444444"/>
</linearGradient>
<linearGradient id="paint4_linear_2_1218" x1="31.8168" y1="18.2479" x2="18.0078" y2="7.10692" gradientUnits="userSpaceOnUse">
<stop stop-color="#D8D8D8"/>
<stop offset="0.288174" stop-color="#919191"/>
<stop offset="1" stop-color="#444444"/>
</linearGradient>
<linearGradient id="paint5_linear_2_1218" x1="22.0819" y1="19.6105" x2="22.1346" y2="16.1593" gradientUnits="userSpaceOnUse">
<stop stop-color="#D8D8D8"/>
<stop offset="0.500549" stop-color="#919191"/>
<stop offset="1" stop-color="#444444"/>
</linearGradient>
<linearGradient id="paint6_linear_2_1218" x1="17.4847" y1="15.522" x2="17.9316" y2="19.2991" gradientUnits="userSpaceOnUse">
<stop stop-color="#D8D8D8"/>
<stop offset="0.551338" stop-color="#919191"/>
<stop offset="1" stop-color="#444444"/>
</linearGradient>
<linearGradient id="paint7_linear_2_1218" x1="24.7857" y1="19.8836" x2="19.1098" y2="11.945" gradientUnits="userSpaceOnUse">
<stop stop-color="#D8D8D8"/>
<stop offset="0.424241" stop-color="#919191"/>
<stop offset="1" stop-color="#444444"/>
</linearGradient>
<clipPath id="clip0_2_1218">
<rect width="37.8576" height="34.345" fill="white" transform="translate(0.989868 0.257568)"/>
</clipPath>
</defs>
</svg>
