<svg width="28" height="26" viewBox="0 0 28 26" fill="none" xmlns="http://www.w3.org/2000/svg">
<path d="M25.4433 0.405905L21.6703 0.402954L22.7892 3.85251L15.6814 9.0084L21.3085 13.1015L27.9883 8.2556L25.4433 0.405905Z" fill="#FFC800"/>
<path d="M5.19466 3.84072L6.31507 0.402979L2.55526 0.400024L0 8.24676L6.6723 13.1015L12.3069 9.01432L5.19466 3.84072Z" fill="#E1AA00"/>
<path d="M13.3476 4.55805L7.63773 0.404419L6.67526 3.36096L13.3476 8.21574L13.3505 8.21426V4.5551L13.3476 4.55805Z" fill="#E1AA00"/>
<path d="M20.3506 0.408813L14.6333 4.55507V8.21422L21.3101 3.37128L20.3506 0.408813Z" fill="#FFC800"/>
<path d="M6.68854 14.644L6.67526 14.6868L13.3476 19.5431L13.3505 19.5401V9.8114L6.68854 14.644Z" fill="#E1AA00"/>
<path d="M21.2938 14.647L14.6407 9.80554L14.6333 9.81144V19.5401L21.3101 14.6972L21.2938 14.647Z" fill="#FFC800"/>
<path d="M13.3461 21.0974L7.91525 17.146L6.67526 20.9543L13.3476 25.809L13.3505 25.8061V21.0945L13.3461 21.0974Z" fill="#E1AA00"/>
<path d="M20.0731 17.1475L14.6333 21.0945V25.8061L21.3101 20.9631L20.0731 17.1475Z" fill="#FFC800"/>
</svg>
