<svg width="23" height="23" viewBox="0 0 23 23" fill="none" xmlns="http://www.w3.org/2000/svg">
<path d="M22.6545 1.72535L19.4171 20.0114C19.375 20.2406 19.2377 20.4199 19.0119 20.547C18.8945 20.6075 18.7617 20.6429 18.6199 20.6429C18.5269 20.6429 18.4251 20.6221 18.3166 20.5825L13.0729 18.5648C12.7851 18.4544 12.4551 18.5336 12.2581 18.7587L9.52775 21.8935C9.37496 22.077 9.16681 22.1666 8.90773 22.1666C8.79922 22.1666 8.70622 22.1499 8.6265 22.1186C8.46707 22.0624 8.33863 21.9727 8.2412 21.8393C8.14377 21.708 8.09284 21.5642 8.09284 21.4037V17.7269C8.09284 17.4184 8.20577 17.1225 8.41171 16.8828L19.0207 4.64136L5.66589 15.5217C5.56403 15.603 5.42231 15.6259 5.30052 15.578L0.506416 13.7291C0.19419 13.6187 0.0236841 13.4019 0.00154043 13.0726C-0.0161745 12.7557 0.118902 12.5202 0.40677 12.3681L21.4521 0.939554C21.5805 0.866602 21.7134 0.833252 21.8573 0.833252C22.0279 0.833252 22.1806 0.879108 22.3157 0.96665C22.5969 1.15424 22.7054 1.41062 22.6545 1.72535Z" fill="white"/>
</svg>
