<svg width="235" height="237" viewBox="0 0 235 237" fill="none" xmlns="http://www.w3.org/2000/svg">
<g clip-path="url(#clip0_501_767)">
<path d="M96 278C172.768 278 235 215.768 235 139C235 62.2324 172.768 0 96 0C19.2324 0 -43 62.2324 -43 139C-43 215.768 19.2324 278 96 278Z" fill="#7291FF"/>
<path d="M-27.4225 148.586C-27.4225 165.927 -24.2471 182.527 -18.4462 197.834C-16.1245 203.961 -24.9684 207.83 -27.9413 201.992C-37.379 183.459 -42.782 162.526 -42.9935 140.352C-43.734 62.6416 18.6824 -0.216924 96.3971 0.000562671C102.965 0.0191359 103.493 9.62751 96.9657 10.3483C30.5357 17.6871 -27.4225 72.827 -27.4225 148.586Z" fill="#A8B1FF"/>
<path d="M96 252.836C158.87 252.836 209.836 201.87 209.836 139C209.836 76.13 158.87 25.1638 96 25.1638C33.13 25.1638 -17.8362 76.13 -17.8362 139C-17.8362 201.87 33.13 252.836 96 252.836Z" fill="#A8B1FF"/>
<path d="M-6.35492 188.875C-14.1605 172.888 -18.3311 154.802 -17.7895 135.692C-16.0304 73.655 35.8406 23.9439 98.3073 25.1866C105.519 25.3297 106.128 35.8452 98.9783 36.7937C31.9635 45.6795 -15.0676 119.747 4.45892 184.645C6.50557 191.447 -3.23821 195.259 -6.35492 188.875Z" fill="#D7DFFC"/>
<path d="M70.8739 221.082C66.8357 215.167 68.5876 206.722 67.9891 201.706C67.6751 199.077 69.5504 196.692 72.1789 196.378C74.8163 196.063 77.1924 197.94 77.5076 200.568C78.1187 205.679 76.9684 213.007 78.7921 215.678C79.743 217.071 81.2007 217.22 82.1569 216.923C83.0059 216.661 84.0178 215.923 84.0178 213.893C84.0178 211.246 86.1639 209.1 88.8109 209.1C91.4579 209.1 93.604 211.246 93.604 213.893C93.6034 226.984 77.67 231.041 70.8739 221.082Z" fill="#7291FF"/>
<path d="M162.651 89.0019C161.267 89.0019 159.895 88.4064 158.947 87.2548C137.3 60.9521 102.008 51.1214 70.3036 61.6531C67.7908 62.4871 65.0779 61.1276 64.2445 58.6154C63.4093 56.1033 64.7699 53.3904 67.2821 52.5558C102.596 40.8252 142.064 51.657 166.349 81.1634C168.937 84.3071 166.654 89.0013 162.651 89.0019Z" fill="#7291FF"/>
<path d="M16.5088 177.376C14.6412 177.376 12.866 176.278 12.0919 174.449C1.93474 150.441 2.32957 122.203 14.8 97.7247C16.0013 95.3659 18.8879 94.4289 21.2462 95.6296C23.6056 96.8308 24.5432 99.7175 23.3413 102.076C12.1992 123.95 11.8319 149.232 20.9208 170.714C22.2635 173.887 19.9131 177.376 16.5088 177.376Z" fill="#7291FF"/>
<path d="M78.0019 103.549C77.8222 110.163 79.4937 115.795 81.399 120.031C74.3052 122.542 69.2006 125.729 65.4859 128.875L41.0039 78.269C39.8769 75.9389 42.7324 73.7239 44.709 75.3955L78.0019 103.549Z" fill="#7291FF"/>
<path d="M168.502 175.793C168.94 189.555 162.011 202.089 148.982 207.673C150.21 204.989 151.93 200.328 151.582 194.66C150.623 178.974 134.872 172.887 134.015 157.573C133.883 155.207 134.057 151.816 135.609 147.586C148.377 152.205 163.822 154.925 168.502 175.793Z" fill="#5269E2"/>
<path d="M147.029 104.22C159.227 114.897 159.958 130.013 160.042 132.847C158.262 131.043 155.458 128.539 151.582 126.34C136.765 117.946 127.802 126.351 117.162 119.468C109.292 114.377 109.505 106.371 103.603 98.726C118.569 92.0635 135.579 94.2025 147.029 104.22Z" fill="#5269E2"/>
<path d="M160.042 132.847C172.965 143.829 175.691 161.144 168.502 175.793C161.668 145.317 131.873 153.543 121.002 138.053C118.611 134.65 116.239 129.042 117.156 119.474L117.162 119.468C127.594 126.314 136.805 117.968 151.582 126.34C155.458 128.539 158.262 131.043 160.042 132.847Z" fill="#7291FF"/>
<path d="M81.399 120.031C76.3213 108.742 77.0978 96.7446 82.6093 86.6533C86.2161 87.3483 91.5843 88.8521 96.9287 92.5069C110.259 101.613 107.056 113.025 117.162 119.468L117.156 119.474C116.239 129.042 118.611 134.65 121.002 138.053C124.429 142.936 129.737 145.459 135.609 147.586C134.057 151.816 133.883 155.207 134.015 157.573C134.872 172.887 150.623 178.974 151.582 194.66C151.93 200.328 150.21 204.989 148.982 207.673C138.076 215.186 125.778 220.881 112.591 224.293C109.37 225.127 106.279 222.538 106.595 219.226C107.657 208.106 105.628 196.765 100.194 186.332C80.7939 205.199 57.745 208.518 48.7759 200.519C45.936 197.979 39.2137 189.423 39.669 179.046C39.9446 172.678 42.5569 171.467 50.0761 155.62C56.7565 141.552 55.9177 139.923 59.836 134.8C65.2636 127.725 72.8613 123.053 81.399 120.031Z" fill="#D7DFFC"/>
<path d="M78.051 157.814C74.3184 157.814 71.9686 153.66 74.0111 150.448C77.1487 145.515 82.4757 142.516 88.349 142.369C91.0415 142.311 93.1955 144.429 93.2602 147.04C93.3267 149.687 91.2351 151.886 88.5887 151.952C85.9027 152.019 83.5218 153.357 82.1006 155.592C81.1875 157.028 79.6364 157.814 78.051 157.814Z" fill="#7291FF"/>
</g>
<defs>
<clipPath id="clip0_501_767">
<rect width="278" height="278" fill="white" transform="translate(-43)"/>
</clipPath>
</defs>
</svg>
